<svg width="78" height="75" viewBox="0 0 78 75" fill="none" xmlns="http://www.w3.org/2000/svg">
<g filter="url(#filter0_d)">
<path d="M36.2874 4.35665L37.5648 12.7113L30.5172 25.8735L23.7789 27.0348L36.2874 4.35665Z" fill="url(#paint0_linear)"/>
<path d="M42.2458 43.3457L40.75 35.3716L30.2158 25.9542L23.7764 27.0354L42.2458 43.3457Z" fill="url(#paint1_linear)"/>
<path d="M37.5624 12.712L36.2851 4.35733L55.594 21.409L47.9587 22.8106L37.5624 12.712Z" fill="url(#paint2_linear)"/>
<path d="M47.9588 22.8105L40.7502 35.3716L42.246 43.3456L55.594 21.4088L47.9588 22.8105Z" fill="url(#paint3_linear)"/>
<path d="M37.5621 12.7117L30.2157 25.954L40.7499 35.3715L47.9585 22.8104L37.5621 12.7117Z" fill="url(#paint4_linear)"/>
</g>
<g filter="url(#filter1_d)">
<path d="M76 67L2 70.5V52.5L76 48V67Z" fill="url(#paint5_linear)"/>
</g>
<path d="M78 69L76 67V48L78 50V69Z" fill="#FB6109"/>
<g filter="url(#filter2_d)">
<path d="M20.8336 62.1084L20.9886 64.9988L18.9349 65.1089L18.4782 56.5899L21.8776 56.4076C22.529 56.3727 23.1109 56.4628 23.6231 56.6779C24.1391 56.8889 24.5455 57.2094 24.8423 57.6394C25.1429 58.0653 25.3083 58.5591 25.3384 59.1208C25.3829 59.9517 25.1202 60.6327 24.5501 61.164C23.9838 61.6912 23.1818 61.9825 22.1442 62.0382L20.8336 62.1084ZM20.7486 60.5228L22.0944 60.4507C22.4922 60.4293 22.7892 60.3137 22.9853 60.1037C23.1852 59.8934 23.2755 59.6069 23.256 59.2442C23.2347 58.8463 23.1104 58.5342 22.8831 58.3077C22.6558 58.0813 22.3568 57.976 21.986 57.992L20.6169 58.0654L20.7486 60.5228ZM33.7354 60.2198C33.7799 61.0506 33.6653 61.7942 33.3914 62.4504C33.1176 63.1066 32.7052 63.6236 32.1543 64.0013C31.6071 64.3748 30.9707 64.5811 30.2452 64.62C29.5197 64.6589 28.8672 64.5276 28.2877 64.2261C27.7081 63.9208 27.2436 63.4665 26.8944 62.8632C26.5491 62.2597 26.3471 61.5566 26.2885 60.7539L26.2628 60.2742C26.218 59.4394 26.3307 58.696 26.6009 58.0439C26.8748 57.3877 27.2871 56.8707 27.838 56.493C28.3928 56.1151 29.0349 55.9066 29.7643 55.8675C30.4859 55.8289 31.1388 55.966 31.7227 56.2789C32.3067 56.5919 32.7718 57.0579 33.1179 57.6769C33.4678 58.2919 33.6666 59.0089 33.7144 59.8278L33.7354 60.2198ZM31.6275 59.9749C31.5821 59.1284 31.4053 58.4944 31.0972 58.0728C30.7927 57.6471 30.3772 57.4483 29.8506 57.4766C28.8208 57.5318 28.3181 58.3332 28.3423 59.881L28.3701 60.5074C28.4148 61.3421 28.5877 61.9764 28.8887 62.4101C29.1897 62.8438 29.6132 63.0461 30.1593 63.0168C30.6781 62.989 31.0661 62.7472 31.3233 62.2913C31.5805 61.8355 31.6889 61.194 31.6485 60.3669L31.6275 59.9749ZM37.2016 64.1297L35.1538 64.2395L34.6971 55.7205L36.745 55.6107L37.2016 64.1297ZM45.744 63.6718L43.702 63.7813L40.3988 58.6421L40.6829 63.9431L38.6292 64.0532L38.1726 55.5342L40.2263 55.4241L43.5237 60.5636L43.2395 55.2626L45.2874 55.1528L45.744 63.6718ZM53.1834 56.3197L50.6266 56.4568L50.9982 63.3902L48.9445 63.5003L48.5729 56.5669L46.0628 56.7014L45.9778 55.1158L53.0984 54.7341L53.1834 56.3197ZM58.606 60.7115C58.5899 60.4112 58.4701 60.1829 58.2465 60.0267C58.0269 59.8702 57.6451 59.7166 57.1011 59.5658C56.5571 59.415 56.1109 59.2649 55.7625 59.1154C54.6296 58.6323 54.0377 57.9169 53.9869 56.969C53.9616 56.4971 54.0759 56.0743 54.3297 55.7008C54.5872 55.3232 54.9622 55.0215 55.4547 54.7956C55.947 54.5658 56.5072 54.434 57.1352 54.4004C57.7476 54.3675 58.3015 54.4474 58.7969 54.6399C59.2962 54.8322 59.6913 55.1239 59.9821 55.5152C60.2728 55.9025 60.4321 56.3556 60.4599 56.8744L58.412 56.9841C58.3934 56.637 58.2717 56.3736 58.047 56.194C57.8261 56.0141 57.5342 55.9339 57.1715 55.9534C56.8048 55.973 56.5186 56.0705 56.3129 56.2458C56.1108 56.4171 56.0165 56.6275 56.0298 56.8771C56.0416 57.0956 56.1692 57.2882 56.4129 57.4551C56.6563 57.6181 57.0777 57.7794 57.6769 57.9389C58.276 58.0946 58.7705 58.2715 59.1606 58.4696C60.1096 58.9508 60.6091 59.6575 60.659 60.5897C60.699 61.3348 60.4495 61.9349 59.9106 62.3902C59.3717 62.8455 58.6127 63.0994 57.6336 63.1518C56.9432 63.1889 56.3106 63.0995 55.7357 62.8839C55.1645 62.6642 54.7251 62.3474 54.4173 61.9336C54.1133 61.5157 53.9462 61.0259 53.9161 60.4642L55.9756 60.3538C56.0001 60.8101 56.1352 61.1413 56.3809 61.3472C56.6304 61.549 57.0203 61.6356 57.5508 61.6072C57.8902 61.589 58.1535 61.5025 58.3408 61.3477C58.5318 61.1888 58.6202 60.9768 58.606 60.7115Z" fill="white"/>
</g>
<defs>
<filter id="filter0_d" x="14.9473" y="0.672363" width="49.2368" height="54.1981" filterUnits="userSpaceOnUse" color-interpolation-filters="sRGB">
<feFlood flood-opacity="0" result="BackgroundImageFix"/>
<feColorMatrix in="SourceAlpha" type="matrix" values="0 0 0 0 0 0 0 0 0 0 0 0 0 0 0 0 0 0 127 0"/>
<feOffset dy="4"/>
<feGaussianBlur stdDeviation="2"/>
<feColorMatrix type="matrix" values="0 0 0 0 0 0 0 0 0 0 0 0 0 0 0 0 0 0 0.25 0"/>
<feBlend mode="normal" in2="BackgroundImageFix" result="effect1_dropShadow"/>
<feBlend mode="normal" in="SourceGraphic" in2="effect1_dropShadow" result="shape"/>
</filter>
<filter id="filter1_d" x="0" y="48" width="78" height="26.5" filterUnits="userSpaceOnUse" color-interpolation-filters="sRGB">
<feFlood flood-opacity="0" result="BackgroundImageFix"/>
<feColorMatrix in="SourceAlpha" type="matrix" values="0 0 0 0 0 0 0 0 0 0 0 0 0 0 0 0 0 0 127 0"/>
<feOffset dy="2"/>
<feGaussianBlur stdDeviation="1"/>
<feColorMatrix type="matrix" values="0 0 0 0 0 0 0 0 0 0 0 0 0 0 0 0 0 0 0.25 0"/>
<feBlend mode="normal" in2="BackgroundImageFix" result="effect1_dropShadow"/>
<feBlend mode="normal" in="SourceGraphic" in2="effect1_dropShadow" result="shape"/>
</filter>
<filter id="filter2_d" x="18.4783" y="54.3932" width="42.185" height="11.7157" filterUnits="userSpaceOnUse" color-interpolation-filters="sRGB">
<feFlood flood-opacity="0" result="BackgroundImageFix"/>
<feColorMatrix in="SourceAlpha" type="matrix" values="0 0 0 0 0 0 0 0 0 0 0 0 0 0 0 0 0 0 127 0"/>
<feOffset dy="1"/>
<feColorMatrix type="matrix" values="0 0 0 0 0.984314 0 0 0 0 0.396078 0 0 0 0 0.0352941 0 0 0 1 0"/>
<feBlend mode="normal" in2="BackgroundImageFix" result="effect1_dropShadow"/>
<feBlend mode="normal" in="SourceGraphic" in2="effect1_dropShadow" result="shape"/>
</filter>
<linearGradient id="paint0_linear" x1="29.2973" y1="16.5371" x2="33.947" y2="19.4585" gradientUnits="userSpaceOnUse">
<stop stop-color="#FDEF81"/>
<stop offset="1" stop-color="#F9F6C6"/>
</linearGradient>
<linearGradient id="paint1_linear" x1="35.4713" y1="30.0218" x2="32.3065" y2="35.0338" gradientUnits="userSpaceOnUse">
<stop stop-color="#DD7D39"/>
<stop offset="1" stop-color="#E39628"/>
</linearGradient>
<linearGradient id="paint2_linear" x1="38.0447" y1="6.14061" x2="51.3913" y2="22.1772" gradientUnits="userSpaceOnUse">
<stop stop-color="#EEA424"/>
<stop offset="1" stop-color="#FDE446"/>
</linearGradient>
<linearGradient id="paint3_linear" x1="51.1095" y1="22.6104" x2="42.1853" y2="41.0356" gradientUnits="userSpaceOnUse">
<stop stop-color="#E5892E"/>
<stop offset="1" stop-color="#F3B22B"/>
</linearGradient>
<linearGradient id="paint4_linear" x1="33.7913" y1="20.1643" x2="44.2888" y2="29.2305" gradientUnits="userSpaceOnUse">
<stop stop-color="#F3A92B"/>
<stop offset="1" stop-color="#F7BF2B"/>
</linearGradient>
<linearGradient id="paint5_linear" x1="76" y1="66.5" x2="2" y2="53.5" gradientUnits="userSpaceOnUse">
<stop stop-color="#FBC509"/>
<stop offset="1" stop-color="#E03A22"/>
</linearGradient>
</defs>
</svg>
