<svg width="78" height="76" viewBox="0 0 78 76" fill="none" xmlns="http://www.w3.org/2000/svg">
<g filter="url(#filter0_d)">
<path d="M76 68L2 71.5V53.5L76 49V68Z" fill="url(#paint0_linear)"/>
</g>
<path d="M78 70L76 68V49L78 51V70Z" fill="#0A8A5B"/>
<g filter="url(#filter1_d)">
<path d="M20.8336 63.1084L20.9886 65.9988L18.9349 66.1089L18.4782 57.5899L21.8776 57.4076C22.529 57.3727 23.1109 57.4628 23.6231 57.6779C24.1391 57.8889 24.5455 58.2094 24.8423 58.6394C25.1429 59.0653 25.3083 59.5591 25.3384 60.1208C25.3829 60.9517 25.1202 61.6327 24.5501 62.164C23.9838 62.6912 23.1818 62.9825 22.1442 63.0382L20.8336 63.1084ZM20.7486 61.5228L22.0944 61.4507C22.4922 61.4293 22.7892 61.3137 22.9853 61.1037C23.1852 60.8934 23.2755 60.6069 23.256 60.2442C23.2347 59.8463 23.1104 59.5342 22.8831 59.3077C22.6558 59.0813 22.3568 58.976 21.986 58.992L20.6169 59.0654L20.7486 61.5228ZM33.7354 61.2198C33.7799 62.0506 33.6653 62.7942 33.3914 63.4504C33.1176 64.1066 32.7052 64.6236 32.1543 65.0013C31.6071 65.3748 30.9707 65.5811 30.2452 65.62C29.5197 65.6589 28.8672 65.5276 28.2877 65.2261C27.7081 64.9208 27.2436 64.4665 26.8944 63.8632C26.5491 63.2597 26.3471 62.5566 26.2885 61.7539L26.2628 61.2742C26.218 60.4394 26.3307 59.696 26.6009 59.0439C26.8748 58.3877 27.2871 57.8707 27.838 57.493C28.3928 57.1151 29.0349 56.9066 29.7643 56.8675C30.4859 56.8289 31.1388 56.966 31.7227 57.2789C32.3067 57.5919 32.7718 58.0579 33.1179 58.6769C33.4678 59.2919 33.6666 60.0089 33.7144 60.8278L33.7354 61.2198ZM31.6275 60.9749C31.5821 60.1284 31.4053 59.4944 31.0972 59.0728C30.7927 58.6471 30.3772 58.4483 29.8506 58.4766C28.8208 58.5318 28.3181 59.3332 28.3423 60.881L28.3701 61.5074C28.4148 62.3421 28.5877 62.9764 28.8887 63.4101C29.1897 63.8438 29.6132 64.0461 30.1593 64.0168C30.6781 63.989 31.0661 63.7472 31.3233 63.2913C31.5805 62.8355 31.6889 62.194 31.6485 61.3669L31.6275 60.9749ZM37.2016 65.1297L35.1538 65.2395L34.6971 56.7205L36.745 56.6107L37.2016 65.1297ZM45.744 64.6718L43.702 64.7813L40.3988 59.6421L40.6829 64.9431L38.6292 65.0532L38.1726 56.5342L40.2263 56.4241L43.5237 61.5636L43.2395 56.2626L45.2874 56.1528L45.744 64.6718ZM53.1834 57.3197L50.6266 57.4568L50.9982 64.3902L48.9445 64.5003L48.5729 57.5669L46.0628 57.7014L45.9778 56.1158L53.0984 55.7341L53.1834 57.3197ZM58.606 61.7115C58.5899 61.4112 58.4701 61.1829 58.2465 61.0267C58.0269 60.8702 57.6451 60.7166 57.1011 60.5658C56.5571 60.415 56.1109 60.2649 55.7625 60.1154C54.6296 59.6323 54.0377 58.9169 53.9869 57.969C53.9616 57.4971 54.0759 57.0743 54.3297 56.7008C54.5872 56.3232 54.9622 56.0215 55.4547 55.7956C55.947 55.5658 56.5072 55.434 57.1352 55.4004C57.7476 55.3675 58.3015 55.4474 58.7969 55.6399C59.2962 55.8322 59.6913 56.1239 59.9821 56.5152C60.2728 56.9025 60.4321 57.3556 60.4599 57.8744L58.412 57.9841C58.3934 57.637 58.2717 57.3736 58.047 57.194C57.8261 57.0141 57.5342 56.9339 57.1715 56.9534C56.8048 56.973 56.5186 57.0705 56.3129 57.2458C56.1108 57.4171 56.0165 57.6275 56.0298 57.8771C56.0416 58.0956 56.1692 58.2882 56.4129 58.4551C56.6563 58.6181 57.0777 58.7794 57.6769 58.9389C58.276 59.0946 58.7705 59.2715 59.1606 59.4696C60.1096 59.9508 60.6091 60.6575 60.659 61.5897C60.699 62.3348 60.4495 62.9349 59.9106 63.3902C59.3717 63.8455 58.6127 64.0994 57.6336 64.1518C56.9432 64.1889 56.3106 64.0995 55.7357 63.8839C55.1645 63.6642 54.7251 63.3474 54.4173 62.9336C54.1133 62.5157 53.9462 62.0259 53.9161 61.4642L55.9756 61.3538C56.0001 61.8101 56.1352 62.1413 56.3809 62.3472C56.6304 62.549 57.0203 62.6356 57.5508 62.6072C57.8902 62.589 58.1535 62.5025 58.3408 62.3477C58.5318 62.1888 58.6202 61.9768 58.606 61.7115Z" fill="white"/>
</g>
<g filter="url(#filter2_d)">
<path d="M36.2078 4.69564L37.5139 13.2391L30.3072 26.6986L23.4166 27.8861L36.2078 4.69564Z" fill="url(#paint1_linear)"/>
<path d="M42.301 44.5655L40.7714 36.4113L29.9992 26.7811L23.4143 27.8867L42.301 44.5655Z" fill="url(#paint2_linear)"/>
<path d="M37.5122 13.2397L36.206 4.69626L55.9511 22.1331L48.1434 23.5665L37.5122 13.2397Z" fill="url(#paint3_linear)"/>
<path d="M48.1434 23.5665L40.772 36.4113L42.3015 44.5655L55.9512 22.1331L48.1434 23.5665Z" fill="url(#paint4_linear)"/>
<path d="M37.5118 13.2396L29.9993 26.781L40.7715 36.4112L48.143 23.5663L37.5118 13.2396Z" fill="url(#paint5_linear)"/>
</g>
<defs>
<filter id="filter0_d" x="0" y="49" width="78" height="26.5" filterUnits="userSpaceOnUse" color-interpolation-filters="sRGB">
<feFlood flood-opacity="0" result="BackgroundImageFix"/>
<feColorMatrix in="SourceAlpha" type="matrix" values="0 0 0 0 0 0 0 0 0 0 0 0 0 0 0 0 0 0 127 0"/>
<feOffset dy="2"/>
<feGaussianBlur stdDeviation="1"/>
<feColorMatrix type="matrix" values="0 0 0 0 0 0 0 0 0 0 0 0 0 0 0 0 0 0 0.25 0"/>
<feBlend mode="normal" in2="BackgroundImageFix" result="effect1_dropShadow"/>
<feBlend mode="normal" in="SourceGraphic" in2="effect1_dropShadow" result="shape"/>
</filter>
<filter id="filter1_d" x="18.4783" y="55.3932" width="42.185" height="11.7157" filterUnits="userSpaceOnUse" color-interpolation-filters="sRGB">
<feFlood flood-opacity="0" result="BackgroundImageFix"/>
<feColorMatrix in="SourceAlpha" type="matrix" values="0 0 0 0 0 0 0 0 0 0 0 0 0 0 0 0 0 0 127 0"/>
<feOffset dy="1"/>
<feColorMatrix type="matrix" values="0 0 0 0 0.0705882 0 0 0 0 0.572549 0 0 0 0 0.368627 0 0 0 1 0"/>
<feBlend mode="normal" in2="BackgroundImageFix" result="effect1_dropShadow"/>
<feBlend mode="normal" in="SourceGraphic" in2="effect1_dropShadow" result="shape"/>
</filter>
<filter id="filter2_d" x="14.4758" y="0.927979" width="50.1691" height="55.242" filterUnits="userSpaceOnUse" color-interpolation-filters="sRGB">
<feFlood flood-opacity="0" result="BackgroundImageFix"/>
<feColorMatrix in="SourceAlpha" type="matrix" values="0 0 0 0 0 0 0 0 0 0 0 0 0 0 0 0 0 0 127 0"/>
<feOffset dy="4"/>
<feGaussianBlur stdDeviation="2"/>
<feColorMatrix type="matrix" values="0 0 0 0 0 0 0 0 0 0 0 0 0 0 0 0 0 0 0.25 0"/>
<feBlend mode="normal" in2="BackgroundImageFix" result="effect1_dropShadow"/>
<feBlend mode="normal" in="SourceGraphic" in2="effect1_dropShadow" result="shape"/>
</filter>
<linearGradient id="paint0_linear" x1="76" y1="67.5" x2="2" y2="54.5" gradientUnits="userSpaceOnUse">
<stop stop-color="#6BE86E"/>
<stop offset="1" stop-color="#0A8B5C"/>
</linearGradient>
<linearGradient id="paint1_linear" x1="29.0597" y1="17.1513" x2="33.8144" y2="20.1387" gradientUnits="userSpaceOnUse">
<stop stop-color="#D6FA97"/>
<stop offset="1" stop-color="#ECFFCC"/>
</linearGradient>
<linearGradient id="paint2_linear" x1="35.3735" y1="30.9406" x2="32.1372" y2="36.0658" gradientUnits="userSpaceOnUse">
<stop stop-color="#098458"/>
<stop offset="1" stop-color="#0CA66C"/>
</linearGradient>
<linearGradient id="paint3_linear" x1="38.0053" y1="6.51983" x2="51.6535" y2="22.9187" gradientUnits="userSpaceOnUse">
<stop stop-color="#0DA96C"/>
<stop offset="1" stop-color="#71EC6E"/>
</linearGradient>
<linearGradient id="paint4_linear" x1="51.3653" y1="23.3619" x2="42.2395" y2="42.2034" gradientUnits="userSpaceOnUse">
<stop stop-color="#129565"/>
<stop offset="1" stop-color="#09BE73"/>
</linearGradient>
<linearGradient id="paint5_linear" x1="33.6557" y1="20.8605" x2="44.3904" y2="30.1315" gradientUnits="userSpaceOnUse">
<stop stop-color="#69E767"/>
<stop offset="1" stop-color="#DDFCA1"/>
</linearGradient>
</defs>
</svg>
