<svg width="84" height="87" viewBox="0 0 84 87" fill="none" xmlns="http://www.w3.org/2000/svg">
<g clip-path="url(#clip0)" filter="url(#filter0_d)">
<path d="M59.977 2.51005L59.977 2.51023C59.7807 2.52838 59.5926 2.59829 59.4317 2.71293L59.4307 2.71213C59.4307 2.71213 56.533 4.75482 55.3003 5.59417C54.29 6.28215 54.2771 7.00146 54.3051 7.24159C54.3206 7.48284 54.4622 8.1882 55.5795 8.68396C56.9426 9.28882 60.1595 10.7791 60.1595 10.7791L60.1603 10.778C60.3391 10.862 60.5367 10.897 60.7331 10.8797C61.0298 10.8529 61.3036 10.7084 61.4943 10.4781C61.685 10.2478 61.7769 9.95054 61.7499 9.65168C61.7318 9.4539 61.6624 9.26432 61.5486 9.10201C61.4347 8.9397 61.2805 8.81036 61.1015 8.72701L61.1022 8.72521L57.1472 6.98466L60.7264 4.56349L60.7254 4.56184C60.8866 4.44774 61.0151 4.29287 61.098 4.11279C61.1809 3.93271 61.2152 3.73376 61.1976 3.53594C61.1706 3.23707 61.0269 2.96108 60.798 2.76869C60.5691 2.57629 60.2739 2.48324 59.9772 2.51002L59.977 2.51005ZM34.4161 5.42738C33.9109 5.473 33.4198 5.61839 32.9707 5.85526C32.5217 6.09212 32.1234 6.41582 31.7987 6.80788C31.4741 7.19994 31.2293 7.65267 31.0785 8.14022C30.9276 8.62778 30.8737 9.14061 30.9196 9.64944C30.9656 10.1583 31.1106 10.6532 31.3463 11.1058C31.5821 11.5585 31.904 11.96 32.2937 12.2876C32.6834 12.6151 33.1332 12.8622 33.6175 13.0148C34.1018 13.1673 34.611 13.2224 35.1161 13.1767C35.6212 13.1311 36.1123 12.9857 36.5614 12.7488C37.0105 12.5119 37.4087 12.1882 37.7334 11.7961C38.058 11.404 38.3028 10.9513 38.4536 10.4637C38.6044 9.97615 38.6583 9.46332 38.6124 8.95449C38.5195 7.92689 38.0253 6.978 37.2383 6.31654C36.4513 5.65508 35.4361 5.33524 34.4161 5.42738ZM75.1092 14.7728C74.6286 14.8169 74.1651 14.9736 73.7556 15.2303C73.3461 15.487 73.002 15.8366 72.7507 16.2513L72.745 16.2478L67.417 25.4536L67.4285 25.4562C67.084 26.0216 66.9277 26.6832 66.9824 27.3447C67.0472 28.0053 67.3195 28.628 67.7597 29.1225L67.7489 29.1273L74.6405 37.229L74.6455 37.2248C74.967 37.5876 75.3682 37.8699 75.8171 38.049C76.2659 38.2281 76.75 38.2992 77.2307 38.2565C77.6356 38.2199 78.0294 38.1033 78.3894 37.9134C78.7495 37.7235 79.0687 37.464 79.329 37.1497C79.5893 36.8354 79.7856 36.4724 79.9065 36.0815C80.0274 35.6906 80.0707 35.2795 80.0339 34.8715C79.9747 34.2315 79.7207 33.6252 79.3066 33.1356L79.31 33.1328L73.8545 26.7239L78.0731 19.4411L78.0693 19.4387C78.3889 18.8829 78.5301 18.241 78.4736 17.6008C78.4368 17.1928 78.3206 16.796 78.1315 16.4331C77.9425 16.0702 77.6844 15.7483 77.372 15.4857C77.0596 15.2231 76.6989 15.025 76.3107 14.9026C75.9224 14.7803 75.5141 14.7362 75.1092 14.7728L75.1092 14.7728ZM34.1156 46.8982C33.2603 46.9755 32.6331 47.7706 32.7147 48.6743C32.7714 49.298 33.1588 49.8368 33.7135 50.0638C43.1968 54.9216 51.0354 53.6948 51.0354 53.6948C51.0354 53.6948 58.9667 53.497 67.4258 47.0183C67.9309 46.6956 68.2154 46.096 68.1595 45.4723C68.0778 44.5686 67.3183 43.8987 66.463 43.976C66.1365 44.0064 65.8282 44.1446 65.5826 44.3716C65.5826 44.3716 65.4556 44.4742 65.4556 44.4742C65.4556 44.4742 59.1583 49.8475 50.7432 50.4607C42.3544 51.3655 35.1959 47.2079 35.1959 47.2079C35.1959 47.2079 35.0526 47.1297 35.0526 47.1297C34.7703 46.9504 34.4422 46.8694 34.1156 46.8982Z" fill="white"/>
<path d="M52.5984 16.6708C52.3127 16.6988 52.0284 16.7392 51.7462 16.7918C51.5928 16.821 51.44 16.8538 51.2881 16.8902C51.112 16.9286 50.937 16.9718 50.7633 17.0198C50.6233 17.0616 50.4842 17.1065 50.3461 17.1545C50.1649 17.2133 49.9853 17.2773 49.8077 17.3463C49.6816 17.3986 49.5565 17.4535 49.4326 17.5109C49.25 17.5909 49.0698 17.6764 48.8923 17.7672C48.7782 17.8287 48.6653 17.8923 48.5536 17.9582C48.3738 18.0594 48.1972 18.1662 48.0239 18.2783C47.9227 18.3469 47.8228 18.4174 47.7242 18.4896C47.5486 18.6128 47.3771 18.7416 47.2097 18.8759C47.1228 18.9487 47.0371 19.023 46.9527 19.0988C46.7833 19.2446 46.6188 19.3961 46.4594 19.553C46.3864 19.628 46.3146 19.7042 46.244 19.7814C46.0836 19.9497 45.9291 20.1236 45.7808 20.3027C45.7202 20.3789 45.6608 20.456 45.6025 20.534C45.4559 20.7221 45.316 20.9153 45.1831 21.1135C45.1325 21.1923 45.0831 21.2719 45.0347 21.3521C44.9049 21.558 44.7825 21.7686 44.6678 21.9834C44.6283 22.0612 44.5899 22.1396 44.5524 22.2184C44.4409 22.4411 44.3377 22.6679 44.2429 22.8984C44.2126 22.9766 44.1834 23.0551 44.155 23.134C44.0647 23.3706 43.9833 23.6104 43.9109 23.8532C43.8898 23.9295 43.8696 24.0061 43.8503 24.0829C43.7828 24.3308 43.7247 24.5812 43.6762 24.8336C43.663 24.9106 43.6507 24.9878 43.6392 25.0652C43.5964 25.3196 43.5633 25.5756 43.54 25.8326C43.5347 25.9091 43.5302 25.9856 43.5266 26.0621C43.5089 26.3219 43.5013 26.5824 43.5037 26.8428C43.505 27.0087 43.5103 27.1746 43.5198 27.3403L43.5174 27.3405L43.5234 27.4059C43.5265 27.4759 43.5303 27.5459 43.5349 27.6159C43.5383 27.6431 43.5417 27.6704 43.5453 27.6976L43.5463 27.6975L43.5496 27.6972L44.4983 38.1988L44.4996 38.1987C44.5808 38.9939 44.9698 39.7253 45.5824 40.2343C46.195 40.7432 46.9817 40.9888 47.7721 40.9177C48.5623 40.8459 49.2921 40.4633 49.8035 39.8528C50.3148 39.2423 50.5664 38.4531 50.5037 37.6563L50.5054 37.6561L50.5022 37.6207L49.5263 26.8177C49.5032 25.9456 49.7628 25.09 50.2658 24.3804C50.7688 23.6709 51.4878 23.146 52.314 22.8853C52.3237 22.8818 52.3333 22.8784 52.343 22.875C52.4402 22.8464 52.5385 22.8215 52.6376 22.8004C52.6696 22.7921 52.7017 22.7842 52.7339 22.7767C52.8139 22.7623 52.8944 22.7503 52.9752 22.7408C53.0314 22.7316 53.0878 22.7236 53.1443 22.7169C53.1444 22.7169 53.1446 22.7169 53.1447 22.7168C53.2096 22.7127 53.2746 22.7101 53.3396 22.7091C53.4122 22.7047 53.4848 22.7024 53.5574 22.702C53.5963 22.7038 53.6352 22.7062 53.674 22.7092C53.7699 22.7122 53.8656 22.7188 53.961 22.7288C53.974 22.7308 53.9869 22.7329 53.9998 22.7351C54.1195 22.7498 54.2386 22.7701 54.3565 22.7957C55.1409 22.9704 55.8549 23.3796 56.405 23.9697C56.9551 24.5598 57.3155 25.3034 57.4391 26.1028L58.415 36.9059L58.4182 36.9413L58.4199 36.9411C58.501 37.7363 58.89 38.4676 59.5025 38.9766C60.1149 39.4855 60.9016 39.7311 61.6918 39.6602C62.4821 39.5885 63.2121 39.2059 63.7236 38.5954C64.235 37.9849 64.4867 37.1956 64.424 36.3987L64.4253 36.3986L63.4766 25.897L63.4799 25.8967L63.4813 25.8966C63.4799 25.8691 63.4784 25.8417 63.4768 25.8143C63.4688 25.7447 63.46 25.6751 63.4506 25.6057L63.4447 25.5403L63.4423 25.5405C63.4219 25.3759 63.3975 25.2118 63.369 25.0484C63.3243 24.7892 63.2696 24.5318 63.2049 24.2769C63.1884 24.2059 63.1712 24.1352 63.1533 24.0646C63.0838 23.8137 63.0047 23.5657 62.9161 23.3209C62.8914 23.2479 62.8658 23.1752 62.8394 23.1027C62.7464 22.863 62.6443 22.6269 62.5334 22.395C62.5007 22.323 62.4672 22.2513 62.4328 22.1801C62.3174 21.9529 62.1935 21.7301 62.0613 21.5124C62.0203 21.4417 61.9785 21.3714 61.9359 21.3017C61.8009 21.0911 61.6582 20.8857 61.5081 20.6858C61.4573 20.6152 61.4055 20.5453 61.3529 20.4761C61.2016 20.2853 61.0434 20.1001 60.8788 19.9208C60.8168 19.8505 60.7539 19.7811 60.69 19.7126C60.5237 19.5415 60.3514 19.3764 60.1735 19.2177C60.1022 19.1514 60.0299 19.0862 59.9567 19.0221C59.7787 18.8724 59.5955 18.7291 59.4076 18.5922C59.3242 18.5289 59.2399 18.4668 59.1547 18.4061C58.9693 18.28 58.7798 18.1601 58.5865 18.0467C58.4907 17.9879 58.3938 17.9306 58.2961 17.875C58.1063 17.7722 57.9133 17.6757 57.7173 17.5855C57.6085 17.5326 57.4988 17.4817 57.3882 17.4329C57.1969 17.3532 57.0031 17.2796 56.8073 17.212C56.6861 17.1674 56.5641 17.1251 56.4413 17.0852C56.2503 17.0277 56.0577 16.9759 55.8636 16.9299C55.7314 16.8956 55.5986 16.864 55.4651 16.8352C55.278 16.7991 55.0899 16.7684 54.9011 16.743C54.7566 16.7206 54.6118 16.7013 54.4665 16.6852C54.287 16.6692 54.1071 16.6581 53.9269 16.6518C53.771 16.6432 53.6148 16.6383 53.4586 16.6371C53.1716 16.6359 52.8846 16.6471 52.5986 16.6708C52.5985 16.6708 52.5984 16.6708 52.5984 16.6708L52.5984 16.6708ZM5.23085 21.1521C4.43427 21.2241 3.69912 21.6118 3.18711 22.2301C2.6751 22.8484 2.42818 23.6466 2.50067 24.449C2.52179 24.6734 2.56762 24.8947 2.63731 25.1089L2.63093 25.1108L8.47097 42.2183L8.47884 42.2156C8.70922 42.8407 9.1372 43.3724 9.69683 43.7287C10.2565 44.0851 10.9167 44.2463 11.5757 44.1876C12.2129 44.1293 12.815 43.8683 13.2947 43.4423C13.7745 43.0164 14.1071 42.4476 14.2444 41.8183L14.2499 41.8365L16.6002 32.4217L20.6 41.2629L20.6021 41.2439C20.85 41.8385 21.2792 42.3384 21.8275 42.6715C22.3758 43.0046 23.0149 43.1535 23.6523 43.0966C24.3112 43.0363 24.9318 42.7593 25.4185 42.3085C25.9052 41.8576 26.2309 41.2578 26.3456 40.6015L26.3538 40.6028L29.0334 22.7256L29.0267 22.7249C29.0569 22.5017 29.0623 22.2757 29.0429 22.0512C28.9704 21.2488 28.5844 20.5078 27.9699 19.9913C27.3554 19.4747 26.5626 19.225 25.7661 19.297C25.0526 19.3623 24.3859 19.6814 23.8854 20.197C23.3848 20.7127 23.0831 21.3912 23.0342 22.1111L23.0272 22.1104L21.9156 29.4944L18.5154 21.9726L18.5056 21.9772C18.5034 21.9728 18.5012 21.9685 18.499 21.9642C18.4639 21.8898 18.4259 21.8169 18.3849 21.7456C18.3757 21.7285 18.3662 21.7115 18.3567 21.6945C18.3149 21.625 18.2704 21.5572 18.2233 21.4912C18.2119 21.4745 18.2004 21.4579 18.1887 21.4415C18.141 21.3775 18.0908 21.3155 18.0383 21.2555C18.0245 21.239 18.0105 21.2226 17.9964 21.2064C17.9442 21.1494 17.8899 21.0944 17.8336 21.0416C17.816 21.0243 17.7981 21.0071 17.78 20.9902C17.7237 20.9401 17.6656 20.8921 17.6058 20.8463C17.586 20.8304 17.5659 20.8147 17.5456 20.7994C17.486 20.7561 17.4249 20.715 17.3623 20.6762C17.3388 20.6609 17.315 20.6458 17.2911 20.6312C17.2305 20.596 17.1687 20.5629 17.1058 20.532C17.0778 20.5175 17.0495 20.5034 17.021 20.4898C16.9597 20.4621 16.8975 20.4365 16.8345 20.413C16.8029 20.4004 16.7711 20.3883 16.7391 20.3768C16.6788 20.3566 16.6178 20.3384 16.5563 20.3221C16.5197 20.3115 16.4829 20.3016 16.4459 20.2924C16.3863 20.2792 16.3263 20.2677 16.2659 20.2581C16.2269 20.2509 16.1878 20.2445 16.1485 20.2389C16.09 20.2319 16.0313 20.2267 15.9725 20.2231C15.9301 20.2196 15.8877 20.217 15.8452 20.2153C15.7903 20.2145 15.7355 20.2152 15.6806 20.2173C15.6201 20.2179 15.5595 20.2203 15.4991 20.2245C15.4986 20.2245 15.4982 20.2246 15.4978 20.2246C15.4362 20.2314 15.3749 20.2402 15.314 20.2508C15.2619 20.2582 15.21 20.267 15.1583 20.2772C15.1137 20.2871 15.0692 20.298 15.025 20.3099C14.9709 20.3233 14.9171 20.3381 14.8638 20.3544C14.8243 20.3675 14.7851 20.3815 14.7462 20.3962C14.6896 20.4162 14.6337 20.4378 14.5785 20.4611C14.5437 20.4768 14.5093 20.4931 14.4751 20.5101C14.4175 20.5371 14.3608 20.566 14.3051 20.5966C14.2757 20.6137 14.2466 20.6313 14.2178 20.6494C14.1601 20.6837 14.1036 20.72 14.0484 20.7581C14.0219 20.7773 13.9958 20.7969 13.9701 20.8169C13.9149 20.8577 13.8611 20.9004 13.8088 20.9449C13.7868 20.9645 13.7651 20.9844 13.7437 21.0047C13.6898 21.0535 13.6376 21.1043 13.5874 21.1569C13.5702 21.1757 13.5533 21.1947 13.5366 21.2139C13.486 21.2696 13.4376 21.3272 13.3914 21.3865C13.3762 21.4069 13.3612 21.4275 13.3465 21.4483C13.3012 21.5096 13.2581 21.5726 13.2175 21.6372C13.2059 21.6566 13.1946 21.6762 13.1834 21.6958C13.1429 21.7636 13.105 21.8329 13.0699 21.9037C13.0611 21.9225 13.0525 21.9413 13.0441 21.9603C13.01 22.033 12.9787 22.107 12.9504 22.1822C12.9436 22.2013 12.9371 22.2205 12.9307 22.2397C12.9035 22.3166 12.8793 22.3946 12.8584 22.4736C12.8569 22.4783 12.8554 22.483 12.8539 22.4877L12.8435 22.485L10.8464 30.4943L8.42943 23.4291L8.42269 23.4311C8.24561 22.7316 7.82717 22.1181 7.2423 21.7005C6.65743 21.2829 5.94434 21.0885 5.23075 21.1521L5.23085 21.1521ZM35.7113 18.3987C34.9239 18.4704 34.1963 18.8508 33.6852 19.4579C33.1742 20.0651 32.9206 20.8504 32.9791 21.6448L32.9765 21.6451L32.9811 21.6956L34.5499 39.0618L34.5687 39.2701L34.5761 39.2695C34.6975 40.0292 35.1006 40.7147 35.704 41.1874C36.3073 41.6601 37.066 41.8848 37.8267 41.8161C38.5869 41.7466 39.2922 41.3893 39.8004 40.8163C40.3086 40.2432 40.582 39.4971 40.5653 38.7284L40.5757 38.7275L40.5569 38.5192L38.9881 21.153L38.9835 21.1024L38.9818 21.1026C38.897 20.3104 38.5067 19.5831 37.8949 19.0773C37.2832 18.5716 36.499 18.3279 35.7113 18.3987L35.7113 18.3987Z" fill="url(#paint0_linear)"/>
</g>
<g filter="url(#filter1_d)">
<path d="M78 79L4 82.5V64.5L78 60V79Z" fill="url(#paint1_linear)"/>
</g>
<path d="M80 81L78 79V60L80 62V81Z" fill="#FB6109"/>
<g filter="url(#filter2_d)">
<path d="M24.7818 69.9494L22.2249 70.0864L22.5965 77.0198L20.5429 77.1299L20.1712 70.1965L17.6611 70.331L17.5761 68.7454L24.6968 68.3637L24.7818 69.9494ZM33.1459 76.4543L31.1039 76.5638L30.9132 73.0064L27.8882 73.1685L28.0789 76.7259L26.0252 76.836L25.5686 68.317L27.6223 68.2069L27.8035 71.5888L30.8285 71.4266L30.6472 68.0448L32.6892 67.9353L33.1459 76.4543ZM39.3094 74.5279L36.4951 74.6788L36.0889 76.2966L33.8948 76.4142L36.5625 67.7277L38.4934 67.6242L42.0978 75.9745L39.892 76.0927L39.3094 74.5279ZM36.9016 73.0668L38.7329 72.9686L37.6559 70.0631L36.9016 73.0668ZM49.8387 75.5595L47.7967 75.669L44.4934 70.5298L44.7776 75.8308L42.7239 75.9409L42.2672 67.4219L44.3209 67.3118L47.6183 72.4513L47.3342 67.1503L49.382 67.0405L49.8387 75.5595ZM53.8638 72.1634L53.0709 73.133L53.1913 75.3798L51.1376 75.4899L50.6809 66.9709L52.7346 66.8608L52.936 70.6171L53.5918 69.4964L55.2857 66.7241L57.825 66.5879L55.1483 70.5103L58.2816 75.107L55.8476 75.2374L53.8638 72.1634ZM63.0751 72.5792C63.059 72.2788 62.9392 72.0505 62.7156 71.8943C62.496 71.7379 62.1142 71.5843 61.5702 71.4335C61.0262 71.2827 60.58 71.1325 60.2317 70.983C59.0987 70.5 58.5068 69.7845 58.456 68.8367C58.4307 68.3647 58.545 67.942 58.7988 67.5685C59.0563 67.1909 59.4313 66.8891 59.9238 66.6632C60.4161 66.4334 60.9763 66.3017 61.6043 66.268C62.2167 66.2352 62.7706 66.315 63.266 66.5075C63.7653 66.6998 64.1604 66.9916 64.4513 67.3828C64.7419 67.7702 64.9012 68.2232 64.929 68.742L62.8811 68.8518C62.8625 68.5046 62.7408 68.2412 62.5161 68.0616C62.2952 67.8818 62.0034 67.8016 61.6406 67.821C61.2739 67.8407 60.9877 67.9382 60.782 68.1135C60.5799 68.2847 60.4856 68.4951 60.499 68.7448C60.5107 68.9632 60.6383 69.1559 60.882 69.3228C61.1255 69.4857 61.5468 69.647 62.146 69.8066C62.7451 69.9622 63.2396 70.1391 63.6297 70.3373C64.5787 70.8184 65.0782 71.5251 65.1281 72.4574C65.1681 73.2024 64.9186 73.8026 64.3797 74.2578C63.8408 74.7131 63.0818 74.967 62.1027 75.0195C61.4123 75.0565 60.7797 74.9672 60.2048 74.7516C59.6337 74.5318 59.1942 74.215 58.8864 73.8012C58.5824 73.3833 58.4153 72.8935 58.3852 72.3318L60.4447 72.2214C60.4692 72.6778 60.6043 73.0089 60.8501 73.2148C61.0995 73.4166 61.4895 73.5033 62.0199 73.4748C62.3593 73.4566 62.6226 73.3702 62.8099 73.2154C63.0009 73.0565 63.0893 72.8444 63.0751 72.5792Z" fill="white"/>
</g>
<defs>
<filter id="filter0_d" x="-1" y="0.974731" width="84.4868" height="60.8445" filterUnits="userSpaceOnUse" color-interpolation-filters="sRGB">
<feFlood flood-opacity="0" result="BackgroundImageFix"/>
<feColorMatrix in="SourceAlpha" type="matrix" values="0 0 0 0 0 0 0 0 0 0 0 0 0 0 0 0 0 0 127 0"/>
<feOffset dy="2"/>
<feGaussianBlur stdDeviation="1"/>
<feColorMatrix type="matrix" values="0 0 0 0 0 0 0 0 0 0 0 0 0 0 0 0 0 0 0.25 0"/>
<feBlend mode="normal" in2="BackgroundImageFix" result="effect1_dropShadow"/>
<feBlend mode="normal" in="SourceGraphic" in2="effect1_dropShadow" result="shape"/>
</filter>
<filter id="filter1_d" x="2" y="60" width="78" height="26.5" filterUnits="userSpaceOnUse" color-interpolation-filters="sRGB">
<feFlood flood-opacity="0" result="BackgroundImageFix"/>
<feColorMatrix in="SourceAlpha" type="matrix" values="0 0 0 0 0 0 0 0 0 0 0 0 0 0 0 0 0 0 127 0"/>
<feOffset dy="2"/>
<feGaussianBlur stdDeviation="1"/>
<feColorMatrix type="matrix" values="0 0 0 0 0 0 0 0 0 0 0 0 0 0 0 0 0 0 0.25 0"/>
<feBlend mode="normal" in2="BackgroundImageFix" result="effect1_dropShadow"/>
<feBlend mode="normal" in="SourceGraphic" in2="effect1_dropShadow" result="shape"/>
</filter>
<filter id="filter2_d" x="17.5762" y="66.2609" width="47.5561" height="11.8691" filterUnits="userSpaceOnUse" color-interpolation-filters="sRGB">
<feFlood flood-opacity="0" result="BackgroundImageFix"/>
<feColorMatrix in="SourceAlpha" type="matrix" values="0 0 0 0 0 0 0 0 0 0 0 0 0 0 0 0 0 0 127 0"/>
<feOffset dy="1"/>
<feColorMatrix type="matrix" values="0 0 0 0 0.984314 0 0 0 0 0.396078 0 0 0 0 0.0352941 0 0 0 1 0"/>
<feBlend mode="normal" in2="BackgroundImageFix" result="effect1_dropShadow"/>
<feBlend mode="normal" in="SourceGraphic" in2="effect1_dropShadow" result="shape"/>
</filter>
<linearGradient id="paint0_linear" x1="2" y1="24" x2="65" y2="30" gradientUnits="userSpaceOnUse">
<stop stop-color="#FB6109"/>
<stop offset="1" stop-color="#FBC209"/>
</linearGradient>
<linearGradient id="paint1_linear" x1="78" y1="78.5" x2="4" y2="65.5" gradientUnits="userSpaceOnUse">
<stop stop-color="#FBC509"/>
<stop offset="1" stop-color="#E03A22"/>
</linearGradient>
<clipPath id="clip0">
<rect width="76.2809" height="50.1848" fill="white" transform="translate(1 7.83789) rotate(-5.16204)"/>
</clipPath>
</defs>
</svg>
