<svg width="78" height="86" viewBox="0 0 78 86" fill="none" xmlns="http://www.w3.org/2000/svg">
<g filter="url(#filter0_d)">
<path d="M33.0771 6.27114L35.2153 20.2569L23.4177 42.2905L12.1376 44.2346L33.0771 6.27114Z" fill="url(#paint0_linear)"/>
<path d="M43.0529 71.5389L40.5489 58.1903L22.9145 42.4254L12.1349 44.2354L43.0529 71.5389Z" fill="url(#paint1_linear)"/>
<path d="M35.2127 20.2577L33.0744 6.27189L65.3978 34.8165L52.6162 37.1629L35.2127 20.2577Z" fill="url(#paint2_linear)"/>
<path d="M52.6165 37.1629L40.5493 58.1903L43.0532 71.5389L65.398 34.8165L52.6165 37.1629Z" fill="url(#paint3_linear)"/>
<path d="M35.2126 20.2575L22.9145 42.4252L40.5489 58.1902L52.6162 37.1628L35.2126 20.2575Z" fill="url(#paint4_linear)"/>
</g>
<defs>
<filter id="filter0_d" x="0.0494385" y="0.103149" width="77.0324" height="85.3363" filterUnits="userSpaceOnUse" color-interpolation-filters="sRGB">
<feFlood flood-opacity="0" result="BackgroundImageFix"/>
<feColorMatrix in="SourceAlpha" type="matrix" values="0 0 0 0 0 0 0 0 0 0 0 0 0 0 0 0 0 0 127 0"/>
<feOffset dy="4"/>
<feGaussianBlur stdDeviation="2"/>
<feColorMatrix type="matrix" values="0 0 0 0 0 0 0 0 0 0 0 0 0 0 0 0 0 0 0.25 0"/>
<feBlend mode="normal" in2="BackgroundImageFix" result="effect1_dropShadow"/>
<feBlend mode="normal" in="SourceGraphic" in2="effect1_dropShadow" result="shape"/>
</filter>
<linearGradient id="paint0_linear" x1="21.3755" y1="26.6614" x2="29.1591" y2="31.5519" gradientUnits="userSpaceOnUse">
<stop stop-color="#D6FA97"/>
<stop offset="1" stop-color="#ECFFCC"/>
</linearGradient>
<linearGradient id="paint1_linear" x1="31.7123" y1="49.2346" x2="26.4145" y2="57.6247" gradientUnits="userSpaceOnUse">
<stop stop-color="#098458"/>
<stop offset="1" stop-color="#0CA66C"/>
</linearGradient>
<linearGradient id="paint2_linear" x1="36.02" y1="9.25712" x2="58.3624" y2="36.1026" gradientUnits="userSpaceOnUse">
<stop stop-color="#0DA96C"/>
<stop offset="1" stop-color="#71EC6E"/>
</linearGradient>
<linearGradient id="paint3_linear" x1="57.8909" y1="36.828" x2="42.9516" y2="67.672" gradientUnits="userSpaceOnUse">
<stop stop-color="#129565"/>
<stop offset="1" stop-color="#09BE73"/>
</linearGradient>
<linearGradient id="paint4_linear" x1="28.9001" y1="32.7332" x2="46.4731" y2="47.9101" gradientUnits="userSpaceOnUse">
<stop stop-color="#69E767"/>
<stop offset="1" stop-color="#DDFCA1"/>
</linearGradient>
</defs>
</svg>
