<svg width="99" height="80" viewBox="0 0 99 80" fill="none" xmlns="http://www.w3.org/2000/svg">
<mask id="mask0" mask-type="alpha" maskUnits="userSpaceOnUse" x="5" y="0" width="90" height="80">
<path d="M69.5 79L15 75C11.8 74.7651 10.6666 72.2355 10.5 71C8.66665 63.1667 5.19999 44.1 5.99999 30.5C6.99999 13.5 16 1.50001 23.5 0.500017C29.5 -0.299978 32.3333 1.50002 33 2.50002C35.6667 2.16668 42.9 1.40001 50.5 1.00001C58.1 0.600012 66.3333 2.16668 69.5 3.00001C70.5 2.50001 72.9 1.50001 74.5 1.50001C76.5 1.50001 78.5 1.50001 83.5 4.50001C88.5 7.50001 92 13.5 93.5 23C95 32.5 93 64 92.5 68.5C92 73 82.5 76 77.5 78C73.5 79.6 70.5 79.3333 69.5 79Z" fill="#C4C4C4"/>
</mask>
<g mask="url(#mask0)">
<path d="M69.5 78L15 74C11.8 73.7651 10.6666 71.2355 10.5 70C8.66665 62.1667 5.19999 43.1 5.99999 29.5C6.99999 12.5 16 0.500012 23.5 -0.499983C29.5 -1.29998 32.3333 0.500019 33 1.50002C35.6667 1.16668 42.9 0.400012 50.5 1.20401e-05C58.1 -0.399988 66.3333 1.16668 69.5 2.00001C70.5 1.50001 72.9 0.500012 74.5 0.500012C76.5 0.500012 78.5 0.500012 83.5 3.50001C88.5 6.50001 92 12.5 93.5 22C95 31.5 93 63 92.5 67.5C92 72 82.5 75 77.5 77C73.5 78.6 70.5 78.3333 69.5 78Z" fill="#404E71"/>
<path d="M73.5001 69L20.0001 65C18.5001 62.5 13.0001 37.5 15.5001 19C17.5001 4.2 31.3334 -0.833333 38.0001 -1.5L65.0001 0.5C68.5001 2 76.3001 5.8 79.5001 9C83.5001 13 85.0001 16 86.5001 20.5C87.7001 24.1 88.0001 51 88.0001 64L73.5001 69Z" fill="url(#paint0_linear)"/>
<g style="mix-blend-mode:multiply" opacity="0.25">
<path d="M57.5 30C58.7 30.4 58 34.8333 57.5 37C56.5 42.6667 54.3 54.5 53.5 56.5C52.7 58.5 50.1667 58.6667 49 58.5C43.3333 58.1667 31.5 57.5 29.5 57.5C27 57.5 26.5 48 26 46.5C25.5 45 24 31 25 29C26 27 30 27.5 39 28C48 28.5 56 29.5 57.5 30Z" fill="black"/>
</g>
<path d="M20 65L18 67C17.3333 67 15.6 64.9 14 56.5C12 46 13.5 14 19 5C23.4 -2.2 32.8333 -4.66667 37 -5C39.1667 -2.83333 45.5 -2.5 41.5 -1C36.329 0.939142 29 2.5 22.5 12C17.3 19.6 18.6667 50.5 20 65Z" fill="url(#paint1_linear)"/>
<path d="M68.5 38L73 81L93 74.5C94.6667 69.1667 98.1 58.1 98.5 56.5C99 54.5 95 12.5 95 11C95 9.8 86.6667 3.5 82.5 0.5C79.3333 3.16667 73 8.7 73 9.5C73 10.3 70 28.8333 68.5 38Z" fill="url(#paint2_linear)"/>
<path d="M21 6.49998C25 -0.700019 30.6667 0.833314 33 2.49998L23.5 -8L1.5 22.5C2.50001 37.1667 4.40002 66.6 4.00002 67C3.60002 67.4 10.1667 74.1667 13.5 77.5L73 83.5C73.6667 88.6667 74.4 89.5 72 51.5C69.6 13.5 77 3.33333 81 3C81.3334 2.83333 81.9 2.29998 81.5 1.49999C81 0.500007 73.5 -0.500006 69.5 2.99999C65.5 6.49999 63 15.5 62 24C61.2 30.8 62.3334 57.5 63 70L18 67C17.3333 63.8333 15.9 55.1 15.5 45.5C15 33.5 16 15.5 21 6.49998Z" fill="url(#paint3_linear)"/>
<path d="M88 64L76 68C76 63 76 40 76.5 28.5C77 17 79 11.5 80.5 12C82 12.5 81.5 11.5 84.5 16.5C87.5 21.5 86.5 23.5 87.5 34.5C88.3 43.3 88.1667 57.8333 88 64Z" fill="#404E71"/>
<path d="M63 68L20 65L18 67L63 70.5V68Z" fill="#FDBA6E"/>
<path d="M88 64L76 68V70L91 64V63V49C91 34 89 22.5 87.5 16.5C86 10.5 80 11.7 80.5 12C83.0001 13.4999 85.5 17.5 86.5 23C87.3 27.4 87.8333 52.1667 88 64Z" fill="#D26A37"/>
<g style="mix-blend-mode:multiply" opacity="0.25">
<path d="M16 33.5L19 32L62 33.5V36L73 37L95 33C95.8333 33 97.6 33.5 98 35.5C98.4 37.5 96.8333 39 96 39.5C97 39.1667 98.9 39.4 98.5 43C98.1 46.6 96.6667 47.5 96 47.5C93 48.3333 85.9 50.2 81.5 51C77.1 51.8 73.3333 52 72 52C52.8333 51.3333 13.2 50 8 50C1.5 50 2.00006 47.5 1.00004 45C0.200031 43 1.6667 41.8333 2.50004 41.5C1.83338 41 0.600042 39.4 1.00004 37C1.40004 34.6 4.50004 33.6667 6.00004 33.5H16Z" fill="black"/>
</g>
</g>
<mask id="mask1" mask-type="alpha" maskUnits="userSpaceOnUse" x="0" y="29" width="99" height="20">
<path d="M16 30.5L19 29L62 30.5V33L73 34L95 30C95.8333 30 97.6 30.5 98 32.5C98.4 34.5 96.8333 36 96 36.5C97 36.1667 98.9 36.4 98.5 40C98.1 43.6 96.6667 44.5 96 44.5C93 45.3333 85.9 47.2 81.5 48C77.1 48.8 73.3333 49 72 49C52.8333 48.3333 13.2 47 8 47C1.5 47 2.00006 44.5 1.00004 42C0.200031 40 1.6667 38.8333 2.50004 38.5C1.83338 38 0.600042 36.4 1.00004 34C1.40004 31.6 4.50004 30.6667 6.00004 30.5H16Z" fill="#C4C4C4"/>
</mask>
<g mask="url(#mask1)">
<path d="M16 32L22.5 30L62 32L73 34L95 30C95.8333 30 97.6 30.5 98 32.5C98.4 34.5 96.8333 36 96 36.5C97 36.1667 98.9 36.4 98.5 40C98.1 43.6 96.6667 44.5 96 44.5C93 45.3333 85.9 47.2 81.5 48C77.1 48.8 73.3333 49 72 49C52.8333 48.3333 13.2 47 8 47C1.5 47 2.00006 44.5 1.00004 42C0.200031 40 1.6667 38.8333 2.50004 38.5C1.83338 38 0.600042 36.4 1.00004 34C1.40004 31.6 4.50004 30.6667 6.00004 30.5L16 32Z" fill="#D26A37"/>
<path d="M22.5 34.5C11.3 34.1 3.16667 33.3333 0.5 33L9.5 26.5H46C46.8 26.5 63.3333 30.1667 71.5 32L76.5 36.5C63.1667 36 33.7 34.9 22.5 34.5Z" fill="#FDBA6E"/>
<path d="M75 36.5L71.5 34C76.8333 31.3333 89.8 25.8 91 25C92.5 24 98.5 25 100.5 25C102.5 25 104.5 33 104 35C103.5 37 100.5 45 99.5 46C98.7 46.8 82.5 48.5 75.5 49.5L75 36.5Z" fill="#A04022"/>
<g style="mix-blend-mode:multiply" opacity="0.25">
<path d="M57.5 30C58.7 30.4 58 34.8333 57.5 37C56.5 42.6667 54.3 54.5 53.5 56.5C52.7 58.5 50.1667 58.6667 49 58.5C43.3333 58.1667 31.5 57.5 29.5 57.5C27 57.5 26.5 48 26 46.5C25.5 45 24 31 25 29C26 27 30 27.5 39 28C48 28.5 56 29.5 57.5 30Z" fill="black"/>
</g>
<g style="mix-blend-mode:multiply" opacity="0.25">
<path d="M43 40.5C34.2 40.1 13 39 3.49995 38.5C-1.70005 38.2278 -1.33338 40.0533 -0.500046 41C23.1666 41.8333 71.1 43.5 73.5 43.5C75.9 43.5 78.5 42.8333 79.5 42.5L100.5 38L100 35.5L76.5 41C69 41 51.8 40.9 43 40.5Z" fill="black"/>
</g>
</g>
<path d="M26.5 24C23.7 24 22.3333 26.3333 22 27.5C22 30 44.5 56 47.5 56.5C50.5 57 53 53 53 52C53 51 57 30.5 57.5 28C58 25.5 54 25.5 50.5 25C47 24.5 30 24 26.5 24Z" fill="#FDBA6E"/>
<path d="M54.5 28C55.7 28.4 55 32.8333 54.5 35C53.5 40.6667 51.3 52.5 50.5 54.5C49.7 56.5 47.1667 56.6667 46 56.5C40.3333 56.1667 28.5 55.5 26.5 55.5C24 55.5 23.5 46 23 44.5C22.5 43 21 29 22 27C23 25 27 25.5 36 26C45 26.5 53 27.5 54.5 28Z" fill="url(#paint4_linear)"/>
<mask id="mask2" mask-type="alpha" maskUnits="userSpaceOnUse" x="24" y="28" width="27" height="25">
<path d="M29.7659 30.596L31.9894 38.3617C32.4563 37.0691 33.5403 33.9966 34.1411 32.0475C34.8922 29.6111 35.9885 28.7177 37.9782 28.9207C39.57 29.083 40.3944 31.5126 40.6076 32.707L42.9326 39.4779L44.6884 32.118C45.1384 30.9912 46.5257 28.8878 48.4748 29.4887C50.4239 30.0895 50.742 31.8978 50.6575 32.7269C49.6053 36.4728 47.3101 44.8498 46.5469 48.3906C45.5928 52.8166 44.1006 52.6644 42.6083 52.5122C41.4145 52.3905 40.2903 50.6005 39.8775 49.7207L37.2073 41.4069C36.6896 43.1969 35.5041 47.2643 34.9033 49.2134C34.1522 51.6497 32.5077 52.9898 30.5181 52.7869C28.9263 52.6245 28.1358 49.8634 27.9394 48.5031L24.0913 32.0276C23.9932 31.3475 24.2151 29.8288 25.888 29.1953C27.5609 28.5618 29.1703 29.8651 29.7659 30.596Z" fill="#C4C4C4"/>
</mask>
<g mask="url(#mask2)">
<path d="M29.7659 30.596L31.9894 38.3617C32.4563 37.0691 33.5403 33.9966 34.1411 32.0475C34.8922 29.6111 35.9885 28.7177 37.9782 28.9207C39.57 29.083 40.3944 31.5126 40.6076 32.707L42.9326 39.4779L44.6884 32.118C45.1384 30.9912 46.5257 28.8878 48.4748 29.4887C50.4239 30.0895 50.742 31.8978 50.6575 32.7269C49.6053 36.4728 47.3101 44.8498 46.5469 48.3906C45.5928 52.8166 44.1006 52.6644 42.6083 52.5122C41.4145 52.3905 40.2903 50.6005 39.8775 49.7207L37.2073 41.4069C36.6896 43.1969 35.5041 47.2643 34.9033 49.2134C34.1522 51.6497 32.5077 52.9898 30.5181 52.7869C28.9263 52.6245 28.1358 49.8634 27.9394 48.5031L24.0913 32.0276C23.9932 31.3475 24.2151 29.8288 25.888 29.1953C27.5609 28.5618 29.1703 29.8651 29.7659 30.596Z" fill="#060E22"/>
<path d="M26.5 36C25.3 30.4 26 28.3333 26.5 28L22.5 30V38.5L27 54L33.5 54.5H47C48.1667 50 51.3 43.7 48.5 48.5C45 54.5 42.5 49.5 42 49.5C41.6 49.5 39.8333 44.5 39 42H37C37 44 37.2 48.4 36 50C34.8 51.6 30.6667 51.6667 30 49.5C29.3333 47.3333 27.7 41.6 26.5 36Z" fill="#762F19"/>
<path d="M35 37L32 38.5C32.5 35.1667 33.5 28.4 33.5 28C33.5 27.5 38.5 27 39 27.5C39.4 27.9 40.5 29.3333 41 30C40.3333 30 38.6 30.2 37 31C35.4 31.8 35 35.3333 35 37Z" fill="#762F19"/>
<path d="M45.5 38.5L43 39.5V31L45.5 28C46.8146 28.5634 48.7429 29.3808 49.89 29.844C50.089 29.8476 50.2928 29.8964 50.5 30C51.1985 30.3493 50.7788 30.203 49.89 29.844C48.5525 29.8199 47.4352 31.8393 47 33L45.5 38.5Z" fill="#762F19"/>
</g>
<defs>
<linearGradient id="paint0_linear" x1="51" y1="-2" x2="51.4289" y2="69" gradientUnits="userSpaceOnUse">
<stop stop-color="#7B88AD"/>
<stop offset="1" stop-color="#505B78"/>
</linearGradient>
<linearGradient id="paint1_linear" x1="56" y1="1.57589e-07" x2="55.8487" y2="81" gradientUnits="userSpaceOnUse">
<stop stop-color="#B65537"/>
<stop offset="1" stop-color="#A04022"/>
</linearGradient>
<linearGradient id="paint2_linear" x1="56" y1="1.57589e-07" x2="55.8487" y2="81" gradientUnits="userSpaceOnUse">
<stop stop-color="#B65537"/>
<stop offset="1" stop-color="#A04022"/>
</linearGradient>
<linearGradient id="paint3_linear" x1="42" y1="-3.46725e-07" x2="42" y2="77.5" gradientUnits="userSpaceOnUse">
<stop stop-color="#E17845"/>
<stop offset="1" stop-color="#D26A37"/>
</linearGradient>
<linearGradient id="paint4_linear" x1="38.4131" y1="25.5528" x2="38.4131" y2="56.5489" gradientUnits="userSpaceOnUse">
<stop stop-color="#E17844"/>
<stop offset="1" stop-color="#D36B38"/>
</linearGradient>
</defs>
</svg>
