<svg width="310" height="127" viewBox="0 0 310 127" fill="none" xmlns="http://www.w3.org/2000/svg">
<g clip-path="url(#clip0)">
<circle cx="47" cy="83" r="15" fill="#344E72"/>
<g clip-path="url(#clip1)">
<path d="M54.9598 88.7101C54.8894 88.3722 54.5585 88.1552 54.2205 88.2256C53.8826 88.2959 53.6657 88.6269 53.736 88.9648C53.7766 89.1595 53.7283 89.359 53.6037 89.5123C53.5315 89.6011 53.3705 89.75 53.1037 89.75H40.897C40.6302 89.75 40.4692 89.6011 40.397 89.5123C40.2724 89.359 40.2241 89.1595 40.2647 88.9648C40.9133 85.8494 43.6613 83.5736 46.8347 83.4968C46.8896 83.4989 46.9449 83.5 47.0004 83.5C47.056 83.5 47.1115 83.4989 47.1667 83.4968C49.402 83.5504 51.4682 84.6826 52.7194 86.5487C52.9116 86.8354 53.2998 86.9119 53.5866 86.7197C53.8733 86.5275 53.9499 86.1393 53.7576 85.8526C52.7321 84.3231 51.2429 83.2109 49.545 82.652C50.5797 81.8761 51.2504 80.6399 51.2504 79.25C51.2504 76.9066 49.3438 75 47.0004 75C44.6569 75 42.7504 76.9066 42.7504 79.25C42.7504 80.6408 43.4219 81.8776 44.4576 82.6535C43.5086 82.9659 42.6182 83.4521 41.8388 84.0931C40.4097 85.2687 39.416 86.9083 39.0409 88.7101C38.9234 89.2747 39.0642 89.8545 39.4273 90.301C39.7885 90.7452 40.3243 91 40.897 91H53.1037C53.6764 91 54.2122 90.7452 54.5734 90.301C54.9365 89.8545 55.0774 89.2747 54.9598 88.7101ZM44.0004 79.25C44.0004 77.5958 45.3461 76.25 47.0004 76.25C48.6546 76.25 50.0004 77.5958 50.0004 79.25C50.0004 80.8533 48.7361 82.1668 47.1522 82.2462C47.1017 82.2453 47.051 82.2448 47.0004 82.2448C46.9499 82.2448 46.8995 82.2453 46.8491 82.2462C45.2649 82.1672 44.0004 80.8535 44.0004 79.25Z" fill="white"/>
</g>
<circle cx="155" cy="60" r="15" fill="#344E72"/>
<g clip-path="url(#clip2)">
<path d="M162.96 65.7101C162.889 65.3722 162.559 65.1552 162.221 65.2256C161.883 65.2959 161.666 65.6269 161.736 65.9648C161.777 66.1595 161.728 66.359 161.604 66.5123C161.531 66.6011 161.371 66.75 161.104 66.75H148.897C148.63 66.75 148.469 66.6011 148.397 66.5123C148.272 66.359 148.224 66.1595 148.265 65.9648C148.913 62.8494 151.661 60.5736 154.835 60.4968C154.89 60.4989 154.945 60.5 155 60.5C155.056 60.5 155.111 60.4989 155.167 60.4968C157.402 60.5504 159.468 61.6826 160.719 63.5487C160.912 63.8354 161.3 63.9119 161.587 63.7197C161.873 63.5275 161.95 63.1393 161.758 62.8526C160.732 61.3231 159.243 60.2109 157.545 59.652C158.58 58.8761 159.25 57.6399 159.25 56.25C159.25 53.9066 157.344 52 155 52C152.657 52 150.75 53.9066 150.75 56.25C150.75 57.6408 151.422 58.8776 152.458 59.6535C151.509 59.9659 150.618 60.4521 149.839 61.0931C148.41 62.2687 147.416 63.9083 147.041 65.7101C146.923 66.2747 147.064 66.8545 147.427 67.301C147.789 67.7452 148.324 68 148.897 68H161.104C161.676 68 162.212 67.7452 162.573 67.301C162.937 66.8545 163.077 66.2747 162.96 65.7101ZM152 56.25C152 54.5958 153.346 53.25 155 53.25C156.655 53.25 158 54.5958 158 56.25C158 57.8533 156.736 59.1668 155.152 59.2462C155.102 59.2453 155.051 59.2448 155 59.2448C154.95 59.2448 154.899 59.2453 154.849 59.2462C153.265 59.1672 152 57.8535 152 56.25Z" fill="white"/>
</g>
<circle cx="263" cy="31" r="15" fill="#344E72"/>
<g clip-path="url(#clip3)">
<path d="M270.96 36.7101C270.889 36.3722 270.559 36.1552 270.221 36.2256C269.883 36.2959 269.666 36.6269 269.736 36.9648C269.777 37.1595 269.728 37.359 269.604 37.5123C269.531 37.6011 269.371 37.75 269.104 37.75H256.897C256.63 37.75 256.469 37.6011 256.397 37.5123C256.272 37.359 256.224 37.1595 256.265 36.9648C256.913 33.8494 259.661 31.5736 262.835 31.4968C262.89 31.4989 262.945 31.5 263 31.5C263.056 31.5 263.111 31.4989 263.167 31.4968C265.402 31.5504 267.468 32.6826 268.719 34.5487C268.912 34.8354 269.3 34.9119 269.587 34.7197C269.873 34.5275 269.95 34.1393 269.758 33.8526C268.732 32.3231 267.243 31.2109 265.545 30.652C266.58 29.8761 267.25 28.6399 267.25 27.25C267.25 24.9066 265.344 23 263 23C260.657 23 258.75 24.9066 258.75 27.25C258.75 28.6408 259.422 29.8776 260.458 30.6535C259.509 30.9659 258.618 31.4521 257.839 32.0931C256.41 33.2687 255.416 34.9083 255.041 36.7101C254.923 37.2747 255.064 37.8545 255.427 38.301C255.789 38.7452 256.324 39 256.897 39H269.104C269.676 39 270.212 38.7452 270.573 38.301C270.937 37.8545 271.077 37.2747 270.96 36.7101ZM260 27.25C260 25.5958 261.346 24.25 263 24.25C264.655 24.25 266 25.5958 266 27.25C266 28.8533 264.736 30.1668 263.152 30.2462C263.102 30.2453 263.051 30.2448 263 30.2448C262.95 30.2448 262.899 30.2453 262.849 30.2462C261.265 30.1672 260 28.8535 260 27.25Z" fill="white"/>
</g>
<circle cx="155" cy="-31" r="157" stroke="#344E72" stroke-opacity="0.4" stroke-width="2"/>
<circle cx="155" cy="-31" r="126" stroke="#344E72" stroke-opacity="0.6" stroke-width="2"/>
<circle cx="155" cy="-31" r="92" stroke="#344E72" stroke-opacity="0.8" stroke-width="2"/>
<circle cx="155" cy="-31" r="61" stroke="#344E72" stroke-width="2"/>
<circle cx="155" r="7" fill="#D80027"/>
<circle cx="35" cy="-9" r="15" fill="#344E72"/>
</g>
<defs>
<clipPath id="clip0">
<rect width="310" height="127" fill="white"/>
</clipPath>
<clipPath id="clip1">
<rect width="16" height="16" fill="white" transform="translate(39 75)"/>
</clipPath>
<clipPath id="clip2">
<rect width="16" height="16" fill="white" transform="translate(147 52)"/>
</clipPath>
<clipPath id="clip3">
<rect width="16" height="16" fill="white" transform="translate(255 23)"/>
</clipPath>
</defs>
</svg>
