<svg width="18" height="18" viewBox="0 0 18 18" fill="none" xmlns="http://www.w3.org/2000/svg">
<path d="M9 18C13.9706 18 18 13.9706 18 9C18 4.02944 13.9706 0 9 0C4.02944 0 0 4.02944 0 9C0 13.9706 4.02944 18 9 18Z" fill="#D80027"/>
<path d="M4.92539 5.47656L5.70234 7.86719H8.21602L6.18398 9.34727L6.96094 11.7379L4.92539 10.2613L2.88984 11.7379L3.67031 9.34727L1.63477 7.86719H4.14844L4.92539 5.47656Z" fill="#FFDA44"/>
<path d="M10.6699 13.9391L10.0758 13.2078L9.19686 13.5488L9.70663 12.7578L9.11249 12.023L10.023 12.2656L10.5363 11.4746L10.5855 12.4168L11.4996 12.6594L10.6172 12.9969L10.6699 13.9391Z" fill="#FFDA44"/>
<path d="M11.8512 11.7945L12.1324 10.8945L11.3625 10.3496L12.3047 10.3355L12.5824 9.43555L12.8883 10.3285L13.8305 10.318L13.0746 10.8805L13.377 11.7734L12.607 11.2285L11.8512 11.7945Z" fill="#FFDA44"/>
<path d="M13.4437 6.60566L13.0289 7.45293L13.7039 8.11035L12.7723 7.97676L12.3574 8.82051L12.1957 7.89238L11.2605 7.75879L12.0973 7.31934L11.9355 6.3877L12.6105 7.04512L13.4437 6.60566Z" fill="#FFDA44"/>
<path d="M10.6945 4.03906L10.6242 4.97773L11.4996 5.33281L10.582 5.55781L10.5152 6.5L10.0195 5.69844L9.10196 5.92344L9.71016 5.20273L9.21094 4.40469L10.0863 4.75977L10.6945 4.03906Z" fill="#FFDA44"/>
</svg>
