<svg width="171" height="41" viewBox="0 0 171 41" fill="none" xmlns="http://www.w3.org/2000/svg">
<path d="M47.3742 21.6835C47.3742 23.6524 47.2221 25.1145 46.9181 26.0697C46.614 27.0249 46.0254 27.7901 45.1524 28.3651C44.2794 28.9402 43.3378 29.2278 42.3274 29.2278C41.3171 29.2278 40.3852 29.0718 39.5319 28.7599C39.1025 28.603 38.4244 28.1925 37.4978 27.5284C36.9456 27.1327 36.81 26.3682 37.1924 25.8065C37.5647 25.2596 38.3068 25.1131 38.8587 25.4775C39.6405 25.9936 40.1738 26.3177 40.4588 26.4498C41.0474 26.7228 41.6212 26.8592 42.1803 26.8592C42.7394 26.8592 43.2544 26.6545 43.7252 26.2451C44.196 25.8358 44.4952 25.3046 44.6227 24.6515C44.7503 23.9984 44.814 22.9799 44.814 21.5958V8.57792C44.814 7.87041 45.3871 7.29685 46.0941 7.29685C46.8011 7.29685 47.3742 7.87041 47.3742 8.57792V21.6835ZM64.3683 28.7014C63.6938 28.7014 63.1471 28.1542 63.1471 27.4792V26.3036C61.558 28.1751 59.6747 29.1108 57.4971 29.1108C56.3396 29.1108 55.2901 28.8135 54.3484 28.2189C53.4067 27.6244 52.7005 26.8056 52.2296 25.7627C51.7588 24.7197 51.5234 23.1164 51.5234 20.9525V13.9724C51.5234 13.3055 52.0636 12.765 52.7299 12.765C53.3962 12.765 53.9364 13.3055 53.9364 13.9724V20.3677C53.9364 22.1221 54.0198 23.3162 54.1865 23.9497C54.3533 24.5833 54.5985 25.1194 54.9222 25.558C55.2459 25.9966 55.6579 26.3231 56.1582 26.5376C56.6584 26.752 57.2666 26.8592 57.9826 26.8592C58.6987 26.8592 59.4 26.6838 60.0867 26.3329C60.7733 25.982 61.3618 25.4946 61.8523 24.8708C62.3427 24.247 62.6812 23.5842 62.8675 22.8824C63.0539 22.1806 63.1471 20.7771 63.1471 18.6717V13.9871C63.1471 13.3121 63.6938 12.765 64.3683 12.765C65.0428 12.765 65.5895 13.3121 65.5895 13.9871V27.4792C65.5895 28.1542 65.0428 28.7014 64.3683 28.7014ZM77.2279 15.4405C76.7873 15.8949 76.0872 15.9741 75.5564 15.6297C74.5358 14.9675 73.7736 14.6364 73.27 14.6364C72.6618 14.6364 72.1518 14.8265 71.7398 15.2066C71.3278 15.5867 71.1218 16.0546 71.1218 16.6102C71.1218 17.1658 71.3523 17.6531 71.8134 18.0722C72.2744 18.4914 73.0934 19.0079 74.2705 19.622C75.4476 20.2361 76.3549 20.9135 76.9925 21.6543C77.6301 22.3951 77.9489 23.3015 77.9489 24.3737C77.9489 25.7383 77.4732 26.8884 76.5217 27.8242C75.5702 28.7599 74.398 29.2278 73.0052 29.2278C71.9205 29.2278 70.6086 28.6531 69.0695 27.5039C68.5945 27.1493 68.4968 26.4764 68.8512 26.001C68.8712 25.9742 68.8924 25.9483 68.9148 25.9235C69.3334 25.4595 70.0371 25.393 70.5352 25.7703C71.5449 26.5352 72.3388 26.9177 72.9169 26.9177C73.6624 26.9177 74.2999 26.674 74.8296 26.1867C75.3593 25.6993 75.6242 25.1291 75.6242 24.4761C75.6242 23.823 75.3839 23.2772 74.9032 22.8385C74.4226 22.3999 73.5986 21.8882 72.4313 21.3034C71.264 20.7186 70.3812 20.0704 69.7829 19.3588C69.1845 18.6473 68.8854 17.7116 68.8854 16.5517C68.8854 15.3918 69.3121 14.4025 70.1654 13.5837C71.0188 12.7649 72.1469 12.3556 73.5496 12.3556C74.3366 12.3556 75.514 12.8942 77.0816 13.9713C77.5211 14.2733 77.6328 14.8747 77.331 15.3145C77.3003 15.3594 77.2658 15.4015 77.2279 15.4405ZM89.5872 14.8703H85.2763V26.0405C85.2763 26.4498 85.3351 26.6984 85.4528 26.7861C85.5705 26.8738 85.8648 26.9177 86.3356 26.9177H86.7109C87.2837 26.9177 87.7481 27.3825 87.7481 27.9558C87.7481 28.555 87.3009 29.0599 86.7065 29.1319C86.1781 29.1958 85.8093 29.2278 85.5999 29.2278C84.6583 29.2278 83.9618 28.9987 83.5106 28.5406C83.0594 28.0825 82.8338 27.3563 82.8338 26.3621V14.8703V12.765V7.99268C82.8338 7.31769 83.3806 6.77051 84.055 6.77051C84.7295 6.77051 85.2763 7.31769 85.2763 7.99268V12.765H89.5872C90.1681 12.765 90.639 13.2363 90.639 13.8176C90.639 14.399 90.1681 14.8703 89.5872 14.8703ZM101.883 11.0445C101.346 10.4368 100.951 10.0502 100.699 9.8847C100.15 9.52405 99.5074 9.34373 98.7717 9.34373C98.036 9.34373 97.418 9.57766 96.9178 10.0455C96.4175 10.5134 96.1674 11.1128 96.1674 11.8439C96.1674 12.5749 96.4028 13.2133 96.8736 13.7592C97.3445 14.305 98.4284 15.1968 100.125 16.4347C101.822 17.6726 103.063 18.8374 103.848 19.929C104.633 21.0207 105.025 22.1709 105.025 23.3795C105.025 24.9585 104.412 26.328 103.186 27.4879C101.96 28.6478 100.532 29.2278 98.9041 29.2278C97.1981 29.2278 95.2232 27.9595 92.9795 25.423C92.6031 24.9975 92.6426 24.3471 93.0679 23.9704C93.1207 23.9236 93.1781 23.8824 93.2394 23.8474C93.8466 23.5002 94.6149 23.6373 95.0649 24.1729C96.5203 25.9053 97.702 26.7715 98.6098 26.7715C99.63 26.7715 100.503 26.4498 101.229 25.8065C101.955 25.1632 102.318 24.4127 102.318 23.555C102.318 22.6972 102.014 21.8833 101.405 21.1133C100.797 20.3433 99.7477 19.3978 98.2567 18.2769C96.7657 17.156 95.7407 16.3031 95.1816 15.7183C94.6225 15.1335 94.2154 14.5097 93.9603 13.8469C93.7053 13.1841 93.5778 12.5213 93.5778 11.8585C93.5778 10.4354 94.0731 9.23165 95.0639 8.24719C96.0546 7.26273 97.3347 6.77051 98.9041 6.77051C100.12 6.77051 101.18 7.07754 102.082 7.69161C102.528 7.9949 103.128 8.57371 103.882 9.42803C104.332 9.93746 104.284 10.7154 103.775 11.1656C103.756 11.1827 103.736 11.1993 103.715 11.2152C103.155 11.6507 102.354 11.576 101.883 11.0445ZM130.611 13.9459L124.99 28.4818C124.816 28.9314 124.384 29.2278 123.902 29.2278C123.422 29.2278 122.992 28.9288 122.824 28.478L118.885 17.8822L114.918 28.4787C114.749 28.9292 114.319 29.2278 113.838 29.2278C113.357 29.2278 112.926 28.9301 112.755 28.48L107.235 13.935C107.065 13.4892 107.289 12.9906 107.735 12.8212C107.833 12.784 107.937 12.765 108.041 12.765C108.796 12.765 109.474 13.2264 109.752 13.9288L113.252 22.7822C113.377 23.0977 113.734 23.2522 114.049 23.1274C114.207 23.0649 114.332 22.9398 114.394 22.7818L118.148 13.2671C118.267 12.9641 118.56 12.765 118.885 12.765C119.21 12.765 119.503 12.9645 119.621 13.2677L123.353 22.8149C123.477 23.1308 123.833 23.2868 124.149 23.1632C124.306 23.1015 124.431 22.9774 124.495 22.8204L128.065 13.9398C128.35 13.23 129.038 12.765 129.803 12.765C130.281 12.765 130.67 13.1535 130.67 13.6327C130.67 13.7399 130.65 13.8461 130.611 13.9459ZM147.974 28.7014C147.316 28.7014 146.782 28.1674 146.782 27.5087V26.3621C145.036 28.2725 143.025 29.2278 140.749 29.2278C138.474 29.2278 136.527 28.3944 134.908 26.7276C133.29 25.0609 132.48 23.0725 132.48 20.7624C132.48 18.4524 133.295 16.4737 134.923 14.8265C136.551 13.1792 138.537 12.3556 140.882 12.3556C143.226 12.3556 145.193 13.301 146.782 15.192V13.9577C146.782 13.299 147.316 12.765 147.974 12.765C148.632 12.765 149.166 13.299 149.166 13.9577V27.5087C149.166 28.1674 148.632 28.7014 147.974 28.7014ZM140.926 26.9762C142.554 26.9762 143.957 26.3914 145.134 25.2217C146.311 24.0521 146.9 22.5949 146.9 20.8501C146.9 19.1054 146.321 17.6434 145.163 16.464C144.006 15.2846 142.589 14.6949 140.911 14.6949C139.234 14.6949 137.817 15.3041 136.659 16.5224C135.502 17.7408 134.923 19.1785 134.923 20.8355C134.923 22.4925 135.511 23.9302 136.688 25.1486C137.866 26.367 139.278 26.9762 140.926 26.9762ZM155.379 14.9566C156.968 13.0656 159.279 12.3556 161.613 12.3556C163.948 12.3556 165.929 13.1792 167.557 14.8265C169.186 16.4737 170 18.4572 170 20.777C170 23.0969 169.196 25.0852 167.587 26.7422C165.978 28.3993 164.036 29.2278 161.76 29.2278C159.485 29.2278 157.474 28.2725 155.728 26.3621V33.1375C155.728 33.8044 155.188 34.345 154.521 34.345C153.855 34.345 153.315 33.8044 153.315 33.1375V21.1197C153.315 21.0375 153.314 20.9552 153.312 20.873L153.246 17.5774C153.609 17.0908 154.32 16.2172 155.379 14.9566ZM161.613 26.9762C163.222 26.9762 164.62 26.3767 165.807 25.1778C166.993 23.9789 167.587 22.5315 167.587 20.8355C167.587 19.1395 167.003 17.6921 165.836 16.4932C164.669 15.2943 163.242 14.6949 161.554 14.6949C159.867 14.6949 158.45 15.2846 157.302 16.464C156.154 17.6434 155.581 19.1005 155.581 20.8355C155.581 22.5705 156.169 24.0277 157.346 25.2071C158.523 26.3865 159.946 26.9762 161.613 26.9762Z" fill="#48658C" stroke="#48658C" stroke-width="1.03349"/>
<path d="M9.05183 19.8306L14.09 24.8345C16.3447 27.074 16.3447 30.7049 14.09 32.9444L9.05183 37.9483" stroke="#48658C" stroke-width="5.16746" stroke-linecap="round"/>
<path d="M22.2148 3.01911L17.1766 8.02301C14.9219 10.2625 14.9219 13.8934 17.1766 16.1329L22.2148 21.1368" stroke="#48658C" stroke-width="5.16746" stroke-linecap="round"/>
</svg>
