<svg width="170" height="20" viewBox="0 0 170 20" fill="none" xmlns="http://www.w3.org/2000/svg">
<path d="M11.7686 16.4254H3.55006V11.9953H11.7686C13.8224 11.9953 14.8721 12.9903 14.8721 14.2789C14.8721 15.5212 13.8452 16.4254 11.7686 16.4254ZM11.5015 9.62294H3.55006V5.89239H11.5015C13.6659 5.89239 14.5151 6.66516 14.5151 7.72386C14.5151 8.69566 13.5322 9.62294 11.5015 9.62294ZM13.6009 10.7531C17.0631 10.6391 18.3133 8.8985 18.3133 7.00132C18.3115 4.92062 16.6814 3.20312 12.7058 3.20312H0V19.0701H13.0856C16.3455 19.0701 18.7809 17.6927 18.7809 14.731C18.7809 12.629 17.4182 10.8439 13.599 10.7531H13.6009ZM22.2108 3.20312V19.0701H25.7666V3.20312H22.2108ZM40.7246 6.20923H48.55V3.20312H29.3663V6.20923H37.1822V19.0701H40.7322L40.7246 6.20923ZM52.1535 3.20312V19.0701H55.7035V12.8879H64.0347V10.2779H55.7035V5.93875H69.2377V3.20312H52.1535ZM73.0684 3.20312V19.0701H76.6184V3.20312H73.0684ZM83.7984 7.06701L95.5652 19.0682H99.5854V3.20312H96.0808V14.6403L84.78 3.20312H80.2696V19.0701H83.7984V7.06701ZM103.238 3.20312V19.0701H120.607V16.4041H106.788V12.0417H115.074V9.57853H106.788V5.93875H120.61V3.20312H103.238ZM145.152 3.20312H140.462L134.479 8.78645L128.537 3.20312H123.781L132.133 11.0236L123.468 19.0701H128.16L134.433 13.2163L140.686 19.0701H145.458L136.778 11.0004L145.152 3.20312Z" fill="#48658C"/>
<path d="M169.693 0.111124C169.622 0.0802123 162.301 -0.92826 155.064 3.78181C150.571 6.71257 149.976 10.9995 150.181 13.8588C160.708 12.6803 169.455 0.453077 169.693 0.111124ZM150.895 17.0349C151.8 18.6462 158.638 22.2995 164.693 17.261C170.748 12.2225 170.239 3.0554 169.693 0.111124C169.502 0.538081 162.893 15.19 150.895 17.033" fill="#48658C"/>
<path d="M169.693 0.111245C169.622 0.0822667 162.301 -0.928139 155.064 3.78194C150.571 6.71269 149.976 10.9997 150.181 13.857C160.708 12.6804 169.455 0.453198 169.693 0.111245Z" fill="#48658C"/>
</svg>
