<svg width="170" height="44" viewBox="0 0 170 44" fill="none" xmlns="http://www.w3.org/2000/svg">
<path d="M155.241 10.2985C155.241 8.99196 154.082 7.91602 152.845 7.91602C151.532 7.91602 150.45 8.99196 150.45 10.2985C150.45 11.605 151.609 12.6809 152.845 12.6809C154.082 12.6809 155.241 11.6818 155.241 10.2985ZM154.777 15.0634H150.914V32.048H154.777V15.0634ZM135.614 16.9847C134.686 15.6782 132.986 14.756 131.055 14.756C129.123 14.756 127.577 15.4477 126.727 16.5236V15.1402H122.864V32.1249H126.727V20.6737C127.114 18.9829 128.427 18.1375 129.818 18.1375C131.75 18.1375 132.677 19.5209 132.677 21.5959V32.048H136.541V20.6737C136.927 18.9829 138.241 18.1375 139.632 18.1375C141.564 18.1375 142.491 19.5209 142.491 21.5959V32.048H146.355V21.058C146.355 17.2153 144.268 14.756 140.791 14.756C138.395 14.756 136.773 15.6014 135.614 16.9847ZM111.968 17.9838C109.805 17.9838 108.259 19.2903 107.795 21.7497H115.6C115.523 19.6746 114.364 17.9838 111.968 17.9838ZM115.677 26.822H119.232C118.614 30.2035 116.141 32.5091 111.968 32.5091C107.177 32.5091 103.855 28.897 103.855 23.671C103.855 18.5987 107.255 14.756 111.891 14.756C116.759 14.756 119.386 18.1375 119.386 23.133V24.5164H107.641C107.795 27.5137 109.495 29.2813 111.968 29.2813C113.9 29.2813 115.291 28.4359 115.677 26.822ZM94.0409 17.9838C91.8772 17.9838 90.3318 19.2903 89.8682 21.7497H97.6727C97.5954 19.6746 96.4363 17.9838 94.0409 17.9838ZM97.75 26.822H101.305C100.686 30.2035 98.2136 32.5091 94.0409 32.5091C89.25 32.5091 85.9272 28.897 85.9272 23.671C85.9272 18.5987 89.3272 14.756 93.9636 14.756C98.8318 14.756 101.459 18.1375 101.459 23.133V24.5164H89.7136C89.8682 27.5137 91.5681 29.2813 94.0409 29.2813C95.9727 29.2813 97.3636 28.4359 97.75 26.822ZM161.036 27.5137C161.036 30.8952 163.2 32.5091 166.291 32.5091C167.527 32.5091 168.532 32.2786 169.227 31.8943V28.4359C168.686 28.8202 167.759 29.1276 166.986 29.1276C165.673 29.1276 164.9 28.5128 164.9 27.1294V18.2912H168.764V15.1402H164.9V10.6059H161.036V12.5272C161.036 12.7578 161.036 12.9883 161.036 13.2189C161.036 14.6023 159.877 15.1402 159.105 15.1402C158.564 15.1402 158.332 15.1402 158.332 15.1402V18.2912H161.036V27.5137ZM75.2636 27.5137C75.2636 30.8952 77.4272 32.5091 80.5181 32.5091C81.7545 32.5091 82.7591 32.2786 83.4545 31.8943V28.4359C82.9136 28.8202 81.9863 29.1276 81.2136 29.1276C79.9 29.1276 79.1272 28.5128 79.1272 27.1294V18.2912H82.9909V15.1402H79.1272V10.6059H75.2636V12.5272C75.2636 12.7578 75.2636 12.9883 75.2636 13.2189C75.2636 14.6023 74.1045 15.1402 73.3318 15.1402C72.7909 15.1402 72.5591 15.1402 72.5591 15.1402V18.2912H75.2636V27.5137ZM56.5636 27.2063C57.1045 30.511 59.8863 32.5091 63.9045 32.5091C67.7681 32.5091 70.6272 30.4341 70.6272 27.0525C70.6272 24.5932 69.1591 22.9025 66.2227 22.2108L62.5909 21.3654C61.3545 21.058 60.8136 20.5968 60.8136 19.8283C60.8136 18.5218 62.2045 17.907 63.5954 17.907C65.3727 17.907 66.3772 18.6755 66.7636 19.7515H70.55C69.9318 16.6773 67.6909 14.756 63.6727 14.756C59.8863 14.756 57.1818 16.9847 57.1818 20.0589C57.1818 22.8256 59.0363 24.1321 61.4318 24.7469L64.9863 25.5923C66.4545 25.8997 66.9954 26.4377 66.9954 27.36C66.9954 28.6665 65.8363 29.3582 64.0591 29.3582C62.3591 29.3582 61.0454 28.6665 60.6591 27.2063H56.5636Z" fill="#48658C"/>
<path d="M34.9273 34.3534C32.3773 36.8127 28.6682 38.3498 25.7319 38.5804C23.6455 38.8109 21.4819 38.8109 19.3955 38.5804C16.3046 38.1961 14.0637 37.3507 11.8228 36.5053C12.9046 35.4294 14.0637 33.9692 14.5273 32.6627C14.8364 31.8941 14.7591 31.0487 14.45 30.357C12.0546 25.5153 13.1364 19.7513 17 15.9854C19.7819 13.2187 23.6455 11.9891 27.5864 12.4502C30.4455 12.8344 33.0728 14.0641 35.1591 16.0623C40.1046 21.0578 39.95 29.4348 34.9273 34.3534ZM37.941 12.9113C36.1637 11.1437 34.0773 9.83716 31.8364 8.99177C33.15 5.22595 37.7864 3.84259 37.7864 3.84259C37.7864 3.84259 27.1228 -1.69087 15.3773 0.537884C11.4364 1.15271 7.65004 3.53517 4.9455 6.68617C-1.0045 13.5261 -0.231776 23.9014 6.72277 29.7422C7.80459 30.6645 10.2 32.0478 10.2 32.1247C8.65459 36.1211 3.63186 37.197 3.63186 37.197C3.63186 37.197 10.2773 41.3471 19.1637 42.4231C21.5591 42.7305 24.0319 42.8073 26.5819 42.4999C30.6773 42.1925 34.7728 39.9637 37.941 36.9664C44.5864 30.357 44.6637 19.5976 37.941 12.9113Z" fill="#48658C"/>
</svg>
