<svg width="170" height="41" viewBox="0 0 170 41" fill="none" xmlns="http://www.w3.org/2000/svg">
<path d="M39.9111 16.1016C39.6457 14.8053 39.25 13.5304 38.7347 12.3119C38.2291 11.1164 37.6035 9.9638 36.8751 8.88583C36.1546 7.81916 35.327 6.81638 34.4158 5.90494C33.5045 4.9937 32.5016 4.16612 31.4349 3.44559C30.3569 2.7174 29.2041 2.09163 28.0088 1.58601C26.7904 1.07071 25.5154 0.674764 24.2191 0.409656C22.891 0.137694 21.5255 0 20.1603 0C18.795 0 17.4295 0.137695 16.1016 0.409455C14.8053 0.674764 13.5302 1.07051 12.3119 1.58581C11.1164 2.09143 9.9638 2.717 8.88583 3.44539C7.81915 4.16592 6.81638 4.99349 5.90494 5.90474C4.9937 6.81598 4.16612 7.81895 3.44559 8.88563C2.7174 9.9636 2.09163 11.1164 1.58601 12.3117C1.07071 13.5302 0.674764 14.8051 0.409657 16.1014C0.137695 17.4295 0 18.795 0 20.1603C0 21.5255 0.137694 22.891 0.409455 24.2189C0.674764 25.5152 1.07051 26.7904 1.58581 28.0086C2.09143 29.2041 2.717 30.3567 3.44539 31.4347C4.16592 32.5014 4.99349 33.5041 5.90474 34.4156C6.81598 35.3268 7.81895 36.1544 8.88563 36.8749C9.9636 37.6031 11.1164 38.2287 12.3117 38.7345C13.5302 39.2498 14.8051 39.6457 16.1014 39.9109C17.4295 40.1828 18.795 40.3205 20.1603 40.3205C21.5255 40.3205 22.891 40.1828 24.2189 39.9111C25.5152 39.6457 26.7902 39.25 28.0086 38.7347C29.2041 38.2291 30.3567 37.6035 31.4347 36.8751C32.5014 36.1546 33.5043 35.327 34.4156 34.4158C35.3268 33.5045 36.1544 32.5016 36.8749 31.4349C37.6031 30.3569 38.2287 29.2041 38.7345 28.0088C39.2498 26.7904 39.6457 25.5154 39.9109 24.2191C40.1828 22.891 40.3205 21.5255 40.3205 20.1603C40.3205 18.795 40.1828 17.4295 39.9111 16.1016ZM20.1603 37.8005C10.4178 37.8005 2.52003 29.9027 2.52003 20.1603C2.52003 10.4178 10.4178 2.52003 20.1603 2.52003C29.9027 2.52003 37.8005 10.4178 37.8005 20.1603C37.8005 29.9027 29.9027 37.8005 20.1603 37.8005Z" fill="#48658C"/>
<path d="M20.3893 37.0487C20.4434 37.0476 20.4976 37.0462 20.5515 37.0445C20.5771 37.0437 20.6026 37.0428 20.628 37.0418C20.6839 37.0397 20.7395 37.0372 20.7952 37.0345C20.8158 37.0335 20.8366 37.0327 20.8573 37.0316C20.9337 37.0275 21.0102 37.0231 21.0865 37.0177C21.0911 37.0173 21.0958 37.0171 21.1004 37.0167C21.1717 37.0117 21.2429 37.0061 21.314 37.0001C21.3346 36.9984 21.3553 36.9963 21.3757 36.9947C21.4325 36.9897 21.4893 36.9843 21.5462 36.9785C21.5674 36.9764 21.5886 36.9741 21.6096 36.972C21.6726 36.9654 21.7355 36.9583 21.7984 36.9508C21.8105 36.9494 21.8228 36.9481 21.835 36.9465C21.9132 36.9369 21.991 36.9269 22.0688 36.9161C22.071 36.9159 22.0731 36.9155 22.0752 36.9153C22.1484 36.9051 22.2216 36.8943 22.2944 36.8831C22.3098 36.8806 22.3254 36.8781 22.3409 36.8758C22.4031 36.8661 22.4653 36.8557 22.5273 36.8451C22.5422 36.8426 22.5568 36.8401 22.5717 36.8374C22.6456 36.8245 22.7196 36.811 22.7932 36.7971C22.7934 36.7971 22.7936 36.7971 22.7938 36.7969C22.9487 36.7674 23.1026 36.7352 23.256 36.7007C23.2671 36.6982 23.2783 36.6958 23.2895 36.6931C23.3561 36.6779 23.4226 36.6623 23.4889 36.6461C23.4981 36.6438 23.5074 36.6417 23.5164 36.6395C23.67 36.6019 23.8225 36.562 23.9743 36.5194C22.0806 36.5867 20.539 36.3005 19.5601 36.0749C17.3814 35.5726 15.3014 34.6529 13.5471 33.0651C10.6198 30.4157 9.12113 26.6253 9.1587 22.8583C9.18664 20.0386 10.0753 17.2322 11.8701 14.9269C14.1174 12.0405 17.3285 10.5265 20.6132 10.4561C20.7644 10.4527 20.9158 10.4529 21.0674 10.4556V7.63049C20.8989 7.628 20.7301 7.62842 20.5611 7.63195C19.5615 7.65334 18.5628 7.78545 17.5928 8.02495C16.6124 8.26693 15.6557 8.61964 14.7491 9.07349C13.8236 9.53691 12.9439 10.1088 12.1346 10.7734C11.3035 11.456 10.5394 12.2424 9.86323 13.1109C9.23229 13.9214 8.679 14.8021 8.21856 15.7289C7.76969 16.6329 7.40423 17.5905 7.1324 18.5755C6.86596 19.5405 6.68679 20.5411 6.59991 21.5493C6.57294 21.8626 6.55483 22.1775 6.54539 22.4932C6.54173 22.6139 6.53961 22.7348 6.53845 22.8556C6.53884 22.9167 6.53961 22.9778 6.54076 23.0391C6.56061 24.1169 6.68313 25.1937 6.90526 26.2395C7.1297 27.2966 7.45855 28.3273 7.87776 29.3056C8.3775 30.4718 9.27198 32.1983 10.5843 33.516C10.5855 33.5171 10.5866 33.5183 10.5878 33.5194C13.2063 35.7324 16.5053 37.052 20.0899 37.052C20.1666 37.052 20.2429 37.0512 20.3192 37.0499C20.3427 37.0497 20.366 37.0491 20.3893 37.0487Z" fill="#48658C"/>
<path d="M25.0801 34.1822C24.1375 34.1645 22.9989 34.0136 22.0942 33.8388C17.913 33.0311 14.3198 30.3285 12.9966 26.2236C11.3868 21.2304 13.8587 15.8481 18.5179 14.2016C19.4285 13.8798 20.3549 13.7247 21.2687 13.7203C22.4745 13.7147 23.6576 13.9723 24.7517 14.457L25.8843 11.8933C25.5456 11.7401 25.2 11.6037 24.848 11.4844C23.6817 11.0893 22.4735 10.8919 21.257 10.8976C20.0332 10.9033 18.8216 11.1151 17.6555 11.527C16.1654 12.0537 14.8197 12.878 13.6564 13.9769C13.0986 14.5038 12.5872 15.0925 12.1362 15.7264C11.6909 16.3525 11.3003 17.0281 10.9758 17.7347C10.6519 18.4398 10.3909 19.1819 10.1999 19.9402C10.0073 20.7052 9.88411 21.4936 9.83409 22.2836C9.73007 23.9246 9.93434 25.5538 10.4413 27.1264C10.9482 28.6985 11.7654 30.1411 12.8704 31.4138C13.8639 32.5582 15.0234 33.4275 16.4325 34.2141C17.8994 35.0331 19.6994 35.4736 21.5807 35.75C22.7935 35.9282 24.4143 35.9656 25.3758 35.9612C26.2092 35.6334 26.5602 35.4953 27.0095 35.2908C27.4018 35.0993 27.7852 34.8917 28.1594 34.6687C28.5436 34.4268 28.6108 34.389 29.2533 33.9428C29.3102 33.8995 29.3668 33.8558 29.4231 33.8116C27.2373 34.2274 26.6634 34.212 25.0801 34.1822Z" fill="#48658C"/>
<path d="M30.084 31.152C29.45 31.196 28.5525 31.2473 27.5226 31.2473C25.6997 31.2473 23.4631 31.0863 21.5463 30.4382C18.5993 29.4419 15.7967 26.8699 15.7967 23.7192C15.7967 20.5686 18.3149 18.0144 21.4213 18.0144C23.5321 18.0144 25.3712 19.1941 26.3331 20.9385L28.7745 19.7163C28.3897 18.9891 27.9032 18.3248 27.3216 17.7347C26.5561 16.9583 25.6641 16.3485 24.67 15.9222C23.6395 15.4802 22.5464 15.2559 21.4213 15.2559C20.2959 15.2559 19.2028 15.48 18.1725 15.9222C17.1786 16.3485 16.2865 16.9585 15.5209 17.7347C14.7554 18.5112 14.1542 19.4158 13.7339 20.4242C13.2981 21.4694 13.0769 22.5781 13.0769 23.7192C13.0769 24.8681 13.3195 26.0006 13.7982 27.0851C14.2202 28.0411 14.8192 28.9443 15.5783 29.7691C16.922 31.2289 18.7361 32.3958 20.6861 33.0552C22.552 33.6861 25.3152 33.9037 27.9794 33.7169C28.7207 33.665 29.2817 33.5838 30.2248 33.3907C31.1333 32.6544 31.9611 31.8198 32.6923 30.9025C32.0663 30.9715 30.8897 31.0962 30.084 31.152Z" fill="#48658C"/>
<path d="M113.427 22.7024C113.427 19.4588 115.233 18.088 117.568 18.4223H117.692V14.3094C117.506 14.2091 117.225 14.1423 116.821 14.1756C115.545 14.2424 114.33 14.9781 113.333 16.7503H113.241V14.4098H108.974V29.4234H113.427V22.7024Z" fill="#48658C"/>
<path d="M149.604 29.3905V21.2008C149.604 19.3515 150.649 18.0637 152.182 18.0637C153.683 18.0637 154.467 19.1534 154.467 20.7055V29.4234H159.103V19.7809C159.103 16.4785 157.209 14.167 154.01 14.167C151.987 14.167 150.583 15.0257 149.506 16.6107H149.408V14.5963H144.936V29.3905H149.604Z" fill="#48658C"/>
<path d="M124.324 29.4234V22.7024C124.324 19.4588 126.13 18.088 128.465 18.4223H128.59V14.3094C128.403 14.2091 128.123 14.1423 127.718 14.1756C126.441 14.2424 125.227 14.9781 124.231 16.7503H124.137V14.4098H119.872V29.4234H124.324Z" fill="#48658C"/>
<path d="M136.481 29.4234C138.364 29.4234 139.85 28.9406 141.104 28.1037C142.392 27.2347 143.251 25.9793 143.582 24.6919H138.992C138.595 25.5931 137.803 26.1402 136.547 26.1402C134.599 26.1402 133.509 24.917 133.213 22.986C133.213 22.986 143.812 22.986 143.845 22.986C143.878 20.0569 142.987 17.5466 141.236 15.9695C139.982 14.8429 138.298 14.167 136.184 14.167C131.694 14.167 128.59 17.45 128.59 21.763C128.59 26.1404 131.594 29.4234 136.481 29.4234ZM136.251 17.418C137.77 17.418 138.892 18.5445 139.057 20.2502H133.213C133.543 18.5123 134.467 17.418 136.251 17.418Z" fill="#48658C"/>
<path d="M162.141 25.3681C162.141 28.5329 164.057 29.423 166.785 29.423C168.019 29.423 169.611 29.3241 170 29.1922V25.7637C169.838 25.7637 168.669 25.7967 168.279 25.7967C167.273 25.7967 166.655 25.5 166.655 24.3461V17.423H169.286V14.4889H166.655V9.80762H162.141V14.4889H160.192V17.423H162.141V25.3681Z" fill="#48658C"/>
<path d="M84.6579 29.4229H89.6052V13.0507H94.8077V8.71777H79.5513V13.0507H84.6579V29.4229Z" fill="#48658C"/>
<path d="M61.0837 27.9368C62.4429 26.9131 63.2052 25.3941 63.2052 23.3135C63.2052 20.8699 61.7466 18.9546 59.4925 18.2612V18.1621C61.3489 17.4687 62.4095 16.1478 62.4095 14.1004C62.4095 12.4492 61.8128 11.1283 60.6196 10.1377C59.5257 9.24617 57.9345 8.71777 55.7798 8.71777H45.7693V29.4229H55.9789C58.1668 29.4229 59.8573 28.8945 61.0837 27.9368ZM50.8409 12.7795H55.0508C56.5423 12.7795 57.5037 13.5391 57.5037 14.8269C57.5037 16.1809 56.5093 16.9074 55.0175 16.9074H50.8409V12.7795ZM50.8409 25.295V20.3746H55.3823C56.9403 20.3746 58.1668 21.2002 58.1668 22.8513C58.1668 24.3373 57.1392 25.295 55.4487 25.295H50.8409Z" fill="#48658C"/>
<path d="M91.5385 21.7952C91.5385 26.1403 94.5962 29.4234 99.183 29.4234C103.769 29.4234 106.795 26.1403 106.795 21.7952C106.795 17.45 103.769 14.167 99.183 14.167C94.596 14.167 91.5385 17.45 91.5385 21.7952ZM99.151 17.3857C101.126 17.3857 102.177 19.1882 102.177 21.7954C102.177 24.4026 101.126 26.1406 99.151 26.1728C97.1443 26.1728 96.1251 24.4346 96.1251 21.7954C96.1251 19.156 97.1763 17.3857 99.151 17.3857Z" fill="#48658C"/>
<path d="M69.7436 14.167H64.2949V29.4234H69.7436V14.167Z" fill="#48658C"/>
<path d="M72.7819 25.3681C72.7819 28.5329 74.7305 29.423 77.4259 29.423C78.66 29.423 80.2513 29.3241 80.6409 29.1922V25.7637C80.4786 25.7637 79.3094 25.7967 78.9197 25.7967C77.913 25.7967 77.2959 25.5 77.2959 24.3461V17.423H79.9265V14.4889H77.2959V9.80762H72.7819V14.4889H70.8333V17.423H72.7819V25.3681Z" fill="#48658C"/>
<path d="M69.7436 8.71777H64.2949V13.0767H69.7436V8.71777Z" fill="#48658C"/>
</svg>
