<svg width="132" height="48" viewBox="0 0 132 48" fill="none" xmlns="http://www.w3.org/2000/svg">
<path fill-rule="evenodd" clip-rule="evenodd" d="M89.3301 11.254C90.3142 10.8898 91.5106 11.2508 92.1064 12.127C92.8592 13.1409 92.6557 14.7812 91.6012 15.5058C90.4456 16.3631 88.5779 15.9662 87.9803 14.6159C87.3217 13.3748 88.0149 11.6892 89.3301 11.254Z" fill="#48658C"/>
<path fill-rule="evenodd" clip-rule="evenodd" d="M37.8394 30.4785C37.8305 32.2663 37.0733 34.0331 35.7864 35.2574C34.5421 36.4905 32.8039 37.1538 31.0708 37.1298C26.87 37.1235 22.671 37.1437 18.4726 37.1204C16.0739 37.0793 13.7898 35.5847 12.7297 33.4103C12.2778 32.4994 12.0359 31.4829 12.0347 30.4633C12.0359 27.397 12.0347 24.3313 12.0347 21.265C10.9764 22.4362 9.70014 23.3983 8.34405 24.1861C7.9469 22.9245 7.4511 21.6921 6.79944 20.5423C8.43013 20.2618 10.0678 19.9656 11.623 19.3769C10.1369 18.5904 8.40814 18.4799 6.79629 18.1103C7.47496 16.9713 7.93308 15.718 8.35787 14.4647C9.68443 15.2941 10.9915 16.2082 12.0196 17.4103C12.1252 15.7553 12.7925 14.1349 13.9626 12.965C15.1836 11.7123 16.9022 10.9681 18.6416 10.9871C22.8947 10.9915 27.1452 10.9871 31.3982 10.9883C33.3632 11.0174 35.2743 12.0256 36.4637 13.6055C37.3549 14.7628 37.8406 16.2271 37.8406 17.6946C37.8375 21.9562 37.8394 26.2176 37.8394 30.4786V30.4785ZM44.9654 13.4861C42.6648 8.66488 38.7129 4.67877 33.9464 2.3724C29.8994 0.377449 25.2857 -0.370489 20.8235 0.170881C16.4448 0.70025 12.2276 2.51074 8.80154 5.32312C4.98589 8.4362 2.16248 12.7773 0.862312 17.5676C-0.540279 22.6542 -0.226078 28.2144 1.76282 33.0983C3.83151 38.2605 7.74143 42.6326 12.6078 45.2208C16.2016 47.1544 20.2931 48.1254 24.3595 47.987C30.1351 47.8576 35.8203 45.447 39.9911 41.3963C43.365 38.1652 45.7553 33.8986 46.7727 29.3085C47.9572 24.0294 47.3258 18.3452 44.9654 13.4861" fill="#48658C"/>
<path fill-rule="evenodd" clip-rule="evenodd" d="M31.1224 19.4422C29.7638 19.5893 28.4014 19.7453 27.0379 19.8523C26.4214 19.8862 26.2486 18.9132 26.8173 18.6962C27.8101 18.5289 28.82 18.4912 29.8173 18.3622C30.2792 18.3319 30.751 18.2131 31.2136 18.295C31.7289 18.4659 31.6611 19.3541 31.1224 19.4422ZM28.8866 23.9242C27.8152 23.8782 27.0039 22.7259 27.288 21.6845C27.4256 21.1102 27.8692 20.6239 28.4185 20.4239C29.4679 20.0101 30.7442 20.822 30.8032 21.963C30.9327 23.0304 29.9506 24.0411 28.8866 23.9242ZM22.837 19.8503C21.467 19.7591 20.0997 19.5893 18.7322 19.446C18.1988 19.371 18.0642 18.571 18.5456 18.325C18.8417 18.2012 19.176 18.2968 19.4844 18.3063C20.6288 18.4452 21.7825 18.5182 22.9243 18.676C23.5478 18.7999 23.4705 19.8221 22.837 19.8503ZM20.4874 23.9002C19.4109 23.7393 18.7053 22.4712 19.1389 21.4593C19.3537 20.9272 19.8269 20.5 20.3849 20.368C21.4601 20.0711 22.6302 21 22.5919 22.1259C22.6259 23.2085 21.5387 24.1292 20.4874 23.9002ZM34.5234 16.9337C33.6851 16.1526 32.5244 15.8047 31.4008 15.7998C27.0341 15.8067 22.6673 15.8011 18.3012 15.8029C17.8739 15.8098 17.4509 15.8859 17.0381 15.9879C15.6877 16.3419 14.5503 17.4081 14.1016 18.7421C13.7251 19.8303 13.9099 20.9988 13.8665 22.1259C13.9137 23.299 13.712 24.5186 14.1374 25.6425C14.7017 27.2313 16.2753 28.4112 17.9581 28.4295C19.7101 28.5294 21.4381 27.7703 22.6994 26.5683C23.3912 25.8682 24.364 25.321 25.3738 25.5223C26.2919 25.6551 26.9857 26.3142 27.6286 26.9326C29.2127 28.13 31.4248 28.8804 33.3476 28.1105C34.8307 27.4903 35.8908 25.9721 35.953 24.35C35.9781 22.9882 35.9543 21.629 35.9643 20.2673C35.9825 19.0151 35.4673 17.7591 34.5234 16.9337Z" fill="#48658C"/>
<path fill-rule="evenodd" clip-rule="evenodd" d="M95.2276 19.6358C95.8158 18.4018 97.6369 17.9836 98.6952 18.849C99.3028 19.5584 99.5434 20.4906 99.8728 21.3447C100.974 24.421 102.083 27.4961 103.19 30.5717C103.311 30.9277 103.423 31.2906 103.614 31.6196C104.955 27.9464 106.333 24.289 107.686 20.6233C107.965 19.9573 108.217 19.2258 108.778 18.7383C109.73 18.0992 111.176 18.3823 111.807 19.3409C112.342 20.0541 112.123 21.007 111.817 21.7649C110.246 25.628 108.675 29.4917 107.103 33.3549C106.644 34.406 106.34 35.5695 105.554 36.4419C104.871 37.1878 103.76 37.3508 102.806 37.1432C101.891 36.9217 101.22 36.1457 100.876 35.3067C99.6787 32.6033 98.6186 29.8414 97.4855 27.1098C96.781 25.3621 96.0415 23.6298 95.366 21.8706C95.1108 21.1693 94.8299 20.3384 95.2276 19.6358Z" fill="#48658C"/>
<path fill-rule="evenodd" clip-rule="evenodd" d="M89.3436 18.5135C90.2133 18.2474 91.2596 18.443 91.8741 19.1411C92.3441 19.6581 92.5025 20.3733 92.5107 21.0545V33.2691C92.4987 34.288 92.6294 35.4315 91.9885 36.3051C91.2438 37.3713 89.5271 37.5442 88.5875 36.6448C87.9786 36.0963 87.7807 35.2447 87.7933 34.456C87.7864 30.1588 87.7951 25.8624 87.7882 21.5666C87.6758 20.3784 88.0478 18.8934 89.3436 18.5135Z" fill="#48658C"/>
<path fill-rule="evenodd" clip-rule="evenodd" d="M119.606 22.7814C121.179 21.0876 124.332 21.3026 125.634 23.2229C126.267 24.1185 126.481 25.2249 126.576 26.296C123.789 26.296 121.005 26.2947 118.218 26.296C118.34 25.0356 118.696 23.7147 119.606 22.7814ZM126.619 28.9792C127.824 28.9861 129.108 28.9943 130.197 28.4138C130.831 28.0772 131.022 27.3256 131.175 26.6861V25.1783C131.162 25.2431 131.135 25.3721 131.119 25.4375C130.867 23.3229 129.781 21.2844 128.027 20.029C125.63 18.2427 122.367 18.0037 119.54 18.7572C117.406 19.3245 115.515 20.7761 114.526 22.7525C113.219 25.3217 113.077 28.3917 113.833 31.1454C114.56 33.794 116.704 36.0079 119.376 36.7463C122.205 37.5263 125.399 37.4256 128.011 35.9966C129.263 35.2814 130.435 34.2072 130.82 32.7775C131.027 32.0845 130.73 31.2209 130.016 30.9548C129.389 30.7258 128.584 30.7291 128.082 31.2228C126.94 32.2598 125.805 33.4305 124.284 33.8921C122.891 34.2675 121.287 34.1406 120.117 33.243C118.809 32.2505 118.232 30.5793 118.199 28.9912C121.006 28.961 123.812 28.9843 126.619 28.9792Z" fill="#48658C"/>
<path fill-rule="evenodd" clip-rule="evenodd" d="M80.6122 11.5189C81.4423 11.2958 82.4282 11.427 83.0478 12.0703C83.6058 12.6433 83.7453 13.4787 83.7606 14.2501C83.7642 20.9445 83.7573 27.6384 83.7642 34.3329C83.7504 35.0821 83.6662 35.9004 83.161 36.4936C82.3491 37.5007 80.6322 37.5837 79.7507 36.6254C79.2052 36.0669 79.031 35.2576 79.0418 34.5002C79.043 27.6986 79.0379 20.8995 79.0449 14.0973C79.0016 13.0369 79.5168 11.8326 80.6122 11.5189" fill="#48658C"/>
<path fill-rule="evenodd" clip-rule="evenodd" d="M71.413 11.9808C72.4034 11.0212 74.3865 11.2824 74.8987 12.6388C75.2965 13.6928 75.1431 14.8502 75.1671 15.9518C75.1633 22.0783 75.1702 28.2048 75.1651 34.3314C75.0627 35.0026 75.1513 35.7417 74.7461 36.3305C74.0781 37.4492 72.3418 37.6241 71.4331 36.7121C70.7526 36.094 70.6495 35.109 70.6733 34.2439C69.5548 35.5275 68.1609 36.6607 66.475 37.0625C64.3836 37.6007 62.0373 37.2191 60.3204 35.8766C58.2851 34.3416 57.2475 31.8164 56.954 29.342C56.6876 26.7134 56.934 23.905 58.3579 21.6144C59.6299 22.6081 60.8615 23.654 62.1366 24.6428C61.51 26.361 61.4239 28.2669 61.862 30.0417C62.1773 31.2446 62.8492 32.4287 63.9513 33.0651C65.2753 33.8763 67.0644 33.7984 68.3351 32.916C69.0559 32.4401 69.5278 31.6883 69.8947 30.924C71.6455 32.3342 73.3793 33.766 75.1533 35.1477C73.581 33.4073 71.8107 31.8449 70.138 30.1951C70.4968 28.7328 70.5169 27.178 70.2015 25.7063C69.8514 24.2377 68.9515 22.8003 67.5194 22.1911C65.971 21.4964 64.0237 21.9553 62.9503 23.2744C61.8689 22.2051 60.7566 21.1694 59.677 20.0982C61.498 18.4991 64.0808 18.0757 66.4109 18.5174C68.1038 18.7995 69.5297 19.882 70.6834 21.1002C70.6734 18.8737 70.6803 16.6484 70.6784 14.4223C70.6696 13.5667 70.7978 12.6254 71.413 11.9808Z" fill="#48658C"/>
</svg>
