<svg width="170" height="46" viewBox="0 0 170 46" fill="none" xmlns="http://www.w3.org/2000/svg">
<circle cx="22.7596" cy="22.7596" r="21.2283" stroke="#48658C" stroke-width="3.0625"/>
<path d="M39.8293 24.3851C41.1298 26.9861 43.3516 26.0107 44.7063 25.1979C45.5192 26.0107 44.4942 29.6711 43.0807 30.0749C38.5287 31.3755 35.2232 29.533 34.1394 28.4493C33.5975 29.533 32.026 32.0258 30.0752 33.3263C28.1244 34.6269 23.8434 34.4101 21.9468 34.1391L26.011 43.8932C25.74 44.4351 24.5479 45.5189 21.9468 45.5189C19.3457 45.5189 17.0697 44.4351 16.2569 43.8932L5.68994 15.4438L13.8184 13.8181L18.6954 25.1979C19.7792 27.3655 23.0847 31.3755 27.6367 30.0749C32.1886 28.7744 31.7009 24.1141 30.888 21.9465L26.011 11.3796L32.5137 9.75391L39.8293 24.3851Z" fill="#48658C"/>
<path d="M68.0755 29.7021C67.0354 30.9566 65.5967 31.5839 63.7594 31.5839C62.068 31.5839 60.7751 31.1014 59.8807 30.1363C58.9961 29.1713 58.5441 27.7575 58.5247 25.8949V15.6317H62.7387V25.7502C62.7387 27.3811 63.4872 28.1966 64.9843 28.1966C66.4132 28.1966 67.3951 27.7044 67.9297 26.7201V15.6317H72.1583V31.2944H68.1922L68.0755 29.7021Z" fill="#48658C"/>
<path d="M91.5955 13.7354H85.0921V31.2944H80.7177V13.7354H74.3018V10.2178H91.5955V13.7354Z" fill="#48658C"/>
<path d="M90.1373 23.3183C90.1373 21.7646 90.4387 20.3797 91.0414 19.1638C91.6441 17.9478 92.5092 17.0069 93.6369 16.341C94.7742 15.6751 96.0914 15.3422 97.5884 15.3422C99.7173 15.3422 101.453 15.9887 102.794 17.2819C104.145 18.5751 104.899 20.3315 105.054 22.5511L105.083 23.6223C105.083 26.0252 104.408 27.9553 103.056 29.4125C101.705 30.8601 99.8923 31.5839 97.6176 31.5839C95.3429 31.5839 93.5251 30.8601 92.1641 29.4125C90.8129 27.965 90.1373 25.9963 90.1373 23.5065V23.3183ZM94.3514 23.6223C94.3514 25.1084 94.6333 26.2472 95.1971 27.0385C95.7609 27.8202 96.5677 28.2111 97.6176 28.2111C98.6383 28.2111 99.4354 27.825 100.009 27.053C100.583 26.2713 100.869 25.0264 100.869 23.3183C100.869 21.8611 100.583 20.7319 100.009 19.931C99.4354 19.13 98.6286 18.7295 97.5884 18.7295C96.558 18.7295 95.7609 19.13 95.1971 19.931C94.6333 20.7223 94.3514 21.9527 94.3514 23.6223Z" fill="#48658C"/>
<path d="M116.544 19.5546C115.971 19.4774 115.465 19.4388 115.028 19.4388C113.434 19.4388 112.389 19.9744 111.893 21.0456V31.2944H107.679V15.6317H111.66L111.776 17.499C112.622 16.0611 113.793 15.3422 115.29 15.3422C115.757 15.3422 116.194 15.4049 116.603 15.5304L116.544 19.5546Z" fill="#48658C"/>
<path d="M127.451 19.5546C126.878 19.4774 126.372 19.4388 125.935 19.4388C124.341 19.4388 123.296 19.9744 122.8 21.0456V31.2944H118.586V15.6317H122.567L122.683 17.499C123.529 16.0611 124.7 15.3422 126.197 15.3422C126.664 15.3422 127.101 15.4049 127.51 15.5304L127.451 19.5546Z" fill="#48658C"/>
<path d="M136.463 31.5839C134.149 31.5839 132.263 30.8794 130.805 29.4704C129.357 28.0615 128.632 26.1845 128.632 23.8394V23.4341C128.632 21.8611 128.939 20.4569 129.551 19.2217C130.163 17.9767 131.029 17.0213 132.147 16.3555C133.274 15.6799 134.557 15.3422 135.996 15.3422C138.154 15.3422 139.85 16.0177 141.085 17.3688C142.329 18.7198 142.951 20.6354 142.951 23.1156V24.8237H132.905C133.041 25.8467 133.449 26.667 134.13 27.2846C134.82 27.9022 135.69 28.2111 136.74 28.2111C138.363 28.2111 139.632 27.6272 140.545 26.4595L142.616 28.7611C141.984 29.649 141.129 30.3438 140.05 30.8456C138.971 31.3378 137.775 31.5839 136.463 31.5839ZM135.981 18.7295C135.145 18.7295 134.465 19.0093 133.94 19.5691C133.425 20.1288 133.094 20.9298 132.949 21.972H138.81V21.6391C138.791 20.7126 138.538 19.9985 138.052 19.4967C137.566 18.9852 136.876 18.7295 135.981 18.7295Z" fill="#48658C"/>
<path d="M149.236 15.6317L149.367 17.4411C150.495 16.0418 152.007 15.3422 153.902 15.3422C155.574 15.3422 156.818 15.8295 157.635 16.8042C158.452 17.7789 158.87 19.2361 158.889 21.1759V31.2944H154.675V21.2772C154.675 20.3894 154.481 19.7476 154.092 19.3519C153.703 18.9466 153.056 18.744 152.152 18.744C150.966 18.744 150.077 19.2458 149.484 20.2494V31.2944H145.27V15.6317H149.236Z" fill="#48658C"/>
<path d="M167.142 11.7811V15.6317H169.84V18.7005H167.142V26.5174C167.142 27.0964 167.254 27.5114 167.477 27.7623C167.701 28.0132 168.129 28.1387 168.761 28.1387C169.227 28.1387 169.64 28.1049 170 28.0373V31.2075C169.174 31.4584 168.323 31.5839 167.448 31.5839C164.493 31.5839 162.986 30.1025 162.928 27.1399V18.7005H160.624V15.6317H162.928V11.7811H167.142Z" fill="#48658C"/>
<path d="M58.5247 24.1522H62.705V37.1577H58.5247V24.1522Z" fill="#48658C"/>
</svg>
