<svg width="159" height="38" viewBox="0 0 159 38" fill="none" xmlns="http://www.w3.org/2000/svg">
<path d="M8.17166 0L0 17.0188L22.5186 38L45.037 17.0188L36.8654 0H22.5186H8.17166ZM11.8921 5.15268H33.1686V10.1603H25.355V13.4468L25.3569 13.4477C31.6962 13.7292 36.4619 14.9381 36.4619 16.3861C36.4619 17.8341 31.6962 19.043 25.3569 19.3245V29.8528H19.7065V19.3254C13.3579 19.043 8.58041 17.8332 8.58041 16.3839C8.58041 14.9346 13.3556 13.7248 19.7065 13.4442V10.1603H11.8921V5.15268ZM19.7093 13.8277C14.0989 14.0672 9.91029 15.0057 9.91029 16.1303C9.91029 17.2548 14.0985 18.1947 19.7093 18.4337V18.4293C20.0708 18.4474 21.0966 18.4872 22.5546 18.4872C24.3783 18.4872 25.1976 18.4399 25.3569 18.4302V18.4328L25.3578 18.4306C30.9556 18.1907 35.136 17.2495 35.136 16.129C35.136 15.0084 30.9575 14.0677 25.3578 13.8277V17.4974C25.1971 17.5115 24.3209 17.5814 22.5785 17.5814C21.1278 17.5814 20.0768 17.5217 19.7093 17.4974V13.8277Z" fill="#48658C"/>
<path d="M62.067 4.97821V10.0308H65.6204V14.0576H62.067V24.3147C62.067 25.0745 62.2143 25.619 62.5088 25.9482C62.8033 26.2775 63.3667 26.4421 64.199 26.4421C64.8137 26.4421 65.3579 26.3978 65.8316 26.3091V30.4689C64.7432 30.7982 63.6228 30.9628 62.4704 30.9628C58.5777 30.9628 56.593 29.019 56.5162 25.1315V14.0576H53.4814V10.0308H56.5162V4.97821H62.067Z" fill="#48658C"/>
<path d="M78.2779 30.9628C75.2303 30.9628 72.7462 30.0384 70.8255 28.1896C68.9176 26.3408 67.9636 23.8778 67.9636 20.8007V20.2688C67.9636 18.2048 68.367 16.3623 69.1737 14.7414C69.9804 13.1079 71.12 11.8542 72.5926 10.9805C74.0779 10.0941 75.7681 9.65087 77.6633 9.65087C80.5059 9.65087 82.7403 10.5373 84.3665 12.3101C86.0056 14.0829 86.8251 16.5966 86.8251 19.851V22.0923H73.5913C73.7706 23.4346 74.3084 24.511 75.2047 25.3214C76.1139 26.1318 77.2599 26.537 78.6428 26.537C80.7812 26.537 82.4522 25.7709 83.6559 24.2387L86.3833 27.2588C85.551 28.4238 84.4242 29.3356 83.0028 29.9941C81.5815 30.6399 80.0065 30.9628 78.2779 30.9628ZM77.644 14.0956C76.5428 14.0956 75.6465 14.4628 74.955 15.1973C74.2764 15.9317 73.841 16.9828 73.649 18.3504H81.3702V17.9135C81.3446 16.6979 81.0117 15.7608 80.3715 15.1023C79.7312 14.4312 78.8221 14.0956 77.644 14.0956Z" fill="#48658C"/>
<path d="M96.6399 4.97821V10.0308H100.193V14.0576H96.6399V24.3147C96.6399 25.0745 96.7872 25.619 97.0817 25.9482C97.3762 26.2775 97.9396 26.4421 98.7719 26.4421C99.3865 26.4421 99.9307 26.3978 100.405 26.3091V30.4689C99.3161 30.7982 98.1957 30.9628 97.0433 30.9628C93.1506 30.9628 91.1659 29.019 91.0891 25.1315V14.0576H88.0543V10.0308H91.0891V4.97821H96.6399Z" fill="#48658C"/>
<path d="M108.702 12.2721C110.175 10.5246 112.025 9.65087 114.253 9.65087C118.76 9.65087 121.046 12.2405 121.11 17.4197V30.5829H115.559V17.5716C115.559 16.3939 115.303 15.5265 114.791 14.9694C114.278 14.3995 113.427 14.1146 112.236 14.1146C110.61 14.1146 109.432 14.7351 108.702 15.9761V30.5829H103.151V1.40723H108.702V12.2721Z" fill="#48658C"/>
<path d="M134.862 30.9628C131.815 30.9628 129.33 30.0384 127.41 28.1896C125.502 26.3408 124.548 23.8778 124.548 20.8007V20.2688C124.548 18.2048 124.951 16.3623 125.758 14.7414C126.565 13.1079 127.704 11.8542 129.177 10.9805C130.662 10.0941 132.352 9.65087 134.248 9.65087C137.09 9.65087 139.325 10.5373 140.951 12.3101C142.59 14.0829 143.409 16.5966 143.409 19.851V22.0923H130.176C130.355 23.4346 130.893 24.511 131.789 25.3214C132.698 26.1318 133.844 26.537 135.227 26.537C137.365 26.537 139.037 25.7709 140.24 24.2387L142.968 27.2588C142.135 28.4238 141.008 29.3356 139.587 29.9941C138.166 30.6399 136.591 30.9628 134.862 30.9628ZM134.228 14.0956C133.127 14.0956 132.231 14.4628 131.539 15.1973C130.861 15.9317 130.425 16.9828 130.233 18.3504H137.955V17.9135C137.929 16.6979 137.596 15.7608 136.956 15.1023C136.315 14.4312 135.406 14.0956 134.228 14.0956Z" fill="#48658C"/>
<path d="M158.256 15.1783C157.501 15.077 156.835 15.0263 156.259 15.0263C154.159 15.0263 152.782 15.7291 152.129 17.1347V30.5829H146.579V10.0308H151.822L151.976 12.4811C153.09 10.5943 154.633 9.65087 156.605 9.65087C157.219 9.65087 157.795 9.73318 158.333 9.8978L158.256 15.1783Z" fill="#48658C"/>
</svg>
