<svg width="142" height="48" viewBox="0 0 142 48" fill="none" xmlns="http://www.w3.org/2000/svg">
<path d="M27.237 23.4482C28.3212 22.1449 29.8698 21.3166 31.5536 21.1394C32.951 20.9659 34.369 21.1833 35.6507 21.7676L37.3717 18.2159C35.6578 17.5831 33.8178 17.37 32.0051 17.5944C29.1786 17.8316 26.5313 19.0793 24.5463 21.1099C22.5418 23.2686 21.3127 26.0356 21.0534 28.9731C20.6521 32.3056 21.0825 34.7777 22.3445 36.3895C23.6064 38.0013 25.6405 38.6515 28.4466 38.34C29.5489 38.2154 30.6406 38.0104 31.7132 37.7265C32.9043 37.3985 34.0674 36.9757 35.1913 36.4621L36.4529 26.0632L29.0813 26.8888L28.6514 30.4258L32.1725 30.0311L31.669 34.2179C30.8435 34.4853 29.9938 34.6714 29.1322 34.7735C27.8377 35.0664 26.4952 34.5435 25.7378 33.4513C24.9816 31.9533 24.7577 30.2416 25.103 28.5989C25.2693 26.703 26.0145 24.9045 27.237 23.4482Z" fill="#48658C"/>
<path d="M21.4643 3.96109L0 0L11.2934 28.4908L27.0357 9.27279L21.4643 3.96109ZM24.4061 8.83733L15.421 10.4635L21.1226 5.70066L24.4061 8.83733ZM19.474 5.12232L13.4647 10.1358L4.00319 2.26802L19.474 5.12232ZM11.2571 24.3109L2.93055 3.32491L12.7948 11.5238L11.2571 24.3109ZM12.7665 24.3256L14.225 12.2031L24.1696 10.3977L12.7665 24.3256Z" fill="#48658C"/>
<path d="M39.491 40.2707C38.8396 40.4203 38.3351 40.937 38.2 41.593C38.1422 41.8582 38.2317 42.134 38.4342 42.3144C38.6367 42.4947 38.9205 42.5515 39.1765 42.4628C39.828 42.3132 40.3325 41.7965 40.4675 41.1405C40.5215 40.8761 40.4308 40.6028 40.2295 40.4235C40.0282 40.2441 39.7468 40.1859 39.491 40.2707Z" fill="#48658C"/>
<path d="M40.824 35.8963C41.3514 35.4046 41.4967 34.7019 41.1486 34.3269C40.8005 33.9519 40.0908 34.0465 39.5634 34.5383C39.036 35.0301 38.8906 35.7327 39.2387 36.1077C39.5868 36.4827 40.2966 36.3881 40.824 35.8963Z" fill="#48658C"/>
<path d="M41.7264 29.7835C42.2804 29.267 42.4338 28.5298 42.0691 28.1369C41.7044 27.744 40.9597 27.8442 40.4057 28.3607C39.8518 28.8772 39.6984 29.6144 40.0631 30.0073C40.4278 30.4002 41.1725 30.3 41.7264 29.7835Z" fill="#48658C"/>
<path d="M42.5632 23.5975C43.0906 23.1057 43.236 22.4031 42.8879 22.0281C42.5398 21.6531 41.83 21.7477 41.3026 22.2395C40.7752 22.7312 40.6299 23.4339 40.978 23.8089C41.3261 24.1839 42.0358 24.0893 42.5632 23.5975Z" fill="#48658C"/>
<path d="M43.4355 17.4413C43.963 16.9495 44.1083 16.2468 43.7602 15.8718C43.4121 15.4968 42.7024 15.5915 42.1749 16.0832C41.6475 16.575 41.5022 17.2776 41.8503 17.6527C42.1984 18.0277 42.9081 17.933 43.4355 17.4413Z" fill="#48658C"/>
<path d="M44.3022 11.287C44.8297 10.7952 44.975 10.0925 44.6269 9.71752C44.2788 9.34251 43.5691 9.43716 43.0416 9.92892C42.5142 10.4207 42.3689 11.1233 42.717 11.4984C43.0651 11.8734 43.7748 11.7787 44.3022 11.287Z" fill="#48658C"/>
<path d="M33.5972 43.3123C34.1246 42.8206 34.2699 42.1179 33.9218 41.7429C33.5737 41.3679 32.864 41.4625 32.3366 41.9543C31.8091 42.4461 31.6638 43.1487 32.0119 43.5237C32.36 43.8988 33.0698 43.8041 33.5972 43.3123Z" fill="#48658C"/>
<path d="M37.9377 12.5555C38.4652 12.0637 38.6105 11.3611 38.2624 10.9861C37.9143 10.6111 37.2046 10.7057 36.6771 11.1975C36.1497 11.6892 36.0044 12.3919 36.3525 12.7669C36.7006 13.1419 37.4103 13.0473 37.9377 12.5555Z" fill="#48658C"/>
<path d="M27.2428 44.5789C27.7702 44.0872 27.9156 43.3845 27.5675 43.0095C27.2194 42.6345 26.5096 42.7291 25.9822 43.2209C25.4548 43.7127 25.3094 44.4153 25.6575 44.7903C26.0056 45.1654 26.7154 45.0707 27.2428 44.5789Z" fill="#48658C"/>
<path d="M30.7979 14.2336C31.4494 14.084 31.9539 13.5673 32.0889 12.9113C32.148 12.6459 32.0593 12.3691 31.8569 12.1879C31.6545 12.0067 31.3701 11.9494 31.1136 12.0381C30.4621 12.1877 29.9576 12.7044 29.8226 13.3604C29.7635 13.6258 29.8522 13.9026 30.0546 14.0838C30.257 14.265 30.5414 14.3223 30.7979 14.2336Z" fill="#48658C"/>
<path d="M20.8783 45.8475C21.4057 45.3557 21.5511 44.6531 21.203 44.2781C20.8549 43.9031 20.1451 43.9977 19.6177 44.4895C19.0903 44.9812 18.9449 45.6839 19.293 46.0589C19.6411 46.4339 20.3509 46.3393 20.8783 45.8475Z" fill="#48658C"/>
<path d="M14.5194 47.1092C15.0468 46.6175 15.1922 45.9148 14.8441 45.5398C14.496 45.1648 13.7862 45.2594 13.2588 45.7512C12.7314 46.2429 12.586 46.9456 12.9341 47.3206C13.2822 47.6956 13.992 47.601 14.5194 47.1092Z" fill="#48658C"/>
<path d="M15.3861 40.9579C15.9135 40.4661 16.0589 39.7634 15.7108 39.3884C15.3627 39.0134 14.6529 39.1081 14.1255 39.5998C13.5981 40.0916 13.4527 40.7942 13.8008 41.1693C14.1489 41.5443 14.8587 41.4496 15.3861 40.9579Z" fill="#48658C"/>
<path d="M16.2538 34.8045C16.7812 34.3128 16.9266 33.6101 16.5784 33.2351C16.2303 32.8601 15.5206 32.9547 14.9932 33.4465C14.4658 33.9383 14.3204 34.6409 14.6685 35.0159C15.0166 35.3909 15.7264 35.2963 16.2538 34.8045Z" fill="#48658C"/>
<path d="M17.1205 28.6532C17.6479 28.1614 17.7933 27.4587 17.4451 27.0837C17.097 26.7087 16.3873 26.8034 15.8599 27.2951C15.3325 27.7869 15.1871 28.4896 15.5352 28.8646C15.8833 29.2396 16.5931 29.1449 17.1205 28.6532Z" fill="#48658C"/>
<path d="M71.0131 18.8579H66.3699V31.6954H63.2467V18.8579H58.666V16.2861H71.0131V18.8579Z" fill="#48658C"/>
<path d="M78.2486 23.1124C77.8391 23.0559 77.4782 23.0277 77.1658 23.0277C76.0276 23.0277 75.2815 23.4193 74.9275 24.2025V31.6954H71.9189V20.2443H74.761L74.8443 21.6095C75.4481 20.5583 76.2844 20.0326 77.3532 20.0326C77.6864 20.0326 77.9987 20.0785 78.2902 20.1702L78.2486 23.1124Z" fill="#48658C"/>
<path d="M78.8628 25.864C78.8628 24.7281 79.0779 23.7156 79.5083 22.8266C79.9386 21.9376 80.5563 21.2497 81.3614 20.7629C82.1734 20.276 83.1138 20.0326 84.1827 20.0326C85.7026 20.0326 86.9415 20.5053 87.8993 21.4508C88.864 22.3962 89.4019 23.6803 89.513 25.3031L89.5338 26.0863C89.5338 27.8431 89.0514 29.2542 88.0867 30.3196C87.122 31.378 85.8276 31.9071 84.2035 31.9071C82.5794 31.9071 81.2816 31.378 80.3099 30.3196C79.3452 29.2613 78.8628 27.822 78.8628 26.0016V25.864ZM81.8715 26.0863C81.8715 27.1728 82.0728 28.0054 82.4753 28.584C82.8779 29.1555 83.4539 29.4412 84.2035 29.4412C84.9322 29.4412 85.5014 29.159 85.9108 28.5945C86.3203 28.023 86.5251 27.1129 86.5251 25.864C86.5251 24.7986 86.3203 23.9731 85.9108 23.3875C85.5014 22.8019 84.9253 22.5091 84.1827 22.5091C83.447 22.5091 82.8779 22.8019 82.4753 23.3875C82.0728 23.9661 81.8715 24.8657 81.8715 26.0863Z" fill="#48658C"/>
<path d="M94.1561 20.2443L94.2498 21.5672C95.0549 20.5441 96.1342 20.0326 97.4876 20.0326C98.6813 20.0326 99.5697 20.3889 100.153 21.1015C100.736 21.8141 101.034 22.8795 101.048 24.2977V31.6954H98.0393V24.3718C98.0393 23.7227 97.9005 23.2535 97.6229 22.9642C97.3453 22.6679 96.8837 22.5197 96.2383 22.5197C95.3915 22.5197 94.7565 22.8866 94.3331 23.6204V31.6954H91.3244V20.2443H94.1561Z" fill="#48658C"/>
<path d="M115.529 29.7481C114.967 30.4325 114.172 30.9652 113.145 31.3462C112.118 31.7201 110.98 31.9071 109.731 31.9071C108.419 31.9071 107.267 31.6178 106.274 31.0393C105.289 30.4537 104.525 29.607 103.984 28.4993C103.449 27.3916 103.175 26.0898 103.161 24.594V23.5463C103.161 22.0082 103.415 20.6782 103.921 19.5564C104.435 18.4275 105.171 17.5667 106.128 16.974C107.093 16.3743 108.221 16.0745 109.512 16.0745C111.31 16.0745 112.715 16.5119 113.728 17.3868C114.742 18.2546 115.342 19.5211 115.529 21.1862H112.489C112.351 20.3043 112.042 19.6587 111.563 19.2495C111.091 18.8402 110.438 18.6356 109.606 18.6356C108.544 18.6356 107.735 19.0413 107.18 19.8527C106.625 20.6641 106.344 21.8706 106.337 23.4722V24.4565C106.337 26.0722 106.639 27.2928 107.242 28.1183C107.846 28.9438 108.731 29.3565 109.897 29.3565C111.07 29.3565 111.906 29.1025 112.406 28.5945V25.9381H109.564V23.5992H115.529V29.7481Z" fill="#48658C"/>
<path d="M124.201 23.1124C123.792 23.0559 123.431 23.0277 123.119 23.0277C121.98 23.0277 121.234 23.4193 120.88 24.2025V31.6954H117.872V20.2443H120.714L120.797 21.6095C121.401 20.5583 122.237 20.0326 123.306 20.0326C123.639 20.0326 123.952 20.0785 124.243 20.1702L124.201 23.1124Z" fill="#48658C"/>
<path d="M128.834 31.6954H125.815V20.2443H128.834V31.6954ZM125.638 17.281C125.638 16.8223 125.787 16.4449 126.086 16.1485C126.391 15.8522 126.804 15.704 127.325 15.704C127.838 15.704 128.248 15.8522 128.553 16.1485C128.859 16.4449 129.011 16.8223 129.011 17.281C129.011 17.7466 128.855 18.1276 128.543 18.424C128.237 18.7203 127.831 18.8685 127.325 18.8685C126.818 18.8685 126.409 18.7203 126.096 18.424C125.791 18.1276 125.638 17.7466 125.638 17.281Z" fill="#48658C"/>
<path d="M130.854 25.8852C130.854 24.1001 131.246 22.6785 132.03 21.6201C132.822 20.5618 133.901 20.0326 135.268 20.0326C136.365 20.0326 137.27 20.4489 137.985 21.2815V15.4395H141.004V31.6954H138.287L138.141 30.4784C137.392 31.4309 136.427 31.9071 135.247 31.9071C133.922 31.9071 132.856 31.378 132.051 30.3196C131.253 29.2542 130.854 27.7761 130.854 25.8852ZM133.863 26.1075C133.863 27.1799 134.047 28.0019 134.414 28.5734C134.782 29.1449 135.317 29.4306 136.018 29.4306C136.948 29.4306 137.604 29.032 137.985 28.2347V23.7156C137.61 22.9183 136.962 22.5197 136.038 22.5197C134.588 22.5197 133.863 23.7156 133.863 26.1075Z" fill="#48658C"/>
</svg>
