<svg width="157" height="48" viewBox="0 0 157 48" fill="none" xmlns="http://www.w3.org/2000/svg">
<path d="M76.3144 29.5508C76.3144 28.6417 75.988 27.9465 75.3354 27.4652C74.6827 26.9733 73.5079 26.4599 71.811 25.9251C70.114 25.3797 68.7706 24.8449 67.7808 24.3209C65.0831 22.8877 63.7342 20.9572 63.7342 18.5294C63.7342 17.2674 64.0932 16.1444 64.8111 15.1604C65.54 14.1658 66.5788 13.3904 67.9276 12.8342C69.2873 12.2781 70.8102 12 72.4963 12C74.1932 12 75.7052 12.3048 77.0323 12.9144C78.3594 13.5134 79.3873 14.3636 80.1161 15.4652C80.8558 16.5668 81.2257 17.8182 81.2257 19.2193H76.3307C76.3307 18.1497 75.988 17.3209 75.3027 16.7326C74.6174 16.1337 73.6547 15.8342 72.4147 15.8342C71.2181 15.8342 70.2881 16.0856 69.6245 16.5882C68.961 17.0802 68.6292 17.7326 68.6292 18.5455C68.6292 19.3048 69.0154 19.9412 69.7877 20.4545C70.5709 20.9679 71.7185 21.4492 73.2305 21.8984C76.0152 22.7219 78.0439 23.7433 79.3166 24.9626C80.5893 26.1818 81.2257 27.7005 81.2257 29.5187C81.2257 31.5401 80.4479 33.1283 78.8924 34.2834C77.3369 35.4278 75.2429 36 72.6105 36C70.783 36 69.1187 35.6738 67.6176 35.0214C66.1165 34.3583 64.9689 33.4545 64.1748 32.3102C63.3916 31.1658 63 29.8396 63 28.3316H67.9113C67.9113 30.9091 69.4777 32.1979 72.6105 32.1979C73.7744 32.1979 74.6827 31.9679 75.3354 31.508C75.988 31.0374 76.3144 30.385 76.3144 29.5508Z" fill="#48658C"/>
<path d="M89.8898 14.0535V18.3209H92.9083V21.7219H89.8898V30.385C89.8898 31.0267 90.0149 31.4866 90.2651 31.7647C90.5152 32.0428 90.9939 32.1818 91.7009 32.1818C92.2231 32.1818 92.6854 32.1444 93.0878 32.0695V35.5829C92.1632 35.861 91.2114 36 90.2324 36C86.9256 36 85.2395 34.3583 85.1743 31.0749V21.7219H82.5963V18.3209H85.1743V14.0535H89.8898Z" fill="#48658C"/>
<path d="M103.661 36C101.072 36 98.9618 35.2193 97.3302 33.6578C95.7094 32.0963 94.899 30.016 94.899 27.4171V26.9679C94.899 25.2246 95.2416 23.6684 95.9269 22.2995C96.6122 20.9198 97.5803 19.861 98.8313 19.123C100.093 18.3743 101.529 18 103.139 18C105.554 18 107.452 18.7487 108.833 20.246C110.226 21.7433 110.922 23.8663 110.922 26.615V28.508H99.6797C99.832 29.6417 100.289 30.5508 101.05 31.2353C101.823 31.9198 102.796 32.262 103.971 32.262C105.788 32.262 107.207 31.615 108.23 30.3209L110.547 32.8717C109.84 33.8556 108.882 34.6257 107.675 35.1818C106.467 35.7273 105.129 36 103.661 36ZM103.123 21.754C102.187 21.754 101.426 22.0642 100.838 22.6845C100.262 23.3048 99.8919 24.1925 99.7287 25.3476H106.288V24.9786C106.266 23.9519 105.983 23.1604 105.44 22.6043C104.896 22.0374 104.123 21.754 103.123 21.754Z" fill="#48658C"/>
<path d="M121.74 36C119.151 36 117.041 35.2193 115.409 33.6578C113.788 32.0963 112.978 30.016 112.978 27.4171V26.9679C112.978 25.2246 113.32 23.6684 114.006 22.2995C114.691 20.9198 115.659 19.861 116.91 19.123C118.172 18.3743 119.608 18 121.218 18C123.633 18 125.531 18.7487 126.912 20.246C128.305 21.7433 129.001 23.8663 129.001 26.615V28.508H117.759C117.911 29.6417 118.368 30.5508 119.129 31.2353C119.901 31.9198 120.875 32.262 122.05 32.262C123.866 32.262 125.286 31.615 126.308 30.3209L128.625 32.8717C127.918 33.8556 126.961 34.6257 125.754 35.1818C124.546 35.7273 123.208 36 121.74 36ZM121.201 21.754C120.266 21.754 119.504 22.0642 118.917 22.6845C118.341 23.3048 117.971 24.1925 117.807 25.3476H124.367V24.9786C124.345 23.9519 124.062 23.1604 123.518 22.6043C122.974 22.0374 122.202 21.754 121.201 21.754Z" fill="#48658C"/>
<path d="M136.115 18.3209L136.262 20.262C137.513 18.754 139.204 18 141.336 18C143.61 18 145.17 18.8824 146.019 20.6471C147.259 18.8824 149.027 18 151.322 18C153.236 18 154.661 18.5508 155.597 19.6524C156.532 20.7433 157 22.3904 157 24.5936V35.6791H152.268V24.6096C152.268 23.6257 152.072 22.9091 151.681 22.4599C151.289 22 150.598 21.7701 149.609 21.7701C148.194 21.7701 147.215 22.4332 146.672 23.7594L146.688 35.6791H141.972V24.6257C141.972 23.6203 141.771 22.893 141.369 22.4439C140.966 21.9947 140.281 21.7701 139.313 21.7701C137.975 21.7701 137.007 22.3155 136.408 23.4064V35.6791H131.693V18.3209H136.115Z" fill="#48658C"/>
<g clip-path="url(#clip0)">
<path d="M24.0041 0C10.747 0 0 10.747 0 24.0041C0 37.2611 10.747 48.0081 24.0041 48.0081C37.2611 48.0081 48.0081 37.2611 48.0081 24.0041C48.0081 10.747 37.2611 0 24.0041 0ZM18.001 32.2978L17.7736 32.5253C17.3024 32.9964 16.7988 33.4432 16.2789 33.8575L15.6778 34.3286C15.6372 34.3611 15.5884 34.3774 15.5397 34.3774C15.4991 34.3774 15.4585 34.3693 15.426 34.3449C15.3447 34.2962 15.3041 34.2068 15.3285 34.1093L15.5641 33.0452C15.824 31.8917 15.7671 30.6813 15.4016 29.5522L15.2716 29.1623C15.1254 28.7074 14.9467 28.2606 14.7599 27.822L11.9898 21.2828L11.6893 20.3892C11.5999 20.113 11.5349 19.8287 11.5025 19.5363L11.4537 19.0895C11.3156 17.8304 11.7461 16.5957 12.6397 15.7021L12.8672 15.4747C13.3383 15.0036 13.8419 14.5568 14.3618 14.1425L14.9629 13.6713C15.036 13.6145 15.1335 13.6064 15.2148 13.6551C15.296 13.7038 15.3366 13.7932 15.3122 13.8907L15.0767 14.9548C14.8167 16.1083 14.8736 17.3187 15.2391 18.4478L15.3691 18.8377C15.5153 19.2926 15.694 19.7394 15.8809 20.178L18.659 26.7172L18.9596 27.6108C19.0489 27.8869 19.1139 28.1713 19.1464 28.4637L19.1951 28.9105C19.3251 30.1614 18.8946 31.4043 18.001 32.2978ZM27.3752 34.4424L27.0828 34.7348C26.4898 35.3278 25.8561 35.8964 25.1982 36.4082L24.4183 37.0256C24.3777 37.058 24.3209 37.0743 24.2721 37.0743C24.2315 37.0743 24.1828 37.058 24.1422 37.0337C24.0528 36.9768 24.0122 36.8793 24.0366 36.7819L24.3452 35.409C24.6702 33.9469 24.5971 32.4197 24.134 30.9981L23.9716 30.5026C23.7847 29.9259 23.5654 29.3573 23.3217 28.8049L19.8206 20.5598L19.4469 19.4388C19.3332 19.0976 19.252 18.7321 19.2114 18.3747L19.1464 17.8061C18.9677 16.2302 19.5119 14.6867 20.6248 13.5576L20.9172 13.2652C21.5102 12.6722 22.1438 12.1036 22.8018 11.5918L23.5817 10.9744C23.6629 10.9095 23.7685 10.9013 23.8578 10.9582C23.9472 11.0151 23.9878 11.1125 23.9634 11.21L23.6548 12.5828C23.3298 14.045 23.4029 15.5722 23.866 16.9937L24.0284 17.4893C24.2153 18.0579 24.4346 18.6346 24.6783 19.187L28.1794 27.4402L28.5531 28.5612C28.6668 28.9023 28.748 29.2679 28.7886 29.6253L28.8536 30.1939C29.0323 31.7698 28.4881 33.3214 27.3752 34.4424ZM35.3684 32.2978L35.141 32.5253C34.6698 32.9964 34.1662 33.4432 33.6463 33.8575L33.0452 34.3286C33.0046 34.3611 32.9558 34.3774 32.9071 34.3774C32.8665 34.3774 32.8259 34.3693 32.7934 34.3449C32.7121 34.2962 32.6715 34.2068 32.6959 34.1093L32.9315 33.0452C33.1914 31.8917 33.1345 30.6813 32.769 29.5522L32.639 29.1623C32.4928 28.7074 32.3141 28.2606 32.1273 27.822L29.3491 21.2828L29.0486 20.3892C28.9592 20.113 28.8942 19.8287 28.8617 19.5363L28.813 19.0895C28.6749 17.8304 29.1054 16.5957 29.999 15.7021L30.2264 15.4747C30.6976 15.0036 31.2012 14.5568 31.7211 14.1425L32.3222 13.6713C32.3953 13.6145 32.4928 13.6064 32.574 13.6551C32.6553 13.7038 32.6959 13.7932 32.6715 13.8907L32.4359 14.9548C32.176 16.1083 32.2329 17.3187 32.5984 18.4478L32.7284 18.8377C32.8746 19.2926 33.0533 19.7394 33.2401 20.178L36.0183 26.7172L36.3188 27.6108C36.4082 27.8869 36.4732 28.1713 36.5057 28.4637L36.5544 28.9105C36.6925 30.1614 36.262 31.4043 35.3684 32.2978Z" fill="#48658C"/>
</g>
<defs>
<clipPath id="clip0">
<rect width="48" height="48" fill="white"/>
</clipPath>
</defs>
</svg>
