<svg width="170" height="36" viewBox="0 0 170 36" fill="none" xmlns="http://www.w3.org/2000/svg">
<path fill-rule="evenodd" clip-rule="evenodd" d="M55.6241 29.529H58.9972V5.58105H55.6241V29.529Z" fill="#48658C"/>
<path fill-rule="evenodd" clip-rule="evenodd" d="M47.9581 8.95931H67.1537V5.58203H47.9581V8.95931Z" fill="#48658C"/>
<path fill-rule="evenodd" clip-rule="evenodd" d="M112.352 29.5286H125.783V26.1514H112.352V29.5286Z" fill="#48658C"/>
<path fill-rule="evenodd" clip-rule="evenodd" d="M112.352 28.608H115.725V5.58105H112.352V28.608Z" fill="#48658C"/>
<path fill-rule="evenodd" clip-rule="evenodd" d="M153.196 29.529H156.569V5.58105H153.196V29.529Z" fill="#48658C"/>
<path fill-rule="evenodd" clip-rule="evenodd" d="M157.55 17.0645L165.605 29.5297H170L161.946 17.0645H157.55Z" fill="#48658C"/>
<path fill-rule="evenodd" clip-rule="evenodd" d="M165.147 8.89746L157.489 17.0522L161.83 17.0643L169.019 8.90788L165.147 8.89746Z" fill="#48658C"/>
<path fill-rule="evenodd" clip-rule="evenodd" d="M129.156 29.5289H132.529V15.6514H129.156V29.5289Z" fill="#48658C"/>
<path fill-rule="evenodd" clip-rule="evenodd" d="M132.67 12.0606C132.67 12.9944 131.912 13.751 130.976 13.751C130.04 13.751 129.282 12.9944 129.282 12.0606C129.282 11.127 130.04 10.3701 130.976 10.3701C131.912 10.3701 132.67 11.127 132.67 12.0606Z" fill="#48658C"/>
<path fill-rule="evenodd" clip-rule="evenodd" d="M95.3937 29.4676L98.8635 29.3763V19.7357C98.8635 16.9183 100.953 16.0049 102.372 16.0049C103.791 16.0049 105.799 17.1319 105.799 19.7357V29.3763L109.351 29.4676V19.7357C109.351 15.6417 107.082 12.624 102.372 12.624C97.6628 12.624 95.3937 16.0049 95.3937 19.7357" fill="#48658C"/>
<path fill-rule="evenodd" clip-rule="evenodd" d="M136.059 29.4676L139.529 29.3763V19.7357C139.529 16.9183 141.619 16.0049 143.038 16.0049C144.457 16.0049 146.464 17.1319 146.464 19.7357V29.3763L150.016 29.4676V19.7357C150.016 15.6417 147.747 12.624 143.038 12.624C138.328 12.624 136.059 16.0049 136.059 19.7357" fill="#48658C"/>
<path fill-rule="evenodd" clip-rule="evenodd" d="M85.792 21.6397C85.792 22.5734 85.0336 23.3301 84.0977 23.3301C83.1621 23.3301 82.4033 22.5734 82.4033 21.6397C82.4033 20.7062 83.1621 19.9492 84.0977 19.9492C85.0336 19.9492 85.792 20.7062 85.792 21.6397Z" fill="#48658C"/>
<path fill-rule="evenodd" clip-rule="evenodd" d="M84.0978 26.3147C81.5099 26.3147 79.4119 24.2216 79.4119 21.6397C79.4119 19.0582 81.5099 16.9651 84.0978 16.9651C86.6858 16.9651 88.7835 19.0582 88.7835 21.6397C88.7835 24.2216 86.6858 26.3147 84.0978 26.3147ZM84.0978 13.751C79.7307 13.751 76.1905 17.2831 76.1905 21.6397C76.1905 25.9966 79.7307 29.5285 84.0978 29.5285C88.465 29.5285 92.0049 25.9966 92.0049 21.6397C92.0049 17.2831 88.465 13.751 84.0978 13.751Z" fill="#48658C"/>
<path fill-rule="evenodd" clip-rule="evenodd" d="M74.1606 12.6247C74.151 12.6247 74.1417 12.624 74.1325 12.624C70.4803 12.624 67.4579 15.8068 67.1537 19.7357V29.4676H70.2177V20.4845C70.3881 18.2802 72.0836 16.5156 74.1325 16.5156C74.1417 16.5156 74.151 16.5169 74.1606 16.5169V12.6247Z" fill="#48658C"/>
<mask id="mask0" mask-type="alpha" maskUnits="userSpaceOnUse" x="0" y="0" width="36" height="36">
<path d="M4.00242 0C1.79182 0 0 1.93909 0 4.33114V30.6913C0 33.0834 1.79182 35.0224 4.00242 35.0224H31.6004C33.8108 35.0224 35.6028 33.0834 35.6028 30.6913V4.33114C35.6028 1.93909 33.8108 0 31.6004 0H4.00242Z" fill="white"/>
</mask>
<g mask="url(#mask0)">
<path fill-rule="evenodd" clip-rule="evenodd" d="M0 4.33114C0 1.93909 1.79182 0 4.00242 0H31.6004C33.8108 0 35.6028 1.93909 35.6028 4.33114V14.9064L5.76478 9.512L16.0847 35.0224H4.00242C1.79182 35.0224 0 33.0834 0 30.6913V4.33114ZM26.5659 35.0224H18.7722L10.6886 15.1007L27.3537 28.6387L26.5659 35.0224ZM35.6028 28.5507V30.6913C35.6028 33.0834 33.8108 35.0224 31.6004 35.0224H28.7889L29.4512 29.6443L35.6028 28.5507ZM35.6028 23.3271V25.9284L31.52 26.6506L35.6028 23.3271ZM35.6028 17.3508V20.0083L28.1941 25.9055L12.2036 13.2378L35.6028 17.3508Z" fill="#48658C"/>
</g>
</svg>
