<svg width="170" height="23" viewBox="0 0 170 23" fill="none" xmlns="http://www.w3.org/2000/svg">
<mask id="mask0" mask-type="alpha" maskUnits="userSpaceOnUse" x="18" y="0" width="20" height="23">
<path d="M26.9564 0C25.5547 0 24.3522 0.139261 23.3485 0.41805C22.3445 0.69684 21.5191 1.13761 20.8725 1.74116C20.2251 2.34472 19.7477 3.11961 19.4395 4.06717C19.1319 5.0134 18.9779 6.15555 18.9779 7.49283V14.353C18.9779 15.6903 19.1319 17.4392 19.4395 18.3862C19.7477 19.3335 20.2251 20.1084 20.8725 20.7122C21.5191 21.3155 22.3445 21.7565 23.3485 22.035C24.3522 22.3141 25.5547 22.4528 26.9564 22.4528H29.2033C30.6039 22.4528 31.8068 22.3141 32.8105 22.035C33.8147 21.7565 34.638 21.3155 35.2803 20.7122C35.9226 20.1084 36.3957 19.3335 36.6991 18.3862C37.0024 17.4392 37.154 15.6903 37.154 14.353V7.49283C37.154 6.14673 37.0049 4.99763 36.7063 4.04579C36.4064 3.09421 35.9362 2.31879 35.2939 1.72005C34.6508 1.12131 33.8283 0.685079 32.8241 0.411101C31.8201 0.137123 30.613 0 29.2033 0H26.9564ZM26.0155 18.1005C25.4988 17.9943 25.0755 17.7872 24.7459 17.4809C24.4163 17.1748 24.1779 16.7495 24.0311 16.2069C23.8838 15.6638 23.8101 14.3442 23.8101 13.4618V9.01936C23.8101 8.13701 23.8838 6.8147 24.0311 6.26728C24.1779 5.71932 24.4163 5.29459 24.7459 4.99282C25.0755 4.69131 25.4988 4.48709 26.0155 4.38017C26.5319 4.27352 27.1649 4.2198 27.9139 4.2198H28.2186C28.9675 4.2198 29.6021 4.27112 30.1233 4.37322C30.6443 4.4756 31.0677 4.67741 31.393 4.97892C31.718 5.28069 31.9546 5.70329 32.1016 6.24643C32.2486 6.78958 32.3218 8.10921 32.3218 8.99156V13.4618C32.3218 14.3442 32.2486 15.6662 32.1016 16.2136C31.9546 16.7618 31.7159 17.1863 31.3863 17.4886C31.057 17.7899 30.6333 17.9943 30.1166 18.1005C29.6 18.2074 28.9675 18.2611 28.2186 18.2611H27.9139C27.1649 18.2611 26.5319 18.2074 26.0155 18.1005Z" fill="white"/>
</mask>
<g mask="url(#mask0)">
<path fill-rule="evenodd" clip-rule="evenodd" d="M26.9564 0C25.5547 0 24.3522 0.139261 23.3485 0.41805C22.3445 0.69684 21.5191 1.13761 20.8725 1.74116C20.2251 2.34472 19.7477 3.11961 19.4395 4.06717C19.1319 5.0134 18.9779 6.15555 18.9779 7.49283V14.353C18.9779 15.6903 19.1319 17.4392 19.4395 18.3862C19.7477 19.3335 20.2251 20.1084 20.8725 20.7122C21.5191 21.3155 22.3445 21.7565 23.3485 22.035C24.3522 22.3141 25.5547 22.4528 26.9564 22.4528H29.2033C30.6039 22.4528 31.8068 22.3141 32.8105 22.035C33.8147 21.7565 34.638 21.3155 35.2803 20.7122C35.9226 20.1084 36.3957 19.3335 36.6991 18.3862C37.0024 17.4392 37.154 15.6903 37.154 14.353V7.49283C37.154 6.14673 37.0049 4.99763 36.7063 4.04579C36.4064 3.09421 35.9362 2.31879 35.2939 1.72005C34.6508 1.12131 33.8283 0.685079 32.8241 0.411101C31.8201 0.137123 30.613 0 29.2033 0H26.9564ZM26.0155 18.1005C25.4988 17.9943 25.0755 17.7872 24.7459 17.4809C24.4163 17.1748 24.1779 16.7495 24.0311 16.2069C23.8838 15.6638 23.8101 14.3442 23.8101 13.4618V9.01936C23.8101 8.13701 23.8838 6.8147 24.0311 6.26728C24.1779 5.71932 24.4163 5.29459 24.7459 4.99282C25.0755 4.69131 25.4988 4.48709 26.0155 4.38017C26.5319 4.27352 27.1649 4.2198 27.9139 4.2198H28.2186C28.9675 4.2198 29.6021 4.27112 30.1233 4.37322C30.6443 4.4756 31.0677 4.67741 31.393 4.97892C31.718 5.28069 31.9546 5.70329 32.1016 6.24643C32.2486 6.78958 32.3218 8.10921 32.3218 8.99156V13.4618C32.3218 14.3442 32.2486 15.6662 32.1016 16.2136C31.9546 16.7618 31.7159 17.1863 31.3863 17.4886C31.057 17.7899 30.6333 17.9943 30.1166 18.1005C29.6 18.2074 28.9675 18.2611 28.2186 18.2611H27.9139C27.1649 18.2611 26.5319 18.2074 26.0155 18.1005Z" fill="#48658C"/>
</g>
<mask id="mask1" mask-type="alpha" maskUnits="userSpaceOnUse" x="39" y="0" width="14" height="23">
<path d="M39.5602 0V22.4528H52.9247V18.3424H44.4918V0H39.5602Z" fill="white"/>
</mask>
<g mask="url(#mask1)">
<path fill-rule="evenodd" clip-rule="evenodd" d="M39.5602 0V22.4528H52.9247V18.3424H44.4918V0H39.5602Z" fill="#48658C"/>
</g>
<mask id="mask2" mask-type="alpha" maskUnits="userSpaceOnUse" x="54" y="0" width="19" height="23">
<path d="M62.5063 0C61.1051 0 59.9023 0.139261 58.8989 0.41805C57.8946 0.69684 57.0692 1.13761 56.4224 1.74116C55.7753 2.34472 55.2981 3.11961 54.9899 4.06717C54.6817 5.0134 54.5283 6.15555 54.5283 7.49283V14.353C54.5283 15.6903 54.6817 17.4392 54.9899 18.3862C55.2981 19.3335 55.7753 20.1084 56.4224 20.7122C57.0692 21.3155 57.8946 21.7565 58.8989 22.035C59.9023 22.3141 61.1051 22.4528 62.5063 22.4528H64.7534C66.1543 22.4528 67.3569 22.3141 68.3606 22.035C69.3648 21.7565 70.1878 21.3155 70.8304 20.7122C71.473 20.1084 71.9458 19.3335 72.2489 18.3862C72.5523 17.4392 72.7044 15.6903 72.7044 14.353V7.49283C72.7044 6.14673 72.555 4.99763 72.2559 4.04579C71.9568 3.09421 71.4863 2.31879 70.8435 1.72005C70.2012 1.12131 69.3779 0.685079 68.374 0.411101C67.37 0.137123 66.1634 0 64.7534 0H62.5063ZM61.5657 18.1005C61.049 17.9943 60.6256 17.7872 60.296 17.4809C59.9662 17.1748 59.7283 16.7495 59.5807 16.2069C59.434 15.6638 59.3605 14.3442 59.3605 13.4618V9.01936C59.3605 8.13701 59.434 6.8147 59.5807 6.26728C59.7283 5.71932 59.9662 5.29459 60.296 4.99282C60.6256 4.69131 61.049 4.48709 61.5657 4.38017C62.0826 4.27352 62.715 4.2198 63.464 4.2198H63.7687C64.5172 4.2198 65.1517 4.27112 65.6732 4.37322C66.1947 4.4756 66.6178 4.67741 66.9431 4.97892C67.2684 5.28069 67.5042 5.70329 67.6515 6.24643C67.799 6.78958 67.872 8.10921 67.872 8.99156V13.4618C67.872 14.3442 67.799 15.6662 67.6515 16.2136C67.5042 16.7618 67.266 17.1863 66.9364 17.4886C66.6066 17.7899 66.1835 17.9943 65.6668 18.1005C65.1498 18.2074 64.5172 18.2611 63.7687 18.2611H63.464C62.715 18.2611 62.0826 18.2074 61.5657 18.1005Z" fill="white"/>
</mask>
<g mask="url(#mask2)">
<path fill-rule="evenodd" clip-rule="evenodd" d="M62.5063 0C61.1051 0 59.9023 0.139261 58.8989 0.41805C57.8946 0.69684 57.0692 1.13761 56.4224 1.74116C55.7753 2.34472 55.2981 3.11961 54.9899 4.06717C54.6817 5.0134 54.5283 6.15555 54.5283 7.49283V14.353C54.5283 15.6903 54.6817 17.4392 54.9899 18.3862C55.2981 19.3335 55.7753 20.1084 56.4224 20.7122C57.0692 21.3155 57.8946 21.7565 58.8989 22.035C59.9023 22.3141 61.1051 22.4528 62.5063 22.4528H64.7534C66.1543 22.4528 67.3569 22.3141 68.3606 22.035C69.3648 21.7565 70.1878 21.3155 70.8304 20.7122C71.473 20.1084 71.9458 19.3335 72.2489 18.3862C72.5523 17.4392 72.7044 15.6903 72.7044 14.353V7.49283C72.7044 6.14673 72.555 4.99763 72.2559 4.04579C71.9568 3.09421 71.4863 2.31879 70.8435 1.72005C70.2012 1.12131 69.3779 0.685079 68.374 0.411101C67.37 0.137123 66.1634 0 64.7534 0H62.5063ZM61.5657 18.1005C61.049 17.9943 60.6256 17.7872 60.296 17.4809C59.9662 17.1748 59.7283 16.7495 59.5807 16.2069C59.434 15.6638 59.3605 14.3442 59.3605 13.4618V9.01936C59.3605 8.13701 59.434 6.8147 59.5807 6.26728C59.7283 5.71932 59.9662 5.29459 60.296 4.99282C60.6256 4.69131 61.049 4.48709 61.5657 4.38017C62.0826 4.27352 62.715 4.2198 63.464 4.2198H63.7687C64.5172 4.2198 65.1517 4.27112 65.6732 4.37322C66.1947 4.4756 66.6178 4.67741 66.9431 4.97892C67.2684 5.28069 67.5042 5.70329 67.6515 6.24643C67.799 6.78958 67.872 8.10921 67.872 8.99156V13.4618C67.872 14.3442 67.799 15.6662 67.6515 16.2136C67.5042 16.7618 67.266 17.1863 66.9364 17.4886C66.6066 17.7899 66.1835 17.9943 65.6668 18.1005C65.1498 18.2074 64.5172 18.2611 63.7687 18.2611H63.464C62.715 18.2611 62.0826 18.2074 61.5657 18.1005Z" fill="#48658C"/>
</g>
<mask id="mask3" mask-type="alpha" maskUnits="userSpaceOnUse" x="75" y="0" width="19" height="23">
<path d="M88.7445 0V14.5986L80.678 0H75.11V22.4528H79.6521V6.62171L88.5199 22.4232H93.2861V0H88.7445Z" fill="white"/>
</mask>
<g mask="url(#mask3)">
<path fill-rule="evenodd" clip-rule="evenodd" d="M88.7445 0V14.5986L80.678 0H75.11V22.4528H79.6521V6.62171L88.5199 22.4232H93.2861V0H88.7445Z" fill="#48658C"/>
</g>
<path fill-rule="evenodd" clip-rule="evenodd" d="M95.9591 22.4528H101.305V0H95.9591V22.4528Z" fill="#48658C"/>
<mask id="mask4" mask-type="alpha" maskUnits="userSpaceOnUse" x="107" y="0" width="19" height="23">
<path d="M107.262 0V22.4063H114.056C120.638 22.4063 125.187 18.8828 125.187 11.0826C125.187 3.28266 120.638 0 113.753 0H107.262ZM112.33 4.27646H113.419C117.059 4.27646 120.383 5.75193 120.383 11.0826C120.383 16.4133 117.059 18.0697 113.419 18.0697H112.33V4.27646Z" fill="white"/>
</mask>
<g mask="url(#mask4)">
<path fill-rule="evenodd" clip-rule="evenodd" d="M107.262 0V22.4063H114.056C120.638 22.4063 125.187 18.8828 125.187 11.0826C125.187 3.28266 120.638 0 113.753 0H107.262ZM112.33 4.27646H113.419C117.059 4.27646 120.383 5.75193 120.383 11.0826C120.383 16.4133 117.059 18.0697 113.419 18.0697H112.33V4.27646Z" fill="#48658C"/>
</g>
<mask id="mask5" mask-type="alpha" maskUnits="userSpaceOnUse" x="128" y="0" width="17" height="23">
<path d="M128.548 0V22.4063H144.513V18.0997H133.738V13.1723H144.161V8.89319H133.738V4.30693H144.513V0H128.548Z" fill="white"/>
</mask>
<g mask="url(#mask5)">
<path fill-rule="evenodd" clip-rule="evenodd" d="M128.548 0V22.4063H144.513V18.0997H133.738V13.1723H144.161V8.89319H133.738V4.30693H144.513V0H128.548Z" fill="#48658C"/>
</g>
<mask id="mask6" mask-type="alpha" maskUnits="userSpaceOnUse" x="160" y="0" width="10" height="10">
<path d="M163.343 0L160.477 4.33901L163.903 9.52267L170 0H163.343Z" fill="white"/>
</mask>
<g mask="url(#mask6)">
<path fill-rule="evenodd" clip-rule="evenodd" d="M163.343 0L160.477 4.33901L163.903 9.52267L170 0H163.343Z" fill="#48658C"/>
</g>
<mask id="mask7" mask-type="alpha" maskUnits="userSpaceOnUse" x="160" y="12" width="10" height="11">
<path d="M160.477 17.7777L163.591 22.4065H170L163.77 12.8838L160.477 17.7777Z" fill="white"/>
</mask>
<g mask="url(#mask7)">
<path fill-rule="evenodd" clip-rule="evenodd" d="M160.477 17.7777L163.591 22.4065H170L163.77 12.8838L160.477 17.7777Z" fill="#48658C"/>
</g>
<mask id="mask8" mask-type="alpha" maskUnits="userSpaceOnUse" x="146" y="0" width="16" height="23">
<path d="M146.842 0L154.569 11.224L146.473 22.4063H153.243L161.598 11.2032L153.641 0H146.842Z" fill="white"/>
</mask>
<g mask="url(#mask8)">
<path fill-rule="evenodd" clip-rule="evenodd" d="M146.842 0L154.569 11.224L146.473 22.4063H153.243L161.598 11.2032L153.641 0H146.842Z" fill="#48658C"/>
</g>
<mask id="mask9" mask-type="alpha" maskUnits="userSpaceOnUse" x="0" y="0" width="18" height="23">
<path d="M0 0.0146484V22.2665V22.4522H4.76107V22.2665V14.7528H11.0946C13.0761 14.7528 14.5692 14.2113 15.5732 13.1284C16.5774 12.0459 17.0799 9.4157 17.0799 7.22174C17.0799 5.05611 16.598 2.73278 15.6339 1.64515C14.6697 0.557526 13.1568 0.0146484 11.0946 0.0146484H0ZM4.76107 3.79929H9.46734C10.0589 3.79929 10.536 3.85328 10.8995 3.96153C11.2628 4.06952 11.5474 4.23712 11.7541 4.46298C11.9596 4.68885 12.0989 4.97833 12.1708 5.33142C12.2424 5.68425 12.2782 6.10124 12.2782 6.58103C12.2782 7.06109 12.2376 9.16498 12.1571 9.51326C12.0769 9.86155 11.9334 10.1443 11.7268 10.3603C11.5202 10.5771 11.2427 10.7369 10.8934 10.8409C10.5432 10.9444 10.0995 10.9957 9.56143 10.9957H4.76107V3.79929Z" fill="white"/>
</mask>
<g mask="url(#mask9)">
<path fill-rule="evenodd" clip-rule="evenodd" d="M0 0.0146484V22.2665V22.4522H4.76107V22.2665V14.7528H11.0946C13.0761 14.7528 14.5692 14.2113 15.5732 13.1284C16.5774 12.0459 17.0799 9.4157 17.0799 7.22174C17.0799 5.05611 16.598 2.73278 15.6339 1.64515C14.6697 0.557526 13.1568 0.0146484 11.0946 0.0146484H0ZM4.76107 3.79929H9.46734C10.0589 3.79929 10.536 3.85328 10.8995 3.96153C11.2628 4.06952 11.5474 4.23712 11.7541 4.46298C11.9596 4.68885 12.0989 4.97833 12.1708 5.33142C12.2424 5.68425 12.2782 6.10124 12.2782 6.58103C12.2782 7.06109 12.2376 9.16498 12.1571 9.51326C12.0769 9.86155 11.9334 10.1443 11.7268 10.3603C11.5202 10.5771 11.2427 10.7369 10.8934 10.8409C10.5432 10.9444 10.0995 10.9957 9.56143 10.9957H4.76107V3.79929Z" fill="#48658C"/>
</g>
</svg>
