<svg width="170" height="27" viewBox="0 0 170 27" fill="none" xmlns="http://www.w3.org/2000/svg">
<path fill-rule="evenodd" clip-rule="evenodd" d="M162.656 10.7897L169.609 0.290981H162.018L158.75 5.0746L162.656 10.7897Z" fill="#48658C"/>
<path fill-rule="evenodd" clip-rule="evenodd" d="M158.75 21.0735L162.429 26.2082H170L162.64 15.6447L158.75 21.0735Z" fill="#48658C"/>
<path fill-rule="evenodd" clip-rule="evenodd" d="M33.8345 4.98273C32.9136 4.98273 32.1353 5.04619 31.5002 5.17207C30.8646 5.29845 30.3441 5.53968 29.9387 5.89582C29.5334 6.2523 29.2401 6.75371 29.0597 7.40076C28.8787 8.04765 28.7882 9.6094 28.7882 10.6514V15.898C28.7882 16.94 28.8787 18.4987 29.0597 19.1405C29.2401 19.7813 29.5334 20.2833 29.9387 20.6447C30.3441 21.0068 30.8646 21.2513 31.5002 21.377C32.1353 21.5031 32.9136 21.566 33.8345 21.566H34.2093C35.1298 21.566 35.9077 21.5031 36.5429 21.377C37.1788 21.2513 37.6995 21.0099 38.1047 20.6537C38.51 20.2971 38.8034 19.7956 38.9842 19.1483C39.1648 18.5018 39.2552 16.94 39.2552 15.898V10.6185C39.2552 9.5764 39.1648 8.0178 38.9842 7.37639C38.8034 6.73477 38.5126 6.2358 38.1129 5.87927C37.713 5.52318 37.1922 5.28488 36.5516 5.16398C35.9104 5.04342 35.1298 4.98273 34.2093 4.98273H33.8345ZM22.8459 8.84827C22.8459 7.26929 23.0352 5.92019 23.4137 4.80219C23.7927 3.68353 24.3794 2.76822 25.1754 2.05521C25.9706 1.34253 26.9858 0.821795 28.2205 0.49262C29.4545 0.163445 30.9334 -0.000976562 32.6567 -0.000976562H35.4201C37.1539 -0.000976562 38.6382 0.161064 39.8726 0.484424C41.1076 0.807895 42.1191 1.32315 42.9097 2.03051C43.6997 2.73759 44.2779 3.65351 44.6464 4.7771C45.0139 5.90147 45.1975 7.25866 45.1975 8.84827V16.9507C45.1975 18.53 45.0107 20.5957 44.6378 21.7142C44.2648 22.8329 43.6832 23.7483 42.8932 24.461C42.103 25.1738 41.0906 25.6946 39.8559 26.0235C38.6219 26.353 37.1427 26.5171 35.4201 26.5171H32.6567C30.9334 26.5171 29.4545 26.353 28.2205 26.0235C26.9858 25.6946 25.9706 25.1738 25.1754 24.461C24.3794 23.7483 23.7927 22.8329 23.4137 21.7142C23.0352 20.5957 22.8459 18.53 22.8459 16.9507V8.84827Z" fill="#48658C"/>
<path fill-rule="evenodd" clip-rule="evenodd" d="M5.82676 4.70388V13.0858H11.7015C12.3601 13.0858 12.903 13.0255 13.3315 12.9052C13.7591 12.7843 14.099 12.5979 14.3519 12.3459C14.6041 12.0939 14.78 11.7644 14.8785 11.359C14.977 10.9534 15.0266 8.50302 15.0266 7.94402C15.0266 7.38502 14.9827 6.89956 14.895 6.48854C14.8071 6.07712 14.6367 5.73992 14.3849 5.47681C14.132 5.2137 13.7838 5.01882 13.3394 4.89283C12.8946 4.76685 12.3105 4.70388 11.5865 4.70388H5.82676ZM13.578 0.295898C16.1019 0.295898 17.9536 0.928553 19.1335 2.19508C20.3132 3.4615 20.9032 6.16767 20.9032 8.68992C20.9032 11.2451 20.2881 14.3088 19.0592 15.5695C17.8302 16.8307 16.0029 17.4611 13.578 17.4611H5.82676V26.2214H0V0.295898H13.578Z" fill="#48658C"/>
<path fill-rule="evenodd" clip-rule="evenodd" d="M53.4604 21.2379H63.4241V26.2213H47.6332V0.295898H53.4604V21.2379Z" fill="#48658C"/>
<path fill-rule="evenodd" clip-rule="evenodd" d="M75.6651 4.98273C74.7442 4.98273 73.9662 5.04619 73.3307 5.17207C72.6951 5.29845 72.1745 5.53968 71.7692 5.89582C71.3636 6.2523 71.071 6.75371 70.8898 7.40076C70.7092 8.04765 70.6187 9.6094 70.6187 10.6514V15.898C70.6187 16.94 70.7092 18.4987 70.8898 19.1405C71.071 19.7813 71.3636 20.2833 71.7692 20.6447C72.1745 21.0068 72.6951 21.2513 73.3307 21.377C73.9662 21.5031 74.7442 21.566 75.6651 21.566H76.0398C76.9601 21.566 77.7382 21.5031 78.3739 21.377C79.0094 21.2513 79.5298 21.0099 79.9355 20.6537C80.3406 20.2971 80.6338 19.7956 80.8146 19.1483C80.9958 18.5018 81.086 16.94 81.086 15.898V10.6185C81.086 9.5764 80.9958 8.0178 80.8146 7.37639C80.6338 6.73477 80.3433 6.2358 79.9434 5.87927C79.5435 5.52318 79.0232 5.28488 78.3818 5.16398C77.7409 5.04342 76.9601 4.98273 76.0398 4.98273H75.6651ZM64.6766 8.84827C64.6766 7.26929 64.8656 5.92019 65.2443 4.80219C65.6232 3.68353 66.2101 2.76822 67.0056 2.05521C67.8014 1.34253 68.8163 0.821795 70.0511 0.49262C71.2854 0.163445 72.7642 -0.000976562 74.4874 -0.000976562H77.2507C78.9845 -0.000976562 80.4686 0.161064 81.703 0.484424C82.9379 0.807895 83.95 1.32315 84.7399 2.03051C85.5304 2.73759 86.109 3.65351 86.4771 4.7771C86.8448 5.90147 87.0285 7.25866 87.0285 8.84827V16.9507C87.0285 18.53 86.8412 20.5957 86.4683 21.7142C86.0955 22.8329 85.5138 23.7483 84.7239 24.461C83.9334 25.1738 82.9213 25.6946 81.6865 26.0235C80.4522 26.353 78.9734 26.5171 77.2507 26.5171H74.4874C72.7642 26.5171 71.2854 26.353 70.0511 26.0235C68.8163 25.6946 67.8014 25.1738 67.0056 24.461C66.2101 23.7483 65.6232 22.8329 65.2443 21.7142C64.8656 20.5957 64.6766 18.53 64.6766 16.9507V8.84827Z" fill="#48658C"/>
<path fill-rule="evenodd" clip-rule="evenodd" d="M89.7958 0.295898H96.4956L106.202 17.9954V0.295898H111.666V26.2214H104.967L95.261 8.32398V26.2214H89.7958V0.295898Z" fill="#48658C"/>
<path fill-rule="evenodd" clip-rule="evenodd" d="M115.207 26.2214H121.034V0.295898H115.207V26.2214Z" fill="#48658C"/>
<path fill-rule="evenodd" clip-rule="evenodd" d="M124.543 0.295898H142.466V5.27933H130.369V10.5859H142.071V15.5369H130.369V21.2379H142.466V26.2214H124.543V0.295898Z" fill="#48658C"/>
<path fill-rule="evenodd" clip-rule="evenodd" d="M160.93 13.2587L151.604 26.2213H144.047L153.084 13.2828L144.459 0.295898H152.049L160.93 13.2587Z" fill="#48658C"/>
</svg>
