<svg width="129" height="48" viewBox="0 0 129 48" fill="none" xmlns="http://www.w3.org/2000/svg">
<path d="M64.2497 28.6652C64.2497 29.4524 64.3845 30.1244 64.6541 30.6812C64.9236 31.238 65.2991 31.6988 65.7804 32.0636C66.2617 32.4092 66.8105 32.6684 67.4266 32.8412C68.062 32.9948 68.7455 33.0716 69.4771 33.0716C70.2665 33.0716 70.9404 32.9852 71.4987 32.8124C72.0571 32.6204 72.5096 32.3804 72.8561 32.0924C73.2027 31.8044 73.453 31.478 73.607 31.1132C73.7611 30.7292 73.8381 30.3452 73.8381 29.9612C73.8381 29.174 73.6552 28.598 73.2893 28.2332C72.9428 27.8492 72.5577 27.5804 72.1341 27.4268C71.4025 27.158 70.5457 26.9084 69.5638 26.678C68.6011 26.4284 67.4073 26.1116 65.9826 25.7276C65.0969 25.4972 64.3556 25.1996 63.7588 24.8348C63.1811 24.4508 62.7191 24.0284 62.3725 23.5676C62.0259 23.1068 61.7756 22.6172 61.6216 22.0988C61.4868 21.5804 61.4194 21.0524 61.4194 20.5148C61.4194 19.478 61.6312 18.5852 62.0548 17.8364C62.4976 17.0684 63.0752 16.4348 63.7876 15.9356C64.5 15.4364 65.3087 15.0716 66.2136 14.8412C67.1185 14.5916 68.0331 14.4668 68.9573 14.4668C70.0355 14.4668 71.0463 14.6108 71.9897 14.8988C72.9524 15.1676 73.7899 15.5804 74.5023 16.1372C75.234 16.694 75.8116 17.3852 76.2352 18.2108C76.6588 19.0172 76.8705 19.958 76.8705 21.0332H73.2605C73.1642 19.7084 72.7117 18.7772 71.9031 18.2396C71.0944 17.6828 70.0644 17.4044 68.8129 17.4044C68.3893 17.4044 67.9561 17.4524 67.5132 17.5484C67.0704 17.6252 66.6661 17.7692 66.3002 17.9804C65.9344 18.1724 65.6264 18.4412 65.3761 18.7868C65.145 19.1324 65.0295 19.5644 65.0295 20.0828C65.0295 20.8124 65.2509 21.3884 65.6937 21.8108C66.1558 22.214 66.7527 22.5212 67.4843 22.7324C67.5614 22.7516 67.8598 22.838 68.3796 22.9916C68.9188 23.126 69.5156 23.2796 70.1702 23.4524C70.8249 23.6252 71.4602 23.798 72.0764 23.9708C72.7117 24.1244 73.1642 24.2396 73.4338 24.3164C74.1076 24.5276 74.6949 24.8156 75.1955 25.1804C75.6961 25.5452 76.11 25.9676 76.4373 26.4476C76.7839 26.9084 77.0342 27.4076 77.1882 27.9452C77.3615 28.4828 77.4482 29.0204 77.4482 29.558C77.4482 30.71 77.2075 31.6988 76.7261 32.5244C76.264 33.3308 75.6479 33.9932 74.8778 34.5116C74.1076 35.03 73.2316 35.4044 72.2497 35.6348C71.2677 35.8844 70.2665 36.0092 69.2461 36.0092C68.0716 36.0092 66.9645 35.8652 65.9248 35.5772C64.8851 35.2892 63.9802 34.8476 63.21 34.2524C62.4399 33.6572 61.8238 32.8988 61.3617 31.9772C60.8996 31.0364 60.6589 29.9324 60.6396 28.6652H64.2497ZM80.3777 14.9564H83.9878V26.9372C83.9878 27.6284 84.0167 28.3292 84.0744 29.0396C84.1514 29.75 84.344 30.3932 84.652 30.9692C84.9793 31.526 85.4607 31.9868 86.0961 32.3516C86.7507 32.7164 87.6652 32.8988 88.8397 32.8988C90.0142 32.8988 90.9191 32.7164 91.5545 32.3516C92.2091 31.9868 92.6905 31.526 92.9985 30.9692C93.3258 30.3932 93.5184 29.75 93.5761 29.0396C93.6532 28.3292 93.6917 27.6284 93.6917 26.9372V14.9564H97.3016V28.118C97.3016 29.4428 97.0995 30.5948 96.6951 31.574C96.2908 32.5532 95.7133 33.3788 94.9624 34.0508C94.2308 34.7036 93.3451 35.1932 92.3054 35.5196C91.2657 35.846 90.1105 36.0092 88.8397 36.0092C87.569 36.0092 86.4137 35.846 85.374 35.5196C84.3343 35.1932 83.439 34.7036 82.6882 34.0508C81.9565 33.3788 81.3885 32.5532 80.9842 31.574C80.5799 30.5948 80.3777 29.4428 80.3777 28.118V14.9564ZM101.307 14.9564H105.12L114.535 30.1052H114.592V14.9564H118.029V35.5196H114.217L104.831 20.3996H104.744V35.5196H101.307V14.9564Z" fill="#48658C"/>
<path d="M24.0672 48C37.3591 48 48.1343 37.2548 48.1343 24C48.1343 10.7452 37.3591 0 24.0672 0C10.7752 0 0 10.7452 0 24C0 37.2548 10.7752 48 24.0672 48Z" fill="#48658C"/>
<mask id="mask0" mask-type="alpha" maskUnits="userSpaceOnUse" x="0" y="0" width="49" height="48">
<path d="M24.0672 48C37.3591 48 48.1343 37.2548 48.1343 24C48.1343 10.7452 37.3591 0 24.0672 0C10.7752 0 0 10.7452 0 24C0 37.2548 10.7752 48 24.0672 48Z" fill="white"/>
</mask>
<g mask="url(#mask0)">
<path d="M23.5588 -5.72852V10.9941" stroke="#060E22" stroke-width="1.0125"/>
<path d="M21.0743 -5.72852V10.9941" stroke="#060E22" stroke-width="1.0125"/>
<path d="M26.8195 -5.72852V10.9941" stroke="#060E22" stroke-width="1.0125"/>
<path d="M13.0428 -2.47069L18.4801 7.64257V-3.87012" stroke="#060E22" stroke-width="1.0125"/>
<path d="M34.7836 -2.78123L29.3464 7.33202V-4.18066" stroke="#060E22" stroke-width="1.0125"/>
<path d="M24.4206 55.8974V39.1748" stroke="#060E22" stroke-width="1.0125"/>
<path d="M26.9049 55.8974V39.1748" stroke="#060E22" stroke-width="1.0125"/>
<path d="M21.1598 55.8974V39.1748" stroke="#060E22" stroke-width="1.0125"/>
<path d="M35.0944 52.8487L29.6572 42.7354V54.248" stroke="#060E22" stroke-width="1.0125"/>
<path d="M13.0428 53.0038L18.4801 42.8906V54.4032" stroke="#060E22" stroke-width="1.0125"/>
<path d="M-6.90942 25.5137H9.85995" stroke="#060E22" stroke-width="1.0125"/>
<path d="M-6.90942 27.9922H9.85995" stroke="#060E22" stroke-width="1.0125"/>
<path d="M-6.90942 22.2627H9.85995" stroke="#060E22" stroke-width="1.0125"/>
<path d="M-4.03104 36.0803L6.11052 30.6582H-5.43439" stroke="#060E22" stroke-width="1.0125"/>
<path d="M-2.94425 14.71L7.1973 20.132H-4.3476" stroke="#060E22" stroke-width="1.0125"/>
<path d="M54.8887 24.6543H38.1194" stroke="#060E22" stroke-width="1.0125"/>
<path d="M54.8887 22.1768H38.1194" stroke="#060E22" stroke-width="1.0125"/>
<path d="M54.8887 27.9062H38.1194" stroke="#060E22" stroke-width="1.0125"/>
<path d="M51.4439 14.0908L41.3022 19.513H52.8472" stroke="#060E22" stroke-width="1.0125"/>
<path d="M52.0647 35.9251L41.9232 30.5029H53.468" stroke="#060E22" stroke-width="1.0125"/>
<path d="M2.44537 47.1762L14.3031 35.3516" stroke="#060E22" stroke-width="1.0125"/>
<path d="M4.20197 48.9272L16.0597 37.1025" stroke="#060E22" stroke-width="1.0125"/>
<path d="M0.139709 44.8764L11.9975 33.0518" stroke="#060E22" stroke-width="1.0125"/>
<path d="M12.6011 52.6375L15.9274 41.6523L7.76398 49.793" stroke="#060E22" stroke-width="1.0125"/>
<path d="M-3.51044 36.7263L7.50546 33.4092L-0.658013 41.5499" stroke="#060E22" stroke-width="1.0125"/>
<path d="M45.5343 2.99316L33.6766 14.8178" stroke="#060E22" stroke-width="1.0125"/>
<path d="M43.7777 1.24121L31.92 13.0658" stroke="#060E22" stroke-width="1.0125"/>
<path d="M47.84 5.29199L35.9823 17.1166" stroke="#060E22" stroke-width="1.0125"/>
<path d="M35.7416 -2.10547L32.4152 8.87969L40.5787 0.738995" stroke="#060E22" stroke-width="1.0125"/>
<path d="M51.3872 13.1859L40.3713 16.503L48.5348 8.3623" stroke="#060E22" stroke-width="1.0125"/>
<path d="M46.1432 46.5678L34.2855 34.7432" stroke="#060E22" stroke-width="1.0125"/>
<path d="M47.9 44.8169L36.0422 32.9922" stroke="#060E22" stroke-width="1.0125"/>
<path d="M43.8376 48.8676L31.9799 37.043" stroke="#060E22" stroke-width="1.0125"/>
<path d="M51.6974 36.7254L40.6815 33.4082L48.845 41.5489" stroke="#060E22" stroke-width="1.0125"/>
<path d="M35.8968 52.4822L32.5703 41.4971L40.7338 49.6378" stroke="#060E22" stroke-width="1.0125"/>
<path d="M1.836 3.60059L13.6938 15.4253" stroke="#060E22" stroke-width="1.0125"/>
<path d="M0.0793457 5.35254L11.9371 17.1772" stroke="#060E22" stroke-width="1.0125"/>
<path d="M4.14215 1.30078L15.9999 13.1255" stroke="#060E22" stroke-width="1.0125"/>
<path d="M-2.73389 13.9593L8.28201 17.2764L0.118538 9.13574" stroke="#060E22" stroke-width="1.0125"/>
<path d="M12.4459 -1.6416L15.7724 9.34355L7.60889 1.20286" stroke="#060E22" stroke-width="1.0125"/>
<path d="M23.9893 41.6036C33.0956 41.6036 40.4777 34.242 40.4777 25.1611C40.4777 16.0803 33.0956 8.71875 23.9893 8.71875C14.883 8.71875 7.50085 16.0803 7.50085 25.1611C7.50085 34.242 14.883 41.6036 23.9893 41.6036Z" fill="#48658C" stroke="#060E22" stroke-width="0.867857"/>
</g>
<mask id="mask1" mask-type="alpha" maskUnits="userSpaceOnUse" x="7" y="8" width="34" height="35">
<path d="M23.9893 41.6036C33.0956 41.6036 40.4777 34.242 40.4777 25.1611C40.4777 16.0803 33.0956 8.71875 23.9893 8.71875C14.883 8.71875 7.50085 16.0803 7.50085 25.1611C7.50085 34.242 14.883 41.6036 23.9893 41.6036Z" fill="white" stroke="white" stroke-width="0.867857"/>
</mask>
<g mask="url(#mask1)">
<path fill-rule="evenodd" clip-rule="evenodd" d="M26.8193 9.02246L23.5586 28.6458H28.2377L24.067 42.0032L39.9095 39.1749L42.7841 17.1167L35.802 10.9942L26.8193 9.02246Z" fill="#060E22"/>
<path fill-rule="evenodd" clip-rule="evenodd" d="M35.9254 20.9188C36.123 20.3468 36.123 19.2309 34.9309 19.0687C34.1823 18.9667 25.2503 19.3096 24.2165 19.3497C23.1271 19.3075 14.2599 18.9676 13.5141 19.0691C12.3221 19.2314 12.3221 20.3473 12.5196 20.9192C12.6064 21.1705 12.7117 21.3596 12.8451 21.5993C13.0155 21.9053 13.2317 22.2937 13.5141 22.9991C13.6743 23.3992 13.8152 23.9607 13.9633 24.5506C14.2808 25.8157 14.631 27.2111 15.2735 27.4235C15.981 27.6573 18.8353 27.54 20.6107 27.467C21.1999 27.4428 21.6703 27.4235 21.904 27.4235C22.3195 27.4235 22.551 26.3897 22.8089 25.2381C23.1196 23.8506 23.4686 22.292 24.2239 22.1631C24.9773 22.2953 25.3259 23.8519 25.6362 25.2376C25.8941 26.3893 26.1255 27.4231 26.5411 27.4231C26.7748 27.4231 27.2452 27.4424 27.8343 27.4665C29.6098 27.5395 32.4641 27.6568 33.1715 27.4231C33.8141 27.2106 34.1643 25.8152 34.4818 24.5502C34.6299 23.9602 34.7708 23.3987 34.9309 22.9986C35.2132 22.2932 35.4296 21.9048 35.5999 21.5988C35.7334 21.3591 35.8386 21.17 35.9254 20.9188Z" fill="#48658C"/>
<path d="M34.9309 19.0686L34.9648 18.8209L34.9309 19.0686ZM35.9255 20.9187L35.6885 20.8373L35.9255 20.9187ZM24.2165 19.3497L24.2068 19.5994L24.2165 19.5998L24.2263 19.5994L24.2165 19.3497ZM13.5142 19.0691L13.548 19.3167L13.5142 19.0691ZM12.5197 20.9192L12.2827 21.0005L12.5197 20.9192ZM12.8452 21.5993L12.6261 21.7206L12.8452 21.5993ZM13.5142 22.999L13.7469 22.9064L13.5142 22.999ZM13.9633 24.5506L13.7202 24.6113L13.9633 24.5506ZM15.2736 27.4235L15.3524 27.1862L15.2736 27.4235ZM20.6108 27.467L20.6211 27.7168L20.6108 27.467ZM22.809 25.2381L23.0536 25.2925L22.809 25.2381ZM24.2239 22.1631L24.2674 21.9169L24.2245 21.9094L24.1817 21.9167L24.2239 22.1631ZM25.6362 25.2376L25.3916 25.292L25.6362 25.2376ZM27.8344 27.4665L27.8241 27.7163L27.8344 27.4665ZM33.1715 27.423L33.2504 27.6602L33.1715 27.423ZM34.4818 24.5501L34.725 24.6108L34.4818 24.5501ZM34.9309 22.9986L35.1637 23.0912L34.9309 22.9986ZM35.5999 21.5988L35.819 21.7201L35.5999 21.5988ZM34.8971 19.3162C35.1559 19.3514 35.3336 19.4358 35.4569 19.538C35.5803 19.6402 35.6619 19.771 35.7116 19.9193C35.8138 20.2241 35.7747 20.5877 35.6885 20.8373L36.1625 21C36.2738 20.6778 36.3335 20.1975 36.1871 19.7608C36.1124 19.5382 35.9829 19.3239 35.7772 19.1535C35.5714 18.9829 35.3021 18.8668 34.9648 18.8209L34.8971 19.3162ZM24.2263 19.5994C24.743 19.5793 27.2338 19.4836 29.6887 19.4057C30.9163 19.3667 32.1341 19.3322 33.0912 19.3138C33.57 19.3046 33.9824 19.2994 34.2978 19.2997C34.6215 19.3 34.8239 19.3063 34.8971 19.3162L34.9648 18.8209C34.8508 18.8055 34.6104 18.8001 34.2983 18.7998C33.9779 18.7995 33.5616 18.8047 33.0816 18.814C32.1212 18.8325 30.9009 18.867 29.6728 18.9061C27.2161 18.9841 24.7239 19.0798 24.2068 19.0999L24.2263 19.5994ZM24.2263 19.0999C23.6815 19.0788 21.1916 18.9833 18.7444 18.9056C17.521 18.8668 16.3075 18.8326 15.3527 18.8142C14.8754 18.8051 14.4616 18.8 14.1432 18.8003C13.833 18.8007 13.5939 18.806 13.4803 18.8214L13.548 19.3167C13.6209 19.3068 13.822 19.3006 14.1437 19.3002C14.4572 19.2999 14.8671 19.305 15.3431 19.3141C16.2947 19.3322 17.5057 19.3665 18.7285 19.4053C21.1739 19.4829 23.6623 19.5783 24.2068 19.5994L24.2263 19.0999ZM13.4803 18.8214C13.143 18.8673 12.8738 18.9834 12.668 19.154C12.4622 19.3244 12.3327 19.5386 12.2581 19.7613C12.1117 20.1979 12.1714 20.6782 12.2827 21.0005L12.7566 20.8378C12.6705 20.5882 12.6314 20.2246 12.7335 19.9198C12.7832 19.7715 12.8649 19.6407 12.9883 19.5383C13.1116 19.4363 13.2893 19.3519 13.548 19.3167L13.4803 18.8214ZM12.2827 21.0005C12.3776 21.2754 12.4934 21.4823 12.6261 21.7206L13.0644 21.4779C12.93 21.2367 12.8353 21.0655 12.7566 20.8378L12.2827 21.0005ZM12.6261 21.7206C12.7941 22.0222 13.0046 22.4003 13.2814 23.0917L13.7469 22.9064C13.459 22.187 13.2371 21.7882 13.0644 21.4779L12.6261 21.7206ZM13.2814 23.0917C13.4339 23.4725 13.5706 24.015 13.7202 24.6113L14.2064 24.4899C14.06 23.9064 13.9148 23.3257 13.7469 22.9064L13.2814 23.0917ZM13.7202 24.6113C13.8779 25.2394 14.0485 25.9211 14.2629 26.4722C14.3703 26.7481 14.4929 27.0032 14.6379 27.2073C14.7815 27.4096 14.9628 27.5841 15.1947 27.6607L15.3524 27.1862C15.2631 27.1566 15.1597 27.077 15.0469 26.9184C14.9357 26.7617 14.8304 26.549 14.7302 26.2914C14.5295 25.7754 14.3663 25.1268 14.2064 24.4899L13.7202 24.6113ZM15.1947 27.6607C15.4076 27.7311 15.7503 27.7681 16.1431 27.7888C16.5454 27.8099 17.0297 27.8148 17.544 27.8102C18.5726 27.801 19.7342 27.7532 20.6211 27.7168L20.6005 27.2173C19.7119 27.2538 18.5585 27.3012 17.5393 27.3103C17.0297 27.3149 16.5569 27.3099 16.1694 27.2896C15.7727 27.2687 15.4933 27.2327 15.3524 27.1862L15.1947 27.6607ZM20.6211 27.7168C21.2137 27.6924 21.677 27.6734 21.9041 27.6734V27.1735C21.6637 27.1735 21.1862 27.1932 20.6005 27.2173L20.6211 27.7168ZM21.9041 27.6734C22.125 27.6734 22.2827 27.5336 22.3869 27.3913C22.4927 27.2469 22.5783 27.0545 22.6521 26.8456C22.8001 26.4261 22.9259 25.8629 23.0536 25.2925L22.5644 25.1835C22.4342 25.7648 22.3152 26.2944 22.1792 26.6796C22.1108 26.8732 22.0446 27.0112 21.9821 27.0965C21.9179 27.1841 21.891 27.1735 21.9041 27.1735V27.6734ZM23.0536 25.2925C23.2101 24.5935 23.3713 23.8763 23.584 23.3173C23.6903 23.038 23.8041 22.8136 23.9264 22.6555C24.0484 22.4976 24.1619 22.4273 24.2662 22.4094L24.1817 21.9167C23.9083 21.9634 23.6949 22.1362 23.5295 22.3502C23.3642 22.5639 23.2296 22.84 23.1154 23.1399C22.8873 23.7393 22.7185 24.4951 22.5644 25.1835L23.0536 25.2925ZM25.8808 25.183C25.7268 24.4954 25.5583 23.7406 25.3306 23.1416C25.2166 22.8419 25.0824 22.5659 24.9176 22.352C24.7526 22.138 24.5399 21.9647 24.2674 21.9169L24.1805 22.4092C24.2847 22.4276 24.3981 22.4984 24.5201 22.6567C24.6422 22.8151 24.7557 23.0398 24.8618 23.3188C25.0743 23.8775 25.2352 24.5939 25.3916 25.292L25.8808 25.183ZM26.5411 27.173C26.5542 27.173 26.5273 27.1837 26.4631 27.096C26.4006 27.0107 26.3342 26.8727 26.2659 26.6792C26.13 26.294 26.011 25.7644 25.8808 25.183L25.3916 25.292C25.5193 25.8624 25.645 26.4256 25.7931 26.8452C25.8669 27.054 25.9524 27.2465 26.0582 27.3909C26.1624 27.5331 26.3202 27.6729 26.5411 27.6729V27.173ZM27.8447 27.2168C27.259 27.1927 26.7815 27.173 26.5411 27.173V27.6729C26.7682 27.6729 27.2314 27.6919 27.8241 27.7163L27.8447 27.2168ZM33.0927 27.1857C32.9519 27.2323 32.6725 27.2683 32.2757 27.2891C31.8883 27.3094 31.4155 27.3144 30.9058 27.3098C29.8866 27.3007 28.7333 27.2533 27.8447 27.2168L27.8241 27.7163C28.711 27.7527 29.8726 27.8005 30.9012 27.8097C31.4154 27.8144 31.8998 27.8094 32.302 27.7883C32.6949 27.7677 33.0375 27.7306 33.2504 27.6602L33.0927 27.1857ZM34.2387 24.4894C34.0789 25.1264 33.9157 25.7749 33.7149 26.2909C33.6147 26.5486 33.5095 26.7612 33.3982 26.918C33.2855 27.0766 33.1821 27.1562 33.0927 27.1857L33.2504 27.6602C33.4823 27.5836 33.6637 27.4091 33.8073 27.2068C33.9523 27.0027 34.0749 26.7477 34.1823 26.4717C34.3967 25.9206 34.5673 25.239 34.725 24.6108L34.2387 24.4894ZM34.6982 22.9059C34.5304 23.3253 34.3851 23.906 34.2387 24.4894L34.725 24.6108C34.8746 24.0145 35.0113 23.472 35.1637 23.0912L34.6982 22.9059ZM35.3808 21.4775C35.2081 21.7877 34.9861 22.1865 34.6982 22.9059L35.1637 23.0912C35.4405 22.3998 35.6511 22.0219 35.819 21.7201L35.3808 21.4775ZM35.6885 20.8373C35.6098 21.065 35.5151 21.2362 35.3808 21.4775L35.819 21.7201C35.9517 21.482 36.0676 21.2749 36.1625 21L35.6885 20.8373Z" fill="#060E22"/>
<path fill-rule="evenodd" clip-rule="evenodd" d="M14.2018 21.1812C13.994 20.5192 14.509 19.8525 15.2038 19.8839L21.6518 20.1747C22.2749 20.2028 22.7212 20.7854 22.5847 21.3922L21.6065 25.7414C21.5037 26.1979 21.0974 26.5224 20.6282 26.5224H16.6148C16.1765 26.5224 15.789 26.2384 15.658 25.8212L14.2018 21.1812Z" fill="#060E22"/>
</g>
<mask id="mask2" mask-type="alpha" maskUnits="userSpaceOnUse" x="14" y="19" width="9" height="8">
<path fill-rule="evenodd" clip-rule="evenodd" d="M14.2018 21.1812C13.994 20.5192 14.509 19.8525 15.2038 19.8839L21.6518 20.1747C22.2749 20.2028 22.7212 20.7854 22.5847 21.3922L21.6065 25.7414C21.5037 26.1979 21.0974 26.5224 20.6282 26.5224H16.6148C16.1765 26.5224 15.789 26.2384 15.658 25.8212L14.2018 21.1812Z" fill="white"/>
</mask>
<g mask="url(#mask2)">
<path opacity="0.314267" fill-rule="evenodd" clip-rule="evenodd" d="M19.6081 18.8174L20.9327 19.5886L16.599 27.1586L15.2744 26.3874L19.6081 18.8174Z" fill="#060E22"/>
<path opacity="0.314267" fill-rule="evenodd" clip-rule="evenodd" d="M16.6377 18.9463L16.9689 19.1391L14.2285 23.926L13.8973 23.7332L16.6377 18.9463Z" fill="#060E22"/>
<path opacity="0.314267" fill-rule="evenodd" clip-rule="evenodd" d="M17.9713 18.4316L18.5233 18.753L14.6357 25.5437L14.0838 25.2224L17.9713 18.4316Z" fill="#060E22"/>
</g>
<mask id="mask3" mask-type="alpha" maskUnits="userSpaceOnUse" x="26" y="19" width="9" height="8">
<path fill-rule="evenodd" clip-rule="evenodd" d="M34.507 21.2888C34.7156 20.6266 34.2007 19.9591 33.5054 19.9903L27.0601 20.2799C26.4367 20.308 25.9901 20.8912 26.1271 21.4984L27.1037 25.8226C27.2067 26.2787 27.613 26.6027 28.0818 26.6027H32.0967C32.5346 26.6027 32.9219 26.3192 33.0531 25.9027L34.507 21.2888Z" fill="white"/>
</mask>
<g mask="url(#mask3)">
<path opacity="0.314267" fill-rule="evenodd" clip-rule="evenodd" d="M31.7837 18.9277L33.1084 19.6959L28.7747 27.2362L27.45 26.468L31.7837 18.9277Z" fill="#060E22"/>
<path opacity="0.314267" fill-rule="evenodd" clip-rule="evenodd" d="M28.8134 19.0557L29.1445 19.2477L26.404 24.0158L26.0729 23.8237L28.8134 19.0557Z" fill="#060E22"/>
<path opacity="0.314267" fill-rule="evenodd" clip-rule="evenodd" d="M30.147 18.5439L30.6989 18.864L26.8112 25.6281L26.2593 25.308L30.147 18.5439Z" fill="#060E22"/>
</g>
</svg>
