<svg width="795" height="344" viewBox="0 0 795 344" fill="none" xmlns="http://www.w3.org/2000/svg">
<g filter="url(#filter0_f)">
<circle cx="397" cy="170" r="132.5" stroke="#708BB0"/>
</g>
<g filter="url(#filter1_df)">
<circle cx="397" cy="170" r="165.5" stroke="url(#paint0_linear)"/>
</g>
<g filter="url(#filter2_f)">
<circle cx="397" cy="170" r="100.5" stroke="#344E72"/>
</g>
<rect x="304" y="50" width="187" height="240" rx="15" fill="url(#paint1_linear)"/>
<rect x="94" y="210" width="80" height="117" rx="10" transform="rotate(-90 94 210)" fill="url(#paint2_linear)"/>
<g filter="url(#filter3_f)">
<path d="M0.5 209.5L0.499997 130.5L61 130.5C66.2467 130.5 70.5 134.753 70.5 140L70.5 200C70.5 205.247 66.2467 209.5 61 209.5L0.5 209.5Z" stroke="url(#paint3_linear)"/>
</g>
<rect x="584" y="210" width="80" height="117" rx="10" transform="rotate(-90 584 210)" fill="url(#paint4_linear)"/>
<g filter="url(#filter4_f)">
<path d="M794.5 130.5L794.5 209.5L734 209.5C728.753 209.5 724.5 205.247 724.5 200L724.5 140C724.5 134.753 728.753 130.5 734 130.5L794.5 130.5Z" stroke="url(#paint5_linear)"/>
</g>
<path d="M623 149L638.73 192L661 163.099L653.156 154.787L623 149ZM628.551 152.44L650.062 156.651L641.789 164.123L628.551 152.44ZM627.066 154.192L640.746 166.278L638.738 185.461L627.066 154.192ZM652.566 157.611L657.078 162.255L644.879 164.587L652.566 157.611ZM656.625 164.767L640.938 185.461L642.957 167.41L656.625 164.767Z" fill="white"/>
<path d="M430.495 130V130C430.184 130.001 429.878 130.085 429.608 130.244L429.607 130.242C429.607 130.242 424.758 133.07 422.699 134.226C421.012 135.173 420.89 136.313 420.9 136.699C420.89 137.084 421.012 138.224 422.699 139.171C424.758 140.327 429.607 143.155 429.607 143.155L429.608 143.153C429.878 143.312 430.184 143.396 430.495 143.396C430.966 143.396 431.417 143.206 431.75 142.868C432.082 142.53 432.269 142.071 432.269 141.593C432.269 141.276 432.187 140.965 432.031 140.691C431.875 140.417 431.65 140.19 431.381 140.032L431.382 140.029L425.407 136.698L431.382 133.368L431.381 133.365C431.651 133.207 431.875 132.979 432.031 132.705C432.187 132.431 432.269 132.12 432.269 131.804C432.27 131.325 432.083 130.867 431.75 130.528C431.417 130.19 430.966 130 430.495 130L430.495 130ZM389.868 130.966C389.067 130.966 388.273 131.126 387.533 131.438C386.793 131.749 386.121 132.206 385.554 132.782C384.988 133.358 384.538 134.041 384.232 134.794C383.925 135.546 383.767 136.353 383.767 137.167C383.767 137.982 383.925 138.788 384.232 139.541C384.538 140.293 384.987 140.977 385.554 141.553C386.12 142.129 386.793 142.585 387.533 142.897C388.273 143.209 389.067 143.369 389.868 143.369C390.669 143.369 391.462 143.209 392.202 142.897C392.943 142.585 393.615 142.129 394.182 141.553C394.748 140.977 395.197 140.293 395.504 139.541C395.81 138.788 395.968 137.982 395.968 137.167C395.968 135.522 395.325 133.945 394.181 132.782C393.037 131.619 391.486 130.966 389.868 130.966ZM452.558 151.639C451.796 151.64 451.045 151.823 450.364 152.171C449.683 152.52 449.092 153.026 448.638 153.648L448.629 153.642L438.939 167.493L438.957 167.499C438.334 168.347 437.995 169.375 437.986 170.433C437.995 171.491 438.334 172.519 438.957 173.367L438.939 173.373L448.629 187.224L448.638 187.218C449.092 187.841 449.683 188.346 450.364 188.695C451.045 189.044 451.796 189.226 452.558 189.227C453.201 189.227 453.837 189.099 454.43 188.849C455.023 188.599 455.563 188.233 456.017 187.771C456.471 187.309 456.831 186.761 457.077 186.158C457.323 185.555 457.449 184.908 457.449 184.255C457.447 183.23 457.134 182.231 456.552 181.395L456.558 181.391L448.886 170.433L456.558 159.476L456.552 159.472C457.134 158.635 457.447 157.636 457.449 156.612C457.449 155.959 457.323 155.312 457.077 154.709C456.831 154.105 456.471 153.557 456.017 153.096C455.563 152.634 455.024 152.268 454.43 152.018C453.837 151.768 453.201 151.639 452.558 151.639V151.639ZM383.501 196.763C382.145 196.763 381.045 197.936 381.045 199.382C381.045 200.38 381.578 201.292 382.419 201.731C396.648 210.804 409.154 209.981 409.154 209.981C409.154 209.981 421.659 210.804 435.888 201.731C436.729 201.292 437.261 200.38 437.262 199.382C437.262 197.936 436.162 196.763 434.806 196.763C434.288 196.765 433.783 196.94 433.364 197.265C433.364 197.265 433.15 197.41 433.15 197.41C433.15 197.41 422.479 205.037 409.154 204.804C395.828 205.037 385.157 197.41 385.157 197.41C385.157 197.41 384.943 197.265 384.942 197.265C384.524 196.94 384.019 196.764 383.501 196.763Z" fill="#060E22"/>
<path d="M417.292 150.674C416.836 150.677 416.381 150.701 415.927 150.745C415.681 150.77 415.435 150.801 415.189 150.838C414.906 150.874 414.623 150.919 414.341 150.971C414.114 151.019 413.888 151.071 413.663 151.129C413.368 151.198 413.075 151.275 412.784 151.361C412.578 151.428 412.372 151.498 412.168 151.573C411.868 151.676 411.571 151.789 411.277 151.91C411.088 151.993 410.901 152.08 410.715 152.171C410.416 152.308 410.122 152.456 409.832 152.612C409.662 152.709 409.494 152.809 409.328 152.912C409.033 153.086 408.743 153.27 408.46 153.463C408.312 153.569 408.166 153.677 408.022 153.787C407.733 153.999 407.452 154.221 407.177 154.452C407.051 154.563 406.927 154.676 406.804 154.791C406.527 155.041 406.258 155.301 405.998 155.57C405.891 155.685 405.786 155.801 405.683 155.919C405.424 156.203 405.176 156.496 404.937 156.798C404.846 156.919 404.756 157.041 404.669 157.164C404.434 157.479 404.21 157.803 403.998 158.135C403.925 158.255 403.853 158.377 403.783 158.499C403.575 158.844 403.379 159.197 403.196 159.558C403.137 159.68 403.08 159.803 403.024 159.927C402.847 160.298 402.684 160.675 402.535 161.059C402.491 161.18 402.448 161.301 402.407 161.423C402.265 161.815 402.137 162.213 402.024 162.616C401.992 162.739 401.962 162.863 401.933 162.986C401.829 163.393 401.74 163.804 401.666 164.218C401.647 164.341 401.629 164.464 401.612 164.588C401.547 165.007 401.498 165.429 401.465 165.852C401.443 166.122 401.428 166.392 401.419 166.662H401.415V166.769C401.41 166.883 401.406 166.997 401.404 167.112C401.405 167.156 401.407 167.201 401.408 167.246H401.41H401.415V184.432H401.417C401.432 185.735 401.943 186.979 402.838 187.895C403.734 188.811 404.942 189.325 406.201 189.325C407.461 189.325 408.669 188.811 409.564 187.895C410.459 186.979 410.97 185.735 410.985 184.432H410.987V184.374V166.695C411.075 165.275 411.608 163.925 412.504 162.847C413.4 161.769 414.612 161.022 415.955 160.72C415.971 160.716 415.986 160.712 416.002 160.708C416.16 160.675 416.319 160.649 416.478 160.63C416.53 160.621 416.582 160.613 416.634 160.605C416.763 160.594 416.891 160.586 417.02 160.582C417.111 160.576 417.201 160.571 417.291 160.568C417.291 160.568 417.292 160.568 417.292 160.568C417.395 160.571 417.498 160.576 417.601 160.584C417.716 160.588 417.831 160.595 417.946 160.605C418.007 160.613 418.069 160.623 418.129 160.634C418.281 160.653 418.431 160.677 418.58 160.708C418.6 160.713 418.621 160.718 418.641 160.723C418.828 160.765 419.013 160.815 419.196 160.874C420.411 161.273 421.481 162.042 422.266 163.08C423.051 164.119 423.515 165.379 423.596 166.695V184.374V184.432H423.598C423.613 185.735 424.123 186.979 425.019 187.895C425.914 188.811 427.122 189.325 428.382 189.325C429.641 189.325 430.849 188.811 431.745 187.895C432.64 186.979 433.151 185.735 433.166 184.432H433.168V167.246H433.173H433.175C433.177 167.201 433.178 167.156 433.18 167.112C433.177 166.997 433.173 166.883 433.168 166.769V166.662H433.164C433.156 166.392 433.14 166.122 433.119 165.852C433.085 165.425 433.035 164.999 432.969 164.576C432.954 164.458 432.937 164.341 432.918 164.224C432.844 163.806 432.755 163.392 432.65 162.982C432.621 162.86 432.591 162.738 432.56 162.616C432.447 162.214 432.319 161.816 432.177 161.423C432.135 161.301 432.093 161.18 432.049 161.059C431.899 160.673 431.735 160.294 431.557 159.921C431.502 159.8 431.446 159.68 431.389 159.56C431.205 159.199 431.009 158.844 430.8 158.498C430.73 158.376 430.658 158.255 430.585 158.135C430.373 157.803 430.15 157.479 429.915 157.164C429.827 157.041 429.738 156.919 429.646 156.798C429.408 156.496 429.159 156.203 428.901 155.919C428.797 155.801 428.692 155.685 428.586 155.57C428.326 155.301 428.057 155.041 427.779 154.791C427.657 154.676 427.532 154.563 427.406 154.452C427.131 154.22 426.849 153.998 426.56 153.786C426.416 153.676 426.272 153.569 426.125 153.464C425.84 153.27 425.548 153.084 425.252 152.909C425.087 152.808 424.921 152.709 424.753 152.613C424.462 152.456 424.167 152.308 423.867 152.17C423.682 152.079 423.495 151.993 423.306 151.91C423.013 151.789 422.716 151.676 422.415 151.573C422.211 151.498 422.006 151.428 421.799 151.361C421.508 151.275 421.216 151.198 420.921 151.129C420.696 151.071 420.469 151.019 420.242 150.971C419.961 150.919 419.678 150.874 419.394 150.838C419.149 150.801 418.903 150.77 418.656 150.745C418.203 150.701 417.747 150.677 417.292 150.674C417.292 150.674 417.292 150.674 417.292 150.674L417.292 150.674ZM341.786 151.002C340.517 151.002 339.299 151.524 338.402 152.452C337.504 153.381 337 154.64 337 155.953C337.001 156.321 337.042 156.687 337.122 157.045L337.111 157.047L343.899 185.674L343.912 185.67C344.187 186.719 344.787 187.645 345.621 188.305C346.455 188.966 347.475 189.324 348.525 189.326C349.541 189.324 350.529 188.989 351.348 188.368C352.167 187.747 352.774 186.872 353.081 185.871L353.087 185.901L358.146 170.963L363.206 185.901L363.212 185.871C363.519 186.872 364.126 187.747 364.945 188.368C365.764 188.989 366.753 189.324 367.768 189.326C368.818 189.324 369.839 188.966 370.672 188.305C371.506 187.645 372.106 186.719 372.381 185.67L372.394 185.674L379.182 157.047L379.171 157.045C379.251 156.687 379.292 156.321 379.293 155.953C379.293 154.64 378.789 153.381 377.891 152.452C376.994 151.524 375.777 151.002 374.507 151.002C373.37 151.003 372.271 151.424 371.406 152.187C370.542 152.951 369.968 154.008 369.788 155.17L369.777 155.167L366.965 166.991L362.665 154.282L362.649 154.288C362.646 154.281 362.644 154.273 362.641 154.266C362.596 154.14 362.546 154.016 362.492 153.894C362.479 153.865 362.467 153.836 362.454 153.807C362.398 153.688 362.337 153.572 362.272 153.458C362.257 153.429 362.241 153.4 362.225 153.372C362.159 153.261 362.088 153.153 362.014 153.048C361.994 153.019 361.974 152.991 361.954 152.962C361.88 152.862 361.802 152.765 361.721 152.671C361.695 152.64 361.669 152.61 361.643 152.58C361.562 152.49 361.477 152.403 361.389 152.32C361.359 152.292 361.33 152.263 361.3 152.235C361.212 152.156 361.121 152.081 361.028 152.009C360.993 151.98 360.958 151.952 360.922 151.925C360.831 151.859 360.738 151.796 360.643 151.737C360.601 151.709 360.558 151.682 360.515 151.656C360.422 151.602 360.328 151.551 360.231 151.504C360.183 151.479 360.135 151.454 360.086 151.431C359.993 151.389 359.9 151.351 359.805 151.316C359.748 151.293 359.692 151.272 359.634 151.251C359.542 151.221 359.449 151.193 359.355 151.169C359.294 151.152 359.233 151.136 359.172 151.121C359.08 151.101 358.988 151.084 358.896 151.069C358.83 151.057 358.763 151.047 358.696 151.038C358.609 151.028 358.523 151.022 358.436 151.017C358.34 151.009 358.244 151.004 358.148 151.002C358.147 151.002 358.146 151.002 358.145 151.002C358.047 151.004 357.949 151.009 357.851 151.018C357.768 151.022 357.685 151.029 357.601 151.038C357.529 151.047 357.458 151.058 357.386 151.071C357.299 151.085 357.212 151.101 357.125 151.12C357.061 151.135 356.997 151.152 356.933 151.17C356.841 151.194 356.749 151.221 356.659 151.251C356.602 151.271 356.545 151.293 356.488 151.316C356.394 151.351 356.3 151.389 356.207 151.431C356.158 151.454 356.11 151.479 356.062 151.504C355.966 151.551 355.871 151.602 355.778 151.656C355.734 151.683 355.69 151.711 355.646 151.739C355.553 151.798 355.462 151.859 355.373 151.924C355.336 151.952 355.298 151.981 355.262 152.011C355.17 152.082 355.08 152.157 354.993 152.235C354.963 152.263 354.934 152.292 354.904 152.32C354.817 152.403 354.732 152.49 354.65 152.579C354.623 152.61 354.597 152.641 354.571 152.673C354.49 152.766 354.413 152.862 354.34 152.961C354.319 152.991 354.298 153.021 354.278 153.051C354.204 153.155 354.134 153.262 354.068 153.372C354.052 153.401 354.036 153.43 354.02 153.46C353.955 153.573 353.895 153.688 353.84 153.806C353.826 153.836 353.813 153.866 353.8 153.897C353.746 154.018 353.697 154.141 353.653 154.266C353.65 154.273 353.647 154.281 353.644 154.288L353.628 154.282L349.328 166.991L346.516 155.167L346.505 155.169C346.325 154.008 345.752 152.951 344.887 152.187C344.022 151.424 342.923 151.003 341.786 151.002L341.786 151.002ZM390.354 151.002C389.099 151.003 387.895 151.514 387.001 152.425C386.106 153.335 385.594 154.573 385.573 155.871H385.568V155.954V184.374V184.715H385.58C385.663 185.966 386.203 187.138 387.089 187.994C387.975 188.849 389.142 189.325 390.354 189.325C391.566 189.324 392.731 188.848 393.616 187.992C394.501 187.136 395.04 185.965 395.123 184.715H395.14V184.374V155.954V155.871H395.137C395.116 154.573 394.603 153.335 393.709 152.424C392.814 151.513 391.609 151.003 390.354 151.002H390.354Z" fill="#060E22"/>
<rect x="146" y="152" width="12" height="36" rx="3" fill="white"/>
<rect x="130" y="172" width="12" height="16" rx="3" fill="white"/>
<rect x="162" y="164" width="12" height="24" rx="3" fill="white"/>
<rect x="471" y="278" width="57" height="4" rx="2" transform="rotate(180 471 278)" fill="white"/>
<rect x="479" y="269" width="50" height="4" rx="2" transform="rotate(180 479 269)" fill="white"/>
<rect x="471" y="260" width="22" height="4" rx="2" transform="rotate(180 471 260)" fill="white"/>
<rect x="421" y="269" width="22" height="4" rx="2" transform="rotate(180 421 269)" fill="white"/>
<rect x="332" y="62" width="57" height="4" rx="2" fill="white"/>
<rect x="316" y="71" width="51" height="4" rx="2" fill="white"/>
<rect x="332" y="80" width="22" height="4" rx="2" fill="white"/>
<rect x="375" y="71" width="22" height="4" rx="2" fill="white"/>
<rect x="269" y="176" width="10" height="10" rx="5" transform="rotate(-180 269 176)" stroke="#FBC509" stroke-width="4"/>
<rect x="535" y="176" width="10" height="10" rx="5" transform="rotate(-180 535 176)" stroke="#D80027" stroke-width="4"/>
<g filter="url(#filter5_f)">
<path d="M221 103C221 104.657 219.657 106 218 106C216.343 106 215 104.657 215 103C215 101.343 216.343 100 218 100C219.657 100 221 101.343 221 103Z" fill="url(#paint6_linear)"/>
<path d="M211 103C211 104.657 209.657 106 208 106C206.343 106 205 104.657 205 103C205 101.343 206.343 100 208 100C209.657 100 211 101.343 211 103Z" fill="url(#paint7_linear)"/>
<path d="M201 103C201 104.657 199.657 106 198 106C196.343 106 195 104.657 195 103C195 101.343 196.343 100 198 100C199.657 100 201 101.343 201 103Z" fill="url(#paint8_linear)"/>
<path d="M191 103C191 104.657 189.657 106 188 106C186.343 106 185 104.657 185 103C185 101.343 186.343 100 188 100C189.657 100 191 101.343 191 103Z" fill="url(#paint9_linear)"/>
<path d="M181 103C181 104.657 179.657 106 178 106C176.343 106 175 104.657 175 103C175 101.343 176.343 100 178 100C179.657 100 181 101.343 181 103Z" fill="url(#paint10_linear)"/>
<path d="M171 103C171 104.657 169.657 106 168 106C166.343 106 165 104.657 165 103C165 101.343 166.343 100 168 100C169.657 100 171 101.343 171 103Z" fill="url(#paint11_linear)"/>
</g>
<g filter="url(#filter6_f)">
<path d="M573 235C573 233.343 574.343 232 576 232C577.657 232 579 233.343 579 235C579 236.657 577.657 238 576 238C574.343 238 573 236.657 573 235Z" fill="url(#paint12_linear)"/>
<path d="M583 235C583 233.343 584.343 232 586 232C587.657 232 589 233.343 589 235C589 236.657 587.657 238 586 238C584.343 238 583 236.657 583 235Z" fill="url(#paint13_linear)"/>
<path d="M593 235C593 233.343 594.343 232 596 232C597.657 232 599 233.343 599 235C599 236.657 597.657 238 596 238C594.343 238 593 236.657 593 235Z" fill="url(#paint14_linear)"/>
<path d="M603 235C603 233.343 604.343 232 606 232C607.657 232 609 233.343 609 235C609 236.657 607.657 238 606 238C604.343 238 603 236.657 603 235Z" fill="url(#paint15_linear)"/>
<path d="M613 235C613 233.343 614.343 232 616 232C617.657 232 619 233.343 619 235C619 236.657 617.657 238 616 238C614.343 238 613 236.657 613 235Z" fill="url(#paint16_linear)"/>
<path d="M623 235C623 233.343 624.343 232 626 232C627.657 232 629 233.343 629 235C629 236.657 627.657 238 626 238C624.343 238 623 236.657 623 235Z" fill="url(#paint17_linear)"/>
</g>
<defs>
<filter id="filter0_f" x="260" y="33" width="274" height="274" filterUnits="userSpaceOnUse" color-interpolation-filters="sRGB">
<feFlood flood-opacity="0" result="BackgroundImageFix"/>
<feBlend mode="normal" in="SourceGraphic" in2="BackgroundImageFix" result="shape"/>
<feGaussianBlur stdDeviation="2" result="effect1_foregroundBlur"/>
</filter>
<filter id="filter1_df" x="227" y="0" width="340" height="344" filterUnits="userSpaceOnUse" color-interpolation-filters="sRGB">
<feFlood flood-opacity="0" result="BackgroundImageFix"/>
<feColorMatrix in="SourceAlpha" type="matrix" values="0 0 0 0 0 0 0 0 0 0 0 0 0 0 0 0 0 0 127 0"/>
<feOffset dy="4"/>
<feGaussianBlur stdDeviation="2"/>
<feColorMatrix type="matrix" values="0 0 0 0 0 0 0 0 0 0 0 0 0 0 0 0 0 0 0.25 0"/>
<feBlend mode="normal" in2="BackgroundImageFix" result="effect1_dropShadow"/>
<feBlend mode="normal" in="SourceGraphic" in2="effect1_dropShadow" result="shape"/>
<feGaussianBlur stdDeviation="2" result="effect2_foregroundBlur"/>
</filter>
<filter id="filter2_f" x="292" y="65" width="210" height="210" filterUnits="userSpaceOnUse" color-interpolation-filters="sRGB">
<feFlood flood-opacity="0" result="BackgroundImageFix"/>
<feBlend mode="normal" in="SourceGraphic" in2="BackgroundImageFix" result="shape"/>
<feGaussianBlur stdDeviation="2" result="effect1_foregroundBlur"/>
</filter>
<filter id="filter3_f" x="-4" y="126" width="79" height="88" filterUnits="userSpaceOnUse" color-interpolation-filters="sRGB">
<feFlood flood-opacity="0" result="BackgroundImageFix"/>
<feBlend mode="normal" in="SourceGraphic" in2="BackgroundImageFix" result="shape"/>
<feGaussianBlur stdDeviation="2" result="effect1_foregroundBlur"/>
</filter>
<filter id="filter4_f" x="720" y="126" width="79" height="88" filterUnits="userSpaceOnUse" color-interpolation-filters="sRGB">
<feFlood flood-opacity="0" result="BackgroundImageFix"/>
<feBlend mode="normal" in="SourceGraphic" in2="BackgroundImageFix" result="shape"/>
<feGaussianBlur stdDeviation="2" result="effect1_foregroundBlur"/>
</filter>
<filter id="filter5_f" x="161" y="96" width="64" height="14" filterUnits="userSpaceOnUse" color-interpolation-filters="sRGB">
<feFlood flood-opacity="0" result="BackgroundImageFix"/>
<feBlend mode="normal" in="SourceGraphic" in2="BackgroundImageFix" result="shape"/>
<feGaussianBlur stdDeviation="2" result="effect1_foregroundBlur"/>
</filter>
<filter id="filter6_f" x="569" y="228" width="64" height="14" filterUnits="userSpaceOnUse" color-interpolation-filters="sRGB">
<feFlood flood-opacity="0" result="BackgroundImageFix"/>
<feBlend mode="normal" in="SourceGraphic" in2="BackgroundImageFix" result="shape"/>
<feGaussianBlur stdDeviation="2" result="effect1_foregroundBlur"/>
</filter>
<linearGradient id="paint0_linear" x1="563" y1="170" x2="231" y2="175" gradientUnits="userSpaceOnUse">
<stop stop-color="#CBDBF1"/>
<stop offset="1" stop-color="#CBDBF1"/>
</linearGradient>
<linearGradient id="paint1_linear" x1="397.5" y1="50" x2="397.5" y2="290" gradientUnits="userSpaceOnUse">
<stop stop-color="#FCB508"/>
<stop offset="1" stop-color="#FBD42A"/>
</linearGradient>
<linearGradient id="paint2_linear" x1="134" y1="210" x2="134" y2="327" gradientUnits="userSpaceOnUse">
<stop stop-color="#DADFED"/>
<stop offset="1" stop-color="#8993AB"/>
</linearGradient>
<linearGradient id="paint3_linear" x1="-1.74846e-06" y1="170" x2="71" y2="170" gradientUnits="userSpaceOnUse">
<stop stop-color="#060E22"/>
<stop offset="1" stop-color="#344E72"/>
</linearGradient>
<linearGradient id="paint4_linear" x1="624" y1="210" x2="624" y2="327" gradientUnits="userSpaceOnUse">
<stop stop-color="#C00023"/>
<stop offset="1" stop-color="#D80027"/>
</linearGradient>
<linearGradient id="paint5_linear" x1="795" y1="170" x2="724" y2="170" gradientUnits="userSpaceOnUse">
<stop stop-color="#060E22"/>
<stop offset="1" stop-color="#344E72"/>
</linearGradient>
<linearGradient id="paint6_linear" x1="221" y1="103" x2="165" y2="103" gradientUnits="userSpaceOnUse">
<stop stop-color="#8A94AC"/>
<stop offset="1" stop-color="#060E22"/>
</linearGradient>
<linearGradient id="paint7_linear" x1="221" y1="103" x2="165" y2="103" gradientUnits="userSpaceOnUse">
<stop stop-color="#8A94AC"/>
<stop offset="1" stop-color="#060E22"/>
</linearGradient>
<linearGradient id="paint8_linear" x1="221" y1="103" x2="165" y2="103" gradientUnits="userSpaceOnUse">
<stop stop-color="#8A94AC"/>
<stop offset="1" stop-color="#060E22"/>
</linearGradient>
<linearGradient id="paint9_linear" x1="221" y1="103" x2="165" y2="103" gradientUnits="userSpaceOnUse">
<stop stop-color="#8A94AC"/>
<stop offset="1" stop-color="#060E22"/>
</linearGradient>
<linearGradient id="paint10_linear" x1="221" y1="103" x2="165" y2="103" gradientUnits="userSpaceOnUse">
<stop stop-color="#8A94AC"/>
<stop offset="1" stop-color="#060E22"/>
</linearGradient>
<linearGradient id="paint11_linear" x1="221" y1="103" x2="165" y2="103" gradientUnits="userSpaceOnUse">
<stop stop-color="#8A94AC"/>
<stop offset="1" stop-color="#060E22"/>
</linearGradient>
<linearGradient id="paint12_linear" x1="573" y1="235" x2="629" y2="235" gradientUnits="userSpaceOnUse">
<stop stop-color="#8A94AC"/>
<stop offset="1" stop-color="#060E22"/>
</linearGradient>
<linearGradient id="paint13_linear" x1="573" y1="235" x2="629" y2="235" gradientUnits="userSpaceOnUse">
<stop stop-color="#8A94AC"/>
<stop offset="1" stop-color="#060E22"/>
</linearGradient>
<linearGradient id="paint14_linear" x1="573" y1="235" x2="629" y2="235" gradientUnits="userSpaceOnUse">
<stop stop-color="#8A94AC"/>
<stop offset="1" stop-color="#060E22"/>
</linearGradient>
<linearGradient id="paint15_linear" x1="573" y1="235" x2="629" y2="235" gradientUnits="userSpaceOnUse">
<stop stop-color="#8A94AC"/>
<stop offset="1" stop-color="#060E22"/>
</linearGradient>
<linearGradient id="paint16_linear" x1="573" y1="235" x2="629" y2="235" gradientUnits="userSpaceOnUse">
<stop stop-color="#8A94AC"/>
<stop offset="1" stop-color="#060E22"/>
</linearGradient>
<linearGradient id="paint17_linear" x1="573" y1="235" x2="629" y2="235" gradientUnits="userSpaceOnUse">
<stop stop-color="#8A94AC"/>
<stop offset="1" stop-color="#060E22"/>
</linearGradient>
</defs>
</svg>
