<svg width="1000" height="500" viewBox="0 0 1000 500" fill="none" xmlns="http://www.w3.org/2000/svg">
<circle cx="500" cy="500" r="199.5" stroke="#344E72" stroke-opacity="0.25"/>
<g filter="url(#filter0_f)">
<circle cx="500" cy="500" r="254" fill="#344E72" fill-opacity="0.25"/>
</g>
<circle cx="500" cy="500" r="299.5" stroke="#344E72" stroke-opacity="0.25"/>
<circle cx="500" cy="500" r="399.5" stroke="#344E72" stroke-opacity="0.25"/>
<circle cx="500" cy="500" r="499.5" stroke="#344E72" stroke-opacity="0.25"/>
<path d="M380 17C380 20.3137 377.314 23 374 23C370.686 23 368 20.3137 368 17C368 13.6863 370.686 11 374 11C377.314 11 380 13.6863 380 17Z" fill="#060E22"/>
<path d="M639 17C639 20.3137 636.314 23 633 23C629.686 23 627 20.3137 627 17C627 13.6863 629.686 11 633 11C636.314 11 639 13.6863 639 17Z" fill="#060E22"/>
<path d="M846 134C846 137.314 843.314 140 840 140C836.686 140 834 137.314 834 134C834 130.686 836.686 128 840 128C843.314 128 846 130.686 846 134Z" fill="#060E22"/>
<path d="M622 223C622 226.314 619.314 229 616 229C612.686 229 610 226.314 610 223C610 219.686 612.686 217 616 217C619.314 217 622 219.686 622 223Z" fill="#060E22"/>
<path d="M313 271C313 274.314 310.314 277 307 277C303.686 277 301 274.314 301 271C301 267.686 303.686 265 307 265C310.314 265 313 267.686 313 271Z" fill="#060E22"/>
<path d="M505 300C505 303.314 502.314 306 499 306C495.686 306 493 303.314 493 300C493 296.686 495.686 294 499 294C502.314 294 505 296.686 505 300Z" fill="#060E22"/>
<path d="M858 312C858 315.314 855.314 318 852 318C848.686 318 846 315.314 846 312C846 308.686 848.686 306 852 306C855.314 306 858 308.686 858 312Z" fill="#060E22"/>
<path d="M147 152C147 155.314 144.314 158 141 158C137.686 158 135 155.314 135 152C135 148.686 137.686 146 141 146C144.314 146 147 148.686 147 152Z" fill="#060E22"/>
<path d="M19 390C19 393.314 16.3137 396 13 396C9.68629 396 7 393.314 7 390C7 386.686 9.68629 384 13 384C16.3137 384 19 386.686 19 390Z" fill="#060E22"/>
<path d="M153 313C153 316.314 150.314 319 147 319C143.686 319 141 316.314 141 313C141 309.686 143.686 307 147 307C150.314 307 153 309.686 153 313Z" fill="#060E22"/>
<path d="M379.5 17C379.5 20.0376 377.038 22.5 374 22.5C370.962 22.5 368.5 20.0376 368.5 17C368.5 13.9624 370.962 11.5 374 11.5C377.038 11.5 379.5 13.9624 379.5 17ZM638.5 17C638.5 20.0376 636.038 22.5 633 22.5C629.962 22.5 627.5 20.0376 627.5 17C627.5 13.9624 629.962 11.5 633 11.5C636.038 11.5 638.5 13.9624 638.5 17ZM845.5 134C845.5 137.038 843.038 139.5 840 139.5C836.962 139.5 834.5 137.038 834.5 134C834.5 130.962 836.962 128.5 840 128.5C843.038 128.5 845.5 130.962 845.5 134ZM621.5 223C621.5 226.038 619.038 228.5 616 228.5C612.962 228.5 610.5 226.038 610.5 223C610.5 219.962 612.962 217.5 616 217.5C619.038 217.5 621.5 219.962 621.5 223ZM312.5 271C312.5 274.038 310.038 276.5 307 276.5C303.962 276.5 301.5 274.038 301.5 271C301.5 267.962 303.962 265.5 307 265.5C310.038 265.5 312.5 267.962 312.5 271ZM504.5 300C504.5 303.038 502.038 305.5 499 305.5C495.962 305.5 493.5 303.038 493.5 300C493.5 296.962 495.962 294.5 499 294.5C502.038 294.5 504.5 296.962 504.5 300ZM857.5 312C857.5 315.038 855.038 317.5 852 317.5C848.962 317.5 846.5 315.038 846.5 312C846.5 308.962 848.962 306.5 852 306.5C855.038 306.5 857.5 308.962 857.5 312ZM146.5 152C146.5 155.038 144.038 157.5 141 157.5C137.962 157.5 135.5 155.038 135.5 152C135.5 148.962 137.962 146.5 141 146.5C144.038 146.5 146.5 148.962 146.5 152ZM18.5 390C18.5 393.038 16.0376 395.5 13 395.5C9.96243 395.5 7.5 393.038 7.5 390C7.5 386.962 9.96243 384.5 13 384.5C16.0376 384.5 18.5 386.962 18.5 390ZM152.5 313C152.5 316.038 150.038 318.5 147 318.5C143.962 318.5 141.5 316.038 141.5 313C141.5 309.962 143.962 307.5 147 307.5C150.038 307.5 152.5 309.962 152.5 313Z" stroke="#344E72" stroke-opacity="0.25"/>
<defs>
<filter id="filter0_f" x="46" y="46" width="908" height="908" filterUnits="userSpaceOnUse" color-interpolation-filters="sRGB">
<feFlood flood-opacity="0" result="BackgroundImageFix"/>
<feBlend mode="normal" in="SourceGraphic" in2="BackgroundImageFix" result="shape"/>
<feGaussianBlur stdDeviation="100" result="effect1_foregroundBlur"/>
</filter>
</defs>
</svg>
