<svg width="310" height="127" viewBox="0 0 310 127" fill="none" xmlns="http://www.w3.org/2000/svg">
<g clip-path="url(#clip0)">
<circle cx="77" cy="65" r="15" fill="#344E72"/>
<g clip-path="url(#clip1)">
<path d="M77.0867 62.6719H71.0872C70.9577 62.6719 70.8528 62.7768 70.8528 62.9062C70.8528 63.0357 70.9577 63.1406 71.0872 63.1406H77.0867C77.2161 63.1406 77.321 63.0356 77.321 62.9062C77.321 62.7768 77.2161 62.6719 77.0867 62.6719Z" fill="white"/>
<path d="M77.0867 64.3184H71.0872C70.9577 64.3184 70.8528 64.4233 70.8528 64.5527C70.8528 64.6821 70.9577 64.787 71.0872 64.787H77.0867C77.2161 64.787 77.321 64.6821 77.321 64.5527C77.321 64.4233 77.2161 64.3184 77.0867 64.3184Z" fill="white"/>
<path d="M77.0867 65.9648H71.0872C70.9577 65.9648 70.8528 66.0698 70.8528 66.1992C70.8528 66.3286 70.9577 66.4335 71.0872 66.4335H77.0867C77.2161 66.4335 77.321 66.3286 77.321 66.1992C77.321 66.0698 77.2161 65.9648 77.0867 65.9648Z" fill="white"/>
<path d="M77.321 67.8466C77.321 67.7172 77.2161 67.6123 77.0867 67.6123H71.0872C70.9577 67.6123 70.8528 67.7172 70.8528 67.8466C70.8528 67.9761 70.9577 68.081 71.0872 68.081H77.0867C77.2161 68.081 77.321 67.9761 77.321 67.8466Z" fill="white"/>
<path d="M71.0872 70.0254C70.9577 70.0254 70.8528 70.1303 70.8528 70.2597C70.8528 70.3891 70.9577 70.4941 71.0872 70.4941H74.0946C74.224 70.4941 74.3289 70.3891 74.3289 70.2597C74.3289 70.1303 74.224 70.0254 74.0946 70.0254H71.0872Z" fill="white"/>
<path d="M79.7873 59.902V59.1416C79.7873 58.8519 79.5516 58.6162 79.2619 58.6162H74.4505C74.1608 58.6162 73.9251 58.8519 73.9251 59.1416V59.902C73.9251 60.1917 74.1608 60.4274 74.4505 60.4274H74.8568C74.9862 60.4274 75.0911 60.3224 75.0911 60.193C75.0911 60.0636 74.9862 59.9587 74.8568 59.9587H74.4505C74.4192 59.9587 74.3938 59.9333 74.3938 59.9021V59.1416C74.3938 59.1104 74.4192 59.0849 74.4505 59.0849H79.2619C79.2932 59.0849 79.3186 59.1103 79.3186 59.1416V59.902C79.3186 59.9332 79.2932 59.9586 79.2619 59.9586H75.9524C75.823 59.9586 75.718 60.0636 75.718 60.193C75.718 60.3224 75.823 60.4273 75.9524 60.4273H79.262C79.5516 60.4274 79.7873 60.1917 79.7873 59.902Z" fill="white"/>
<path d="M81.5396 71.2905C81.4102 71.2905 81.3053 71.3954 81.3053 71.5248V71.8404C81.3053 72.2213 80.9954 72.5313 80.6144 72.5313H70.2468C69.8659 72.5313 69.556 72.2214 69.556 71.8404V60.5759C69.556 60.5252 69.5619 60.4754 69.5725 60.427H71.7064C72.1519 60.427 72.5143 60.0646 72.5143 59.6191V57.4852C72.5627 57.4747 72.6124 57.4687 72.6632 57.4687H80.6144C80.9953 57.4687 81.3052 57.7786 81.3052 58.1596V61.2796C81.3052 61.4091 81.4102 61.514 81.5396 61.514C81.669 61.514 81.7739 61.409 81.7739 61.2796V58.1595C81.774 57.5202 81.2538 57 80.6144 57H72.6632C72.3535 57 72.0622 57.1206 71.8432 57.3396L69.4269 59.756C69.2079 59.975 69.0873 60.2662 69.0873 60.5759V71.8405C69.0873 72.4798 69.6075 73 70.2468 73H80.6144C81.2538 73 81.774 72.4798 81.774 71.8405V71.5249C81.774 71.3954 81.6691 71.2905 81.5396 71.2905ZM72.0456 57.8001V59.6191C72.0456 59.8061 71.8934 59.9583 71.7064 59.9583H69.8874L72.0456 57.8001Z" fill="white"/>
<path d="M84.7494 65.3747C84.9139 65.1333 84.9565 64.8354 84.8662 64.5576C84.7759 64.2797 84.5664 64.0637 84.2914 63.9651C84.109 63.8997 83.9873 63.7322 83.9814 63.5384C83.9726 63.2464 83.8319 62.9804 83.5955 62.8087C83.3592 62.6369 83.0627 62.5854 82.7823 62.6672C82.5961 62.7215 82.3993 62.6575 82.2807 62.5043C82.1019 62.2732 81.8318 62.1406 81.5396 62.1406C81.2475 62.1406 80.9773 62.2732 80.7985 62.5043C80.6799 62.6576 80.483 62.7215 80.2969 62.6672C80.0165 62.5853 79.7201 62.6369 79.4836 62.8087C79.2473 62.9804 79.1067 63.2464 79.0978 63.5384C79.092 63.7322 78.9703 63.8996 78.7878 63.9651C78.5128 64.0637 78.3033 64.2797 78.213 64.5575C78.1227 64.8354 78.1653 65.1333 78.3298 65.3747C78.4389 65.5349 78.4389 65.7419 78.3298 65.9021C78.1653 66.1436 78.1227 66.4414 78.213 66.7193C78.3033 66.9972 78.5128 67.2131 78.7878 67.3118C78.9703 67.3772 79.092 67.5447 79.0978 67.7385C79.106 68.0071 79.2291 68.2595 79.4356 68.4309C79.5719 68.544 79.7356 68.6148 79.907 68.6385V70.7722C79.907 70.9522 80.0046 71.1186 80.1618 71.2064C80.3187 71.2941 80.5117 71.2902 80.6651 71.1957L81.5247 70.6666C81.5387 70.6579 81.547 70.6618 81.5547 70.6666L82.4142 71.1957C82.5675 71.2901 82.7604 71.2942 82.9176 71.2063C83.0747 71.1185 83.1724 70.9521 83.1724 70.7721V68.6384C83.3437 68.6148 83.5074 68.544 83.6437 68.4309C83.8502 68.2595 83.9734 68.0071 83.9815 67.7384C83.9873 67.5447 84.1091 67.3772 84.2915 67.3117C84.5665 67.2131 84.7761 66.9972 84.8663 66.7193C84.9566 66.4414 84.914 66.1436 84.7495 65.9021C84.6403 65.742 84.6403 65.535 84.7494 65.3747V65.3747ZM82.6598 70.7966L81.8003 70.2675C81.6406 70.1691 81.4388 70.169 81.2789 70.2675L80.4194 70.7966C80.3998 70.8085 80.3756 70.7947 80.3756 70.7721V68.594C80.5368 68.5753 80.6965 68.6409 80.7985 68.7727C80.9773 69.0037 81.2475 69.1362 81.5397 69.1362C81.8318 69.1362 82.1019 69.0037 82.2807 68.7727C82.3827 68.6408 82.5425 68.5753 82.7036 68.594V70.7721C82.7036 70.7949 82.6791 70.8085 82.6598 70.7966V70.7966ZM84.3621 66.1661C84.4443 66.2868 84.4656 66.4356 84.4205 66.5745C84.3753 66.7134 84.2706 66.8213 84.1332 66.8706C83.7681 67.0016 83.5247 67.3367 83.5129 67.7243C83.5088 67.8606 83.4489 67.9834 83.3443 68.0702C83.2267 68.1678 83.0674 68.2047 82.9136 68.1598C82.5413 68.0512 82.1474 68.1792 81.91 68.4858C81.8207 68.6013 81.6856 68.6676 81.5396 68.6676C81.3936 68.6676 81.2586 68.6013 81.1692 68.4858C80.9879 68.2516 80.7154 68.1216 80.4309 68.1216C80.3429 68.1216 80.2536 68.1341 80.1656 68.1597C80.0103 68.205 79.8515 68.1671 79.7349 68.0702C79.6303 67.9834 79.5704 67.8606 79.5663 67.7243C79.5545 67.3367 79.3111 67.0016 78.946 66.8706C78.8086 66.8213 78.7039 66.7134 78.6587 66.5745C78.6136 66.4356 78.6348 66.2867 78.7171 66.1661C78.9354 65.8455 78.9354 65.4314 78.7171 65.1108C78.6348 64.9902 78.6136 64.8413 78.6587 64.7024C78.7038 64.5635 78.8086 64.4556 78.946 64.4063C79.3111 64.2753 79.5545 63.9402 79.5663 63.5526C79.5707 63.4066 79.6409 63.2737 79.7591 63.1878C79.8772 63.102 80.0253 63.0762 80.1656 63.1171C80.5378 63.2258 80.9318 63.0977 81.1692 62.7911C81.2585 62.6756 81.3935 62.6093 81.5396 62.6093C81.6856 62.6093 81.8206 62.6755 81.91 62.791C82.1473 63.0977 82.5412 63.2257 82.9136 63.1171C83.0538 63.0762 83.2019 63.102 83.3201 63.1878C83.4382 63.2736 83.5085 63.4066 83.5129 63.5525C83.5247 63.9402 83.7681 64.2753 84.1332 64.4062C84.2706 64.4555 84.3753 64.5635 84.4205 64.7023C84.4656 64.8412 84.4443 64.9901 84.3621 65.1108C84.1437 65.4313 84.1437 65.8456 84.3621 66.1661V66.1661Z" fill="white"/>
<path d="M81.5396 63.6748C80.4566 63.6748 79.5754 64.5559 79.5754 65.639C79.5754 66.722 80.4566 67.6032 81.5396 67.6032C82.6227 67.6032 83.5038 66.722 83.5038 65.639C83.5038 64.5559 82.6227 63.6748 81.5396 63.6748V63.6748ZM81.5396 67.1345C80.715 67.1345 80.0441 66.4636 80.0441 65.639C80.0441 64.8144 80.715 64.1435 81.5396 64.1435C82.3643 64.1435 83.0351 64.8144 83.0351 65.639C83.0351 66.4636 82.3642 67.1345 81.5396 67.1345Z" fill="white"/>
</g>
<circle cx="245" cy="97" r="15" fill="#344E72"/>
<path d="M249.021 89.6041C247.942 89.2145 246.514 89 245 89C243.486 89 242.058 89.2145 240.979 89.6041C239.802 90.0291 239.154 90.6342 239.154 91.3077V102.692C239.154 103.366 239.802 103.971 240.979 104.396C242.058 104.785 243.486 105 245 105C246.514 105 247.942 104.785 249.021 104.396C250.198 103.971 250.846 103.366 250.846 102.692V91.3077C250.846 90.6342 250.198 90.0291 249.021 89.6041ZM241.188 90.1829C242.202 89.8169 243.555 89.6154 245 89.6154C246.445 89.6154 247.798 89.8169 248.812 90.1829C249.7 90.5038 250.231 90.9243 250.231 91.3077C250.231 91.6912 249.7 92.1117 248.812 92.4325C247.798 92.7985 246.445 93 245 93C243.555 93 242.202 92.7985 241.188 92.4325C240.3 92.1116 239.769 91.6911 239.769 91.3077C239.769 90.9243 240.3 90.5038 241.188 90.1829ZM239.769 93.9163C240.115 94.1899 240.6 94.4316 241.213 94.6297C241.244 94.6398 241.276 94.6447 241.308 94.6447C241.438 94.6447 241.558 94.5617 241.6 94.4315C241.653 94.2698 241.564 94.0964 241.402 94.0441C240.395 93.7186 239.769 93.2595 239.769 92.8462V92.3765C239.779 92.3841 239.789 92.3916 239.798 92.3991C239.806 92.4047 239.813 92.4103 239.82 92.4158C239.838 92.4293 239.856 92.4427 239.875 92.456C239.878 92.4587 239.882 92.4613 239.886 92.4639C239.908 92.4798 239.931 92.4955 239.954 92.5112C239.961 92.5158 239.968 92.5204 239.975 92.525C239.992 92.536 240.008 92.5469 240.025 92.5578C240.035 92.5636 240.044 92.5693 240.053 92.5751C240.069 92.5847 240.084 92.5943 240.1 92.6039C240.11 92.6099 240.12 92.6158 240.13 92.6218C240.146 92.6312 240.162 92.6406 240.179 92.6498C240.189 92.6556 240.199 92.6613 240.209 92.6669C240.227 92.6768 240.245 92.6867 240.263 92.6964C240.272 92.7013 240.281 92.7062 240.29 92.7111C240.315 92.7242 240.341 92.7372 240.366 92.7502C240.369 92.7515 240.372 92.7529 240.374 92.7543C240.403 92.7686 240.432 92.7827 240.461 92.7967C240.47 92.8009 240.479 92.805 240.488 92.8092C240.509 92.819 240.53 92.8288 240.551 92.8384C240.562 92.8434 240.574 92.8483 240.585 92.8533C240.605 92.8621 240.625 92.8709 240.645 92.8796C240.657 92.8846 240.669 92.8897 240.68 92.8947C240.701 92.9033 240.722 92.9119 240.743 92.9204C240.754 92.9252 240.766 92.9299 240.778 92.9346C240.801 92.9438 240.824 92.953 240.848 92.9622C240.858 92.9658 240.867 92.9696 240.877 92.9733C240.91 92.9861 240.945 92.9988 240.979 93.0113C241.755 93.2913 242.71 93.4808 243.749 93.5653C244.155 93.5984 244.574 93.6154 245 93.6154C245.426 93.6154 245.845 93.5984 246.251 93.5653C247.29 93.4808 248.245 93.2913 249.021 93.0113C249.055 92.9988 249.089 92.9861 249.123 92.9733C249.133 92.9696 249.142 92.9659 249.152 92.9622C249.176 92.953 249.199 92.9438 249.222 92.9346C249.234 92.9299 249.246 92.9252 249.257 92.9204C249.278 92.9119 249.299 92.9033 249.32 92.8947C249.331 92.8897 249.343 92.8846 249.355 92.8796C249.375 92.8709 249.395 92.8622 249.415 92.8533C249.426 92.8483 249.438 92.8434 249.449 92.8384C249.47 92.8288 249.491 92.819 249.512 92.8092C249.521 92.805 249.53 92.8009 249.539 92.7967C249.568 92.7827 249.597 92.7686 249.626 92.7543C249.628 92.7529 249.631 92.7515 249.634 92.7502C249.659 92.7372 249.685 92.7242 249.71 92.7111C249.719 92.7062 249.728 92.7013 249.737 92.6964C249.755 92.6866 249.773 92.6768 249.791 92.6669C249.801 92.6613 249.811 92.6555 249.821 92.6498C249.837 92.6405 249.854 92.6311 249.87 92.6217C249.88 92.6158 249.89 92.6098 249.9 92.6039C249.916 92.5943 249.931 92.5847 249.947 92.575C249.956 92.5693 249.965 92.5635 249.975 92.5577C249.992 92.5468 250.008 92.5359 250.025 92.5249C250.032 92.5203 250.039 92.5158 250.046 92.5111C250.069 92.4955 250.092 92.4798 250.114 92.4639C250.118 92.4613 250.122 92.4586 250.125 92.4559C250.144 92.4427 250.162 92.4293 250.18 92.4158C250.187 92.4102 250.194 92.4046 250.202 92.399C250.211 92.3916 250.221 92.3841 250.231 92.3765V95.2999C250.231 95.6833 249.7 96.1038 248.812 96.4247C247.798 96.7907 246.445 96.9922 245 96.9922C243.555 96.9922 242.202 96.7907 241.188 96.4247C240.3 96.1038 239.769 95.6834 239.769 95.2999V93.9163H239.769ZM239.769 96.3683C240.07 96.6071 240.476 96.8218 240.979 97.0035C242.058 97.3931 243.486 97.6076 245 97.6076C246.514 97.6076 247.942 97.3931 249.021 97.0035C249.524 96.8218 249.93 96.6071 250.231 96.3683V98.9922C250.231 99.3757 249.7 99.7962 248.812 100.117C247.798 100.483 246.445 100.685 245 100.685C243.555 100.685 242.202 100.483 241.188 100.117C240.3 99.7962 239.769 99.3757 239.769 98.9922V96.3683V96.3683ZM250.231 102.692C250.231 103.076 249.7 103.496 248.812 103.817C247.798 104.183 246.445 104.385 245 104.385C243.555 104.385 242.202 104.183 241.188 103.817C240.3 103.496 239.769 103.076 239.769 102.692V100.061C240.07 100.299 240.476 100.514 240.979 100.696C242.058 101.085 243.486 101.3 245 101.3C246.514 101.3 247.942 101.085 249.021 100.696C249.524 100.514 249.93 100.299 250.231 100.061V100.538C250.231 100.952 249.605 101.411 248.598 101.736C248.436 101.789 248.347 101.962 248.4 102.124C248.442 102.254 248.562 102.337 248.692 102.337C248.724 102.337 248.756 102.332 248.787 102.322C249.4 102.124 249.885 101.882 250.231 101.609V102.692V102.692Z" fill="white"/>
<path d="M242.533 94.5132C242.529 94.4935 242.522 94.4741 242.515 94.4556C242.507 94.4368 242.498 94.419 242.487 94.4024C242.475 94.3855 242.462 94.3698 242.448 94.3556C242.434 94.3415 242.418 94.3286 242.402 94.3172C242.385 94.3061 242.367 94.2968 242.349 94.2892C242.33 94.2815 242.31 94.2753 242.291 94.2716C242.251 94.2636 242.21 94.2636 242.171 94.2716C242.151 94.2753 242.132 94.2815 242.113 94.2892C242.094 94.2968 242.077 94.3061 242.06 94.3172C242.043 94.3285 242.027 94.3415 242.013 94.3556C241.999 94.3698 241.986 94.3855 241.975 94.4024C241.964 94.419 241.954 94.4369 241.947 94.4556C241.939 94.4741 241.933 94.4935 241.929 94.5132C241.925 94.5328 241.923 94.5532 241.923 94.5732C241.923 94.5932 241.925 94.6135 241.929 94.6332C241.933 94.6528 241.939 94.6722 241.947 94.6907C241.954 94.7095 241.964 94.7273 241.975 94.7439C241.986 94.7608 241.999 94.7765 242.013 94.7907C242.07 94.8479 242.15 94.8808 242.231 94.8808C242.251 94.8808 242.271 94.8787 242.291 94.8747C242.31 94.871 242.33 94.8648 242.349 94.8572C242.367 94.8495 242.385 94.8399 242.402 94.8288C242.418 94.8178 242.434 94.8048 242.448 94.7907C242.462 94.7765 242.475 94.7608 242.487 94.7439C242.498 94.7273 242.507 94.7094 242.515 94.6907C242.522 94.6722 242.529 94.6528 242.533 94.6332C242.537 94.6135 242.538 94.5932 242.538 94.5732C242.538 94.5532 242.537 94.5328 242.533 94.5132Z" fill="white"/>
<path d="M248.071 102.207C248.067 102.187 248.061 102.167 248.053 102.149C248.046 102.13 248.036 102.112 248.025 102.096C248.014 102.079 248.001 102.063 247.987 102.049C247.973 102.035 247.957 102.022 247.94 102.011C247.923 101.999 247.905 101.99 247.887 101.983C247.868 101.975 247.849 101.969 247.829 101.965C247.79 101.957 247.749 101.957 247.709 101.965C247.69 101.969 247.67 101.975 247.651 101.983C247.633 101.99 247.615 101.999 247.598 102.011C247.582 102.022 247.566 102.035 247.552 102.049C247.537 102.063 247.525 102.079 247.513 102.096C247.502 102.112 247.493 102.13 247.485 102.149C247.477 102.167 247.471 102.187 247.468 102.207C247.464 102.226 247.462 102.247 247.462 102.267C247.462 102.287 247.464 102.307 247.468 102.327C247.471 102.346 247.477 102.366 247.485 102.384C247.493 102.403 247.502 102.421 247.513 102.437C247.525 102.454 247.537 102.47 247.552 102.484C247.566 102.498 247.581 102.511 247.598 102.522C247.615 102.533 247.633 102.543 247.651 102.551C247.67 102.558 247.69 102.564 247.709 102.568C247.729 102.572 247.749 102.574 247.769 102.574C247.789 102.574 247.81 102.572 247.829 102.568C247.849 102.564 247.868 102.558 247.887 102.551C247.906 102.543 247.923 102.533 247.94 102.522C247.957 102.511 247.973 102.498 247.987 102.484C248.001 102.47 248.014 102.454 248.025 102.437C248.036 102.421 248.046 102.403 248.053 102.384C248.061 102.366 248.067 102.346 248.071 102.327C248.075 102.307 248.077 102.287 248.077 102.267C248.077 102.247 248.075 102.226 248.071 102.207Z" fill="white"/>
<circle cx="155" cy="28" r="15" fill="#344E72"/>
<path d="M159.021 20.6041C157.942 20.2145 156.514 20 155 20C153.486 20 152.058 20.2145 150.979 20.6041C149.802 21.0291 149.154 21.6342 149.154 22.3077V33.6923C149.154 34.3658 149.802 34.9709 150.979 35.3959C152.058 35.7855 153.486 36 155 36C156.514 36 157.942 35.7855 159.021 35.3959C160.198 34.9709 160.846 34.3658 160.846 33.6923V22.3077C160.846 21.6342 160.198 21.0291 159.021 20.6041ZM151.188 21.1829C152.202 20.8169 153.555 20.6154 155 20.6154C156.445 20.6154 157.798 20.8169 158.812 21.1829C159.7 21.5038 160.231 21.9243 160.231 22.3077C160.231 22.6912 159.7 23.1117 158.812 23.4325C157.798 23.7985 156.445 24 155 24C153.555 24 152.202 23.7985 151.188 23.4325C150.3 23.1116 149.769 22.6911 149.769 22.3077C149.769 21.9243 150.3 21.5038 151.188 21.1829ZM149.769 24.9163C150.115 25.1899 150.6 25.4316 151.213 25.6297C151.244 25.6398 151.276 25.6447 151.308 25.6447C151.438 25.6447 151.558 25.5617 151.6 25.4315C151.653 25.2698 151.564 25.0964 151.402 25.0441C150.395 24.7186 149.769 24.2595 149.769 23.8462V23.3765C149.779 23.3841 149.789 23.3916 149.798 23.3991C149.806 23.4047 149.813 23.4103 149.82 23.4158C149.838 23.4293 149.856 23.4427 149.875 23.456C149.878 23.4587 149.882 23.4613 149.886 23.4639C149.908 23.4798 149.931 23.4955 149.954 23.5112C149.961 23.5158 149.968 23.5204 149.975 23.525C149.992 23.536 150.008 23.5469 150.025 23.5578C150.035 23.5636 150.044 23.5693 150.053 23.5751C150.069 23.5847 150.084 23.5943 150.1 23.6039C150.11 23.6099 150.12 23.6158 150.13 23.6218C150.146 23.6312 150.162 23.6406 150.179 23.6498C150.189 23.6556 150.199 23.6613 150.209 23.6669C150.227 23.6768 150.245 23.6867 150.263 23.6964C150.272 23.7013 150.281 23.7062 150.29 23.7111C150.315 23.7242 150.341 23.7372 150.366 23.7502C150.369 23.7515 150.372 23.7529 150.374 23.7543C150.403 23.7686 150.432 23.7827 150.461 23.7967C150.47 23.8009 150.479 23.805 150.488 23.8092C150.509 23.819 150.53 23.8288 150.551 23.8384C150.562 23.8434 150.574 23.8483 150.585 23.8533C150.605 23.8621 150.625 23.8709 150.645 23.8796C150.657 23.8846 150.669 23.8897 150.68 23.8947C150.701 23.9033 150.722 23.9119 150.743 23.9204C150.754 23.9252 150.766 23.9299 150.778 23.9346C150.801 23.9438 150.824 23.953 150.848 23.9622C150.858 23.9658 150.867 23.9696 150.877 23.9733C150.91 23.9861 150.945 23.9988 150.979 24.0113C151.755 24.2913 152.71 24.4808 153.749 24.5653C154.155 24.5984 154.574 24.6154 155 24.6154C155.426 24.6154 155.845 24.5984 156.251 24.5653C157.29 24.4808 158.245 24.2913 159.021 24.0113C159.055 23.9988 159.089 23.9861 159.123 23.9733C159.133 23.9696 159.142 23.9659 159.152 23.9622C159.176 23.953 159.199 23.9438 159.222 23.9346C159.234 23.9299 159.246 23.9252 159.257 23.9204C159.278 23.9119 159.299 23.9033 159.32 23.8947C159.331 23.8897 159.343 23.8846 159.355 23.8796C159.375 23.8709 159.395 23.8622 159.415 23.8533C159.426 23.8483 159.438 23.8434 159.449 23.8384C159.47 23.8288 159.491 23.819 159.512 23.8092C159.521 23.805 159.53 23.8009 159.539 23.7967C159.568 23.7827 159.597 23.7686 159.626 23.7543C159.628 23.7529 159.631 23.7515 159.634 23.7502C159.659 23.7372 159.685 23.7242 159.71 23.7111C159.719 23.7062 159.728 23.7013 159.737 23.6964C159.755 23.6866 159.773 23.6768 159.791 23.6669C159.801 23.6613 159.811 23.6555 159.821 23.6498C159.837 23.6405 159.854 23.6311 159.87 23.6217C159.88 23.6158 159.89 23.6098 159.9 23.6039C159.916 23.5943 159.931 23.5847 159.947 23.575C159.956 23.5693 159.965 23.5635 159.975 23.5577C159.992 23.5468 160.008 23.5359 160.025 23.5249C160.032 23.5203 160.039 23.5158 160.046 23.5111C160.069 23.4955 160.092 23.4798 160.114 23.4639C160.118 23.4613 160.122 23.4586 160.125 23.4559C160.144 23.4427 160.162 23.4293 160.18 23.4158C160.187 23.4102 160.194 23.4046 160.202 23.399C160.211 23.3916 160.221 23.3841 160.231 23.3765V26.2999C160.231 26.6833 159.7 27.1038 158.812 27.4247C157.798 27.7907 156.445 27.9922 155 27.9922C153.555 27.9922 152.202 27.7907 151.188 27.4247C150.3 27.1038 149.769 26.6834 149.769 26.2999V24.9163H149.769ZM149.769 27.3683C150.07 27.6071 150.476 27.8218 150.979 28.0035C152.058 28.3931 153.486 28.6076 155 28.6076C156.514 28.6076 157.942 28.3931 159.021 28.0035C159.524 27.8218 159.93 27.6071 160.231 27.3683V29.9922C160.231 30.3757 159.7 30.7962 158.812 31.117C157.798 31.483 156.445 31.6845 155 31.6845C153.555 31.6845 152.202 31.483 151.188 31.117C150.3 30.7962 149.769 30.3757 149.769 29.9922V27.3683V27.3683ZM160.231 33.6923C160.231 34.0757 159.7 34.4963 158.812 34.8171C157.798 35.1831 156.445 35.3846 155 35.3846C153.555 35.3846 152.202 35.1831 151.188 34.8171C150.3 34.4963 149.769 34.0758 149.769 33.6923V31.0607C150.07 31.2994 150.476 31.5141 150.979 31.6958C152.058 32.0854 153.486 32.2999 155 32.2999C156.514 32.2999 157.942 32.0854 159.021 31.6958C159.524 31.5141 159.93 31.2994 160.231 31.0607V31.5385C160.231 31.9518 159.605 32.4109 158.598 32.7364C158.436 32.7887 158.347 32.9621 158.4 33.1238C158.442 33.2541 158.562 33.337 158.692 33.337C158.724 33.337 158.756 33.3321 158.787 33.3219C159.4 33.1238 159.885 32.8822 160.231 32.6086V33.6923V33.6923Z" fill="white"/>
<path d="M152.533 25.5132C152.529 25.4935 152.522 25.4741 152.515 25.4556C152.507 25.4368 152.498 25.419 152.487 25.4024C152.475 25.3855 152.462 25.3698 152.448 25.3556C152.434 25.3415 152.418 25.3286 152.402 25.3172C152.385 25.3061 152.367 25.2968 152.349 25.2892C152.33 25.2815 152.31 25.2753 152.291 25.2716C152.251 25.2636 152.21 25.2636 152.171 25.2716C152.151 25.2753 152.132 25.2815 152.113 25.2892C152.094 25.2968 152.077 25.3061 152.06 25.3172C152.043 25.3285 152.027 25.3415 152.013 25.3556C151.999 25.3698 151.986 25.3855 151.975 25.4024C151.964 25.419 151.954 25.4369 151.947 25.4556C151.939 25.4741 151.933 25.4935 151.929 25.5132C151.925 25.5328 151.923 25.5532 151.923 25.5732C151.923 25.5932 151.925 25.6135 151.929 25.6332C151.933 25.6528 151.939 25.6722 151.947 25.6907C151.954 25.7095 151.964 25.7273 151.975 25.7439C151.986 25.7608 151.999 25.7765 152.013 25.7907C152.07 25.8479 152.15 25.8808 152.231 25.8808C152.251 25.8808 152.271 25.8787 152.291 25.8747C152.31 25.871 152.33 25.8648 152.349 25.8572C152.367 25.8495 152.385 25.8399 152.402 25.8288C152.418 25.8178 152.434 25.8048 152.448 25.7907C152.462 25.7765 152.475 25.7608 152.487 25.7439C152.498 25.7273 152.507 25.7094 152.515 25.6907C152.522 25.6722 152.529 25.6528 152.533 25.6332C152.537 25.6135 152.538 25.5932 152.538 25.5732C152.538 25.5532 152.537 25.5328 152.533 25.5132Z" fill="white"/>
<path d="M158.071 33.2066C158.067 33.1869 158.061 33.1675 158.053 33.1487C158.046 33.1302 158.036 33.1124 158.025 33.0958C158.014 33.0788 158.001 33.0631 157.987 33.049C157.973 33.0348 157.957 33.0219 157.94 33.0105C157.923 32.9995 157.905 32.9902 157.887 32.9825C157.868 32.9748 157.849 32.9687 157.829 32.965C157.79 32.957 157.749 32.957 157.709 32.965C157.69 32.9687 157.67 32.9748 157.651 32.9825C157.633 32.9902 157.615 32.9995 157.598 33.0105C157.582 33.0219 157.566 33.0348 157.552 33.049C157.537 33.0631 157.525 33.0788 157.513 33.0958C157.502 33.1124 157.493 33.1302 157.485 33.1487C157.477 33.1675 157.471 33.1869 157.468 33.2066C157.464 33.2262 157.462 33.2466 157.462 33.2666C157.462 33.2866 157.464 33.3069 157.468 33.3266C157.471 33.3462 157.477 33.3656 157.485 33.3841C157.493 33.4029 157.502 33.4207 157.513 33.4373C157.525 33.4542 157.537 33.4699 157.552 33.4841C157.566 33.4982 157.581 33.5112 157.598 33.5222C157.615 33.5333 157.633 33.5429 157.651 33.5506C157.67 33.5582 157.69 33.5644 157.709 33.5681C157.729 33.5721 157.749 33.5742 157.769 33.5742C157.789 33.5742 157.81 33.5721 157.829 33.5681C157.849 33.5644 157.868 33.5582 157.887 33.5506C157.906 33.5429 157.923 33.5333 157.94 33.5222C157.957 33.5112 157.973 33.4982 157.987 33.4841C158.001 33.4699 158.014 33.4542 158.025 33.4373C158.036 33.4207 158.046 33.4028 158.053 33.3841C158.061 33.3656 158.067 33.3462 158.071 33.3266C158.075 33.3069 158.077 33.2866 158.077 33.2666C158.077 33.2466 158.075 33.2262 158.071 33.2066Z" fill="white"/>
<circle cx="155" cy="-31" r="157" stroke="#344E72" stroke-opacity="0.4" stroke-width="2"/>
<circle cx="155" cy="-31" r="126" stroke="#344E72" stroke-opacity="0.6" stroke-width="2"/>
<circle cx="155" cy="-31" r="92" stroke="#344E72" stroke-opacity="0.8" stroke-width="2"/>
<circle cx="155" cy="-31" r="61" stroke="#344E72" stroke-width="2"/>
<circle cx="155" r="7" fill="#D80027"/>
</g>
<defs>
<clipPath id="clip0">
<rect width="310" height="127" fill="white"/>
</clipPath>
<clipPath id="clip1">
<rect width="16" height="16" fill="white" transform="translate(69 57)"/>
</clipPath>
</defs>
</svg>
