<svg width="50" height="30" viewBox="0 0 50 30" fill="none" xmlns="http://www.w3.org/2000/svg">
<g clip-path="url(#clip0)">
<path d="M39.7295 -8.78551e-06V9.80235e-05C39.6108 0.000343647 39.4942 0.0318501 39.3916 0.0914489L39.391 0.0909181C39.391 0.0909181 37.5434 1.15121 36.759 1.58464C36.1161 1.93989 36.0695 2.36746 36.0732 2.51192C36.0694 2.65639 36.1161 3.08396 36.759 3.43921C37.5434 3.87263 39.391 4.93293 39.391 4.93293L39.3916 4.93231C39.4942 4.99191 39.6108 5.02341 39.7295 5.02366C39.9088 5.02364 40.0807 4.95237 40.2075 4.82551C40.3343 4.69866 40.4055 4.52661 40.4055 4.34723C40.4053 4.2285 40.374 4.1119 40.3145 4.00914C40.2551 3.90639 40.1697 3.82109 40.0668 3.76184L40.0674 3.7608L37.7908 2.51182L40.0675 1.26284L40.0669 1.26181C40.1698 1.20255 40.2552 1.11726 40.3146 1.0145C40.3741 0.911742 40.4054 0.795141 40.4056 0.676416C40.4056 0.497029 40.3344 0.324987 40.2076 0.198132C40.0808 0.0712764 39.9089 -5.62275e-07 39.7296 -1.52588e-05L39.7295 -8.78551e-06ZM24.249 0.36208C23.9438 0.362071 23.6415 0.422217 23.3595 0.539086C23.0775 0.655954 22.8212 0.827254 22.6054 1.04321C22.3895 1.25916 22.2183 1.51554 22.1014 1.7977C21.9846 2.07986 21.9245 2.38228 21.9245 2.6877C21.9245 2.99312 21.9846 3.29555 22.1014 3.57772C22.2182 3.8599 22.3895 4.11628 22.6053 4.33225C22.8212 4.54821 23.0774 4.71952 23.3595 4.8364C23.6415 4.95327 23.9438 5.01342 24.249 5.01341C24.5543 5.01341 24.8566 4.95325 25.1386 4.83637C25.4206 4.71949 25.6769 4.54817 25.8927 4.33221C26.1086 4.11625 26.2798 3.85986 26.3966 3.5777C26.5134 3.29553 26.5735 2.99311 26.5735 2.6877C26.5735 2.07091 26.3286 1.47938 25.8927 1.04325C25.4568 0.607111 24.8655 0.362088 24.249 0.36208ZM48.1363 8.11468C47.8458 8.11511 47.5595 8.18345 47.3002 8.31426C47.0408 8.44506 46.8156 8.63471 46.6425 8.86807L46.6393 8.86569L42.9469 14.0599L42.9536 14.0621C42.7165 14.3802 42.587 14.7657 42.5839 15.1625C42.587 15.5592 42.7165 15.9447 42.9536 16.2627L42.9469 16.265L46.6393 21.4592L46.6425 21.4569C46.8156 21.6902 47.0408 21.8798 47.3002 22.0106C47.5595 22.1414 47.8459 22.2097 48.1363 22.2102C48.381 22.2102 48.6234 22.162 48.8495 22.0683C49.0756 21.9746 49.281 21.8372 49.4541 21.6641C49.6272 21.4909 49.7644 21.2854 49.8581 21.0592C49.9518 20.833 50 20.5905 50 20.3457C49.9992 19.9614 49.8798 19.5868 49.6581 19.2731L49.6602 19.2715L46.737 15.1625L49.6602 11.0535L49.6581 11.0518C49.8797 10.7381 49.9992 10.3635 50 9.97932C50 9.73445 49.9518 9.49198 49.8581 9.26575C49.7645 9.03952 49.6272 8.83396 49.4541 8.66082C49.2811 8.48767 49.0756 8.35032 48.8495 8.25662C48.6234 8.16292 48.381 8.11469 48.1363 8.1147V8.11468ZM21.8231 25.0362C21.3063 25.0362 20.8872 25.4759 20.8872 26.0183C20.8874 26.3927 21.0905 26.7343 21.4107 26.8993C26.8324 30.3015 31.5976 29.9927 31.5976 29.9927C31.5976 29.9927 36.3627 30.3015 41.7844 26.8993C42.1046 26.7343 42.3076 26.3927 42.3079 26.0183C42.3078 25.4759 41.8888 25.0362 41.3719 25.0362C41.1745 25.0368 40.9823 25.1025 40.8228 25.2244C40.8227 25.2244 40.7411 25.2787 40.7411 25.2787C40.7411 25.2787 36.6752 28.1391 31.5976 28.0515C26.52 28.1391 22.454 25.2787 22.454 25.2787C22.454 25.2787 22.3723 25.2244 22.3723 25.2244C22.2128 25.1025 22.0205 25.0366 21.8231 25.0362Z" fill="white"/>
<path d="M1.8228 8.03391C1.58343 8.03391 1.34641 8.08109 1.12526 8.17274C0.904121 8.2644 0.703186 8.39873 0.533933 8.56808C0.36468 8.73742 0.230423 8.93847 0.138829 9.15973C0.0472339 9.38098 9.5689e-05 9.61812 0.000103929 9.85761L0 9.85772L0.000103929 20.3776L0.000207857 20.3777C0.000246469 20.8613 0.192296 21.3251 0.534112 21.6671C0.875928 22.009 1.33951 22.2012 1.8229 22.2012V22.2013H2.33119H3.6456H6.49708C6.49712 22.2013 6.49715 22.2013 6.49718 22.2013C7.60207 22.2013 8.66171 21.7621 9.44298 20.9805C10.2243 20.1988 10.6632 19.1386 10.6632 18.0332C10.6632 17.2744 10.4561 16.5299 10.0643 15.8802C9.67248 15.2304 9.11081 14.7 8.43986 14.3461C8.80675 14.0052 9.09941 13.5922 9.29955 13.1329C9.49969 12.6737 9.60299 12.1781 9.60302 11.6771C9.60303 11.1986 9.50885 10.7249 9.32586 10.2829C9.14287 9.84087 8.87465 9.43926 8.53651 9.10096C8.19838 8.76266 7.79696 8.4943 7.35517 8.31122C6.91337 8.12813 6.43986 8.0339 5.96167 8.03391C5.95146 8.0339 5.94124 8.03393 5.93103 8.03401H3.64549H2.32042H1.83584C1.83149 8.03396 1.82715 8.03393 1.8228 8.03391H1.8228ZM13.9604 8.03391C13.7211 8.03391 13.484 8.08109 13.2629 8.17274C13.0417 8.2644 12.8408 8.39873 12.6716 8.56808C12.5023 8.73743 12.3681 8.93847 12.2765 9.15973C12.1849 9.38098 12.1377 9.61812 12.1377 9.85761C12.1377 9.85764 12.1377 9.85768 12.1377 9.85772H12.1376V20.3776L12.1378 20.3778C12.1379 20.8613 12.3299 21.3251 12.6717 21.667C13.0135 22.009 13.477 22.2011 13.9603 22.2012L13.9604 22.2013H18.8673V22.2012C18.8674 22.2012 18.8675 22.2012 18.8675 22.2012C19.1069 22.2011 19.3439 22.154 19.5651 22.0623C19.7862 21.9707 19.9871 21.8363 20.1564 21.667C20.3256 21.4976 20.4599 21.2966 20.5515 21.0753C20.6431 20.8541 20.6902 20.6169 20.6902 20.3774C20.6902 19.8938 20.4982 19.43 20.1563 19.088C19.8145 18.746 19.3509 18.5539 18.8675 18.5539C18.8606 18.5538 18.8536 18.5539 18.8467 18.554H15.7831V9.87066C15.7832 9.86631 15.7832 9.86196 15.7832 9.85761C15.7832 9.61811 15.7361 9.38096 15.6445 9.1597C15.5529 8.93843 15.4186 8.73738 15.2493 8.56804C15.0801 8.39869 14.8791 8.26436 14.658 8.17271C14.4368 8.08106 14.1998 8.0339 13.9604 8.03391L13.9604 8.03391ZM34.5395 8.03401C34.3667 8.03532 34.1941 8.04407 34.0222 8.06022C33.9286 8.06935 33.8353 8.08068 33.7423 8.09419C33.6346 8.10759 33.5274 8.12389 33.4206 8.14307C33.3344 8.16046 33.2486 8.17973 33.1633 8.20087C33.0514 8.2261 32.9403 8.25453 32.8301 8.28611C32.7517 8.31044 32.6738 8.33637 32.5964 8.36389C32.4826 8.40171 32.3699 8.44291 32.2586 8.48745C32.1869 8.5179 32.1157 8.54974 32.0452 8.58294C31.932 8.63351 31.8203 8.68757 31.7103 8.74504C31.646 8.78043 31.5823 8.817 31.5192 8.85472C31.4073 8.9186 31.2975 8.98607 31.1899 9.057C31.1339 9.09569 31.0785 9.13533 31.0238 9.1759C30.9143 9.25361 30.8075 9.33496 30.7035 9.41981C30.6557 9.46053 30.6085 9.502 30.562 9.5442C30.4567 9.63578 30.3547 9.73099 30.2561 9.82965C30.2157 9.87177 30.1759 9.91448 30.1367 9.95776C30.0387 10.0618 29.9443 10.1694 29.8539 10.2802C29.8193 10.3244 29.7854 10.3691 29.752 10.4143C29.663 10.5299 29.5783 10.6487 29.4979 10.7704C29.47 10.8146 29.4427 10.8592 29.416 10.9041C29.3371 11.0307 29.2629 11.1602 29.1936 11.2923C29.1713 11.3372 29.1495 11.3824 29.1282 11.4279C29.0613 11.5638 28.9994 11.7023 28.9429 11.8429C28.9261 11.8872 28.9099 11.9317 28.8942 11.9764C28.8403 12.1204 28.7919 12.2663 28.7491 12.414C28.737 12.4591 28.7255 12.5044 28.7144 12.5499C28.675 12.699 28.6413 12.8497 28.6134 13.0014C28.6061 13.0467 28.5992 13.092 28.5929 13.1373C28.5683 13.2911 28.5496 13.4457 28.5369 13.6009C28.5287 13.6998 28.5229 13.7988 28.5196 13.898H28.5182V13.9372C28.5163 13.9791 28.5148 14.021 28.5138 14.0629C28.5143 14.0793 28.5149 14.0957 28.5156 14.1121H28.5162H28.5183V20.4154H28.5191C28.5246 20.8932 28.7182 21.3496 29.0579 21.6855C29.3975 22.0215 29.8558 22.21 30.3335 22.2102C30.811 22.2099 31.2693 22.0214 31.6088 21.6854C31.9484 21.3495 32.142 20.8931 32.1476 20.4154H32.1486V20.3941V13.9099C32.182 13.3894 32.3839 12.894 32.7239 12.4986C33.0638 12.1032 33.5233 11.8294 34.0326 11.7186C34.0386 11.7171 34.0446 11.7155 34.0506 11.714C34.1104 11.7022 34.1706 11.6927 34.2312 11.6855C34.2508 11.6823 34.2705 11.6793 34.2902 11.6766C34.339 11.6723 34.3879 11.6695 34.4368 11.6682C34.471 11.6657 34.5052 11.664 34.5395 11.663C34.5395 11.663 34.5396 11.663 34.5397 11.663C34.5788 11.664 34.6179 11.666 34.657 11.6689C34.7007 11.6702 34.7444 11.6727 34.7879 11.6764C34.8111 11.6795 34.8343 11.6831 34.8574 11.6869C34.9147 11.6939 34.9717 11.703 35.0284 11.7141C35.036 11.716 35.0437 11.7179 35.0513 11.7199C35.1223 11.7351 35.1925 11.7536 35.2618 11.7752C35.7226 11.9213 36.1285 12.2034 36.4262 12.5843C36.724 12.9652 36.8998 13.4273 36.9306 13.9099V20.3941V20.4154H36.9316C36.9372 20.8932 37.1307 21.3495 37.4703 21.6854C37.8099 22.0214 38.2681 22.2099 38.7457 22.2102C39.2233 22.21 39.6816 22.0215 40.0213 21.6856C40.3609 21.3496 40.5545 20.8932 40.5601 20.4154H40.5609V14.1121H40.563H40.5638C40.5645 14.0957 40.5651 14.0793 40.5656 14.0629C40.5646 14.021 40.5631 13.9791 40.5612 13.9372V13.898H40.5598C40.5564 13.7989 40.5507 13.6998 40.5425 13.601C40.5297 13.4443 40.5108 13.2881 40.4858 13.1329C40.4799 13.0898 40.4734 13.0467 40.4665 13.0037C40.4384 12.8506 40.4044 12.6987 40.3646 12.5482C40.3537 12.5034 40.3423 12.4587 40.3304 12.4142C40.2876 12.2665 40.2392 12.1204 40.1853 11.9764C40.1696 11.9317 40.1534 11.8873 40.1367 11.843C40.0798 11.7015 40.0176 11.5622 39.9501 11.4255C39.9294 11.3812 39.9081 11.3371 39.8862 11.2933C39.8168 11.1607 39.7423 11.0307 39.6632 10.9036C39.6366 10.8588 39.6094 10.8144 39.5816 10.7704C39.5012 10.6487 39.4164 10.5299 39.3273 10.4143C39.2941 10.3691 39.2601 10.3244 39.2256 10.2802C39.1352 10.1694 39.0408 10.0618 38.9428 9.95776C38.9036 9.91448 38.8638 9.87177 38.8234 9.82965C38.7248 9.73099 38.6227 9.63578 38.5175 9.5442C38.471 9.502 38.4238 9.46053 38.376 9.41981C38.2717 9.33473 38.1646 9.25318 38.0549 9.17528C38.0006 9.13507 37.9456 9.09577 37.8901 9.05741C37.7818 8.98602 37.6713 8.91815 37.5587 8.85389C37.4963 8.81657 37.4333 8.78038 37.3697 8.74535C37.2593 8.68765 37.1472 8.63338 37.0334 8.58264C36.9632 8.54954 36.8923 8.51781 36.8209 8.48745C36.7095 8.44291 36.5968 8.40171 36.483 8.36389C36.4056 8.33637 36.3277 8.31044 36.2493 8.28611C36.139 8.25453 36.028 8.2261 35.9161 8.20087C35.8308 8.17973 35.745 8.16046 35.6589 8.14307C35.5521 8.12388 35.4448 8.10758 35.3371 8.09419C35.2441 8.08068 35.1508 8.06935 35.0573 8.06022C34.8853 8.04406 34.7126 8.03532 34.5398 8.03401H34.5395ZM24.3229 8.15447C23.847 8.15486 23.3903 8.34223 23.0511 8.67622C22.7119 9.01021 22.5174 9.4641 22.5095 9.94016H22.5079V9.97051V20.3941V20.5191H22.5122C22.5439 20.978 22.7484 21.4078 23.0845 21.7217C23.4206 22.0356 23.8632 22.2101 24.3229 22.2102C24.7824 22.2097 25.2245 22.0349 25.5602 21.721C25.8959 21.4072 26.1001 20.9777 26.1318 20.5191H26.1381V20.3941V9.97051V9.94016H26.1371C26.1291 9.46401 25.9345 9.01004 25.5953 8.67603C25.256 8.34203 24.7991 8.15473 24.3232 8.15447H24.3229ZM3.54207 10.8339H5.22005H5.23018H5.24727V10.8341C5.58869 10.8386 5.9146 10.9774 6.15447 11.2205C6.39433 11.4636 6.52883 11.7915 6.52886 12.1331C6.52886 12.4747 6.39437 12.8026 6.1545 13.0457C5.91464 13.2889 5.5887 13.4277 5.24727 13.4322V13.4324H3.54207V10.8339ZM3.54218 16.5272H5.85308V16.5273C6.25184 16.5279 6.63404 16.6869 6.91578 16.9692C7.19752 17.2516 7.35577 17.6342 7.35579 18.0332C7.35579 18.231 7.31686 18.4268 7.24121 18.6095C7.16556 18.7923 7.05468 18.9583 6.9149 19.0981C6.77512 19.238 6.60918 19.3489 6.42654 19.4246C6.24391 19.5003 6.04817 19.5392 5.85049 19.5392C5.84652 19.5392 5.84256 19.5392 5.83859 19.5391H3.54218L3.54218 16.5272Z" fill="#FBC509"/>
</g>
<defs>
<clipPath id="clip0">
<rect width="50" height="30" fill="white"/>
</clipPath>
</defs>
</svg>
