<svg width="232" height="234" viewBox="0 0 232 234" fill="none" xmlns="http://www.w3.org/2000/svg">
<g opacity="0.3" filter="url(#filter0_f)">
<mask id="mask0" mask-type="alpha" maskUnits="userSpaceOnUse" x="23" y="32" width="187" height="169">
<path d="M25.1625 119.621C21.0535 113.435 24.2186 105.364 26.3148 102.102C37.4528 85.5034 61.0422 50.2078 66.2951 41.8119C71.5481 33.416 83.8837 32.3721 89.3949 32.8996C105.97 33.6817 142.002 35.3957 153.53 35.9954C165.058 36.5951 170.994 42.8439 172.521 45.8933C182.113 65.1755 202.553 105.539 207.573 112.736C212.593 119.932 205.074 132.994 200.687 138.626C191.789 152.29 172.623 181.86 167.148 190.822C161.673 199.784 151.355 201.238 146.88 200.845C128.376 200.123 88.5397 198.388 77.2341 197.222C65.9286 196.056 60.335 190.322 58.9515 187.601C49.4006 167.519 29.2716 125.807 25.1625 119.621Z" fill="#C4C4C4"/>
</mask>
<g mask="url(#mask0)">
<rect x="-17.8999" y="183.604" width="212.934" height="202.287" transform="rotate(-68.587 -17.8999 183.604)" fill="#E2DFD6"/>
<path d="M80.274 41.5763C76.8313 33.6913 71.0841 33.0713 68.6409 33.7469L32.2004 53.7648C22.0063 70.7333 1.45161 105.095 0.785268 106.794C0.118928 108.493 12.9182 146.677 19.4011 165.557L65.2258 196.597C79.3439 175.177 108.419 131.032 111.772 125.813C115.126 120.593 113.568 112.902 112.369 109.71C103.105 90.2839 83.7168 49.4614 80.274 41.5763Z" fill="#FFFBF0"/>
<path d="M201.84 121.107C208.958 121.285 210.201 125.475 209.933 127.548C204.463 140.107 193.272 165.452 192.261 166.362C190.998 167.501 164.608 211.882 161.651 213.173C158.694 214.464 110.385 212.673 108.691 212.826C106.997 212.978 74.1523 200.915 68.9188 199.679C64.732 198.691 67.2205 192.206 68.9882 189.087C82.1299 169.463 109.11 128.853 111.898 123.411C114.685 117.969 120 117.331 122.309 117.692C145.853 118.756 194.721 120.929 201.84 121.107Z" fill="#BFBFBD"/>
<path d="M42.7845 100.853C45.724 100.906 48.0073 106.397 47.8843 113.116C47.7613 119.835 45.2786 125.238 42.3391 125.184C39.3996 125.13 37.1164 119.64 37.2394 112.921C37.3623 106.202 39.845 100.799 42.7845 100.853Z" fill="#121317"/>
<path d="M66.8005 102.102C69.74 102.156 72.0233 107.646 71.9003 114.365C71.7773 121.084 69.2946 126.487 66.3551 126.433C63.4156 126.38 61.1323 120.889 61.2553 114.17C61.3783 107.451 63.861 102.048 66.8005 102.102Z" fill="#121317"/>
<path d="M90.8165 103.351C93.756 103.405 96.0392 108.896 95.9162 115.615C95.7932 122.333 93.3106 127.737 90.3711 127.683C87.4316 127.629 85.1483 122.139 85.2713 115.42C85.3943 108.701 87.877 103.298 90.8165 103.351Z" fill="#121317"/>
<path d="M133.337 64.6636C135.139 62.3408 140.904 63.7973 146.213 67.9168C151.523 72.0363 154.366 77.2588 152.563 79.5816C150.761 81.9044 144.996 80.4479 139.687 76.3284C134.377 72.2089 131.534 66.9864 133.337 64.6636Z" fill="#121317"/>
<path d="M118.968 142.675C118.332 139.805 123.136 136.301 129.698 134.849C136.259 133.397 142.093 134.547 142.728 137.418C143.363 140.288 138.559 143.792 131.998 145.244C125.437 146.696 119.603 145.546 118.968 142.675Z" fill="#121317"/>
<path d="M161.641 146.34C161.006 143.469 165.81 139.965 172.371 138.514C178.933 137.062 184.766 138.212 185.402 141.083C186.037 143.953 181.233 147.457 174.671 148.909C168.11 150.361 162.276 149.211 161.641 146.34Z" fill="#121317"/>
<path d="M127.88 165.775C127.245 162.904 132.049 159.4 138.61 157.949C145.171 156.497 151.005 157.647 151.64 160.517C152.276 163.388 147.472 166.892 140.91 168.344C134.349 169.796 128.515 168.645 127.88 165.775Z" fill="#121317"/>
<path d="M91.2867 184.099C90.6515 181.229 95.4556 177.725 102.017 176.273C108.578 174.821 114.412 175.971 115.047 178.842C115.682 181.712 110.878 185.216 104.317 186.668C97.7557 188.12 91.9218 186.97 91.2867 184.099Z" fill="#121317"/>
<path d="M137.903 186.043C137.267 183.172 142.072 179.668 148.633 178.216C155.194 176.765 161.028 177.915 161.663 180.785C162.298 183.656 157.494 187.16 150.933 188.612C144.372 190.063 138.538 188.913 137.903 186.043Z" fill="#121317"/>
</g>
</g>
<defs>
<filter id="filter0_f" x="13.1631" y="22.7861" width="206.075" height="188.116" filterUnits="userSpaceOnUse" color-interpolation-filters="sRGB">
<feFlood flood-opacity="0" result="BackgroundImageFix"/>
<feBlend mode="normal" in="SourceGraphic" in2="BackgroundImageFix" result="shape"/>
<feGaussianBlur stdDeviation="5" result="effect1_foregroundBlur"/>
</filter>
</defs>
</svg>
