<svg width="211" height="144" viewBox="0 0 211 144" fill="none" xmlns="http://www.w3.org/2000/svg">
<g opacity="0.3" filter="url(#filter0_f)">
<mask id="mask0" mask-type="alpha" maskUnits="userSpaceOnUse" x="-31" y="-100" width="232" height="234">
<path d="M-5.83745 19.6209C-9.94654 13.435 -6.78143 5.36397 -4.68523 2.10168C6.45282 -14.4966 30.0422 -49.7922 35.2951 -58.1881C40.5481 -66.584 52.8837 -67.6279 58.3949 -67.1004C74.9701 -66.3183 111.002 -64.6043 122.53 -64.0046C134.058 -63.4049 139.994 -57.1561 141.521 -54.1067C151.113 -34.8245 171.553 5.53902 176.573 12.7355C181.593 19.932 174.074 32.9941 169.687 38.6256C160.789 52.2901 141.623 81.8599 136.148 90.8221C130.673 99.7844 120.355 101.238 115.88 100.845C97.3757 100.123 57.5397 98.3878 46.2341 97.2217C34.9286 96.0556 29.335 90.3223 27.9515 87.6014C18.4006 67.5186 -1.72836 25.8067 -5.83745 19.6209Z" fill="#C4C4C4"/>
</mask>
<g mask="url(#mask0)">
<rect x="-48.8999" y="83.6035" width="212.934" height="202.287" transform="rotate(-68.587 -48.8999 83.6035)" fill="#E2DFD6"/>
<path d="M49.274 -58.4237C45.8313 -66.3087 40.0841 -66.9288 37.6409 -66.2532L1.20043 -46.2352C-8.99365 -29.2667 -29.5484 5.0951 -30.2147 6.79426C-30.8811 8.49343 -18.0818 46.6775 -11.5989 65.5571L34.2258 96.5974C48.3439 75.1774 77.4185 31.0324 80.7724 25.8128C84.1263 20.5931 82.5678 12.9024 81.3694 9.70956C72.1054 -9.71609 52.7168 -50.5386 49.274 -58.4237Z" fill="#FFFBF0"/>
<path d="M170.84 21.1069C177.958 21.2846 179.201 25.4751 178.933 27.5481C173.463 40.1068 162.272 65.4517 161.261 66.3624C159.998 67.5007 133.608 111.882 130.651 113.173C127.694 114.464 79.3845 112.673 77.6909 112.826C75.9973 112.978 43.1523 100.915 37.9188 99.6793C33.732 98.6909 36.2205 92.2061 37.9882 89.0873C51.1299 69.4627 78.1102 28.853 80.8977 23.4112C83.6852 17.9695 89.0002 17.3309 91.3093 17.6918C114.853 18.7561 163.721 20.9292 170.84 21.1069Z" fill="#BFBFBD"/>
<path d="M11.7845 0.852649C14.724 0.906459 17.0073 6.39682 16.8843 13.1157C16.7613 19.8346 14.2786 25.2377 11.3391 25.1839C8.39959 25.1301 6.11636 19.6397 6.23935 12.9208C6.36235 6.20195 8.845 0.798838 11.7845 0.852649Z" fill="#121317"/>
<path d="M35.8005 2.10205C38.74 2.15586 41.0233 7.64621 40.9003 14.3651C40.7773 21.084 38.2946 26.4871 35.3551 26.4333C32.4156 26.3795 30.1323 20.8891 30.2553 14.1702C30.3783 7.45135 32.861 2.04824 35.8005 2.10205Z" fill="#121317"/>
<path d="M59.8165 3.35145C62.756 3.40526 65.0392 8.89561 64.9162 15.6145C64.7932 22.3334 62.3106 27.7365 59.3711 27.6827C56.4316 27.6289 54.1483 22.1385 54.2713 15.4196C54.3943 8.70075 56.877 3.29764 59.8165 3.35145Z" fill="#121317"/>
<path d="M102.337 -35.3364C104.139 -37.6592 109.904 -36.2027 115.213 -32.0832C120.523 -27.9637 123.366 -22.7412 121.563 -20.4184C119.761 -18.0956 113.996 -19.5521 108.687 -23.6716C103.377 -27.7911 100.534 -33.0136 102.337 -35.3364Z" fill="#121317"/>
<path d="M87.9675 42.6751C87.3324 39.8045 92.1365 36.3006 98.6978 34.8487C105.259 33.3969 111.093 34.5471 111.728 37.4176C112.363 40.2882 107.559 43.7922 100.998 45.244C94.4366 46.6958 88.6027 45.5457 87.9675 42.6751Z" fill="#121317"/>
<path d="M130.641 46.34C130.006 43.4694 134.81 39.9654 141.371 38.5136C147.933 37.0618 153.766 38.212 154.402 41.0825C155.037 43.9531 150.233 47.4571 143.671 48.9089C137.11 50.3607 131.276 49.2106 130.641 46.34Z" fill="#121317"/>
<path d="M96.8798 65.7749C96.2446 62.9043 101.049 59.4003 107.61 57.9485C114.171 56.4967 120.005 57.6468 120.64 60.5174C121.276 63.388 116.472 66.892 109.91 68.3438C103.349 69.7956 97.515 68.6455 96.8798 65.7749Z" fill="#121317"/>
<path d="M60.2867 84.0992C59.6515 81.2286 64.4556 77.7246 71.0169 76.2728C77.5782 74.821 83.4121 75.9712 84.0473 78.8417C84.6824 81.7123 79.8784 85.2163 73.317 86.6681C66.7557 88.1199 60.9218 86.9698 60.2867 84.0992Z" fill="#121317"/>
<path d="M106.903 86.0427C106.267 83.1721 111.072 79.6682 117.633 78.2163C124.194 76.7645 130.028 77.9147 130.663 80.7852C131.298 83.6558 126.494 87.1598 119.933 88.6116C113.372 90.0634 107.538 88.9133 106.903 86.0427Z" fill="#121317"/>
</g>
</g>
<defs>
<filter id="filter0_f" x="-41" y="-110" width="251.697" height="253.244" filterUnits="userSpaceOnUse" color-interpolation-filters="sRGB">
<feFlood flood-opacity="0" result="BackgroundImageFix"/>
<feBlend mode="normal" in="SourceGraphic" in2="BackgroundImageFix" result="shape"/>
<feGaussianBlur stdDeviation="5" result="effect1_foregroundBlur"/>
</filter>
</defs>
</svg>
