<svg width="127" height="127" viewBox="0 0 127 127" fill="none" xmlns="http://www.w3.org/2000/svg">
<g opacity="0.3" filter="url(#filter0_f)">
<mask id="mask0" mask-type="alpha" maskUnits="userSpaceOnUse" x="5" y="5" width="117" height="117">
<path d="M62.172 107.454C59.0294 109.275 55.1842 107.489 53.6544 106.368C45.8852 100.434 29.3612 87.8632 25.4199 85.0478C21.4786 82.2324 21.338 76.1795 21.7604 73.505C22.638 65.4372 24.5525 47.8993 25.1901 42.29C25.8277 36.6807 29.0556 33.97 30.5899 33.3158C40.2894 29.21 60.6044 20.4396 64.2675 18.2045C67.9306 15.9694 74.082 20.0303 76.6998 22.3402C83.104 27.0927 96.9651 37.333 101.176 40.2737C105.387 43.2145 105.789 48.2948 105.463 50.4673C104.557 59.4788 102.518 78.8729 101.611 84.3568C100.703 89.8408 97.7371 92.3998 96.3675 92.9938C86.2784 97.0553 65.3145 105.633 62.172 107.454Z" fill="#C4C4C4"/>
</mask>
<g mask="url(#mask0)">
<rect x="92.1172" y="130.389" width="104.139" height="98.932" transform="rotate(-155.08 92.1172 130.389)" fill="#E2DFD6"/>
<path d="M25.7232 78.217C21.7711 79.6617 21.2965 82.4487 21.5532 83.6615L30.2349 102.049C38.2132 107.533 54.372 118.594 55.1815 118.97C55.9911 119.347 75.0135 114.241 84.4235 111.641L100.947 90.2001C90.9128 82.6676 70.2332 67.1543 67.7855 65.3609C65.3379 63.5675 61.537 64.0983 59.9426 64.5878C50.1828 68.5289 29.6752 76.7723 25.7232 78.217Z" fill="#FFFBF0"/>
<path d="M68.1825 21.2537C68.4822 17.784 70.5649 17.3026 71.5689 17.4957C77.5358 20.5413 89.5731 26.7627 89.9875 27.2833C90.5053 27.934 111.381 42.1439 111.922 43.6259C112.464 45.1079 110.145 68.6367 110.169 69.468C110.192 70.2993 103.321 85.9718 102.561 88.4896C101.954 90.5038 98.8626 89.095 97.3931 88.1388C88.2064 81.1367 69.1898 66.7514 66.6168 65.2279C64.0438 63.7044 63.8911 61.0908 64.1363 59.9744C65.3602 48.5132 67.8828 24.7234 68.1825 21.2537Z" fill="#BFBFBD"/>
<path d="M53.5372 98.2907C53.6514 96.8574 56.3998 95.9071 59.676 96.1681C62.9521 96.4292 65.5154 97.8027 65.4012 99.236C65.287 100.669 62.5386 101.62 59.2624 101.359C55.9863 101.098 53.423 99.7241 53.5372 98.2907Z" fill="#121317"/>
<path d="M54.8655 86.6047C54.9797 85.1714 57.7281 84.221 61.0043 84.4821C64.2804 84.7431 66.8437 86.1166 66.7295 87.55C66.6153 88.9833 63.8669 89.9336 60.5907 89.6726C57.3146 89.4115 54.7513 88.038 54.8655 86.6047Z" fill="#121317"/>
<path d="M56.1938 74.9186C56.308 73.4853 59.0564 72.535 62.3326 72.796C65.6088 73.0571 68.172 74.4306 68.0578 75.8639C67.9436 77.2972 65.1952 78.2476 61.919 77.9865C58.6429 77.7255 56.0796 76.352 56.1938 74.9186Z" fill="#121317"/>
<path d="M38.5802 53.005C37.5003 52.0558 38.3837 49.2851 40.5535 46.8166C42.7233 44.3481 45.3577 43.1166 46.4377 44.0658C47.5176 45.0151 46.6342 47.7858 44.4644 50.2543C42.2946 52.7227 39.6602 53.9543 38.5802 53.005Z" fill="#121317"/>
<path d="M76.2318 62.353C74.8115 62.5772 73.2448 60.1272 72.7324 56.8809C72.2199 53.6346 72.9559 50.8211 74.3762 50.597C75.7964 50.3728 77.3632 52.8227 77.8756 56.0691C78.388 59.3154 77.6521 62.1288 76.2318 62.353Z" fill="#121317"/>
<path d="M79.2974 41.6315C77.8771 41.8557 76.3103 39.4058 75.7979 36.1594C75.2855 32.9131 76.0214 30.0997 77.4417 29.8755C78.862 29.6513 80.4287 32.1012 80.9412 35.3476C81.4536 38.5939 80.7176 41.4074 79.2974 41.6315Z" fill="#121317"/>
<path d="M87.7746 58.6935C86.3543 58.9177 84.7876 56.4677 84.2751 53.2214C83.7627 49.975 84.4987 47.1616 85.9189 46.9374C87.3392 46.7132 88.906 49.1632 89.4184 52.4095C89.9308 55.6559 89.1949 58.4693 87.7746 58.6935Z" fill="#121317"/>
<path d="M95.625 77.1046C94.2047 77.3288 92.6379 74.8789 92.1255 71.6325C91.6131 68.3862 92.349 65.5728 93.7693 65.3486C95.1896 65.1244 96.7564 67.5743 97.2688 70.8207C97.7812 74.067 97.0453 76.8804 95.625 77.1046Z" fill="#121317"/>
<path d="M97.9682 54.4071C96.5479 54.6313 94.9811 52.1813 94.4687 48.935C93.9563 45.6887 94.6922 42.8752 96.1125 42.6511C97.5328 42.4269 99.0996 44.8768 99.612 48.1232C100.124 51.3695 99.3885 54.1829 97.9682 54.4071Z" fill="#121317"/>
</g>
</g>
<defs>
<filter id="filter0_f" x="0" y="0" width="126.841" height="126.192" filterUnits="userSpaceOnUse" color-interpolation-filters="sRGB">
<feFlood flood-opacity="0" result="BackgroundImageFix"/>
<feBlend mode="normal" in="SourceGraphic" in2="BackgroundImageFix" result="shape"/>
<feGaussianBlur stdDeviation="2.5" result="effect1_foregroundBlur"/>
</filter>
</defs>
</svg>
