<svg width="1016" height="1016" viewBox="0 0 1016 1016" fill="none" xmlns="http://www.w3.org/2000/svg">
<path d="M310.693 426.933L508 229.631L705.409 427.035L820.217 312.227L508 0L195.89 312.125L310.693 426.933Z" fill="#0E0F12" fill-opacity="0.5"/>
<path d="M0 507.982L114.811 393.173L229.616 507.975L114.804 622.785L0 507.982Z" fill="#0E0F12" fill-opacity="0.5"/>
<path d="M310.687 589.069L507.996 786.37L705.401 588.973L820.271 703.719L820.215 703.78L507.996 1016L195.71 703.724L310.687 589.069Z" fill="#0E0F12" fill-opacity="0.5"/>
<path d="M786.383 508.047L901.195 393.234L1016 508.04L901.188 622.852L786.383 508.047Z" fill="#0E0F12" fill-opacity="0.5"/>
<path d="M624.441 507.939H624.492L507.991 391.439L421.894 477.535H421.889L391.597 507.837L391.435 507.994L391.597 508.162L507.991 624.56L624.492 508.06L624.548 507.994L624.441 507.939Z" fill="#0E0F12" fill-opacity="0.5"/>
</svg>
