<svg width="22" height="22" viewBox="0 0 22 22" fill="none" xmlns="http://www.w3.org/2000/svg">
<mask id="mask0" mask-type="alpha" maskUnits="userSpaceOnUse" x="0" y="0" width="22" height="22">
<rect width="22" height="22" fill="#C4C4C4"/>
</mask>
<g mask="url(#mask0)">
<path d="M-3.10731 -1.27664L-0.000117461 -4.38376L3.10867 -1.27504L4.91666 -3.08304L-0.000117461 -8L-4.91522 -3.08464L-3.10731 -1.27664Z" fill="#585961"/>
<path d="M-8 -0.000276661L-6.19195 -1.8083L-4.38402 -0.000389067L-6.19207 1.80764L-8 -0.000276661Z" fill="#585961"/>
<path d="M-3.10736 1.27668L-0.000145435 4.38378L3.10858 1.27516L4.91755 3.08219L4.91667 3.08315L-0.000145435 8L-4.918 3.08227L-3.10736 1.27668Z" fill="#585961"/>
<path d="M4.384 0.000740083L6.19206 -1.80733L8 0.000625642L6.19194 1.8087L4.384 0.000740083Z" fill="#585961"/>
<path d="M1.83369 -0.000967884L-0.000154082 -1.83561L-1.83312 -0.00256802L-1.83568 -8.79606e-05L-1.83312 0.00255181L-0.000154082 1.83559L1.83449 0.000951672L1.83537 -8.79606e-05L1.83369 -0.000967884Z" fill="#585961"/>
<path d="M18.8927 -1.27664L21.9999 -4.38376L25.1087 -1.27504L26.9167 -3.08304L21.9999 -8L17.0848 -3.08464L18.8927 -1.27664Z" fill="#585961"/>
<path d="M14 -0.000276661L15.808 -1.8083L17.616 -0.000389067L15.8079 1.80764L14 -0.000276661Z" fill="#585961"/>
<path d="M18.8926 1.27668L21.9999 4.38378L25.1086 1.27516L26.9176 3.08219L26.9167 3.08315L21.9999 8L17.082 3.08227L18.8926 1.27668Z" fill="#585961"/>
<path d="M26.384 0.000740083L28.1921 -1.80733L30 0.000625642L28.1919 1.8087L26.384 0.000740083Z" fill="#585961"/>
<path d="M23.8337 -0.000967884L21.9998 -1.83561L20.1669 -0.00256802L20.1643 -8.79606e-05L20.1669 0.00255181L21.9998 1.83559L23.8345 0.000951672L23.8354 -8.79606e-05L23.8337 -0.000967884Z" fill="#585961"/>
<path d="M7.89269 9.72336L10.9999 6.61624L14.1087 9.72496L15.9167 7.91696L10.9999 3L6.08478 7.91536L7.89269 9.72336Z" fill="#585961"/>
<path d="M3 10.9997L4.80805 9.1917L6.61598 10.9996L4.80793 12.8076L3 10.9997Z" fill="#585961"/>
<path d="M7.89264 12.2767L10.9999 15.3838L14.1086 12.2752L15.9176 14.0822L15.9167 14.0831L10.9999 19L6.082 14.0823L7.89264 12.2767Z" fill="#585961"/>
<path d="M15.384 11.0007L17.1921 9.19267L19 11.0006L17.1919 12.8087L15.384 11.0007Z" fill="#585961"/>
<path d="M12.8337 10.999L10.9998 9.16439L9.16688 10.9974L9.16432 10.9999L9.16688 11.0026L10.9998 12.8356L12.8345 11.001L12.8354 10.9999L12.8337 10.999Z" fill="#585961"/>
<path d="M-3.10731 20.7234L-0.000117461 17.6162L3.10867 20.725L4.91666 18.917L-0.000117461 14L-4.91522 18.9154L-3.10731 20.7234Z" fill="#585961"/>
<path d="M-8 21.9997L-6.19195 20.1917L-4.38402 21.9996L-6.19207 23.8076L-8 21.9997Z" fill="#585961"/>
<path d="M-3.10736 23.2767L-0.000145435 26.3838L3.10858 23.2752L4.91755 25.0822L4.91667 25.0831L-0.000145435 30L-4.918 25.0823L-3.10736 23.2767Z" fill="#585961"/>
<path d="M4.384 22.0007L6.19206 20.1927L8 22.0006L6.19194 23.8087L4.384 22.0007Z" fill="#585961"/>
<path d="M1.83369 21.999L-0.000154082 20.1644L-1.83312 21.9974L-1.83568 21.9999L-1.83312 22.0026L-0.000154082 23.8356L1.83449 22.001L1.83537 21.9999L1.83369 21.999Z" fill="#585961"/>
<path d="M18.8927 20.7234L21.9999 17.6162L25.1087 20.725L26.9167 18.917L21.9999 14L17.0848 18.9154L18.8927 20.7234Z" fill="#585961"/>
<path d="M14 21.9997L15.808 20.1917L17.616 21.9996L15.8079 23.8076L14 21.9997Z" fill="#585961"/>
<path d="M18.8926 23.2767L21.9999 26.3838L25.1086 23.2752L26.9176 25.0822L26.9167 25.0831L21.9999 30L17.082 25.0823L18.8926 23.2767Z" fill="#585961"/>
<path d="M26.384 22.0007L28.1921 20.1927L30 22.0006L28.1919 23.8087L26.384 22.0007Z" fill="#585961"/>
<path d="M23.8337 21.999L21.9998 20.1644L20.1669 21.9974L20.1643 21.9999L20.1669 22.0026L21.9998 23.8356L23.8345 22.001L23.8354 21.9999L23.8337 21.999Z" fill="#585961"/>
</g>
</svg>
