<svg width="158" height="97" viewBox="0 0 158 97" fill="none" xmlns="http://www.w3.org/2000/svg">
<mask id="mask0" mask-type="alpha" maskUnits="userSpaceOnUse" x="71" y="16" width="87" height="81">
<path d="M132.385 95.9253C127.854 97.985 120.027 95.9253 120.027 95.9253C120.027 95.9253 85.3403 88.263 80.0673 87.2743C74.7943 86.2856 72.3775 80.8204 71.8282 78.2113L82.9509 27.1293C87.4824 24.9323 97.534 19.9614 101.489 17.6544C105.444 15.3475 111.925 16.144 114.671 16.8305C123.597 18.341 143.096 21.6092 149.687 22.5979C156.278 23.5866 157.377 28.5025 157.102 30.8369V73.6799C157.102 78.6233 154.631 80.9577 153.395 81.507C148.589 85.0772 136.917 93.8655 132.385 95.9253Z" fill="#C4C4C4"/>
</mask>
<g mask="url(#mask0)">
<rect x="66.8848" y="10.2393" width="93.925" height="93.925" fill="#FBC509"/>
<path d="M132.385 40.3118L157.102 24.2457C158.887 32.8967 162.375 50.7754 162.046 53.0823C161.716 55.3892 159.986 72.1694 159.162 80.2711C155.317 84.8026 147.463 94.0303 146.804 94.6894C146.144 95.3485 135.543 97.4358 130.325 98.397V46.4911C130.325 42.2068 131.699 40.5864 132.385 40.3118Z" fill="#FB9B09"/>
<path d="M130.325 46.4911V100.457C110.414 98.5343 70.51 94.607 70.1804 94.2775C69.8509 93.9479 68.6699 69.9723 68.1207 58.0257L75.1238 31.6608C89.8168 34.2698 120.274 39.7351 124.558 40.7237C128.842 41.7124 130.188 44.9806 130.325 46.4911Z" fill="#FBA409"/>
<rect x="66.8848" y="55.554" width="32.1322" height="46.1386" fill="#DC8705"/>
<path d="M115.495 20.5381C115.495 21.6757 113.097 22.5979 110.14 22.5979C107.182 22.5979 104.784 21.6757 104.784 20.5381C104.784 19.4005 107.182 18.4784 110.14 18.4784C113.097 18.4784 115.495 19.4005 115.495 20.5381Z" fill="#14151A"/>
<path d="M101.489 28.7772C101.489 29.9147 99.0911 30.8369 96.1334 30.8369C93.1757 30.8369 90.778 29.9147 90.778 28.7772C90.778 27.6396 93.1757 26.7174 96.1334 26.7174C99.0911 26.7174 101.489 27.6396 101.489 28.7772Z" fill="#14151A"/>
<path d="M129.502 33.7206C129.502 34.8582 127.104 35.7803 124.146 35.7803C121.188 35.7803 118.791 34.8582 118.791 33.7206C118.791 32.583 121.188 31.6608 124.146 31.6608C127.104 31.6608 129.502 32.583 129.502 33.7206Z" fill="#14151A"/>
<path d="M122.91 27.1294C122.91 28.2669 120.513 29.1891 117.555 29.1891C114.597 29.1891 112.2 28.2669 112.2 27.1294C112.2 25.9918 114.597 25.0696 117.555 25.0696C120.513 25.0696 122.91 25.9918 122.91 27.1294Z" fill="#14151A"/>
<path d="M143.508 24.6576C143.508 25.7952 141.11 26.7174 138.152 26.7174C135.195 26.7174 132.797 25.7952 132.797 24.6576C132.797 23.5201 135.195 22.5979 138.152 22.5979C141.11 22.5979 143.508 23.5201 143.508 24.6576Z" fill="#14151A"/>
<path d="M150.923 49.7867C149.558 49.7867 148.451 47.389 148.451 44.4313C148.451 41.4736 149.558 39.076 150.923 39.076C152.288 39.076 153.395 41.4736 153.395 44.4313C153.395 47.389 152.288 49.7867 150.923 49.7867Z" fill="#14151A"/>
<path d="M140.212 56.3779C138.847 56.3779 137.741 53.9802 137.741 51.0226C137.741 48.0649 138.847 45.6672 140.212 45.6672C141.577 45.6672 142.684 48.0649 142.684 51.0226C142.684 53.9802 141.577 56.3779 140.212 56.3779Z" fill="#14151A"/>
<path d="M150.923 73.6799C149.558 73.6799 148.451 71.2822 148.451 68.3245C148.451 65.3668 149.558 62.9692 150.923 62.9692C152.288 62.9692 153.395 65.3668 153.395 68.3245C153.395 71.2822 152.288 73.6799 150.923 73.6799Z" fill="#14151A"/>
<path d="M140.212 80.2711C138.847 80.2711 137.741 77.8734 137.741 74.9158C137.741 71.9581 138.847 69.5604 140.212 69.5604C141.577 69.5604 142.684 71.9581 142.684 74.9158C142.684 77.8734 141.577 80.2711 140.212 80.2711Z" fill="#14151A"/>
<path d="M118.791 52.6704C118.791 55.6281 116.762 58.0257 114.259 58.0257C111.757 58.0257 109.728 55.6281 109.728 52.6704C109.728 49.7127 111.757 47.315 114.259 47.315C116.762 47.315 118.791 49.7127 118.791 52.6704Z" fill="#14151A"/>
<path d="M118.791 68.3245C118.791 71.2822 116.762 73.6799 114.259 73.6799C111.757 73.6799 109.728 71.2822 109.728 68.3245C109.728 65.3668 111.757 62.9692 114.259 62.9692C116.762 62.9692 118.791 65.3668 118.791 68.3245Z" fill="#14151A"/>
<path d="M118.791 83.9787C118.791 86.9364 116.762 89.3341 114.259 89.3341C111.757 89.3341 109.728 86.9364 109.728 83.9787C109.728 81.021 111.757 78.6233 114.259 78.6233C116.762 78.6233 118.791 81.021 118.791 83.9787Z" fill="#14151A"/>
<path d="M91.6019 76.5636C91.6019 79.5213 89.5731 81.9189 87.0705 81.9189C84.5678 81.9189 82.539 79.5213 82.539 76.5636C82.539 73.6059 84.5678 71.2082 87.0705 71.2082C89.5731 71.2082 91.6019 73.6059 91.6019 76.5636Z" fill="#14151A"/>
</g>
<mask id="mask1" mask-type="alpha" maskUnits="userSpaceOnUse" x="0" y="0" width="99" height="97">
<path d="M30.2211 3.64809C32.528 0.35248 37.2243 0.35248 39.2841 0.764432C49.8575 3.09882 72.3226 8.01478 77.5955 9.00346C82.8685 9.99215 85.8346 16.0066 86.6585 18.8903C89.5421 27.404 95.8038 45.9143 97.7812 51.8465C99.7586 57.7786 97.7812 62.0079 96.5453 63.3811C88.7182 72.0321 72.405 90.3227 69.7685 94.2775C67.132 98.2322 59.0577 97.0238 55.3501 95.9253C46.6992 94.1402 27.9966 90.3227 22.394 89.3341C16.7915 88.3454 14.0177 83.4294 13.3311 81.095C10.0355 71.6201 3.0323 51.1873 1.38449 45.2552C-0.263317 39.3231 1.52181 35.3684 2.62035 34.1325C10.8594 25.3442 27.9142 6.94371 30.2211 3.64809Z" fill="#C4C4C4"/>
</mask>
<g mask="url(#mask1)">
<rect x="-10.5621" y="-5.41486" width="115.347" height="109.579" fill="#E2DFD6"/>
<path d="M80.4792 16.0066C83.7748 12.711 82.9509 9.69003 82.127 8.5915L64.825 -5.82682C54.2516 -7.61194 32.8576 -11.1822 31.8689 -11.1822C30.8802 -11.1822 14.155 2.82417 5.91594 9.82735L-0.675293 39.0759C12.9191 41.9596 40.9318 47.8917 44.2275 48.5508C47.5231 49.2099 51.0933 46.903 52.4665 45.6672C60.4309 37.1535 77.1836 19.3022 80.4792 16.0066Z" fill="#FFFBF0"/>
<path d="M64.4131 93.0416C65.7313 96.6668 63.8638 98.1224 62.7653 98.397C55.3501 98.1224 40.3551 97.4907 39.696 97.1612C38.8721 96.7492 11.2713 92.2177 10.0354 90.9819C8.79958 89.746 0.148592 65.0289 -0.26336 64.205C-0.675312 63.3811 -1.08727 44.4313 -1.49922 41.5477C-1.82878 39.2407 1.93371 39.2133 3.85615 39.4879C16.352 42.2343 42.1677 47.8093 45.4633 48.1389C48.7589 48.4685 50.1321 51.0226 50.4067 52.2584C54.5262 64.3423 63.0948 89.4165 64.4131 93.0416Z" fill="#BFBFBD"/>
<path d="M43.1711 8.82322C43.7253 10.3163 41.4081 12.5536 37.9954 13.8203C34.5826 15.0871 31.3668 14.9036 30.8126 13.4105C30.2584 11.9175 32.5757 9.68021 35.9884 8.41345C39.4011 7.1467 42.6169 7.33016 43.1711 8.82322Z" fill="#081C35"/>
<path d="M47.2907 21.1818C47.8449 22.6748 45.5276 24.9121 42.1149 26.1789C38.7022 27.4456 35.4863 27.2622 34.9321 25.7691C34.3779 24.276 36.6952 22.0388 40.1079 20.772C43.5206 19.5053 46.7365 19.6887 47.2907 21.1818Z" fill="#081C35"/>
<path d="M51.4102 33.5403C51.9644 35.0334 49.6471 37.2707 46.2344 38.5374C42.8217 39.8042 39.6058 39.6207 39.0516 38.1277C38.4974 36.6346 40.8147 34.3973 44.2274 33.1306C47.6401 31.8638 50.856 32.0473 51.4102 33.5403Z" fill="#081C35"/>
<path d="M79.33 47.3324C80.8578 47.7819 81.2634 50.9773 80.2359 54.4696C79.2084 57.9618 77.1369 60.4284 75.6091 59.9788C74.0812 59.5293 73.6756 56.3339 74.7031 52.8417C75.7306 49.3495 77.8021 46.8829 79.33 47.3324Z" fill="#081C35"/>
<path d="M37.1463 55.5141C38.4683 54.6261 41.1855 56.3559 43.2153 59.3777C45.2451 62.3995 45.8188 65.569 44.4968 66.457C43.1748 67.3451 40.4576 65.6153 38.4278 62.5935C36.398 59.5717 35.8243 56.4021 37.1463 55.5141Z" fill="#081C35"/>
<path d="M43.7375 77.7595C45.0596 76.8715 47.7768 78.6012 49.8065 81.623C51.8363 84.6449 52.4101 87.8144 51.088 88.7024C49.766 89.5905 47.0488 87.8607 45.019 84.8389C42.9892 81.8171 42.4155 78.6475 43.7375 77.7595Z" fill="#081C35"/>
<path d="M27.2595 64.5771C28.5815 63.689 31.2987 65.4188 33.3285 68.4406C35.3583 71.4624 35.932 74.6319 34.61 75.52C33.2879 76.408 30.5707 74.6782 28.5409 71.6564C26.5112 68.6346 25.9374 65.4651 27.2595 64.5771Z" fill="#081C35"/>
<path d="M10.7814 49.7468C12.1034 48.8588 14.8206 50.5885 16.8504 53.6103C18.8802 56.6321 19.4539 59.8017 18.1319 60.6897C16.8098 61.5777 14.0927 59.848 12.0629 56.8262C10.0331 53.8044 9.45935 50.6348 10.7814 49.7468Z" fill="#081C35"/>
<path d="M19.0204 73.64C20.3425 72.752 23.0597 74.4817 25.0894 77.5035C27.1192 80.5253 27.693 83.6949 26.3709 84.5829C25.0489 85.4709 22.3317 83.7412 20.3019 80.7194C18.2721 77.6976 17.6984 74.528 19.0204 73.64Z" fill="#081C35"/>
</g>
</svg>
