<svg width="202" height="220" viewBox="0 0 202 220" fill="none" xmlns="http://www.w3.org/2000/svg">
<g filter="url(#filter0_d)">
<rect x="49.2305" y="0.322266" width="135" height="200" rx="6" transform="rotate(9.39549 49.2305 0.322266)" fill="white"/>
<g clip-path="url(#clip0)">
<path d="M102.227 102.57L91.5035 167.375L77.4076 165.042C80.823 164.103 88.329 160.417 91.0294 153.19C92.569 149.07 93.2922 147.175 93.5843 146.439C91.6012 149.544 85.6788 155.126 77.0283 153.695C66.0445 151.877 63.7423 139.648 64.4087 135.62C65.0752 131.593 65.7732 128.511 73.637 123.042C79.9281 118.666 95.3892 107.52 102.227 102.57Z" fill="#040916"/>
<path d="M102.227 102.57L91.5035 167.375L105.599 169.707C102.669 167.718 96.75 161.811 96.5213 154.099C96.391 149.703 96.317 147.675 96.2775 146.884C97.1545 150.463 100.963 157.655 109.614 159.087C120.598 160.904 126.716 150.068 127.383 146.04C128.049 142.013 128.381 138.871 122.698 131.16C118.152 124.991 107.105 109.458 102.227 102.57Z" fill="#040916"/>
</g>
<path d="M120.554 63.5545C120.273 65.2566 119.597 66.6956 118.528 67.8715C117.459 69.0474 116.113 69.9052 114.49 70.445C116.056 71.5455 117.218 72.9008 117.974 74.5107C118.733 76.1046 118.952 77.873 118.631 79.816C118.115 82.9312 116.647 85.2207 114.228 86.6845C111.81 88.1322 108.779 88.5545 105.134 87.9514C101.489 87.3482 98.7488 85.9627 96.9133 83.7948C95.0779 81.6269 94.4166 78.9934 94.9294 75.8942C95.2509 73.9512 96.029 72.3395 97.2637 71.0591C98.4984 69.7786 100.025 68.8764 101.844 68.3525C100.481 67.3186 99.4828 66.0729 98.8496 64.6153C98.2325 63.1604 98.0648 61.5819 98.3464 59.8798C98.8406 56.8931 100.229 54.6813 102.513 53.2444C104.799 51.7914 107.652 51.348 111.072 51.9139C114.477 52.4772 117.028 53.8068 118.727 55.9026C120.445 57.985 121.054 60.5356 120.554 63.5545ZM111.729 78.1544C111.982 76.6289 111.742 75.3354 111.01 74.274C110.279 73.2126 109.166 72.5583 107.673 72.3112C106.195 72.0668 104.939 72.3291 103.905 73.0983C102.873 73.8514 102.229 74.9987 101.974 76.5402C101.727 78.0336 101.961 79.3097 102.677 80.3684C103.393 81.4272 104.521 82.0841 106.063 82.3392C107.572 82.589 108.826 82.3427 109.823 81.6003C110.836 80.8606 111.471 79.712 111.729 78.1544ZM113.537 62.7399C113.763 61.375 113.583 60.2232 112.996 59.2847C112.411 58.3302 111.461 57.7439 110.144 57.5261C108.843 57.3109 107.765 57.5449 106.91 58.2282C106.054 58.9115 105.51 59.9597 105.276 61.3728C105.045 62.7698 105.22 63.9537 105.802 64.9243C106.383 65.8949 107.333 66.4892 108.649 66.707C109.966 66.9249 111.048 66.6668 111.896 65.9326C112.759 65.2011 113.306 64.1369 113.537 62.7399Z" fill="#040916"/>
</g>
<path d="M49.0197 11.3589C48.7554 10.999 48.3594 10.7586 47.9183 10.6901C47.4757 10.6181 47.0228 10.725 46.6592 10.9874L7.99938 38.8898C7.24989 39.4436 7.09126 40.5004 7.6451 41.2499C7.90391 41.6 8.28801 41.8366 8.71714 41.9102L27.0374 44.8992L20.244 86.5362C20.094 87.456 20.718 88.3234 21.6378 88.4735L48.2855 92.8212C49.2054 92.9713 50.0727 92.3472 50.2228 91.4274L57.0161 49.7904L75.2664 52.768C76.1859 52.9198 77.0543 52.2972 77.2061 51.3777C77.2793 50.9344 77.1726 50.4802 76.9097 50.1157L49.0197 11.3589Z" fill="#F0B90B"/>
<path d="M150.778 209.41C151.034 209.775 151.425 210.024 151.865 210.102C152.306 210.183 152.761 210.086 153.13 209.832L192.377 182.761C193.138 182.224 193.319 181.17 192.781 180.409C192.53 180.054 192.151 179.809 191.724 179.726L173.472 176.347L181.153 134.864C181.322 133.948 180.717 133.067 179.801 132.898L153.252 127.982C152.335 127.812 151.455 128.417 151.285 129.334L143.604 170.816L125.422 167.45C124.506 167.278 123.624 167.882 123.453 168.798C123.37 169.24 123.467 169.696 123.722 170.066L150.778 209.41Z" fill="#D80027"/>
<defs>
<filter id="filter0_d" x="16.5808" y="0.322266" width="165.839" height="220.356" filterUnits="userSpaceOnUse" color-interpolation-filters="sRGB">
<feFlood flood-opacity="0" result="BackgroundImageFix"/>
<feColorMatrix in="SourceAlpha" type="matrix" values="0 0 0 0 0 0 0 0 0 0 0 0 0 0 0 0 0 0 127 0"/>
<feOffset dy="1"/>
<feColorMatrix type="matrix" values="0 0 0 0 0 0 0 0 0 0 0 0 0 0 0 0 0 0 0.25 0"/>
<feBlend mode="normal" in2="BackgroundImageFix" result="effect1_dropShadow"/>
<feBlend mode="normal" in="SourceGraphic" in2="effect1_dropShadow" result="shape"/>
</filter>
<clipPath id="clip0">
<rect width="80" height="80" fill="white" transform="translate(64.0598 89) rotate(9.39549)"/>
</clipPath>
</defs>
</svg>
