<svg width="168" height="168" viewBox="0 0 168 168" fill="none" xmlns="http://www.w3.org/2000/svg">
<path fill-rule="evenodd" clip-rule="evenodd" d="M42 84L0 42L42 0L84 42L42 84ZM56.7295 27V27.0001C56.6108 27.0003 56.4943 27.0319 56.3916 27.0915L56.3911 27.0909C56.3911 27.0909 54.5434 28.1512 53.7591 28.5846C53.1162 28.9399 53.0695 29.3675 53.0732 29.5119C53.0695 29.6564 53.1162 30.084 53.7591 30.4392C54.5434 30.8726 56.3911 31.9329 56.3911 31.9329L56.3916 31.9323C56.4943 31.9919 56.6108 32.0234 56.7295 32.0237C56.9088 32.0236 57.0808 31.9524 57.2075 31.8255C57.3343 31.6987 57.4055 31.5266 57.4055 31.3472C57.4054 31.2285 57.374 31.1119 57.3146 31.0091C57.2551 30.9064 57.1697 30.8211 57.0669 30.7618L57.0674 30.7608L54.7909 29.5118L57.0675 28.2628L57.067 28.2618C57.1698 28.2026 57.2552 28.1173 57.3147 28.0145C57.3741 27.9117 57.4055 27.7951 57.4056 27.6764C57.4056 27.497 57.3344 27.325 57.2076 27.1981C57.0808 27.0713 56.9089 27 56.7296 27L56.7295 27ZM41.2491 27.3621C40.9438 27.3621 40.6416 27.4222 40.3595 27.5391C40.0775 27.656 39.8212 27.8273 39.6054 28.0432C39.3895 28.2592 39.2183 28.5155 39.1015 28.7977C38.9847 29.0799 38.9245 29.3823 38.9245 29.6877C38.9245 29.9931 38.9846 30.2956 39.1015 30.5777C39.2183 30.8599 39.3895 31.1163 39.6054 31.3323C39.8212 31.5482 40.0775 31.7195 40.3595 31.8364C40.6415 31.9533 40.9438 32.0134 41.2491 32.0134C41.5543 32.0134 41.8566 31.9533 42.1386 31.8364C42.4207 31.7195 42.6769 31.5482 42.8928 31.3322C43.1086 31.1163 43.2798 30.8599 43.3966 30.5777C43.5134 30.2955 43.5736 29.9931 43.5735 29.6877C43.5735 29.0709 43.3286 28.4794 42.8927 28.0433C42.4568 27.6071 41.8656 27.3621 41.2491 27.3621ZM65.1363 35.1147C64.8459 35.1151 64.5596 35.1835 64.3002 35.3143C64.0408 35.4451 63.8156 35.6347 63.6425 35.8681L63.6393 35.8657L59.9469 41.0599L59.9536 41.0621C59.7165 41.3802 59.587 41.7657 59.584 42.1625C59.587 42.5592 59.7165 42.9447 59.9536 43.2627L59.9469 43.265L63.6393 48.4592L63.6425 48.4569C63.8156 48.6902 64.0408 48.8798 64.3002 49.0106C64.5596 49.1414 64.8459 49.2098 65.1363 49.2102C65.3811 49.2102 65.6234 49.162 65.8495 49.0683C66.0756 48.9746 66.2811 48.8372 66.4541 48.6641C66.6272 48.491 66.7645 48.2854 66.8581 48.0592C66.9518 47.833 67 47.5905 67 47.3457C66.9992 46.9614 66.8798 46.5868 66.6581 46.2731L66.6603 46.2715L63.737 42.1625L66.6603 38.0535L66.6581 38.0518C66.8798 37.7381 66.9992 37.3635 67 36.9793C67 36.7345 66.9518 36.492 66.8582 36.2658C66.7645 36.0395 66.6272 35.834 66.4542 35.6608C66.2811 35.4877 66.0757 35.3503 65.8495 35.2566C65.6234 35.1629 65.3811 35.1147 65.1363 35.1147ZM38.8232 52.0362C38.3063 52.0362 37.8873 52.4759 37.8872 53.0183C37.8875 53.3927 38.0905 53.7343 38.4108 53.8993C43.8324 57.3015 48.5976 56.9927 48.5976 56.9927C48.5976 56.9927 53.3627 57.3015 58.7844 53.8993C59.1046 53.7343 59.3077 53.3927 59.3079 53.0183C59.3079 52.4759 58.8888 52.0362 58.372 52.0362C58.1746 52.0368 57.9823 52.1025 57.8228 52.2244L57.7411 52.2787C57.7411 52.2787 53.6752 55.1391 48.5976 55.0515C43.52 55.1391 39.454 52.2787 39.454 52.2787L39.3724 52.2244C39.2128 52.1025 39.0206 52.0366 38.8232 52.0362ZM18.1253 35.1727C18.3464 35.0811 18.5834 35.0339 18.8228 35.0339L18.8358 35.034H19.3204H20.6455H22.931L22.9617 35.0339C23.4398 35.0339 23.9134 35.1281 24.3552 35.3112C24.7969 35.4943 25.1984 35.7627 25.5365 36.101C25.8746 36.4393 26.1429 36.8409 26.3258 37.2829C26.5088 37.7249 26.603 38.1986 26.603 38.6771C26.603 39.1781 26.4997 39.6737 26.2995 40.1329C26.0994 40.5922 25.8067 41.0052 25.4398 41.3461C26.1108 41.7 26.6725 42.2304 27.0643 42.8802C27.4561 43.5299 27.6631 44.2744 27.6632 45.0332C27.6632 46.1386 27.2242 47.1988 26.443 47.9805C25.6617 48.7621 24.6021 49.2013 23.4972 49.2013H23.4971H20.6456H19.3312H18.8229V49.2012C18.3395 49.2012 17.8759 49.009 17.5341 48.6671C17.1923 48.3251 17.0002 47.8613 17.0002 47.3777L17.0001 47.3776L17 36.8577L17.0001 36.8576C17.0001 36.6181 17.0472 36.381 17.1388 36.1597C17.2304 35.9385 17.3647 35.7374 17.5339 35.5681C17.7032 35.3987 17.9041 35.2644 18.1253 35.1727ZM30.2629 35.1727C30.484 35.0811 30.721 35.0339 30.9604 35.0339C31.1998 35.0339 31.4368 35.0811 31.658 35.1727C31.8791 35.2644 32.0801 35.3987 32.2493 35.568C32.4186 35.7374 32.5529 35.9384 32.6445 36.1597C32.7361 36.381 32.7832 36.6181 32.7832 36.8576L32.7831 36.8707V45.554H35.8467L35.8675 45.5539C36.3509 45.5539 36.8145 45.746 37.1563 46.088C37.4981 46.43 37.6902 46.8938 37.6902 47.3774C37.6902 47.6169 37.6431 47.8541 37.5515 48.0753C37.4599 48.2966 37.3256 48.4976 37.1564 48.667C36.9871 48.8363 36.7862 48.9707 36.565 49.0623C36.3439 49.154 36.1069 49.2011 35.8675 49.2012H35.8673V49.2013H30.9604L30.9603 49.2012C30.477 49.2011 30.0135 49.009 29.6717 48.667C29.3299 48.3251 29.1379 47.8613 29.1378 47.3778L29.1376 47.3776V36.8577H29.1377V36.8576C29.1377 36.6181 29.1849 36.381 29.2764 36.1597C29.368 35.9385 29.5023 35.7374 29.6716 35.5681C29.8408 35.3987 30.0417 35.2644 30.2629 35.1727ZM51.0222 35.0602C51.1941 35.0441 51.3667 35.0353 51.5394 35.034H51.5398C51.7126 35.0353 51.8853 35.0441 52.0573 35.0602C52.1508 35.0694 52.2441 35.0807 52.3371 35.0942C52.4448 35.1076 52.5521 35.1239 52.6589 35.1431C52.745 35.1605 52.8308 35.1797 52.9161 35.2009C53.0279 35.2261 53.139 35.2545 53.2492 35.2861C53.3277 35.3104 53.4056 35.3364 53.483 35.3639C53.5968 35.4017 53.7095 35.4429 53.8209 35.4875C53.8923 35.5178 53.9632 35.5495 54.0334 35.5826C54.1471 35.6334 54.2593 35.6876 54.3696 35.7453C54.4333 35.7804 54.4963 35.8166 54.5587 35.8539C54.6713 35.9181 54.7818 35.986 54.89 36.0574C54.9456 36.0958 55.0006 36.1351 55.0549 36.1753C55.1646 36.2532 55.2717 36.3347 55.376 36.4198C55.4238 36.4605 55.471 36.502 55.5175 36.5442C55.6227 36.6358 55.7248 36.731 55.8234 36.8296C55.8638 36.8718 55.9036 36.9145 55.9428 36.9578C56.0408 37.0618 56.1352 37.1694 56.2256 37.2802C56.2601 37.3244 56.294 37.3691 56.3273 37.4143C56.4164 37.5299 56.5012 37.6487 56.5816 37.7704C56.6093 37.8144 56.6365 37.8588 56.6632 37.9036C56.7423 38.0307 56.8167 38.1607 56.8862 38.2933C56.9081 38.3371 56.9294 38.3812 56.9501 38.4255C57.0175 38.5622 57.0798 38.7015 57.1367 38.843C57.1534 38.8873 57.1696 38.9317 57.1853 38.9764C57.2392 39.1204 57.2876 39.2665 57.3303 39.4142C57.3423 39.4587 57.3537 39.5034 57.3646 39.5482C57.4044 39.6987 57.4384 39.8506 57.4665 40.0037C57.4734 40.0467 57.4798 40.0898 57.4858 40.1329C57.5108 40.2881 57.5297 40.4443 57.5425 40.601C57.5507 40.6998 57.5564 40.7989 57.5597 40.898H57.5611V40.9372C57.5631 40.9791 57.5645 41.021 57.5656 41.0629L57.5638 41.1121H57.563H57.5609V47.4154H57.5601C57.5545 47.8932 57.3609 48.3496 57.0213 48.6856C56.6816 49.0215 56.2233 49.21 55.7457 49.2102C55.2681 49.2099 54.8099 49.0214 54.4703 48.6854C54.1307 48.3495 53.9372 47.8932 53.9316 47.4154H53.9306V47.3941V40.9099C53.8998 40.4273 53.724 39.9652 53.4262 39.5843C53.1284 39.2034 52.7226 38.9213 52.2618 38.7752C52.1925 38.7536 52.1223 38.7351 52.0513 38.7199L52.0284 38.7141C51.9717 38.703 51.9147 38.6939 51.8574 38.6869C51.8463 38.6851 51.8351 38.6833 51.824 38.6816C51.812 38.6798 51.8 38.678 51.7879 38.6764C51.7443 38.6727 51.7007 38.6702 51.657 38.6689C51.6179 38.666 51.5788 38.664 51.5397 38.663H51.5395C51.5052 38.664 51.471 38.6657 51.4368 38.6682C51.3878 38.6695 51.339 38.6723 51.2902 38.6766C51.2705 38.6793 51.2508 38.6823 51.2312 38.6855C51.1706 38.6927 51.1104 38.7022 51.0505 38.7141L51.0326 38.7186C50.5232 38.8294 50.0638 39.1032 49.7239 39.4986C49.3839 39.894 49.1819 40.3894 49.1486 40.9099V47.3941V47.4154H49.1476C49.142 47.8931 48.9484 48.3495 48.6088 48.6854C48.2693 49.0214 47.811 49.2099 47.3335 49.2102C46.8558 49.21 46.3975 49.0215 46.0579 48.6855C45.7182 48.3496 45.5246 47.8932 45.519 47.4154H45.5182V41.1121H45.5162H45.5156L45.5138 41.0629C45.5142 41.0455 45.5147 41.0281 45.5153 41.0108C45.5161 40.9862 45.5171 40.9617 45.5182 40.9372V40.898H45.5196C45.5229 40.7988 45.5287 40.6998 45.5369 40.6009C45.5496 40.4457 45.5682 40.2911 45.5929 40.1373C45.5992 40.092 45.606 40.0467 45.6134 40.0014C45.6413 39.8497 45.675 39.6991 45.7144 39.5499C45.7255 39.5044 45.737 39.4591 45.7491 39.414C45.7919 39.2663 45.8402 39.1204 45.8941 38.9764C45.9099 38.9317 45.9261 38.8872 45.9429 38.8429C45.9994 38.7023 46.0612 38.5638 46.1282 38.4279C46.1494 38.3824 46.1713 38.3372 46.1936 38.2923C46.2629 38.1602 46.3371 38.0307 46.416 37.9041C46.4427 37.8592 46.47 37.8146 46.4979 37.7704C46.5783 37.6487 46.663 37.5299 46.752 37.4143C46.7854 37.3691 46.8193 37.3244 46.8539 37.2802C46.9443 37.1694 47.0386 37.0618 47.1367 36.9578C47.1759 36.9145 47.2157 36.8718 47.2561 36.8296C47.3547 36.731 47.4567 36.6358 47.562 36.5442C47.6085 36.502 47.6557 36.4605 47.7035 36.4198C47.8075 36.335 47.9143 36.2536 48.0238 36.1759C48.0785 36.1353 48.1339 36.0957 48.1899 36.057C48.2975 35.9861 48.4073 35.9186 48.5192 35.8547C48.5823 35.817 48.646 35.7804 48.7103 35.745C48.8203 35.6876 48.9319 35.6335 49.0452 35.5829C49.1157 35.5497 49.1868 35.5179 49.2586 35.4875C49.3699 35.4429 49.4826 35.4017 49.5964 35.3639C49.6737 35.3364 49.7517 35.3104 49.8301 35.2861C49.9403 35.2545 50.0514 35.2261 50.1632 35.2009C50.2486 35.1797 50.3344 35.1605 50.4206 35.1431C50.5274 35.1239 50.6346 35.1076 50.7422 35.0942C50.8353 35.0807 50.9286 35.0694 51.0222 35.0602ZM40.0511 35.6762C40.3903 35.3422 40.847 35.1549 41.3229 35.1545H41.3231C41.7991 35.1547 42.256 35.342 42.5952 35.676C42.9345 36.01 43.1291 36.464 43.137 36.9402H43.1381V36.9705V47.3941V47.5191H43.1317C43.1001 47.9777 42.8959 48.4072 42.5602 48.721C42.2245 49.0349 41.7823 49.2097 41.3229 49.2102C40.8632 49.2101 40.4206 49.0356 40.0845 48.7217C39.7484 48.4078 39.5439 47.978 39.5122 47.5191H39.5079V47.3941V36.9705V36.9402H39.5095C39.5174 36.4641 39.7119 36.0102 40.0511 35.6762ZM22.22 37.8339H20.5421V40.4324H22.2473V40.4322C22.5887 40.4277 22.9146 40.2889 23.1545 40.0457C23.3944 39.8026 23.5288 39.4747 23.5288 39.1331C23.5288 38.7915 23.3943 38.4636 23.1545 38.2205C22.9146 37.9774 22.5887 37.8386 22.2473 37.8341V37.8339H22.2302H22.22ZM22.8531 43.5272H20.5422L20.5422 46.5391H22.8386L22.8505 46.5392C23.0482 46.5392 23.2439 46.5003 23.4265 46.4246C23.6092 46.3489 23.7751 46.238 23.9149 46.0981C24.0547 45.9583 24.1655 45.7923 24.2412 45.6095C24.3168 45.4268 24.3558 45.231 24.3558 45.0332C24.3558 44.6342 24.1975 44.2516 23.9158 43.9692C23.634 43.6869 23.2518 43.5279 22.8531 43.5273V43.5272Z" fill="black"/>
<path fill-rule="evenodd" clip-rule="evenodd" d="M84 42L126 84L168 42L126 0L84 42ZM118.62 38.968L126 31.5886L133.383 38.9718L137.677 34.6778L126 23L114.326 34.674L118.62 38.968ZM107 41.9993L111.294 37.7053L115.588 41.9991L111.294 46.2931L107 41.9993ZM126 52.4115L118.62 45.0321L114.32 49.3204L126 61L137.677 49.3225L137.679 49.3202L133.383 45.0285L126 52.4115ZM136.412 42.0018L140.706 37.7076L145 42.0015L140.706 46.2957L136.412 42.0018ZM126 37.6404L130.355 41.9977L130.359 41.9998L130.357 42.0023L126 46.3595L121.646 42.0061L121.64 41.9998L121.646 41.9939L126 37.6404Z" fill="black"/>
<path d="M84 42L42 0L84 -42L126 0L84 42Z" stroke="black"/>
<path d="M0 42L-42 0L0 -42L42 0L0 42Z" stroke="black"/>
<path d="M-4.84288e-07 -5.575V14C-3.27337 10.7656 -10.5143 3.6725 -12.9524 1.175C-16 -1.94687 -16 -4.30937 -16 -5.15312C-16 -5.99687 -15.4074 -13 -8.04233 -13C-2.15026 -13 -0.197531 -8.05 -4.84288e-07 -5.575Z" fill="black"/>
<path d="M-4.84288e-07 -5.575V14C3.27337 10.7656 10.5143 3.6725 12.9524 1.175C16 -1.94687 16 -4.30937 16 -5.15312C16 -5.99687 15.4074 -13 8.04233 -13C2.15026 -13 0.19753 -8.05 -4.84288e-07 -5.575Z" fill="black"/>
<path d="M70 -1.89498e-07L84 16V-1.89498e-07H70Z" fill="black"/>
<path d="M70 -1.89498e-07L84 -16L84 -1.89498e-07H70Z" fill="black"/>
<path d="M98 -1.89498e-07L84 16V-1.89498e-07H98Z" fill="black"/>
<path d="M98 -1.89498e-07L84 -16L84 -1.89498e-07H98Z" fill="black"/>
<path fill-rule="evenodd" clip-rule="evenodd" d="M42 168L0 126L42 84L84 126L42 168ZM56.7295 111V111C56.6108 111 56.4943 111.032 56.3916 111.091L56.3911 111.091C56.3911 111.091 54.5434 112.151 53.7591 112.585C53.1162 112.94 53.0695 113.367 53.0732 113.512C53.0695 113.656 53.1162 114.084 53.7591 114.439C54.5434 114.873 56.3911 115.933 56.3911 115.933L56.3916 115.932C56.4943 115.992 56.6108 116.023 56.7295 116.024C56.9088 116.024 57.0808 115.952 57.2075 115.826C57.3343 115.699 57.4055 115.527 57.4055 115.347C57.4054 115.229 57.374 115.112 57.3146 115.009C57.2551 114.906 57.1697 114.821 57.0669 114.762L57.0674 114.761L54.7909 113.512L57.0675 112.263L57.067 112.262C57.1698 112.203 57.2552 112.117 57.3147 112.015C57.3741 111.912 57.4055 111.795 57.4056 111.676C57.4056 111.497 57.3344 111.325 57.2076 111.198C57.0808 111.071 56.9089 111 56.7296 111L56.7295 111ZM41.2491 111.362C40.9438 111.362 40.6416 111.422 40.3595 111.539C40.0775 111.656 39.8212 111.827 39.6054 112.043C39.3895 112.259 39.2183 112.516 39.1015 112.798C38.9847 113.08 38.9245 113.382 38.9245 113.688C38.9245 113.993 38.9846 114.296 39.1015 114.578C39.2183 114.86 39.3895 115.116 39.6054 115.332C39.8212 115.548 40.0775 115.72 40.3595 115.836C40.6415 115.953 40.9438 116.013 41.2491 116.013C41.5543 116.013 41.8566 115.953 42.1386 115.836C42.4207 115.719 42.6769 115.548 42.8928 115.332C43.1086 115.116 43.2798 114.86 43.3966 114.578C43.5134 114.296 43.5736 113.993 43.5735 113.688C43.5735 113.071 43.3286 112.479 42.8927 112.043C42.4568 111.607 41.8656 111.362 41.2491 111.362ZM65.1363 119.115C64.8459 119.115 64.5596 119.183 64.3002 119.314C64.0408 119.445 63.8156 119.635 63.6425 119.868L63.6393 119.866L59.9469 125.06L59.9536 125.062C59.7165 125.38 59.587 125.766 59.584 126.162C59.587 126.559 59.7165 126.945 59.9536 127.263L59.9469 127.265L63.6393 132.459L63.6425 132.457C63.8156 132.69 64.0408 132.88 64.3002 133.011C64.5596 133.141 64.8459 133.21 65.1363 133.21C65.3811 133.21 65.6234 133.162 65.8495 133.068C66.0756 132.975 66.2811 132.837 66.4541 132.664C66.6272 132.491 66.7645 132.285 66.8581 132.059C66.9518 131.833 67 131.591 67 131.346C66.9992 130.961 66.8798 130.587 66.6581 130.273L66.6603 130.272L63.737 126.162L66.6603 122.053L66.6581 122.052C66.8798 121.738 66.9992 121.364 67 120.979C67 120.734 66.9518 120.492 66.8582 120.266C66.7645 120.04 66.6272 119.834 66.4542 119.661C66.2811 119.488 66.0757 119.35 65.8495 119.257C65.6234 119.163 65.3811 119.115 65.1363 119.115ZM38.8232 136.036C38.3063 136.036 37.8873 136.476 37.8872 137.018C37.8875 137.393 38.0905 137.734 38.4108 137.899C43.8324 141.302 48.5976 140.993 48.5976 140.993C48.5976 140.993 53.3627 141.302 58.7844 137.899C59.1046 137.734 59.3077 137.393 59.3079 137.018C59.3079 136.476 58.8888 136.036 58.372 136.036C58.1746 136.037 57.9823 136.103 57.8228 136.224L57.7411 136.279C57.7411 136.279 53.6752 139.139 48.5976 139.052C43.52 139.139 39.454 136.279 39.454 136.279L39.3724 136.224C39.2128 136.103 39.0206 136.037 38.8232 136.036ZM18.1253 119.173C18.3464 119.081 18.5834 119.034 18.8228 119.034L18.8358 119.034H19.3204H20.6455H22.931L22.9617 119.034C23.4398 119.034 23.9134 119.128 24.3552 119.311C24.7969 119.494 25.1984 119.763 25.5365 120.101C25.8746 120.439 26.1429 120.841 26.3258 121.283C26.5088 121.725 26.603 122.199 26.603 122.677C26.603 123.178 26.4997 123.674 26.2995 124.133C26.0994 124.592 25.8067 125.005 25.4398 125.346C26.1108 125.7 26.6725 126.23 27.0643 126.88C27.4561 127.53 27.6631 128.274 27.6632 129.033C27.6632 130.139 27.2242 131.199 26.443 131.98C25.6617 132.762 24.6021 133.201 23.4972 133.201H23.4971H20.6456H19.3312H18.8229V133.201C18.3395 133.201 17.8759 133.009 17.5341 132.667C17.1923 132.325 17.0002 131.861 17.0002 131.378L17.0001 131.378L17 120.858L17.0001 120.858C17.0001 120.618 17.0472 120.381 17.1388 120.16C17.2304 119.938 17.3647 119.737 17.5339 119.568C17.7032 119.399 17.9041 119.264 18.1253 119.173ZM30.2629 119.173C30.484 119.081 30.721 119.034 30.9604 119.034C31.1998 119.034 31.4368 119.081 31.658 119.173C31.8791 119.264 32.0801 119.399 32.2493 119.568C32.4186 119.737 32.5529 119.938 32.6445 120.16C32.7361 120.381 32.7832 120.618 32.7832 120.858L32.7831 120.871V129.554H35.8467L35.8675 129.554C36.3509 129.554 36.8145 129.746 37.1563 130.088C37.4981 130.43 37.6902 130.894 37.6902 131.377C37.6902 131.617 37.6431 131.854 37.5515 132.075C37.4599 132.297 37.3256 132.498 37.1564 132.667C36.9871 132.836 36.7862 132.971 36.565 133.062C36.3439 133.154 36.1069 133.201 35.8675 133.201H35.8673V133.201H30.9604L30.9603 133.201C30.477 133.201 30.0135 133.009 29.6717 132.667C29.3299 132.325 29.1379 131.861 29.1378 131.378L29.1376 131.378V120.858H29.1377V120.858C29.1377 120.618 29.1849 120.381 29.2764 120.16C29.368 119.938 29.5023 119.737 29.6716 119.568C29.8408 119.399 30.0417 119.264 30.2629 119.173ZM51.0222 119.06C51.1941 119.044 51.3667 119.035 51.5394 119.034H51.5398C51.7126 119.035 51.8853 119.044 52.0573 119.06C52.1508 119.069 52.2441 119.081 52.3371 119.094C52.4448 119.108 52.5521 119.124 52.6589 119.143C52.745 119.16 52.8308 119.18 52.9161 119.201C53.0279 119.226 53.139 119.255 53.2492 119.286C53.3277 119.31 53.4056 119.336 53.483 119.364C53.5968 119.402 53.7095 119.443 53.8209 119.487C53.8923 119.518 53.9632 119.55 54.0334 119.583C54.1471 119.633 54.2593 119.688 54.3696 119.745C54.4333 119.78 54.4963 119.817 54.5587 119.854C54.6713 119.918 54.7818 119.986 54.89 120.057C54.9456 120.096 55.0006 120.135 55.0549 120.175C55.1646 120.253 55.2717 120.335 55.376 120.42C55.4238 120.461 55.471 120.502 55.5175 120.544C55.6227 120.636 55.7248 120.731 55.8234 120.83C55.8638 120.872 55.9036 120.914 55.9428 120.958C56.0408 121.062 56.1352 121.169 56.2256 121.28C56.2601 121.324 56.294 121.369 56.3273 121.414C56.4164 121.53 56.5012 121.649 56.5816 121.77C56.6093 121.814 56.6365 121.859 56.6632 121.904C56.7423 122.031 56.8167 122.161 56.8862 122.293C56.9081 122.337 56.9294 122.381 56.9501 122.425C57.0175 122.562 57.0798 122.702 57.1367 122.843C57.1534 122.887 57.1696 122.932 57.1853 122.976C57.2392 123.12 57.2876 123.266 57.3303 123.414C57.3423 123.459 57.3537 123.503 57.3646 123.548C57.4044 123.699 57.4384 123.851 57.4665 124.004C57.4734 124.047 57.4798 124.09 57.4858 124.133C57.5108 124.288 57.5297 124.444 57.5425 124.601C57.5507 124.7 57.5564 124.799 57.5597 124.898H57.5611V124.937C57.5631 124.979 57.5645 125.021 57.5656 125.063L57.5638 125.112H57.563H57.5609V131.415H57.5601C57.5545 131.893 57.3609 132.35 57.0213 132.686C56.6816 133.022 56.2233 133.21 55.7457 133.21C55.2681 133.21 54.8099 133.021 54.4703 132.685C54.1307 132.349 53.9372 131.893 53.9316 131.415H53.9306V131.394V124.91C53.8998 124.427 53.724 123.965 53.4262 123.584C53.1284 123.203 52.7226 122.921 52.2618 122.775C52.1925 122.754 52.1223 122.735 52.0513 122.72L52.0284 122.714C51.9717 122.703 51.9147 122.694 51.8574 122.687C51.8463 122.685 51.8351 122.683 51.824 122.682C51.812 122.68 51.8 122.678 51.7879 122.676C51.7443 122.673 51.7007 122.67 51.657 122.669C51.6179 122.666 51.5788 122.664 51.5397 122.663H51.5395C51.5052 122.664 51.471 122.666 51.4368 122.668C51.3878 122.669 51.339 122.672 51.2902 122.677C51.2705 122.679 51.2508 122.682 51.2312 122.685C51.1706 122.693 51.1104 122.702 51.0505 122.714L51.0326 122.719C50.5232 122.829 50.0638 123.103 49.7239 123.499C49.3839 123.894 49.1819 124.389 49.1486 124.91V131.394V131.415H49.1476C49.142 131.893 48.9484 132.349 48.6088 132.685C48.2693 133.021 47.811 133.21 47.3335 133.21C46.8558 133.21 46.3975 133.022 46.0579 132.686C45.7182 132.35 45.5246 131.893 45.519 131.415H45.5182V125.112H45.5162H45.5156L45.5138 125.063C45.5142 125.045 45.5147 125.028 45.5153 125.011C45.5161 124.986 45.5171 124.962 45.5182 124.937V124.898H45.5196C45.5229 124.799 45.5287 124.7 45.5369 124.601C45.5496 124.446 45.5682 124.291 45.5929 124.137C45.5992 124.092 45.606 124.047 45.6134 124.001C45.6413 123.85 45.675 123.699 45.7144 123.55C45.7255 123.504 45.737 123.459 45.7491 123.414C45.7919 123.266 45.8402 123.12 45.8941 122.976C45.9099 122.932 45.9261 122.887 45.9429 122.843C45.9994 122.702 46.0612 122.564 46.1282 122.428C46.1494 122.382 46.1713 122.337 46.1936 122.292C46.2629 122.16 46.3371 122.031 46.416 121.904C46.4427 121.859 46.47 121.815 46.4979 121.77C46.5783 121.649 46.663 121.53 46.752 121.414C46.7854 121.369 46.8193 121.324 46.8539 121.28C46.9443 121.169 47.0386 121.062 47.1367 120.958C47.1759 120.914 47.2157 120.872 47.2561 120.83C47.3547 120.731 47.4567 120.636 47.562 120.544C47.6085 120.502 47.6557 120.461 47.7035 120.42C47.8075 120.335 47.9143 120.254 48.0238 120.176C48.0785 120.135 48.1339 120.096 48.1899 120.057C48.2975 119.986 48.4073 119.919 48.5192 119.855C48.5823 119.817 48.646 119.78 48.7103 119.745C48.8203 119.688 48.9319 119.634 49.0452 119.583C49.1157 119.55 49.1868 119.518 49.2586 119.487C49.3699 119.443 49.4826 119.402 49.5964 119.364C49.6737 119.336 49.7517 119.31 49.8301 119.286C49.9403 119.255 50.0514 119.226 50.1632 119.201C50.2486 119.18 50.3344 119.16 50.4206 119.143C50.5274 119.124 50.6346 119.108 50.7422 119.094C50.8353 119.081 50.9286 119.069 51.0222 119.06ZM40.0511 119.676C40.3903 119.342 40.847 119.155 41.3229 119.154H41.3231C41.7991 119.155 42.256 119.342 42.5952 119.676C42.9345 120.01 43.1291 120.464 43.137 120.94H43.1381V120.971V131.394V131.519H43.1317C43.1001 131.978 42.8959 132.407 42.5602 132.721C42.2245 133.035 41.7823 133.21 41.3229 133.21C40.8632 133.21 40.4206 133.036 40.0845 132.722C39.7484 132.408 39.5439 131.978 39.5122 131.519H39.5079V131.394V120.971V120.94H39.5095C39.5174 120.464 39.7119 120.01 40.0511 119.676ZM22.22 121.834H20.5421V124.432H22.2473V124.432C22.5887 124.428 22.9146 124.289 23.1545 124.046C23.3944 123.803 23.5288 123.475 23.5288 123.133C23.5288 122.791 23.3943 122.464 23.1545 122.221C22.9146 121.977 22.5887 121.839 22.2473 121.834V121.834H22.2302H22.22ZM22.8531 127.527H20.5422L20.5422 130.539H22.8386L22.8505 130.539C23.0482 130.539 23.2439 130.5 23.4265 130.425C23.6092 130.349 23.7751 130.238 23.9149 130.098C24.0547 129.958 24.1655 129.792 24.2412 129.61C24.3168 129.427 24.3558 129.231 24.3558 129.033C24.3558 128.634 24.1975 128.252 23.9158 127.969C23.634 127.687 23.2518 127.528 22.8531 127.527V127.527Z" fill="black"/>
<path fill-rule="evenodd" clip-rule="evenodd" d="M84 126L126 168L168 126L126 84L84 126ZM118.62 122.968L126 115.589L133.383 122.972L137.677 118.678L126 107L114.326 118.674L118.62 122.968ZM107 125.999L111.294 121.705L115.588 125.999L111.294 130.293L107 125.999ZM126 136.411L118.62 129.032L114.32 133.32L126 145L137.677 133.322L137.679 133.32L133.383 129.028L126 136.411ZM136.412 126.002L140.706 121.708L145 126.001L140.706 130.296L136.412 126.002ZM126 121.64L130.355 125.998L130.359 126L130.357 126.002L126 130.36L121.646 126.006L121.64 126L121.646 125.994L126 121.64Z" fill="black"/>
<path d="M84 210L42 168L84 126L126 168L84 210Z" stroke="black"/>
<path d="M84 126L42 84L84 42L126 84L84 126Z" stroke="black"/>
<path d="M0 126L-42 84L0 42L42 84L0 126Z" stroke="black"/>
<path d="M0 210L-42 168L0 126L42 168L0 210Z" stroke="black"/>
<path d="M-4.84288e-07 162.425V182C-3.27337 178.766 -10.5143 171.673 -12.9524 169.175C-16 166.053 -16 163.691 -16 162.847C-16 162.003 -15.4074 155 -8.04233 155C-2.15026 155 -0.197531 159.95 -4.84288e-07 162.425Z" fill="black"/>
<path d="M-4.84288e-07 162.425V182C3.27337 178.766 10.5143 171.673 12.9524 169.175C16 166.053 16 163.691 16 162.847C16 162.003 15.4074 155 8.04233 155C2.15026 155 0.19753 159.95 -4.84288e-07 162.425Z" fill="black"/>
<path d="M83.5 68V100H76.561C78.1231 99.2768 81.4273 96.9085 82.1483 93.2203C82.5593 91.1176 82.7555 90.1491 82.8371 89.772C82.1332 91.4224 79.738 94.5763 75.4797 94.5763C70.0727 94.5763 68 88.8814 68 86.8927C68 84.904 68.0901 83.3672 71.4244 80.113C74.0919 77.5096 80.6163 70.9228 83.5 68Z" fill="black"/>
<path d="M83.5 68V100H90.439C88.8769 99.2768 85.5727 96.9085 84.8517 93.2203C84.4407 91.1176 84.2445 90.1491 84.1629 89.772C84.8668 91.4224 87.262 94.5763 91.5203 94.5763C96.9273 94.5763 99 88.8814 99 86.8927C99 84.904 98.9099 83.3672 95.5756 80.113C92.9081 77.5096 86.3837 70.9228 83.5 68Z" fill="black"/>
<path d="M70 168L84 184V168H70Z" fill="black"/>
<path d="M70 168L84 152L84 168H70Z" fill="black"/>
<path d="M98 168L84 184V168H98Z" fill="black"/>
<path d="M98 168L84 152L84 168H98Z" fill="black"/>
<path d="M-1.21247e-05 100V68C-7.98126 68.2994 -8.32905 75.0487 -7.50529 78.386C-9.06127 78.1365 -12.7041 78.4608 -14.8275 81.7544C-16.951 85.048 -15.7123 88.616 -14.8275 89.9883C-14.2479 91.3918 -12.0085 94.1988 -7.68836 94.1988C-3.36824 94.1988 -1.12886 90.8928 -0.54918 89.2398C-0.579688 89.5517 -0.860374 90.9801 -1.73904 94.1988C-2.61771 97.4175 -5.58322 99.4074 -6.95613 100H-1.21247e-05Z" fill="black"/>
<path d="M-1.21247e-05 100V68C7.98123 68.2994 8.32905 75.0487 7.50529 78.386C9.06127 78.1365 12.7041 78.4608 14.8275 81.7544C16.951 85.048 15.7123 88.616 14.8275 89.9883C14.2479 91.3918 12.0085 94.1988 7.68836 94.1988C3.36824 94.1988 1.12886 90.8928 0.549181 89.2398C0.579689 89.5517 0.860375 90.9801 1.73904 94.1988C2.61771 97.4175 5.58322 99.4074 6.95613 100H-1.21247e-05Z" fill="black"/>
<path d="M168 42L126 0L168 -42L210 0L168 42Z" stroke="black"/>
<path d="M168 -5.575V14C164.727 10.7656 157.486 3.6725 155.048 1.175C152 -1.94687 152 -4.30937 152 -5.15312C152 -5.99687 152.593 -13 159.958 -13C165.85 -13 167.802 -8.05 168 -5.575Z" fill="black"/>
<path d="M168 -5.575V14C171.273 10.7656 178.514 3.6725 180.952 1.175C184 -1.94687 184 -4.30937 184 -5.15312C184 -5.99687 183.407 -13 176.042 -13C170.15 -13 168.198 -8.05 168 -5.575Z" fill="black"/>
<path d="M168 126L126 84L168 42L210 84L168 126Z" stroke="black"/>
<path d="M168 210L126 168L168 126L210 168L168 210Z" stroke="black"/>
<path d="M168 162.425V182C164.727 178.766 157.486 171.673 155.048 169.175C152 166.053 152 163.691 152 162.847C152 162.003 152.593 155 159.958 155C165.85 155 167.802 159.95 168 162.425Z" fill="black"/>
<path d="M168 162.425V182C171.273 178.766 178.514 171.673 180.952 169.175C184 166.053 184 163.691 184 162.847C184 162.003 183.407 155 176.042 155C170.15 155 168.198 159.95 168 162.425Z" fill="black"/>
<path d="M168 100V68C160.019 68.2994 159.671 75.0487 160.495 78.386C158.939 78.1365 155.296 78.4608 153.172 81.7544C151.049 85.048 152.288 88.616 153.172 89.9883C153.752 91.3918 155.992 94.1988 160.312 94.1988C164.632 94.1988 166.871 90.8928 167.451 89.2398C167.42 89.5517 167.14 90.9801 166.261 94.1988C165.382 97.4175 162.417 99.4074 161.044 100H168Z" fill="black"/>
<path d="M168 100V68C175.981 68.2994 176.329 75.0487 175.505 78.386C177.061 78.1365 180.704 78.4608 182.828 81.7544C184.951 85.048 183.712 88.616 182.828 89.9883C182.248 91.3918 180.008 94.1988 175.688 94.1988C171.368 94.1988 169.129 90.8928 168.549 89.2398C168.58 89.5517 168.86 90.9801 169.739 94.1988C170.618 97.4175 173.583 99.4074 174.956 100H168Z" fill="black"/>
</svg>
