<svg width="98" height="97" viewBox="0 0 98 97" fill="none" xmlns="http://www.w3.org/2000/svg">
<mask id="mask0" mask-type="alpha" maskUnits="userSpaceOnUse" x="0" y="0" width="98" height="97">
<path d="M29.5046 3.64809C31.8115 0.35248 36.5077 0.35248 38.5675 0.764432C49.1409 3.09882 71.606 8.01478 76.879 9.00346C82.152 9.99215 85.118 16.0066 85.9419 18.8903C88.8256 27.404 95.0873 45.9143 97.0646 51.8465C99.042 57.7786 97.0646 62.0079 95.8288 63.3811C88.0017 72.0321 71.6884 90.3227 69.0519 94.2775C66.4154 98.2322 58.3412 97.0238 54.6336 95.9253C45.9826 94.1402 27.28 90.3227 21.6775 89.3341C16.0749 88.3454 13.3011 83.4294 12.6145 81.095C9.31891 71.6201 2.31575 51.1873 0.667938 45.2552C-0.979869 39.3231 0.805255 35.3684 1.90379 34.1325C10.1428 25.3442 27.1976 6.94371 29.5046 3.64809Z" fill="#C4C4C4"/>
</mask>
<g mask="url(#mask0)">
<rect x="-11.2788" y="-5.41485" width="115.347" height="109.579" fill="#E2DFD6"/>
<path d="M79.7624 16.0066C83.058 12.711 82.2341 9.69005 81.4102 8.59151L64.1082 -5.8268C53.5348 -7.61193 32.1408 -11.1822 31.1521 -11.1822C30.1634 -11.1822 13.4382 2.82418 5.19914 9.82736L-1.39209 39.0759C12.2023 41.9596 40.215 47.8917 43.5107 48.5508C46.8063 49.21 50.3765 46.903 51.7497 45.6672C59.7141 37.1535 76.4668 19.3023 79.7624 16.0066Z" fill="#FFFBF0"/>
<path d="M63.6963 93.0416C65.0145 96.6668 63.147 98.1224 62.0485 98.397C54.6333 98.1224 39.6383 97.4907 38.9792 97.1611C38.1553 96.7492 10.5545 92.2177 9.31864 90.9819C8.08278 89.746 -0.568205 65.0289 -0.980157 64.205C-1.39211 63.3811 -1.80406 44.4313 -2.21602 41.5477C-2.54558 39.2407 1.21692 39.2133 3.13936 39.4879C15.6352 42.2343 41.4509 47.8093 44.7465 48.1389C48.0421 48.4685 49.4153 51.0226 49.6899 52.2584C53.8094 64.3423 62.378 89.4165 63.6963 93.0416Z" fill="#BFBFBD"/>
<path d="M42.4546 8.82323C43.0088 10.3163 40.6915 12.5536 37.2788 13.8203C33.8661 15.0871 30.6503 14.9036 30.096 13.4106C29.5418 11.9175 31.8591 9.68022 35.2718 8.41347C38.6846 7.14671 41.9004 7.33017 42.4546 8.82323Z" fill="#081C35"/>
<path d="M46.5741 21.1818C47.1283 22.6749 44.811 24.9121 41.3983 26.1789C37.9856 27.4456 34.7698 27.2622 34.2156 25.7691C33.6614 24.2761 35.9786 22.0388 39.3914 20.772C42.8041 19.5053 46.0199 19.6887 46.5741 21.1818Z" fill="#081C35"/>
<path d="M50.6936 33.5403C51.2478 35.0334 48.9306 37.2707 45.5178 38.5374C42.1051 39.8042 38.8893 39.6207 38.3351 38.1277C37.7809 36.6346 40.0982 34.3973 43.5109 33.1306C46.9236 31.8638 50.1394 32.0473 50.6936 33.5403Z" fill="#081C35"/>
<path d="M78.6134 47.3324C80.1412 47.7819 80.5469 50.9774 79.5194 54.4696C78.4919 57.9618 76.4203 60.4284 74.8925 59.9788C73.3647 59.5293 72.959 56.3339 73.9865 52.8417C75.014 49.3495 77.0856 46.8829 78.6134 47.3324Z" fill="#081C35"/>
<path d="M36.4298 55.5141C37.7518 54.6261 40.469 56.3559 42.4988 59.3777C44.5285 62.3995 45.1023 65.569 43.7802 66.457C42.4582 67.3451 39.741 65.6153 37.7112 62.5935C35.6815 59.5717 35.1077 56.4022 36.4298 55.5141Z" fill="#081C35"/>
<path d="M43.021 77.7595C44.343 76.8715 47.0602 78.6013 49.09 81.6231C51.1198 84.6449 51.6935 87.8144 50.3715 88.7024C49.0494 89.5905 46.3322 87.8607 44.3025 84.8389C42.2727 81.8171 41.6989 78.6475 43.021 77.7595Z" fill="#081C35"/>
<path d="M26.5429 64.5771C27.865 63.689 30.5821 65.4188 32.6119 68.4406C34.6417 71.4624 35.2154 74.632 33.8934 75.52C32.5714 76.408 29.8542 74.6783 27.8244 71.6565C25.7946 68.6346 25.2209 65.4651 26.5429 64.5771Z" fill="#081C35"/>
<path d="M10.0648 49.7468C11.3869 48.8588 14.1041 50.5885 16.1338 53.6103C18.1636 56.6322 18.7374 59.8017 17.4153 60.6897C16.0933 61.5778 13.3761 59.848 11.3463 56.8262C9.31654 53.8044 8.7428 50.6348 10.0648 49.7468Z" fill="#081C35"/>
<path d="M18.3039 73.64C19.6259 72.752 22.3431 74.4817 24.3729 77.5036C26.4027 80.5254 26.9764 83.6949 25.6544 84.5829C24.3323 85.471 21.6151 83.7412 19.5854 80.7194C17.5556 77.6976 16.9818 74.528 18.3039 73.64Z" fill="#081C35"/>
</g>
</svg>
