<svg width="36" height="24" viewBox="0 0 36 24" fill="none" xmlns="http://www.w3.org/2000/svg">
<path d="M27.9469 0C27.8538 0.000196499 27.7624 0.0254871 27.6819 0.0731661C27.6819 0.0731661 26.2328 0.920979 25.6178 1.26772C25.1137 1.55192 25.0771 1.89397 25.08 2.00955C25.0771 2.12512 25.1137 2.46717 25.6178 2.75137C26.2328 3.09811 27.6815 3.94635 27.6815 3.94635C27.762 3.99403 27.8538 4.01874 27.9469 4.01893C28.0875 4.01892 28.2223 3.9619 28.3217 3.86042C28.4211 3.75893 28.4769 3.6213 28.4769 3.47779C28.4768 3.38281 28.4522 3.28953 28.4056 3.20732C28.359 3.12512 28.2921 3.05688 28.2114 3.00948L28.2118 3.00865L26.4268 2.00947L28.2119 1.01028L28.2115 1.00945C28.2921 0.962047 28.3591 0.893812 28.4057 0.811606C28.4523 0.729401 28.4769 0.63612 28.477 0.54114C28.477 0.397631 28.4212 0.259997 28.3218 0.158512C28.2224 0.0570281 28.0875 1.17572e-05 27.9469 0ZM15.8087 0.289671C15.5694 0.289664 15.3323 0.337781 15.1112 0.431276C14.8901 0.52477 14.6891 0.661811 14.5199 0.834574C14.3506 1.00734 14.2164 1.21244 14.1248 1.43817C14.0332 1.6639 13.986 1.90583 13.986 2.15016C13.986 2.3945 14.0332 2.63645 14.1247 2.86219C14.2163 3.08792 14.3506 3.29303 14.5199 3.46581C14.6891 3.63858 14.89 3.77563 15.1112 3.86913C15.3323 3.96263 15.5693 4.01075 15.8087 4.01074C16.0481 4.01074 16.2851 3.96261 16.5062 3.8691C16.7273 3.7756 16.9283 3.63855 17.0975 3.46578C17.2668 3.29301 17.401 3.0879 17.4926 2.86216C17.5842 2.63643 17.6313 2.39449 17.6313 2.15016C17.6313 1.65673 17.4393 1.18351 17.0975 0.834605C16.7557 0.485696 16.2921 0.289678 15.8087 0.289671ZM34.5387 6.49175C34.3109 6.49209 34.0864 6.54677 33.8831 6.65141C33.6797 6.75606 33.5031 6.90778 33.3674 7.09446L33.3649 7.09256L30.4697 11.248L30.4749 11.2497C30.289 11.5042 30.1875 11.8126 30.1851 12.13C30.1875 12.4474 30.289 12.7557 30.4749 13.0102L30.4697 13.012L33.3649 17.1673L33.3674 17.1655C33.5031 17.3522 33.6797 17.5039 33.8831 17.6085C34.0864 17.7131 34.3109 17.7678 34.5387 17.7681C34.7306 17.7681 34.9206 17.7296 35.0979 17.6546C35.2752 17.5797 35.4363 17.4698 35.572 17.3313C35.7077 17.1928 35.8153 17.0283 35.8888 16.8474C35.9622 16.6664 36 16.4724 36 16.2765C35.9994 15.9691 35.9057 15.6694 35.7319 15.4185L35.7336 15.4172L33.4415 12.13L35.7336 8.84278L35.7319 8.84145C35.9057 8.59048 35.9994 8.29082 36 7.98346C36 7.78757 35.9622 7.59359 35.8888 7.41261C35.8153 7.23163 35.7077 7.06718 35.572 6.92866C35.4363 6.79014 35.2752 6.68026 35.0979 6.6053C34.9206 6.53034 34.7306 6.49175 34.5387 6.49175ZM13.9066 20.029C13.5013 20.029 13.1727 20.3807 13.1727 20.8147C13.1729 21.1141 13.3321 21.3875 13.5832 21.5194C17.8343 24.2412 21.5707 23.9942 21.5707 23.9942C21.5707 23.9942 25.307 24.2412 29.5581 21.5194C29.8092 21.3875 29.9684 21.1141 29.9686 20.8147C29.9686 20.3807 29.64 20.029 29.2347 20.029C29.08 20.0294 28.9292 20.082 28.8041 20.1796C28.8041 20.1795 28.7401 20.223 28.7401 20.223C28.7401 20.223 25.552 22.5113 21.5707 22.4412C17.5893 22.5113 14.4012 20.223 14.4012 20.223C14.4012 20.223 14.3372 20.1795 14.3372 20.1796C14.2121 20.082 14.0613 20.0293 13.9066 20.029Z" fill="#5C5D68"/>
<path d="M23.8775 6.42719C23.742 6.42823 23.6067 6.43523 23.4718 6.44815C23.3984 6.45546 23.3253 6.46452 23.2523 6.47532C23.1679 6.48604 23.0838 6.49908 23.0001 6.51443C22.9325 6.52834 22.8652 6.54376 22.7983 6.56067C22.7106 6.58086 22.6235 6.6036 22.5371 6.62886C22.4756 6.64833 22.4145 6.66907 22.3538 6.69109C22.2646 6.72134 22.1763 6.7543 22.089 6.78994C22.0327 6.8143 21.977 6.83976 21.9217 6.86633C21.8329 6.90679 21.7453 6.95003 21.6591 6.99601C21.6086 7.02432 21.5587 7.05357 21.5093 7.08375C21.4215 7.13486 21.3354 7.18883 21.251 7.24557C21.2071 7.27653 21.1637 7.30824 21.1208 7.34069C21.035 7.40286 20.9512 7.46794 20.8696 7.53582C20.8321 7.5684 20.7951 7.60158 20.7587 7.63534C20.6762 7.7086 20.5961 7.78476 20.5188 7.86369C20.4871 7.89739 20.4559 7.93156 20.4252 7.96619C20.3483 8.04945 20.2744 8.13549 20.2035 8.22412C20.1763 8.25951 20.1497 8.29528 20.1236 8.33143C20.0538 8.42389 19.9873 8.51891 19.9243 8.61629C19.9025 8.65166 19.8811 8.68732 19.8601 8.72326C19.7982 8.82454 19.7401 8.92813 19.6858 9.03381C19.6682 9.06975 19.6511 9.10591 19.6345 9.14227C19.582 9.25104 19.5335 9.36179 19.4892 9.47429C19.476 9.50973 19.4633 9.54534 19.4509 9.58109C19.4087 9.69626 19.3707 9.81303 19.3372 9.93116C19.3277 9.96729 19.3187 10.0035 19.31 10.0399C19.2791 10.1592 19.2527 10.2797 19.2308 10.4011C19.225 10.4373 19.2197 10.4735 19.2147 10.5098C19.1954 10.6328 19.1807 10.7566 19.1708 10.8807C19.1644 10.9598 19.1599 11.039 19.1573 11.1184H19.1562V11.1498C19.1546 11.1832 19.1535 11.2167 19.1527 11.2503C19.1531 11.2634 19.1536 11.2765 19.1541 11.2896H19.1561V16.3323C19.1605 16.7145 19.3129 17.0796 19.5792 17.3484C19.8456 17.6172 20.2049 17.768 20.5794 17.7681C20.9539 17.7679 21.3132 17.6171 21.5795 17.3483C21.8457 17.0796 21.9975 16.7145 22.0019 16.3323H22.0026V11.1279C22.0288 10.7115 22.1872 10.3152 22.4537 9.99886C22.7203 9.68255 23.0805 9.4635 23.48 9.37486C23.4846 9.37362 23.4893 9.37241 23.494 9.37122C23.5409 9.36176 23.5882 9.35413 23.6356 9.34835C23.651 9.34578 23.6665 9.34341 23.6819 9.34123C23.7201 9.33779 23.7585 9.33555 23.7968 9.33451C23.8237 9.33255 23.8505 9.33117 23.8774 9.33037C23.8773 9.33037 23.8774 9.33037 23.8774 9.33037C23.9081 9.33118 23.9389 9.33275 23.9695 9.33509C24.0038 9.33612 24.038 9.33811 24.0722 9.34105C24.0904 9.3436 24.1085 9.34641 24.1266 9.3495C24.1716 9.35509 24.2163 9.36233 24.2607 9.37121C24.2667 9.37273 24.2727 9.37427 24.2787 9.37584C24.3343 9.38803 24.3894 9.4028 24.4438 9.42009C24.805 9.53702 25.1233 9.76265 25.3568 10.0674C25.5903 10.3721 25.7281 10.7418 25.7522 11.1279V16.3323H25.753C25.7574 16.7145 25.9092 17.0795 26.1754 17.3483C26.4417 17.6171 26.801 17.7679 27.1755 17.7681C27.55 17.768 27.9093 17.6172 28.1756 17.3484C28.442 17.0796 28.5938 16.7145 28.5981 16.3323L28.5988 11.2896H28.6003C28.6009 11.2765 28.602 11.2634 28.6024 11.2503C28.6016 11.2167 28.6004 11.1832 28.5989 11.1498V11.1183H28.5978C28.5952 11.0391 28.5907 10.9599 28.5842 10.8808C28.5742 10.7554 28.5594 10.6305 28.5398 10.5063C28.5351 10.4718 28.53 10.4373 28.5246 10.403C28.5026 10.2805 28.4759 10.1589 28.4447 10.0385C28.4362 10.0027 28.4273 9.96696 28.4179 9.93132C28.3844 9.81314 28.3464 9.69631 28.3041 9.58108C28.2918 9.54536 28.2791 9.50978 28.266 9.47436C28.2214 9.36118 28.1726 9.24977 28.1197 9.14036C28.1035 9.10491 28.0868 9.06967 28.0697 9.03463C28.0152 8.92852 27.9569 8.82452 27.8948 8.72284C27.8739 8.68704 27.8525 8.65152 27.8307 8.61628C27.7677 8.5189 27.7012 8.42388 27.6315 8.33142C27.6053 8.29528 27.5787 8.25951 27.5516 8.22412C27.4807 8.13548 27.4067 8.04945 27.3298 7.96618C27.2991 7.93156 27.2679 7.89739 27.2362 7.86369C27.1589 7.78476 27.0789 7.70859 26.9964 7.63533C26.9599 7.60157 26.9229 7.5684 26.8854 7.53582C26.8037 7.46776 26.7197 7.40251 26.6336 7.34019C26.5911 7.30802 26.548 7.27659 26.5044 7.2459C26.4196 7.18879 26.3329 7.13449 26.2447 7.08308C26.1958 7.05323 26.1464 7.02428 26.0964 6.99625C26.0099 6.95009 25.922 6.90668 25.8328 6.86608C25.7777 6.8396 25.7222 6.81421 25.6662 6.78993C25.5788 6.7543 25.4905 6.72133 25.4012 6.69108C25.3405 6.66906 25.2794 6.64832 25.2179 6.62885C25.1315 6.60359 25.0444 6.58085 24.9567 6.56066C24.8898 6.54375 24.8225 6.52834 24.7549 6.51443C24.6712 6.49908 24.5871 6.48604 24.5027 6.47532C24.4298 6.46451 24.3566 6.45545 24.2833 6.44814C24.1484 6.43522 24.013 6.42823 23.8775 6.42719C23.8775 6.42719 23.8775 6.42719 23.8775 6.42719ZM1.42325 6.52347C1.04578 6.52347 0.68377 6.67653 0.41686 6.94899C0.14995 7.22145 9.03993e-07 7.59098 0 7.9763C0.000398109 8.08406 0.012541 8.19144 0.0362032 8.29646L0.0331246 8.2971L2.05168 16.6966L2.05549 16.6956C2.13723 17.0033 2.31582 17.2749 2.56373 17.4687C2.81163 17.6625 3.1151 17.7677 3.42736 17.7681C3.72935 17.7678 4.02341 17.6693 4.26699 17.4871C4.51057 17.3049 4.69105 17.0483 4.78234 16.7544L4.78413 16.7634L6.28863 12.3803L7.79321 16.7634L7.795 16.7544C7.88628 17.0483 8.06677 17.3049 8.31035 17.4871C8.55393 17.6693 8.84799 17.7678 9.14998 17.7681C9.46224 17.7677 9.76571 17.6625 10.0136 17.4687C10.2615 17.2749 10.4401 17.0033 10.5218 16.6956L10.5257 16.6966L12.5442 8.2971L12.5411 8.29646C12.5648 8.19144 12.5769 8.08406 12.5773 7.9763C12.5773 7.59098 12.4274 7.22145 12.1605 6.94899C11.8936 6.67653 11.5316 6.52347 11.1541 6.52347C10.816 6.5239 10.4891 6.64718 10.2319 6.87124C9.97473 7.0953 9.8041 7.4055 9.75057 7.74628L9.74732 7.74564L8.91126 11.2147L7.6325 7.48588L7.6277 7.48763C7.62685 7.48548 7.62598 7.48332 7.62511 7.48117C7.61179 7.44423 7.59701 7.40785 7.58079 7.37213C7.57717 7.36358 7.57346 7.35508 7.56967 7.34661C7.55301 7.31169 7.53497 7.27747 7.51562 7.24403C7.51099 7.23559 7.50628 7.22719 7.50149 7.21884C7.48178 7.18633 7.46083 7.15463 7.43867 7.1238C7.43288 7.11534 7.42701 7.10695 7.42106 7.09861C7.39897 7.06922 7.37579 7.04069 7.35157 7.0131C7.34399 7.00409 7.33631 6.99517 7.32852 6.98634C7.30421 6.96003 7.27895 6.93466 7.25279 6.91028C7.24412 6.90185 7.23536 6.89354 7.22649 6.88534C7.20031 6.86216 7.17332 6.83997 7.14556 6.8188C7.13515 6.81048 7.12462 6.8023 7.11399 6.79428C7.087 6.77491 7.05935 6.7565 7.03111 6.73909C7.01854 6.73096 7.00585 6.72304 6.99304 6.71531C6.9654 6.6995 6.93724 6.68463 6.90862 6.67074C6.89432 6.66336 6.8799 6.65624 6.86536 6.64936C6.83785 6.63717 6.80996 6.62586 6.78175 6.61547C6.76499 6.60885 6.7481 6.60255 6.7311 6.59658C6.70364 6.58769 6.67592 6.57964 6.64798 6.57247C6.62995 6.56738 6.61182 6.56265 6.5936 6.55829C6.5664 6.55245 6.53903 6.54741 6.51154 6.5432C6.49177 6.53971 6.47193 6.53664 6.45204 6.534C6.42629 6.53124 6.40046 6.5292 6.3746 6.52788C6.34611 6.52554 6.31755 6.52407 6.28897 6.52348C6.28918 6.52348 6.28876 6.52348 6.28897 6.52348C6.25976 6.52408 6.22995 6.5256 6.20083 6.52804C6.17603 6.52934 6.15127 6.5313 6.12656 6.53392C6.10514 6.53671 6.08379 6.54 6.06252 6.54378C6.0365 6.5478 6.0106 6.55255 5.98484 6.55804C5.96572 6.56258 5.9467 6.56752 5.92778 6.57287C5.90036 6.57994 5.87316 6.58784 5.8462 6.59657C5.8292 6.60254 5.81232 6.60883 5.79555 6.61546C5.76734 6.62585 5.73946 6.63715 5.71194 6.64935C5.69741 6.65622 5.68298 6.66335 5.66868 6.67072C5.64012 6.6846 5.61202 6.69943 5.58443 6.71522C5.5712 6.7232 5.5581 6.73141 5.54514 6.73983C5.51746 6.75689 5.49036 6.77491 5.46389 6.79385C5.45273 6.80225 5.44168 6.81081 5.43077 6.81954C5.40335 6.84048 5.37668 6.86242 5.35081 6.88532C5.34195 6.89353 5.33318 6.90184 5.32452 6.91027C5.29841 6.93463 5.2732 6.95997 5.24895 6.98625C5.24093 6.99531 5.23303 7.00449 5.22524 7.01376C5.20132 7.04101 5.17841 7.06917 5.15657 7.09819C5.15031 7.10693 5.14414 7.11574 5.13807 7.12462C5.11615 7.15516 5.09541 7.18656 5.07589 7.21875C5.07096 7.22731 5.06612 7.23593 5.06136 7.2446C5.04222 7.27775 5.02437 7.31167 5.00787 7.34626C5.00389 7.35506 4.99999 7.3639 4.99618 7.37278C4.98012 7.40826 4.96547 7.44439 4.95227 7.48107C4.95137 7.48325 4.95047 7.48543 4.94958 7.48762L4.94479 7.48587L3.66603 11.2147L2.82997 7.74563L2.82672 7.74627C2.77319 7.40549 2.60256 7.09529 2.34539 6.87122C2.08822 6.64716 1.76135 6.5239 1.42325 6.52347ZM15.8668 6.52355C15.4936 6.52382 15.1354 6.67369 14.8695 6.94089C14.6035 7.20808 14.451 7.57123 14.4447 7.9521H14.4435V16.4153H14.447C14.4718 16.7824 14.6321 17.1262 14.8957 17.3773C15.1592 17.6284 15.5062 17.7681 15.8667 17.7681C16.2269 17.7677 16.5736 17.6279 16.8368 17.3768C17.1001 17.1258 17.2602 16.7821 17.285 16.4153H17.29V7.9521H17.2892C17.2829 7.57115 17.1303 7.20795 16.8643 6.94074C16.5982 6.67354 16.24 6.52371 15.8668 6.52355Z" fill="#5C5D68"/>
</svg>
