<svg width="300" height="200" viewBox="0 0 300 200" fill="none" xmlns="http://www.w3.org/2000/svg">
<path d="M230.938 50.7422L227.129 54.8438V65H219.805V29.4531H227.129V45.5664L230.352 41.1475L239.409 29.4531H248.418L235.796 45.249L248.784 65H240.068L230.938 50.7422Z" fill="white"/>
<path d="M223.065 162.253L232.999 152.317L242.932 162.254C243.406 162.728 244.172 162.728 244.646 162.254C245.118 161.78 245.118 161.013 244.646 160.539L233.856 149.746C233.384 149.273 232.616 149.273 232.144 149.746L221.354 160.539C220.882 161.013 220.882 161.781 221.354 162.255C221.826 162.726 222.593 162.726 223.065 162.253Z" fill="white"/>
<rect x="245" y="144" width="24" height="2" rx="1" transform="rotate(-180 245 144)" fill="white"/>
<rect x="166" y="1" width="133" height="198" rx="5" stroke="white" stroke-width="2"/>
<path d="M73.9209 57.6758H61.0791L58.6377 65H50.8496L64.082 29.4531H70.8691L84.1748 65H76.3867L73.9209 57.6758ZM63.0566 51.7432H71.9434L67.4756 38.4375L63.0566 51.7432Z" fill="white"/>
<path d="M77.9347 147.747L68.0011 157.683L58.0676 147.746C57.594 147.272 56.8279 147.272 56.3543 147.746C55.8819 148.22 55.8819 148.987 56.3543 149.461L67.1439 160.254C67.6163 160.727 68.3837 160.727 68.8561 160.254L79.6457 149.461C80.1181 148.987 80.1181 148.219 79.6457 147.745C79.1745 147.274 78.4071 147.274 77.9347 147.747Z" fill="white"/>
<rect x="56" y="166" width="24" height="2" rx="1" fill="white"/>
<rect x="1" y="1" width="133" height="198" rx="5" stroke="white" stroke-width="2"/>
</svg>
