<svg width="135" height="201" viewBox="0 0 135 201" fill="none" xmlns="http://www.w3.org/2000/svg">
<g filter="url(#filter0_d)">
<rect width="135" height="200" rx="6" fill="white"/>
<path d="M68 110.624V159.725C59.8166 151.612 41.7143 133.82 35.619 127.556C28 119.725 28 113.799 28 111.683C28 109.566 29.4815 92 47.8942 92C62.6243 92 67.5062 104.416 68 110.624Z" fill="#D80027"/>
<path d="M68 110.624V159.725C76.1834 151.612 94.2857 133.82 100.381 127.556C108 119.725 108 113.799 108 111.683C108 109.566 106.519 92 88.1058 92C73.3757 92 68.4938 104.416 68 110.624Z" fill="#D80027"/>
<path d="M73.9209 57.6758H61.0791L58.6377 65H50.8496L64.082 29.4531H70.8691L84.1748 65H76.3867L73.9209 57.6758ZM63.0566 51.7432H71.9434L67.4756 38.4375L63.0566 51.7432Z" fill="#D80027"/>
</g>
<defs>
<filter id="filter0_d" x="0" y="0" width="135" height="201" filterUnits="userSpaceOnUse" color-interpolation-filters="sRGB">
<feFlood flood-opacity="0" result="BackgroundImageFix"/>
<feColorMatrix in="SourceAlpha" type="matrix" values="0 0 0 0 0 0 0 0 0 0 0 0 0 0 0 0 0 0 127 0"/>
<feOffset dy="1"/>
<feColorMatrix type="matrix" values="0 0 0 0 0 0 0 0 0 0 0 0 0 0 0 0 0 0 0.25 0"/>
<feBlend mode="normal" in2="BackgroundImageFix" result="effect1_dropShadow"/>
<feBlend mode="normal" in="SourceGraphic" in2="effect1_dropShadow" result="shape"/>
</filter>
</defs>
</svg>
