<svg width="36" height="35" viewBox="0 0 36 35" fill="none" xmlns="http://www.w3.org/2000/svg">
<mask id="mask0" mask-type="alpha" maskUnits="userSpaceOnUse" x="0" y="0" width="36" height="35">
<path d="M10.7097 1.11464C11.5471 -0.0816177 13.2518 -0.0816177 13.9994 0.0679147C17.8374 0.915264 25.9919 2.69968 27.9059 3.05856C29.82 3.41744 30.8966 5.60061 31.1956 6.64734C32.2424 9.73767 34.5153 16.4567 35.233 18.6099C35.9508 20.7632 35.233 22.2984 34.7844 22.7968C31.9433 25.937 26.0218 32.5763 25.0648 34.0118C24.1078 35.4473 21.177 35.0086 19.8312 34.6099C16.691 33.9619 9.90224 32.5763 7.86859 32.2174C5.83495 31.8585 4.8281 30.0741 4.57888 29.2267C3.38263 25.7875 0.840581 18.3707 0.242452 16.2174C-0.355678 14.0641 0.292296 12.6286 0.691049 12.18C3.6817 8.99001 9.87234 2.3109 10.7097 1.11464Z" fill="#C4C4C4"/>
</mask>
<g mask="url(#mask0)">
<rect x="-4.09399" y="-2.17511" width="41.8691" height="39.7756" fill="#E9E9E9"/>
<path d="M28.9526 5.60064C30.1489 4.40438 29.8498 3.30781 29.5508 2.90906L23.2704 -2.32457C19.4324 -2.97255 11.6667 -4.26849 11.3078 -4.26849C10.9489 -4.26849 4.87792 0.815607 1.88727 3.35766L-0.505249 13.9745C4.42932 15.0212 14.5975 17.1744 15.7938 17.4137C16.99 17.653 18.286 16.8156 18.7844 16.367C21.6754 13.2766 27.7564 6.7969 28.9526 5.60064Z" fill="white"/>
<path d="M23.1209 33.5631C23.5994 34.879 22.9215 35.4074 22.5228 35.5071C19.8312 35.4074 14.3882 35.1781 14.149 35.0585C13.8499 34.9089 3.83123 33.2641 3.38264 32.8155C2.93404 32.3669 -0.206142 23.3949 -0.355674 23.0959C-0.505206 22.7968 -0.65474 15.9183 -0.804273 14.8716C-0.923899 14.0342 0.441831 14.0242 1.13965 14.1239C5.67546 15.1208 15.0462 17.1445 16.2424 17.2641C17.4387 17.3837 17.9371 18.3108 18.0368 18.7594C19.5321 23.1457 22.6424 32.2472 23.1209 33.5631Z" fill="#BEBEBE"/>
<path d="M15.4105 2.99312C15.6116 3.53508 14.7705 4.34718 13.5317 4.807C12.293 5.26681 11.1257 5.20022 10.9245 4.65826C10.7233 4.1163 11.5645 3.3042 12.8032 2.84438C14.042 2.38457 15.2093 2.45116 15.4105 2.99312Z" fill="#040916"/>
<path d="M16.9058 7.47909C17.107 8.02106 16.2658 8.83315 15.0271 9.29297C13.7883 9.75278 12.621 9.68619 12.4198 9.14423C12.2187 8.60227 13.0598 7.79017 14.2986 7.33036C15.5373 6.87054 16.7046 6.93714 16.9058 7.47909Z" fill="#040916"/>
<path d="M18.4011 11.9651C18.6023 12.507 17.7611 13.3191 16.5224 13.7789C15.2836 14.2388 14.1163 14.1722 13.9151 13.6302C13.714 13.0882 14.5551 12.2761 15.7939 11.8163C17.0326 11.3565 18.1999 11.4231 18.4011 11.9651Z" fill="#040916"/>
<path d="M28.5356 16.9714C29.0902 17.1346 29.2374 18.2944 28.8644 19.5621C28.4915 20.8297 27.7395 21.725 27.1849 21.5618C26.6304 21.3987 26.4831 20.2388 26.8561 18.9712C27.2291 17.7035 27.981 16.8082 28.5356 16.9714Z" fill="#040916"/>
<path d="M13.2235 19.9412C13.7034 19.6189 14.6897 20.2468 15.4265 21.3436C16.1633 22.4405 16.3715 23.591 15.8917 23.9133C15.4118 24.2357 14.4255 23.6078 13.6887 22.5109C12.9519 21.4141 12.7437 20.2636 13.2235 19.9412Z" fill="#040916"/>
<path d="M15.6161 28.016C16.0959 27.6936 17.0822 28.3215 17.819 29.4184C18.5558 30.5152 18.7641 31.6657 18.2842 31.9881C17.8043 32.3104 16.818 31.6826 16.0812 30.5857C15.3444 29.4888 15.1362 28.3383 15.6161 28.016Z" fill="#040916"/>
<path d="M9.63476 23.2309C10.1146 22.9086 11.1009 23.5365 11.8377 24.6333C12.5745 25.7302 12.7828 26.8807 12.3029 27.2031C11.823 27.5254 10.8367 26.8975 10.0999 25.8006C9.36314 24.7038 9.15488 23.5533 9.63476 23.2309Z" fill="#040916"/>
<path d="M3.65346 17.8478C4.13335 17.5254 5.11964 18.1533 5.85642 19.2502C6.5932 20.347 6.80146 21.4975 6.32158 21.8199C5.8417 22.1422 4.8554 21.5144 4.11862 20.4175C3.38184 19.3206 3.17358 18.1701 3.65346 17.8478Z" fill="#040916"/>
<path d="M6.64411 26.5206C7.12399 26.1983 8.11029 26.8262 8.84707 27.9231C9.58385 29.0199 9.79211 30.1704 9.31223 30.4928C8.83235 30.8151 7.84605 30.1872 7.10927 29.0904C6.37249 27.9935 6.16423 26.843 6.64411 26.5206Z" fill="#040916"/>
</g>
</svg>
