<svg width="18" height="18" viewBox="0 0 18 18" fill="none" xmlns="http://www.w3.org/2000/svg">
<path d="M9 18C13.9706 18 18 13.9706 18 9C18 4.02944 13.9706 0 9 0C4.02944 0 0 4.02944 0 9C0 13.9706 4.02944 18 9 18Z" fill="#F0F0F0"/>
<path d="M5.08698 12.1304L5.8696 17.4402C6.84455 17.802 7.89913 18 9.00001 18C12.8697 18 16.1686 15.5576 17.4402 12.1304H5.08698Z" fill="black"/>
<path d="M5.08698 5.86958L5.8696 0.559723C6.84455 0.19793 7.89913 0 9.00001 0C12.8697 0 16.1686 2.44237 17.4402 5.86958H5.08698Z" fill="#6DA544"/>
<path d="M0 9.00003C0 12.8697 2.44241 16.1686 5.86958 17.4403V0.559814C2.44241 1.83145 0 5.13034 0 9.00003Z" fill="#A2001D"/>
</svg>
