<svg width="38" height="37" viewBox="0 0 38 37" fill="none" xmlns="http://www.w3.org/2000/svg">
<g filter="url(#filter0_d)">
<g clip-path="url(#clip0)">
<rect x="18.9609" y="2.11475" width="19.5126" height="28.9076" rx="3" transform="rotate(15 18.9609 2.11475)" fill="white"/>
<path d="M24.9697 17.5912L21.977 28.7602L19.5476 28.1093C20.1621 28.0034 21.5405 27.4867 22.1378 26.2671C22.4783 25.5717 22.6376 25.2521 22.7015 25.1281C22.3006 25.6381 21.1671 26.5142 19.6762 26.1148C17.7831 25.6075 17.5901 23.4254 17.7761 22.7312C17.9621 22.0371 18.1373 21.5092 19.6091 20.6862C20.7864 20.0277 23.6868 18.3408 24.9697 17.5912Z" fill="#040916"/>
<path d="M24.9697 17.5912L21.977 28.7602L24.4064 29.4112C23.9272 29.0122 22.9918 27.8756 23.0843 26.5207C23.1371 25.7482 23.1589 25.3918 23.1656 25.2525C23.2577 25.8946 23.8014 27.2201 25.2923 27.6196C27.1853 28.1268 28.4436 26.3335 28.6296 25.6394C28.8156 24.9453 28.9278 24.4005 28.0647 22.9519C27.3743 21.7929 25.706 18.8819 24.9697 17.5912Z" fill="#040916"/>
<path d="M27.4251 14.8812L24.4122 14.0739L23.3789 15.6388L21.5517 15.1492L26.8909 7.64119L28.4833 8.06786L29.3703 17.2442L27.5431 16.7546L27.4251 14.8812ZM25.2491 12.8063L27.334 13.365L27.1223 9.9624L25.2491 12.8063Z" fill="#040916"/>
</g>
</g>
<g filter="url(#filter1_d)">
<g clip-path="url(#clip1)">
<rect y="5.49634" width="21.2361" height="31.4609" rx="3" transform="rotate(-15 0 5.49634)" fill="white"/>
<path d="M14.7203 20.6476L17.2703 30.1646C15.2628 29.0171 10.8301 26.5087 9.32336 25.611C7.4399 24.489 7.13214 23.3404 7.02222 22.9302C6.9123 22.5199 6.28715 19.0382 9.856 18.082C12.7111 17.3169 14.3021 19.47 14.7203 20.6476Z" fill="#D80027"/>
<path d="M14.7203 20.6476L17.2703 30.1646C18.4351 28.1671 21.0198 23.7784 21.8759 22.2476C22.9459 20.3341 22.6382 19.1855 22.5283 18.7753C22.4183 18.3651 21.2189 15.0373 17.65 15.9936C14.795 16.7586 14.4936 19.4187 14.7203 20.6476Z" fill="#D80027"/>
<path d="M14.0642 12.1419L11.1029 12.9354L10.9924 14.7752L9.19645 15.2565L10.0515 6.24157L11.6166 5.82219L16.8814 13.1973L15.0854 13.6785L14.0642 12.1419ZM11.1923 11.4451L13.2416 10.896L11.3892 8.10372L11.1923 11.4451Z" fill="#D80027"/>
</g>
</g>
<defs>
<filter id="filter0_d" x="11.479" y="2.11475" width="26.3296" height="33.9728" filterUnits="userSpaceOnUse" color-interpolation-filters="sRGB">
<feFlood flood-opacity="0" result="BackgroundImageFix"/>
<feColorMatrix in="SourceAlpha" type="matrix" values="0 0 0 0 0 0 0 0 0 0 0 0 0 0 0 0 0 0 127 0"/>
<feOffset dy="1"/>
<feColorMatrix type="matrix" values="0 0 0 0 0 0 0 0 0 0 0 0 0 0 0 0 0 0 0.25 0"/>
<feBlend mode="normal" in2="BackgroundImageFix" result="effect1_dropShadow"/>
<feBlend mode="normal" in="SourceGraphic" in2="effect1_dropShadow" result="shape"/>
</filter>
<filter id="filter1_d" x="0" y="0" width="30.6552" height="36.8852" filterUnits="userSpaceOnUse" color-interpolation-filters="sRGB">
<feFlood flood-opacity="0" result="BackgroundImageFix"/>
<feColorMatrix in="SourceAlpha" type="matrix" values="0 0 0 0 0 0 0 0 0 0 0 0 0 0 0 0 0 0 127 0"/>
<feOffset dx="2" dy="1"/>
<feColorMatrix type="matrix" values="0 0 0 0 0 0 0 0 0 0 0 0 0 0 0 0 0 0 0.25 0"/>
<feBlend mode="normal" in2="BackgroundImageFix" result="effect1_dropShadow"/>
<feBlend mode="normal" in="SourceGraphic" in2="effect1_dropShadow" result="shape"/>
</filter>
<clipPath id="clip0">
<rect x="18.9609" y="2.11475" width="19.5126" height="28.9076" rx="3" transform="rotate(15 18.9609 2.11475)" fill="white"/>
</clipPath>
<clipPath id="clip1">
<rect y="5.49634" width="21.2361" height="31.4609" rx="3" transform="rotate(-15 0 5.49634)" fill="white"/>
</clipPath>
</defs>
</svg>
