<?xml version="1.0" encoding="UTF-8" standalone="no"?>
<svg
   xmlns:dc="http://purl.org/dc/elements/1.1/"
   xmlns:cc="http://creativecommons.org/ns#"
   xmlns:rdf="http://www.w3.org/1999/02/22-rdf-syntax-ns#"
   xmlns:svg="http://www.w3.org/2000/svg"
   xmlns="http://www.w3.org/2000/svg"
   xmlns:xlink="http://www.w3.org/1999/xlink"
   xmlns:sodipodi="http://sodipodi.sourceforge.net/DTD/sodipodi-0.dtd"
   xmlns:inkscape="http://www.inkscape.org/namespaces/inkscape"
   version="1.1"
   width="16.2765"
   height="16.2765"
   id="svg82"
   sodipodi:docname="icon-ante.svg"
   inkscape:version="0.92.1 r15371">
  <metadata
     id="metadata86">
    <rdf:RDF>
      <cc:Work
         rdf:about="">
        <dc:format>image/svg+xml</dc:format>
        <dc:type
           rdf:resource="http://purl.org/dc/dcmitype/StillImage" />
        <dc:title></dc:title>
      </cc:Work>
    </rdf:RDF>
  </metadata>
  <sodipodi:namedview
     pagecolor="#ffffff"
     bordercolor="#666666"
     borderopacity="1"
     objecttolerance="10"
     gridtolerance="10"
     guidetolerance="10"
     inkscape:pageopacity="0"
     inkscape:pageshadow="2"
     inkscape:window-width="2560"
     inkscape:window-height="1377"
     id="namedview84"
     showgrid="false"
     inkscape:zoom="42"
     inkscape:cx="8.1382504"
     inkscape:cy="8.508248"
     inkscape:window-x="-8"
     inkscape:window-y="-8"
     inkscape:window-maximized="1"
     inkscape:current-layer="svg82" />
  <defs
     id="defs8">
    <linearGradient
       id="grad1">
      <stop
         offset="0%"
         stop-color="#000000"
         stop-opacity="1.0000"
         id="stop2" />
      <stop
         offset="100%"
         stop-color="#ffffff"
         stop-opacity="1.0000"
         id="stop4" />
    </linearGradient>
    <linearGradient
       xlink:href="#grad1"
       id="grad2"
       x1="0"
       y1="0"
       x2="0"
       y2="1"
       gradientTransform="rotate(-179,0.5,0.5)"
       gradientUnits="objectBoundingBox" />
  </defs>
  <path
     d="  M8.1383,0.0006 A8.1377,8.1377 0.0000 0,1 16.2760,8.1383 A8.1377,8.1377 0.0000 1,1 8.1383,0.0006 Z"
     style="fill:#000000;fill-opacity:1"
     id="path10" />
  <defs
     id="defs18">
    <linearGradient
       id="grad3">
      <stop
         offset="0%"
         stop-color="#ffffff"
         stop-opacity="1.0000"
         id="stop12" />
      <stop
         offset="100%"
         stop-color="#000000"
         stop-opacity="1.0000"
         id="stop14" />
    </linearGradient>
    <linearGradient
       xlink:href="#grad3"
       id="grad4"
       x1="0"
       y1="0"
       x2="0"
       y2="1"
       gradientTransform="rotate(181 .5 .5)"
       gradientUnits="objectBoundingBox" />
  </defs>
  <path
     d="  M15.0766,12.1578 C14.8805,12.5152 14.6820,12.7905 14.3878,13.1666 C14.0936,13.5425 13.7531,13.8654 13.7531,13.8654 C13.7531,13.8654 13.4164,13.8274 12.8665,13.4887 C12.3165,13.1496 12.1099,12.9169 12.1099,12.9169 C12.1099,12.9169 12.6802,12.5572 13.4946,11.2445 C14.2243,9.8827 14.2506,9.2089 14.2506,9.2089 C14.2506,9.2089 14.5556,9.2716 15.1240,9.5786 C15.6923,9.8853 15.9043,10.1710 15.9043,10.1710 C15.9043,10.1710 15.7552,10.6750 15.6059,11.0568 C15.4559,11.4389 15.2419,11.8945 15.0766,12.1578 Z Z M8.1383,16.1640 C7.7306,16.1728 7.3930,16.1388 6.9202,16.0719 C6.4474,16.0050 5.9978,15.8717 5.9978,15.8717 C5.9978,15.8717 5.8623,15.5611 5.8808,14.9153 C5.8992,14.2696 5.9975,13.9742 5.9975,13.9742 C5.9975,13.9742 6.5942,14.2883 8.1383,14.3374 C9.6823,14.2883 10.2790,13.9742 10.2790,13.9742 C10.2790,13.9742 10.3774,14.2696 10.3958,14.9153 C10.4142,15.5611 10.2728,15.8873 10.2728,15.8873 C10.2728,15.8873 9.7620,16.0104 9.3563,16.0719 C8.9504,16.1331 8.4489,16.1756 8.1383,16.1640 Z Z M8.1383,0.1406 C7.7306,0.1318 7.3930,0.1658 6.9202,0.2327 C6.4474,0.2996 5.9978,0.4329 5.9978,0.4329 C5.9978,0.4329 5.8623,0.7435 5.8808,1.3893 C5.8992,2.0350 5.9975,2.3304 5.9975,2.3304 C5.9975,2.3304 6.5942,2.0163 8.1383,1.9672 C9.6823,2.0163 10.2790,2.3304 10.2790,2.3304 C10.2790,2.3304 10.3774,2.0350 10.3958,1.3893 C10.4142,0.7435 10.2728,0.4173 10.2728,0.4173 C10.2728,0.4173 9.7620,0.2942 9.3563,0.2327 C8.9504,0.1715 8.4489,0.1290 8.1383,0.1406 Z Z M1.1996,12.1584 C0.9882,11.8097 0.8490,11.5004 0.6704,11.0574 C0.4918,10.6146 0.3827,10.1585 0.3827,10.1585 C0.3827,10.1585 0.5839,9.8858 1.1523,9.5788 C1.7206,9.2721 2.0256,9.2095 2.0256,9.2095 C2.0256,9.2095 2.0520,9.8833 2.7816,11.2450 C3.5960,12.5578 4.1664,12.9175 4.1664,12.9175 C4.1664,12.9175 3.9597,13.1502 3.4098,13.4889 C2.8599,13.8280 2.5064,13.8685 2.5064,13.8685 C2.5064,13.8685 2.1447,13.4875 1.8884,13.1672 C1.6325,12.8463 1.3450,12.4333 1.1996,12.1584 Z Z M15.0763,4.1465 C14.8802,3.7894 14.6818,3.5138 14.3875,3.1380 C14.0933,2.7618 13.7531,2.4392 13.7531,2.4392 C13.7531,2.4392 13.4161,2.4772 12.8662,2.8159 C12.3163,3.1547 12.1096,3.3877 12.1096,3.3877 C12.1096,3.3877 12.6799,3.7474 13.4943,5.0598 C14.2240,6.4216 14.2503,7.0954 14.2503,7.0954 C14.2503,7.0954 14.5553,7.0330 15.1237,6.7260 C15.6920,6.4191 15.9041,6.1336 15.9041,6.1336 C15.9041,6.1336 15.7552,5.6296 15.6056,5.2475 C15.4556,4.8654 15.2416,4.4099 15.0763,4.1465 Z Z M1.1999,4.1462 C0.9884,4.4946 0.8493,4.8042 0.6707,5.2469 C0.4921,5.6900 0.3827,6.1458 0.3827,6.1458 C0.3827,6.1458 0.5842,6.4185 1.1526,6.7255 C1.7209,7.0325 2.0259,7.0948 2.0259,7.0948 C2.0259,7.0948 2.0523,6.4210 2.7819,5.0596 C3.5963,3.7468 4.1666,3.3871 4.1666,3.3871 C4.1666,3.3871 3.9600,3.1541 3.4101,2.8154 C2.8602,2.4766 2.5067,2.4358 2.5067,2.4358 C2.5067,2.4358 2.1447,2.8168 1.8887,3.1374 C1.6328,3.4583 1.3453,3.8713 1.1999,4.1462 Z"
     style="fill:#ffffff;fill-opacity:1"
     id="path20" />
  <defs
     id="defs28">
    <linearGradient
       id="grad5">
      <stop
         offset="0%"
         stop-color="#121111"
         stop-opacity="1.0000"
         id="stop22" />
      <stop
         offset="100%"
         stop-color="#ffffff"
         stop-opacity="1.0000"
         id="stop24" />
    </linearGradient>
    <linearGradient
       xlink:href="#grad5"
       id="grad6"
       x1="0"
       y1="0"
       x2="0"
       y2="1"
       gradientTransform="rotate(181 .5 .5)"
       gradientUnits="objectBoundingBox" />
  </defs>
  <path
     d="  M8.1383,1.8485 A6.2898,6.2898 0.0000 0,1 14.4281,8.1383 A6.2898,6.2898 0.0000 1,1 8.1383,1.8485 Z"
     style="fill:#121111;fill-opacity:1"
     id="path30" />
  <defs
     id="defs38">
    <linearGradient
       id="grad7">
      <stop
         offset="0%"
         stop-color="#1e1f1f"
         stop-opacity="1.0000"
         id="stop32" />
      <stop
         offset="100%"
         stop-color="#ffffff"
         stop-opacity="1.0000"
         id="stop34" />
    </linearGradient>
    <linearGradient
       xlink:href="#grad7"
       id="grad8"
       x1="0"
       y1="0"
       x2="0"
       y2="1"
       gradientTransform="rotate(181 .5 .5)"
       gradientUnits="objectBoundingBox" />
  </defs>
  <path
     d="  M8.1383,2.3831 A5.7552,5.7552 0.0000 0,1 13.8934,8.1383 A5.7552,5.7552 0.0000 1,1 8.1383,2.3831 Z"
     style="fill:#1e1f1f;fill-opacity:1"
     id="path40" />
  <defs
     id="defs48">
    <linearGradient
       id="grad9">
      <stop
         offset="0%"
         stop-color="#2da90e"
         stop-opacity="1.0000"
         id="stop42" />
      <stop
         offset="100%"
         stop-color="#ffffff"
         stop-opacity="1.0000"
         id="stop44" />
    </linearGradient>
    <linearGradient
       xlink:href="#grad9"
       id="grad10"
       x1="0"
       y1="0"
       x2="0"
       y2="1"
       gradientTransform="rotate(181 .5 .5)"
       gradientUnits="objectBoundingBox" />
  </defs>
  <path
     d="  M8.1383,2.7624 A5.3759,5.3759 0.0000 0,1 13.5142,8.1383 A5.3759,5.3759 0.0000 1,1 8.1383,2.7624 Z"
     style="fill:#2da80d;fill-opacity:1"
     id="path50" />
  <defs
     id="defs58">
    <linearGradient
       id="grad11">
      <stop
         offset="0%"
         stop-color="#91ff74"
         stop-opacity="1.0000"
         id="stop52" />
      <stop
         offset="100%"
         stop-color="#ffffff"
         stop-opacity="1.0000"
         id="stop54" />
    </linearGradient>
    <linearGradient
       xlink:href="#grad11"
       id="grad12"
       x1="0"
       y1="0"
       x2="0"
       y2="1"
       gradientTransform="rotate(181 .5 .5)"
       gradientUnits="objectBoundingBox" />
  </defs>
  <path
     d="  M8.1383,2.9758 A5.1625,5.1625 0.0000 0,1 13.3007,8.1383 A5.1625,5.1625 0.0000 1,1 8.1383,2.9758 Z"
     style="fill:#96ff7a;fill-opacity:1"
     id="path60" />
  <defs
     id="defs68">
    <linearGradient
       id="grad13">
      <stop
         offset="0%"
         stop-color="#161717"
         stop-opacity="1.0000"
         id="stop62" />
      <stop
         offset="100%"
         stop-color="#ffffff"
         stop-opacity="1.0000"
         id="stop64" />
    </linearGradient>
    <linearGradient
       xlink:href="#grad13"
       id="grad14"
       x1="0"
       y1="0"
       x2="0"
       y2="1"
       gradientUnits="objectBoundingBox"
       gradientTransform="rotate(181 .5 .5)" />
  </defs>
  <path
     d="  M8.1383,3.1654 A4.9728,4.9728 0.0000 0,1 13.1111,8.1383 A4.9728,4.9728 0.0000 1,1 8.1383,3.1654 Z"
     style="fill:#161717;fill-opacity:1"
     id="path70" />
  <defs
     id="defs78">
    <linearGradient
       id="grad15">
      <stop
         offset="0%"
         stop-color="#36be13"
         stop-opacity="1.0000"
         id="stop72" />
      <stop
         offset="100%"
         stop-color="#ffffff"
         stop-opacity="1.0000"
         id="stop74" />
    </linearGradient>
    <linearGradient
       xlink:href="#grad15"
       id="grad16"
       x1="0"
       y1="0"
       x2="0"
       y2="1"
       gradientTransform="rotate(181 .5 .5)"
       gradientUnits="objectBoundingBox" />
  </defs>
  <path
     d="  M12.5978,7.9922 C12.7242,8.0459 12.8132,8.1712 12.8132,8.3172 C12.8132,8.4560 12.7330,8.5760 12.6163,8.6336 L12.6132,8.6352 L12.6130,8.6352 L6.1766,12.1025 C6.1179,12.1460 6.0455,12.1719 5.9668,12.1719 C5.7721,12.1719 5.6140,12.0138 5.6140,11.8191 L5.6148,11.7977 L5.6146,11.7974 L5.9037,4.2576 L5.9032,4.2397 C5.9032,4.2240 5.9043,4.2086 5.9062,4.1932 L5.9062,4.1923 C5.9296,4.0202 6.0772,3.8869 6.2559,3.8869 C6.3451,3.8869 6.4266,3.9203 6.4889,3.9751 L6.4892,3.9751 L12.5978,7.9922 Z Z M8.1924,7.3275 L8.1753,8.0391 L8.8243,7.6863 L8.1924,7.3275 Z Z M7.5094,6.9519 L7.3726,10.0826 L6.2399,10.6918 L6.7408,11.0390 L11.3347,8.4662 L11.3347,7.9878 L7.6515,9.9290 L7.7768,7.1113 L7.5094,6.9519 Z Z M6.4677,10.0143 L6.9628,9.7183 L7.1110,6.0467 L9.6326,7.6805 L8.1012,8.5003 L8.0899,9.1037 L10.7426,7.7034 L6.8204,5.1303 L6.2570,5.4833 L6.6442,5.7281 L6.4677,10.0143 Z"
     style="fill:#46cc23;fill-opacity:1"
     id="path80" />
</svg>
