<?xml version="1.0" encoding="UTF-8" standalone="no"?>
<svg
   xmlns:dc="http://purl.org/dc/elements/1.1/"
   xmlns:cc="http://creativecommons.org/ns#"
   xmlns:rdf="http://www.w3.org/1999/02/22-rdf-syntax-ns#"
   xmlns:svg="http://www.w3.org/2000/svg"
   xmlns="http://www.w3.org/2000/svg"
   xmlns:sodipodi="http://sodipodi.sourceforge.net/DTD/sodipodi-0.dtd"
   xmlns:inkscape="http://www.inkscape.org/namespaces/inkscape"
   version="1.1"
   width="16.276501"
   height="16.276501"
   id="svg16"
   viewBox="0 0 16.276501 16.276501"
   sodipodi:docname="icon-rake.svg"
   inkscape:version="0.92.4 (5da689c313, 2019-01-14)">
  <metadata
     id="metadata22">
    <rdf:RDF>
      <cc:Work
         rdf:about="">
        <dc:format>image/svg+xml</dc:format>
        <dc:type
           rdf:resource="http://purl.org/dc/dcmitype/StillImage" />
        <dc:title></dc:title>
      </cc:Work>
    </rdf:RDF>
  </metadata>
  <defs
     id="defs20" />
  <sodipodi:namedview
     pagecolor="#ffffff"
     bordercolor="#666666"
     borderopacity="1"
     objecttolerance="10"
     gridtolerance="10"
     guidetolerance="10"
     inkscape:pageopacity="0"
     inkscape:pageshadow="2"
     inkscape:window-width="2560"
     inkscape:window-height="1377"
     id="namedview18"
     showgrid="false"
     inkscape:zoom="52.23"
     inkscape:cx="18.875608"
     inkscape:cy="7.6223158"
     inkscape:window-x="-8"
     inkscape:window-y="-8"
     inkscape:window-maximized="1"
     inkscape:current-layer="svg16" />
  <path
     d="M 8.1383,6e-4 A 8.1377,8.1377 0 0 1 16.276,8.1383 8.1377,8.1377 0 1 1 8.1383,6e-4 Z"
     style="fill:#231f20;fill-rule:evenodd;fill-opacity:1"
     id="path2"
     inkscape:connector-curvature="0" />
  <path
     d="m 10.1636,0.5712 c 1.3482,0.36 2.5535,1.0701 3.5116,2.0276 l -1.4488,1.4837 -0.0028,1.0031 0.424,0.2424 0.4127,-0.0354 -0.2369,0.3396 -0.0023,0.4884 0.8702,0.4991 2.0124,-0.5136 c 0.1734,0.648 0.2667,1.3292 0.2667,2.0322 0,0.7001 -0.0924,1.3787 -0.2648,2.0248 l -2.0143,-0.5142 -0.8702,0.4991 0.0023,0.4884 0.2369,0.3396 -0.4127,-0.0354 -0.424,0.2424 0.0028,1.0031 1.4527,1.4877 c -0.9583,0.9592 -2.1645,1.6707 -3.5138,2.0313 l 3e-4,-6e-4 -0.5624,-2.0038 -0.8674,-0.504 -0.4218,0.246 -0.1757,0.3751 -0.1758,-0.3751 -0.4218,-0.246 -0.8674,0.504 -0.5624,2.0038 3e-4,6e-4 C 4.7616,15.3445 3.5558,14.633 2.5974,13.6738 L 4.0501,12.1861 4.053,11.183 3.6289,10.9406 3.2162,10.976 3.4532,10.6364 3.4554,10.148 2.5852,9.6489 0.5709,10.1631 C 0.3986,9.517 0.3061,8.8387 0.3061,8.1383 c 0,-0.703 0.0933,-1.3842 0.2668,-2.0322 L 2.5852,6.6197 3.4554,6.1206 3.4532,5.6322 3.2162,5.2926 3.6289,5.328 4.053,5.0856 4.0501,4.0825 2.6014,2.5988 C 3.5592,1.6413 4.7648,0.9309 6.1129,0.5712 l 0.5604,1.9967 0.8674,0.504 0.4218,-0.246 0.1758,-0.3751 0.1757,0.3751 0.4218,0.246 0.8674,-0.504 z"
     style="fill:#0099ff;fill-rule:evenodd;fill-opacity:1"
     id="path4"
     inkscape:connector-curvature="0" />
  <path
     d="M 8.1383,2.3474 A 5.7909,5.7909 0 0 1 13.9292,8.1383 5.7909,5.7909 0 1 1 8.1383,2.3474 Z"
     style="fill:#1d1f1f;fill-rule:evenodd"
     id="path6"
     inkscape:connector-curvature="0" />
  <path
     d="M 2.7797,9.6284 2.55,9.6599 c 0,0 0.0874,0.4734 0.4967,1.2334 l 0.0122,0.0232 c 0.0184,0.0352 0.0394,0.074 0.0646,0.1162 0.0241,0.0431 0.0471,0.0805 0.0683,0.1143 l 0.0142,0.0221 c 0.4538,0.7344 0.8198,1.0468 0.8198,1.0468 l 0.142,-0.1831 -0.6684,-1.2172 z m 9.3299,2.4058 0.142,0.1831 c 0,0 0.3663,-0.3124 0.8198,-1.0468 l 0.0142,-0.0221 c 0.0212,-0.0335 0.0442,-0.0712 0.0683,-0.114 0.0252,-0.0425 0.0462,-0.081 0.0646,-0.1165 l 0.0122,-0.0232 c 0.409,-0.7603 0.4966,-1.2334 0.4966,-1.2334 L 13.4977,9.6299 12.778,10.8173 Z M 2.7805,6.6458 2.5509,6.6144 c 0,0 0.0873,-0.4734 0.4966,-1.2334 L 3.06,5.3578 C 3.0781,5.3223 3.0991,5.2838 3.1243,5.2415 3.1484,5.1985 3.1714,5.161 3.1929,5.1273 L 3.2068,5.1052 C 3.6607,4.3707 4.0266,4.0584 4.0266,4.0584 l 0.142,0.1831 -0.6681,1.2172 z m 3.9696,6.8789 -0.0875,0.2145 c 0,0 0.4535,0.1611 1.3164,0.1866 l 0.0263,0.0011 c 0.0397,0.0017 0.0836,0.0028 0.133,0.0023 0.0493,5e-4 0.0932,-6e-4 0.1329,-0.0023 L 8.2976,13.9258 C 9.1604,13.9 9.614,13.7392 9.614,13.7392 L 9.5264,13.5247 8.1383,13.4949 Z M 6.7521,2.7513 6.6645,2.5367 c 0,0 0.4536,-0.161 1.3164,-0.1865 L 8.0073,2.3491 C 8.047,2.3474 8.0909,2.3462 8.1403,2.3468 c 0.0493,-6e-4 0.0932,6e-4 0.1329,0.0023 L 8.2996,2.3502 C 9.1624,2.376 9.616,2.5367 9.616,2.5367 L 9.5284,2.7513 8.1403,2.7811 Z m 5.3586,1.4922 0.1421,-0.1832 c 0,0 0.3662,0.3124 0.8197,1.0469 l 0.0139,0.0221 c 0.0216,0.0337 0.0445,0.0711 0.0686,0.1139 0.0253,0.0426 0.0462,0.0811 0.0644,0.1165 l 0.0124,0.0233 c 0.4091,0.7602 0.4967,1.2333 0.4967,1.2333 l -0.2296,0.0315 -0.72,-1.1874 z"
     style="fill:#0099ff;fill-rule:evenodd;fill-opacity:1"
     id="path8"
     inkscape:connector-curvature="0" />
  <path
     d="M 8.1383,2.7587 A 5.3796,5.3796 0 0 1 13.5178,8.1383 5.3796,5.3796 0 1 1 8.1383,2.7587 Z"
     style="fill:#0099ff;fill-rule:evenodd;stroke:#1d1f1f;stroke-width:0.23980001;stroke-linecap:butt;stroke-linejoin:miter;stroke-dasharray:none;fill-opacity:1"
     id="path10"
     inkscape:connector-curvature="0" />
  <path
     d="m 8.1383,2.9563 a 5.1819,5.1819 0 0 1 5.1819,5.182 5.1819,5.1819 0 1 1 -5.1819,-5.182 z"
     style="fill:#1c1e1e;fill-rule:evenodd"
     id="path12"
     inkscape:connector-curvature="0" />
  <path
     d="m 12.5978,7.9922 c 0.1264,0.0537 0.2154,0.179 0.2154,0.325 0,0.1388 -0.0802,0.2588 -0.1969,0.3164 l -0.0031,0.0016 h -2e-4 l -6.4364,3.4673 c -0.0587,0.0435 -0.1311,0.0694 -0.2098,0.0694 -0.1947,0 -0.3528,-0.1581 -0.3528,-0.3528 l 8e-4,-0.0214 -2e-4,-3e-4 0.2891,-7.5398 -5e-4,-0.0179 c 0,-0.0157 0.0011,-0.0311 0.003,-0.0465 v -9e-4 c 0.0234,-0.1721 0.171,-0.3054 0.3497,-0.3054 0.0892,0 0.1707,0.0334 0.233,0.0882 h 3e-4 z M 8.1924,7.3275 8.1753,8.0391 8.8243,7.6863 Z M 7.5094,6.9519 7.3726,10.0826 6.2399,10.6918 6.7408,11.039 11.3347,8.4662 V 7.9878 L 7.6515,9.929 7.7768,7.1113 Z M 6.4677,10.0143 6.9628,9.7183 7.111,6.0467 9.6326,7.6805 8.1012,8.5003 8.0899,9.1037 10.7426,7.7034 6.8204,5.1303 6.257,5.4833 6.6442,5.7281 Z"
     style="fill:#0099ff;fill-rule:evenodd;fill-opacity:1"
     id="path14"
     inkscape:connector-curvature="0" />
  <g
     aria-label="}"
     style="font-style:normal;font-weight:normal;font-size:1.55217457px;line-height:1.25;font-family:sans-serif;letter-spacing:0px;word-spacing:0px;fill:#0099ff;fill-opacity:1;stroke:none;stroke-width:0.03880436"
     id="text831">
    <path
       d="m 8.1351541,0.49857842 q 0.00621,0.0450131 0.1785001,0.2623175 0.1117565,0.13814354 0.2235131,0.27628708 0.082265,0.1133087 0.1117566,0.1924696 0.034148,0.091578 0.034148,0.2188567 0,0.1071 -0.062087,0.1878131 -0.068296,0.088474 -0.1722913,0.088474 -0.1039957,0 -0.1707392,-0.08537 -0.062087,-0.079161 -0.062087,-0.1862609 H 8.178615 q 0,0.1164131 0.029491,0.2374827 0.032596,0.1319348 0.088474,0.221961 H 7.9737279 Q 8.0916932,1.7263485 8.0916932,1.4531658 H 8.054441 q 0,0.1071 -0.062087,0.1862609 -0.066743,0.08537 -0.1707392,0.08537 -0.1039957,0 -0.1722913,-0.088474 -0.062087,-0.080713 -0.062087,-0.1878131 0,-0.1272784 0.034148,-0.2188567 Q 7.6508756,1.1504917 7.7331409,1.037183 7.8448975,0.89903946 7.956654,0.76089592 8.1289454,0.54359148 8.1351541,0.49857842 Z"
       style="font-style:normal;font-variant:normal;font-weight:normal;font-stretch:normal;font-family:'Card Characters';-inkscape-font-specification:'Card Characters';fill:#0099ff;fill-opacity:1;stroke-width:0.03880436"
       id="path926" />
  </g>
  <g
     aria-label="}"
     transform="scale(-1)"
     style="font-style:normal;font-weight:normal;font-size:1.55217457px;line-height:1.25;font-family:sans-serif;letter-spacing:0px;word-spacing:0px;fill:#0099ff;fill-opacity:1;stroke:none;stroke-width:0.03880436"
     id="text831-7">
    <path
       d="m -8.1355583,-15.809465 q 0.00621,0.04501 0.1785001,0.262317 0.1117566,0.138144 0.2235131,0.276288 0.082265,0.113308 0.1117566,0.192469 0.034148,0.09158 0.034148,0.218857 0,0.1071 -0.062087,0.187813 -0.068296,0.08847 -0.1722914,0.08847 -0.1039957,0 -0.1707392,-0.08537 -0.062087,-0.07916 -0.062087,-0.186261 h -0.037252 q 0,0.116413 0.029491,0.237483 0.032596,0.131935 0.088474,0.221961 h -0.3228523 q 0.1179652,-0.186261 0.1179652,-0.459444 h -0.037252 q 0,0.1071 -0.062087,0.186261 -0.066743,0.08537 -0.1707392,0.08537 -0.1039957,0 -0.1722914,-0.08847 -0.062087,-0.08071 -0.062087,-0.187813 0,-0.127279 0.034148,-0.218857 0.029491,-0.07916 0.1117566,-0.192469 0.1117566,-0.138144 0.2235132,-0.276288 0.1722913,-0.217304 0.1785,-0.262317 z"
       style="font-style:normal;font-variant:normal;font-weight:normal;font-stretch:normal;font-family:'Card Characters';-inkscape-font-specification:'Card Characters';fill:#0099ff;fill-opacity:1;stroke-width:0.03880436"
       id="path935" />
  </g>
  <g
     aria-label="["
     transform="rotate(60)"
     style="font-style:normal;font-weight:normal;font-size:1.55217457px;line-height:1.25;font-family:sans-serif;letter-spacing:0px;word-spacing:0px;fill:#0099ff;fill-opacity:1;stroke:none;stroke-width:0.03880436"
     id="text831-6">
    <path
       d="m 10.624602,-9.9017913 q 0.276287,-0.2436917 0.509113,-0.6845087 0.232827,0.440817 0.509114,0.6845087 -0.276287,0.2436914 -0.509114,0.6845089 -0.232826,-0.4408175 -0.509113,-0.6845089 z"
       style="font-style:normal;font-variant:normal;font-weight:normal;font-stretch:normal;font-family:'Card Characters';-inkscape-font-specification:'Card Characters';fill:#0099ff;fill-opacity:1;stroke-width:0.03880436"
       id="path923" />
  </g>
  <g
     aria-label="{"
     transform="rotate(-120)"
     style="font-style:normal;font-weight:normal;font-size:1.55217457px;line-height:1.25;font-family:sans-serif;letter-spacing:0px;word-spacing:0px;fill:#0099ff;fill-opacity:1;stroke:none;stroke-width:0.03880436"
     id="text831-7-8">
    <path
       d="m -11.41351,-4.6516362 q -0.125726,0 -0.203335,0.1179652 -0.06985,0.1024435 -0.06985,0.2359306 0,0.1381435 0.114861,0.3321653 0.04346,0.074504 0.237482,0.3461349 0.150561,0.212648 0.200231,0.3352697 0.04967,-0.1226217 0.20023,-0.3352697 0.194022,-0.2716305 0.237483,-0.3461349 0.114861,-0.1940218 0.114861,-0.3321653 0,-0.1334871 -0.06985,-0.2359306 -0.07761,-0.1179652 -0.203335,-0.1179652 -0.124174,0 -0.20023,0.1133087 -0.0683,0.099339 -0.0683,0.2297218 h -0.02328 q 0,-0.1303826 -0.06674,-0.2297218 -0.07606,-0.1133087 -0.200231,-0.1133087 z"
       style="font-style:normal;font-variant:normal;font-weight:normal;font-stretch:normal;font-family:'Card Characters';-inkscape-font-specification:'Card Characters';fill:#0099ff;fill-opacity:1;stroke-width:0.03880436"
       id="path932" />
  </g>
  <g
     aria-label="]"
     transform="rotate(-60)"
     style="font-style:normal;font-weight:normal;font-size:1.55217457px;line-height:1.25;font-family:sans-serif;letter-spacing:0px;word-spacing:0px;fill:#0099ff;fill-opacity:1;stroke:none;stroke-width:0.03880436"
     id="text831-65">
    <path
       d="m -2.6218733,4.0770776 q 0.1195175,0 0.2048871,0.086922 0.08537,0.08537 0.08537,0.2048871 0,0.1195174 -0.08537,0.204887 -0.08537,0.08537 -0.2048871,0.08537 -0.1086522,0 -0.1924696,-0.0714 -0.082265,-0.072952 -0.096235,-0.1816044 h -0.040357 q 0.00621,0.2747349 0.1179653,0.453235 h -0.3228523 q 0.1117566,-0.1785001 0.1179653,-0.453235 h -0.040357 q -0.01397,0.1086522 -0.097787,0.1816044 -0.082265,0.0714 -0.1909175,0.0714 -0.1195174,0 -0.204887,-0.08537 -0.08537,-0.08537 -0.08537,-0.204887 0,-0.1195175 0.08537,-0.2048871 0.08537,-0.086922 0.204887,-0.086922 0.114861,0 0.1986784,0.079161 l 0.027939,-0.048117 q -0.072952,-0.040357 -0.1164131,-0.1133088 -0.043461,-0.072952 -0.043461,-0.1552174 0,-0.1257262 0.090026,-0.2157523 0.090026,-0.090026 0.2157522,-0.090026 0.1257262,0 0.2157523,0.090026 0.090026,0.090026 0.090026,0.2157523 0,0.082265 -0.043461,0.1552174 -0.043461,0.072952 -0.1164131,0.1133088 l 0.027939,0.048117 q 0.083817,-0.079161 0.1986783,-0.079161 z"
       style="font-style:normal;font-variant:normal;font-weight:normal;font-stretch:normal;font-family:'Card Characters';-inkscape-font-specification:'Card Characters';fill:#0099ff;fill-opacity:1;stroke-width:0.03880436"
       id="path929" />
  </g>
  <g
     aria-label="]"
     transform="rotate(120)"
     style="font-style:normal;font-weight:normal;font-size:1.55217457px;line-height:1.25;font-family:sans-serif;letter-spacing:0px;word-spacing:0px;fill:#0099ff;fill-opacity:1;stroke:none;stroke-width:0.03880436"
     id="text831-7-4">
    <path
       d="m 3.3665127,-18.183477 q 0.1195174,0 0.204887,0.08692 0.08537,0.08537 0.08537,0.204887 0,0.119518 -0.08537,0.204887 -0.08537,0.08537 -0.204887,0.08537 -0.1086523,0 -0.1924697,-0.0714 -0.082265,-0.07295 -0.096235,-0.181605 h -0.040357 q 0.00621,0.274735 0.1179653,0.453235 H 2.8325646 q 0.1117566,-0.1785 0.1179653,-0.453235 h -0.040357 q -0.013969,0.108652 -0.097787,0.181605 -0.082265,0.0714 -0.1909174,0.0714 -0.1195175,0 -0.2048871,-0.08537 -0.08537,-0.08537 -0.08537,-0.204887 0,-0.119517 0.08537,-0.204887 0.08537,-0.08692 0.2048871,-0.08692 0.1148609,0 0.1986783,0.07916 l 0.027939,-0.04812 q -0.072952,-0.04036 -0.116413,-0.113309 -0.043461,-0.07295 -0.043461,-0.155217 0,-0.125727 0.090026,-0.215753 0.090026,-0.09003 0.2157523,-0.09003 0.1257261,0 0.2157522,0.09003 0.090026,0.09003 0.090026,0.215753 0,0.08226 -0.043461,0.155217 -0.043461,0.07295 -0.1164131,0.113309 l 0.027939,0.04812 q 0.083817,-0.07916 0.1986784,-0.07916 z"
       style="font-style:normal;font-variant:normal;font-weight:normal;font-stretch:normal;font-family:'Card Characters';-inkscape-font-specification:'Card Characters';fill:#0099ff;fill-opacity:1;stroke-width:0.03880436"
       id="path938" />
  </g>
</svg>
