<svg width="90" height="90" viewBox="0 0 90 90" fill="none" xmlns="http://www.w3.org/2000/svg">
<g clip-path="url(#clip0)">
<rect width="90" height="90" rx="45" fill="#FFDB2A"/>
<path d="M62.4419 0.233979L53.4419 17.234M64.4851 2.1213L59.4851 22.1213M71.3648 6.34201L56.3648 22.342M76.3536 8.35359L61.3536 23.3536M81.3334 11.3727L62.3334 28.3727M83.3536 16.3536L67.3536 32.3536M86.3648 18.342L71.3648 34.342M89.1158 27.4864L68.1158 32.4864M90.178 30.4673L69.178 38.4673M89.806 63.4609L70.806 55.4609M86.8336 66.4715L69.8336 60.4715M84.6911 70.3932L70.6911 59.3932M80.6326 76.3392L68.6326 63.3392M79.6911 78.3932L65.6911 67.3932M73.6326 83.3392L61.6326 70.3392M67.6183 85.323L56.6183 72.323M63.5107 88.103L59.5107 69.103M60.5419 90.2004L53.5419 74.2004M28.576 89.735L38.576 73.735M26.5232 89.8495L32.5232 70.8495M21.6237 86.6708L35.6237 70.6708M14.6821 82.6141L31.6821 68.6141M12.6352 81.6581L27.6352 65.6581M8.66086 75.6326L21.6609 63.6326M2.69627 72.6029L19.6963 59.6029M0.901942 65.5097L20.9019 61.5097M-0.233944 64.5581L16.7661 55.5581M0.027735 56.5008L18.0277 57.5008M0 41.5H17M0.0262794 37.5007L19.0263 38.5007M0.27735 29.584L18.2774 41.584M0.121268 28.515L20.1213 33.515M5.3664 21.6598L18.3664 35.6598M7.36477 16.6581L22.3648 32.6581M11.3881 12.6847L24.3881 28.6847M14.3402 10.6336L28.3402 23.6336M18.3536 6.64648L32.3536 20.6465M25.4838 1.87382L31.4838 24.8738M27.4419 1.76609L36.4419 18.7661M55.4997 -0.982119L54.4997 27.0179M95.9448 38.497L68.9448 35.497M94 41.5H68M93.9828 46.4997L64.9828 45.4997M91 52.5H72M92.9815 57.4997L65.9815 56.4997M54.5 91V73M49.5006 91.9751L50.5006 71.9751M44.5044 90.934L46.5044 75.934M40.5 91V76M34.5034 90.9416L36.5034 73.9416M-1.95025 51.5025L18.0498 53.5025M-2 47.5H17M35.4995 -0.977261L34.4995 21.0227M40.4981 -0.95665L38.4981 22.0434M44.4996 -1.97915L43.4996 22.0209M50.4996 -1.97998L49.4996 23.02" stroke="white" stroke-width="1.5"/>
<rect x="13" y="13" width="64" height="64" rx="32" fill="white"/>
<path fill-rule="evenodd" clip-rule="evenodd" d="M50.0949 15.4309L44 52H52.5L44.9808 75C28.4211 74.9896 15 61.5621 15 45C15 28.4315 28.4315 15 45 15C46.7367 15 48.4389 15.1476 50.0949 15.4309Z" fill="#FFD609"/>
<path d="M25.5 33.5L46 34C46.6667 35.8333 47.6 39.5 46 39.5C44.4 39.5 44 40.5 44 41C43.5 42.5 42.4 45.9 42 47.5C41.6 49.1 40.1667 49.8333 39.5 50H31.5C28.7 50 27.6667 49 27.5 48.5C26.3333 45.6667 23.8 39.4 23 37C22.2 34.6 24.3333 33.6667 25.5 33.5Z" fill="#010101"/>
<path d="M25.5 33.5L46 34C46.6667 35.8333 47.6 39.5 46 39.5C44.4 39.5 44 40.5 44 41C43.5 42.5 42.4 45.9 42 47.5C41.6 49.1 40.1667 49.8333 39.5 50H31.5C28.7 50 27.6667 49 27.5 48.5C26.3333 45.6667 23.8 39.4 23 37C22.2 34.6 24.3333 33.6667 25.5 33.5Z" fill="#010101"/>
<path d="M64.3834 33.5L43.8834 34C43.2168 35.8333 42.2835 39.5 43.8834 39.5C45.4834 39.5 45.8834 40.5 45.8835 41C46.3835 42.5 47.4835 45.9 47.8835 47.5C48.2835 49.1 49.7168 49.8333 50.3835 50H58.3835C61.1835 50 62.2168 49 62.3835 48.5C63.5501 45.6667 66.0834 39.4 66.8834 37C67.6834 34.6 65.5501 33.6667 64.3834 33.5Z" fill="#010101"/>
<path d="M34 58C35.3333 59.5 40.2 62.3 49 61.5" stroke="white" stroke-width="1.5"/>
<path d="M56 57.5C55.3333 58.5 53 60.7 49 61.5" stroke="#FFD609" stroke-width="1.5"/>
</g>
<defs>
<clipPath id="clip0">
<rect width="90" height="90" rx="45" fill="white"/>
</clipPath>
</defs>
</svg>
