<?xml version="1.0" encoding="UTF-8" standalone="no"?>
<svg
   xmlns:dc="http://purl.org/dc/elements/1.1/"
   xmlns:cc="http://creativecommons.org/ns#"
   xmlns:rdf="http://www.w3.org/1999/02/22-rdf-syntax-ns#"
   xmlns:svg="http://www.w3.org/2000/svg"
   xmlns="http://www.w3.org/2000/svg"
   xmlns:sodipodi="http://sodipodi.sourceforge.net/DTD/sodipodi-0.dtd"
   xmlns:inkscape="http://www.inkscape.org/namespaces/inkscape"
   width="1099.407mm"
   height="428.97101mm"
   viewBox="0 0 1099.407 428.97101"
   version="1.1"
   id="svg8"
   inkscape:version="1.0.1 (3bc2e813f5, 2020-09-07)"
   sodipodi:docname="mhk-logo-dark.svg">
  <defs
     id="defs2" />
  <sodipodi:namedview
     id="base"
     pagecolor="#ffffff"
     bordercolor="#666666"
     borderopacity="1.0"
     inkscape:pageopacity="0.0"
     inkscape:pageshadow="2"
     inkscape:zoom="0.35"
     inkscape:cx="1249.9537"
     inkscape:cy="560"
     inkscape:document-units="mm"
     inkscape:current-layer="layer1"
     inkscape:document-rotation="0"
     showgrid="false"
     inkscape:window-width="2560"
     inkscape:window-height="1377"
     inkscape:window-x="-8"
     inkscape:window-y="-8"
     inkscape:window-maximized="1" />
  <metadata
     id="metadata5">
    <rdf:RDF>
      <cc:Work
         rdf:about="">
        <dc:format>image/svg+xml</dc:format>
        <dc:type
           rdf:resource="http://purl.org/dc/dcmitype/StillImage" />
        <dc:title />
      </cc:Work>
    </rdf:RDF>
  </metadata>
  <g
     inkscape:label="Слой 1"
     inkscape:groupmode="layer"
     id="layer1">
    <path
       style="fill:#000000;stroke-width:0.352778"
       id="path24"
       d="" />
    <path
       style="fill:#222222;stroke-width:1.34897;fill-opacity:1"
       d="M 253.32782,395.58411 C 157.38083,192.66144 89.755169,50.975021 85.758409,44.49973 74.072879,25.56768 49.069709,10.79175 28.719319,10.79175 h -5.78692 V 5.3959 4e-5 h 75.63958 75.639591 l 8.52192,17.87377 c 4.68703,9.83059 29.1474,61.276746 54.35636,114.32482 59.31864,124.82619 57.76616,121.74294 65.20892,129.50558 7.88468,8.22359 13.2228,9.58963 21.32375,5.45684 8.26079,-4.21433 15.29949,-14.26102 31.40358,-44.82393 7.92682,-15.04375 15.05916,-27.56785 15.84966,-27.83136 0.79046,-0.2635 1.78501,0.42716 2.21003,1.5348 0.58986,1.53712 -56.40323,144.89612 -88.71459,223.15045 l -4.03821,9.77999 h -5.60949 -5.60953 z M 0,419.52825 c 0,-5.31928 0.07074,-5.39586 4.972443,-5.39586 7.760906,0 21.949676,-4.02015 30.100646,-8.52849 11.46693,-6.34242 25.19328,-21.24985 32.65531,-35.46514 14.37725,-27.38893 20.15244,-53.61286 23.20111,-105.35138 1.05847,-17.96273 2.31434,-33.29034 2.79086,-34.06137 1.80153,-2.91494 4.64604,-1.30349 5.26421,2.98226 0.34796,2.41128 1.266531,18.95296 2.041621,36.75931 0.86071,19.77202 2.45487,38.47226 4.0951,48.03749 7.31971,42.68515 23.34733,73.1676 45.83892,87.17966 6.1849,3.85314 20.63626,8.44766 26.57082,8.44766 4.44319,0 4.57928,0.16037 4.57928,5.39586 v 5.39586 H 91.055159 0 Z m 406.03856,0.10844 c 0,-5.15128 0.17475,-5.3455 6.7867,-7.54163 7.85654,-2.60953 13.919,-7.29545 17.2059,-13.29919 2.14368,-3.9156 2.34164,-16.85991 2.71576,-177.56554 0.42223,-181.38455 0.39493,-182.36736 -5.45137,-196.0268 -2.2168,-5.17942 -4.17568,-7.29726 -9.65822,-10.44183 -3.78254,-2.16957 -7.9397,-3.95033 -9.23809,-3.95729 -1.85272,-0.0115 -2.36068,-1.17377 -2.36068,-5.40851 V 0 h 62.7269 62.72686 v 5.14218 c 0,4.14883 -0.7814,5.71993 -4.04508,8.13289 -9.05023,6.6911 -8.72853,2.90493 -9.1589,107.79459 l -0.38877,94.76481 h 72.89567 72.89571 l -0.0115,-88.01998 C 663.66795,23.88538 663.13605,18.23409 652.81168,12.36044 649.55687,10.50879 648.8672,9.23434 648.86016,5.05863 L 648.85216,0 h 62.7269 62.72686 v 5.18237 c 0,4.84702 -0.33726,5.28336 -5.21319,6.74422 -10.33553,3.09662 -16.51864,11.05189 -19.07767,24.54557 -1.88993,9.96568 -1.89131,351.71565 -10e-4,358.73414 1.94668,7.22944 9.02495,14.0719 17.45246,16.87107 6.67073,2.21565 6.83985,2.40257 6.83985,7.55929 v 5.28744 h -62.7269 -62.7269 l 0.008,-5.05862 c 0.008,-4.22062 0.68822,-5.44542 4.11135,-7.39357 2.46653,-1.40371 5.28765,-4.90074 7.07357,-8.76828 2.9473,-6.38265 2.9738,-7.09998 3.36494,-91.0809 l 0.3942,-84.64757 h -72.94848 -72.94852 l 0.38464,85.99654 c 0.42559,95.15827 0.0268,90.93008 9.17515,97.69252 3.24261,2.39735 4.02463,3.97469 4.02463,8.1177 v 5.14218 h -62.72716 -62.72691 v -5.28744 z m 574.65922,3.89568 c -20.845,-2.46577 -35.3218,-8.56463 -50.1459,-21.12584 -14.5805,-12.35464 -23.49845,-23.61929 -68.14295,-86.07414 -14.84991,-20.77407 -34.66264,-48.34626 -44.02833,-61.27155 l -17.02847,-23.5005 5.79614,-6.85122 c 17.5687,-20.76672 82.52448,-100.16099 89.48226,-109.37258 24.66865,-32.659334 36.47885,-63.119881 31.53955,-81.34548 -3.2799,-12.10268 -17.05481,-20.6555 -36.71343,-22.79532 L 881.54885,10.11727 881.13018,5.05863 880.71151,0 h 99.31177 99.31182 l -0.4186,5.05863 -0.4187,5.05864 -12.8151,0.82851 c -16.9047,1.09296 -23.6456,2.89533 -39.7945,10.64021 -31.30682,15.01449 -68.03212,48.092955 -116.81647,105.21679 -16.49317,19.31256 -41.68703,50.61661 -41.68703,51.79726 0,0.38747 34.20382,46.42416 76.00848,102.30382 54.2709,72.54313 78.47922,103.84149 84.64762,109.43923 15.7175,14.26338 40.7606,23.78929 62.5408,23.78929 h 8.8252 v 5.39586 5.39586 l -54.9704,-0.17731 c -30.2337,-0.0976 -58.91602,-0.64403 -63.73862,-1.21448 z"
       id="path40" />
  </g>
</svg>
