<svg width="36" height="36" viewBox="0 0 36 36" fill="none" xmlns="http://www.w3.org/2000/svg">
<path fill-rule="evenodd" clip-rule="evenodd" d="M18 36C27.9411 36 36 27.9411 36 18C36 8.05887 27.9411 0 18 0C8.05887 0 0 8.05887 0 18C0 27.9411 8.05887 36 18 36ZM25.08 11.76C27.002 11.76 28.56 10.2019 28.56 8.27999C28.56 6.35804 27.002 4.79999 25.08 4.79999C23.1581 4.79999 21.6 6.35804 21.6 8.27999C21.6 10.2019 23.1581 11.76 25.08 11.76ZM10.32 15.36C10.32 17.0831 8.92313 18.48 7.2 18.48C5.47687 18.48 4.08 17.0831 4.08 15.36C4.08 13.6369 5.47687 12.24 7.2 12.24C8.92313 12.24 10.32 13.6369 10.32 15.36ZM19.8 24.48C21.4569 24.48 22.8 23.1369 22.8 21.48C22.8 19.8232 21.4569 18.48 19.8 18.48C18.1432 18.48 16.8 19.8232 16.8 21.48C16.8 23.1369 18.1432 24.48 19.8 24.48ZM13.92 5.87998C13.92 7.00664 13.0067 7.91998 11.88 7.91998C10.7533 7.91998 9.84 7.00664 9.84 5.87998C9.84 4.75332 10.7533 3.83998 11.88 3.83998C13.0067 3.83998 13.92 4.75332 13.92 5.87998ZM31.32 21.12C32.4466 21.12 33.36 20.2066 33.36 19.08C33.36 17.9533 32.4466 17.04 31.32 17.04C30.1933 17.04 29.28 17.9533 29.28 19.08C29.28 20.2066 30.1933 21.12 31.32 21.12ZM25.68 30.84C25.68 31.9666 24.7667 32.88 23.64 32.88C22.5134 32.88 21.6 31.9666 21.6 30.84C21.6 29.7133 22.5134 28.8 23.64 28.8C24.7667 28.8 25.68 29.7133 25.68 30.84ZM10.32 27.36C11.2479 27.36 12 26.6078 12 25.68C12 24.7521 11.2479 24 10.32 24C9.3922 24 8.64004 24.7521 8.64004 25.68C8.64004 26.6078 9.3922 27.36 10.32 27.36Z" fill="#FBC509"/>
</svg>
