<svg width="168" height="168" viewBox="0 0 168 168" fill="none" xmlns="http://www.w3.org/2000/svg">
<path fill-rule="evenodd" clip-rule="evenodd" d="M42 42L84 84L126 42L84 0L42 42ZM97.4472 25.1006C97.559 25.035 97.6859 25.0003 97.8151 25C98.0104 25 98.1978 25.0784 98.3358 25.218C98.4739 25.3575 98.5514 25.5467 98.5514 25.7441C98.5513 25.8747 98.5171 26.0029 98.4524 26.116C98.3877 26.229 98.2946 26.3228 98.1826 26.388L98.1832 26.3891L95.7039 27.763L98.1831 29.1369L98.1825 29.138C98.2945 29.2032 98.3876 29.297 98.4523 29.4101C98.517 29.5231 98.5512 29.6514 98.5513 29.782C98.5513 29.9793 98.4738 30.1685 98.3357 30.3081C98.1976 30.4476 98.0104 30.526 97.8151 30.526C97.6859 30.5258 97.5584 30.4918 97.4466 30.4262C97.4466 30.4262 95.4344 29.2599 94.5802 28.7831C93.8801 28.3924 93.8293 27.922 93.8334 27.7631C93.8293 27.6042 93.8801 27.1339 94.5802 26.7431C95.4344 26.2663 97.4472 25.1006 97.4472 25.1006ZM79.9878 25.593C80.2949 25.4644 80.6241 25.3983 80.9565 25.3983C81.6279 25.3983 82.2718 25.6678 82.7465 26.1476C83.2212 26.6273 83.4879 27.278 83.4879 27.9565C83.4879 28.2924 83.4225 28.6251 83.2953 28.9355C83.1681 29.2459 82.9816 29.5279 82.7465 29.7654C82.5115 30.003 82.2324 30.1914 81.9253 30.32C81.6182 30.4486 81.289 30.5148 80.9565 30.5148C80.6241 30.5148 80.2949 30.4486 79.9878 30.32C79.6806 30.1915 79.4015 30.003 79.1665 29.7655C78.9314 29.5279 78.7449 29.2459 78.6177 28.9355C78.4905 28.6251 78.425 28.2924 78.425 27.9565C78.425 27.6205 78.4905 27.2879 78.6177 26.9775C78.745 26.6671 78.9314 26.3851 79.1665 26.1475C79.4016 25.91 79.6806 25.7216 79.9878 25.593ZM106.06 34.1457C106.342 34.0018 106.654 33.9266 106.97 33.9262C107.237 33.9262 107.501 33.9792 107.747 34.0823C107.993 34.1854 108.217 34.3364 108.406 34.5269C108.594 34.7174 108.744 34.9435 108.846 35.1923C108.948 35.4412 109 35.7079 109 35.9773C108.999 36.3999 108.869 36.8119 108.628 37.157L108.63 37.1588L105.447 41.6787L108.63 46.1987L108.628 46.2004C108.869 46.5455 108.999 46.9576 109 47.3802C109 47.6496 108.947 47.9163 108.845 48.1651C108.743 48.414 108.594 48.6401 108.406 48.8305C108.217 49.021 107.993 49.172 107.747 49.2751C107.501 49.3782 107.237 49.4312 106.97 49.4312C106.654 49.4307 106.342 49.3556 106.06 49.2117C105.777 49.0678 105.532 48.8593 105.344 48.6026L105.34 48.6051L101.319 42.8915L101.326 42.889C101.068 42.5391 100.927 42.1152 100.924 41.6787C100.927 41.2423 101.068 40.8182 101.326 40.4683L101.319 40.4659L105.34 34.7523L105.344 34.7549C105.532 34.4982 105.777 34.2896 106.06 34.1457ZM77.2954 53.6202C77.2954 53.0235 77.7518 52.5399 78.3147 52.5399C78.5296 52.5403 78.739 52.6128 78.9127 52.7469L79.0017 52.8066C79.0017 52.8066 83.4296 55.953 88.9593 55.8567C94.489 55.953 98.9168 52.8066 98.9168 52.8066L99.0057 52.7469C99.1795 52.6128 99.3889 52.5405 99.6038 52.5399C100.167 52.5399 100.623 53.0235 100.623 53.6202C100.623 54.032 100.402 54.4078 100.053 54.5892C94.1486 58.3317 88.9593 57.992 88.9593 57.992C88.9593 57.992 83.7698 58.3317 77.8655 54.5892C77.5168 54.4078 77.2956 54.032 77.2954 53.6202ZM91.5997 33.8662C91.787 33.8484 91.975 33.8388 92.1632 33.8374C92.3513 33.8388 92.5394 33.8484 92.7267 33.8662C92.8286 33.8762 92.9303 33.8887 93.0316 33.9036C93.1488 33.9183 93.2656 33.9362 93.3819 33.9573C93.4757 33.9765 93.5692 33.9977 93.6621 34.0209C93.7839 34.0487 93.9049 34.0799 94.0249 34.1147C94.1103 34.1414 94.1952 34.17 94.2795 34.2002C94.4034 34.2418 94.5262 34.2871 94.6474 34.3361C94.7253 34.3695 94.8024 34.4044 94.8789 34.4408C95.0028 34.4967 95.1249 34.5564 95.2451 34.6198C95.3144 34.6584 95.383 34.6982 95.4509 34.7392C95.5735 34.8099 95.6938 34.8846 95.8117 34.9631C95.8722 35.0053 95.9321 35.0485 95.9912 35.0928C96.1107 35.1784 96.2273 35.2682 96.3409 35.3617C96.3929 35.4065 96.4443 35.4522 96.495 35.4986C96.6096 35.5993 96.7207 35.704 96.8281 35.8126C96.8721 35.8589 96.9155 35.9059 96.9581 35.9535C97.0649 36.068 97.1676 36.1863 97.2661 36.3082C97.3038 36.3568 97.3407 36.406 97.377 36.4557C97.474 36.5828 97.5663 36.7135 97.6538 36.8474C97.6841 36.8958 97.7137 36.9447 97.7428 36.9939C97.829 37.1337 97.91 37.2767 97.9857 37.4226C98.0094 37.4708 98.0326 37.5192 98.0551 37.568C98.1286 37.7184 98.1964 37.8716 98.2583 38.0272C98.2765 38.0759 98.2942 38.1249 98.3113 38.174C98.37 38.3324 98.4228 38.4931 98.4693 38.6556C98.4823 38.7046 98.4947 38.7537 98.5065 38.803C98.5499 38.9685 98.5869 39.1356 98.6175 39.3041C98.625 39.3513 98.6321 39.3987 98.6387 39.4461C98.6659 39.6169 98.6864 39.7887 98.7003 39.9611C98.7093 40.0698 98.7155 40.1787 98.7192 40.2877H98.7207V40.3309C98.7218 40.3565 98.7229 40.3821 98.7237 40.4077L98.7255 40.4691L98.725 40.4819L98.724 40.4985L98.7234 40.5082L98.7227 40.5232H98.7205L98.7196 47.4569C98.7136 47.9825 98.5027 48.4845 98.1328 48.8541C97.763 49.2236 97.2638 49.431 96.7437 49.4311C96.2236 49.4309 95.7246 49.2235 95.3548 48.8539C94.985 48.4844 94.7742 47.9824 94.7681 47.4569H94.767V40.3008C94.7335 39.7699 94.542 39.2617 94.2177 38.8427C93.8934 38.4236 93.4515 38.1134 92.9497 37.9526C92.8742 37.9288 92.7977 37.9085 92.7204 37.8918L92.6955 37.8854C92.6338 37.8732 92.5716 37.8632 92.5092 37.8556C92.4841 37.8513 92.4588 37.8474 92.4336 37.8439C92.3861 37.8399 92.3386 37.8372 92.291 37.8357C92.2484 37.8325 92.2056 37.8304 92.163 37.8293C92.1257 37.8303 92.0884 37.8322 92.0512 37.8349C91.9979 37.8364 91.9446 37.8395 91.8915 37.8442C91.8701 37.8472 91.8487 37.8504 91.8273 37.854C91.7613 37.8619 91.6957 37.8724 91.6306 37.8854L91.611 37.8904C91.0563 38.0123 90.556 38.3135 90.1857 38.7484C89.8155 39.1833 89.5956 39.7283 89.5592 40.3008V47.4569H89.5581C89.5521 47.9824 89.3413 48.4844 88.9715 48.8539C88.6017 49.2235 88.1026 49.4309 87.5825 49.4312C87.0624 49.431 86.5633 49.2236 86.1934 48.8541C85.8235 48.4845 85.6118 47.9825 85.6057 47.4569V40.5232H85.6029L85.6009 40.4691C85.6021 40.423 85.6037 40.377 85.6058 40.3309V40.2877H85.6073C85.6109 40.1787 85.6172 40.0697 85.6261 39.961C85.6399 39.7903 85.6603 39.6202 85.6871 39.451C85.694 39.4011 85.7014 39.3513 85.7094 39.3016C85.7398 39.1346 85.7765 38.9689 85.8195 38.8048C85.8315 38.7548 85.8441 38.705 85.8572 38.6553C85.9038 38.4929 85.9565 38.3323 86.0152 38.174C86.0323 38.1248 86.05 38.0759 86.0683 38.0271C86.1298 37.8725 86.1972 37.7202 86.2701 37.5706C86.2932 37.5206 86.317 37.4709 86.3413 37.4215C86.4168 37.2762 86.4976 37.1337 86.5835 36.9945C86.6126 36.9451 86.6423 36.896 86.6727 36.8474C86.7602 36.7135 86.8525 36.5828 86.9494 36.4557C86.9857 36.406 87.0227 36.3568 87.0604 36.3082C87.1588 36.1863 87.2616 36.068 87.3684 35.9535C87.411 35.9059 87.4543 35.8589 87.4983 35.8126C87.6058 35.704 87.7169 35.5993 87.8315 35.4986C87.8821 35.4522 87.9335 35.4065 87.9856 35.3617C88.0989 35.2684 88.2152 35.1789 88.3344 35.0934C88.394 35.0488 88.4543 35.0052 88.5153 34.9627C88.6325 34.8846 88.7521 34.8104 88.874 34.7402C88.9426 34.6987 89.012 34.6584 89.0821 34.6195C89.2018 34.5563 89.3234 34.4968 89.4468 34.4412C89.5236 34.4047 89.601 34.3696 89.6791 34.3362C89.8004 34.2872 89.9231 34.2418 90.047 34.2002C90.1313 34.17 90.2161 34.1414 90.3016 34.1147C90.4216 34.0799 90.5426 34.0487 90.6643 34.0209C90.7573 33.9977 90.8507 33.9765 90.9446 33.9573C91.0609 33.9362 91.1777 33.9183 91.2949 33.9036C91.3962 33.8887 91.4978 33.8762 91.5997 33.8662ZM59.579 34.5549C59.9497 34.1802 60.4525 33.9698 60.9767 33.9698C61.4463 33.9703 61.9003 34.1398 62.2575 34.4479C62.6147 34.756 62.8517 35.1825 62.926 35.6511L62.9305 35.6502L64.0917 40.4202L65.8678 35.2931L65.8744 35.2955L65.8782 35.2865C65.8965 35.236 65.9168 35.1863 65.9391 35.1376C65.9444 35.1254 65.9498 35.1132 65.9554 35.1011C65.9783 35.0535 66.0031 35.0069 66.0297 34.9613C66.0363 34.9494 66.043 34.9375 66.0498 34.9258C66.077 34.8815 66.1058 34.8383 66.1362 34.7963L66.1473 34.7804L66.1619 34.76C66.1922 34.7201 66.2241 34.6814 66.2573 34.6439C66.2681 34.6312 66.2791 34.6185 66.2902 34.6061C66.3239 34.57 66.3589 34.5351 66.3952 34.5016L66.4119 34.4857L66.4317 34.4673C66.4676 34.4358 66.5047 34.4056 66.5427 34.3769C66.553 34.3688 66.5633 34.3608 66.5737 34.3529L66.5887 34.3415C66.6255 34.3155 66.6631 34.2907 66.7016 34.2673L66.73 34.2493L66.7561 34.2334C66.7945 34.2117 66.8335 34.1913 66.8732 34.1722C66.893 34.1621 66.9131 34.1523 66.9333 34.1428C66.9715 34.1261 67.0102 34.1105 67.0494 34.0962C67.0727 34.0871 67.0961 34.0785 67.1197 34.0703C67.1572 34.0583 67.1949 34.0474 67.233 34.0377C67.2593 34.0303 67.2857 34.0235 67.3123 34.0173C67.3481 34.0098 67.384 34.0032 67.4202 33.9977C67.4497 33.9925 67.4794 33.988 67.5091 33.9841C67.5434 33.9805 67.5778 33.9778 67.6123 33.976C67.6527 33.9727 67.6941 33.9706 67.7347 33.9698C67.7744 33.9706 67.814 33.9726 67.8536 33.9758C67.8895 33.9776 67.9254 33.9804 67.9612 33.9842C67.9888 33.9879 68.0163 33.9921 68.0438 33.9969C68.082 34.0027 68.12 34.0096 68.1578 34.0176C68.1831 34.0236 68.2083 34.0301 68.2333 34.0371C68.2721 34.047 68.3106 34.0581 68.3488 34.0703C68.3724 34.0785 68.3958 34.0872 68.4191 34.0963C68.4583 34.1106 68.497 34.1261 68.5352 34.1429C68.5554 34.1523 68.5754 34.1621 68.5953 34.1723C68.6351 34.1914 68.6742 34.2118 68.7126 34.2335C68.7304 34.2442 68.748 34.2551 68.7654 34.2662C68.8047 34.2902 68.843 34.3155 68.8805 34.3421C68.8953 34.3532 68.9099 34.3644 68.9244 34.3758C68.9629 34.4049 69.0004 34.4355 69.0368 34.4673L69.0618 34.4906L69.0733 34.5016C69.1097 34.5352 69.1447 34.57 69.1785 34.6062C69.1893 34.6183 69.2 34.6306 69.2105 34.643C69.2442 34.6809 69.2763 34.7202 69.307 34.7606C69.3153 34.772 69.3235 34.7836 69.3315 34.7952C69.3623 34.8376 69.3914 34.8812 69.4187 34.9259C69.4254 34.9374 69.4319 34.9489 69.4384 34.9605C69.4652 35.0065 69.4903 35.0536 69.5134 35.1016C69.5187 35.1132 69.5238 35.1249 69.5289 35.1367C69.5514 35.1858 69.5719 35.2358 69.5904 35.2866L69.594 35.2955L69.6007 35.2931L71.3767 40.4203L72.5379 35.6502L72.5425 35.6511C72.6168 35.1826 72.8538 34.756 73.211 34.4479C73.5682 34.1399 74.0222 33.9703 74.4918 33.9698C75.0161 33.9698 75.5188 34.1802 75.8895 34.5549C76.2603 34.9295 76.4685 35.4376 76.4685 35.9674C76.468 36.1156 76.4511 36.2632 76.4182 36.4076L76.4225 36.4085L73.619 47.9578L73.6137 47.9565C73.5001 48.3795 73.2521 48.753 72.9078 49.0195C72.5635 49.286 72.142 49.4306 71.7083 49.4312C71.2889 49.4307 70.8805 49.2953 70.5422 49.0448C70.2038 48.7942 69.9532 48.4414 69.8264 48.0374L69.8239 48.0497L67.7342 42.0229L65.6446 48.0497L65.6421 48.0374C65.5154 48.4414 65.2647 48.7942 64.9264 49.0448C64.5881 49.2953 64.1797 49.4307 63.7602 49.4312C63.3265 49.4306 62.905 49.286 62.5607 49.0195C62.2164 48.753 61.9684 48.3795 61.8549 47.9565L61.8495 47.9578L59.046 36.4085L59.0503 36.4076C59.0174 36.2632 59.0006 36.1156 59 35.9674C59 35.4376 59.2083 34.9295 59.579 34.5549ZM79.652 34.5437C80.0215 34.1763 80.5189 33.9702 81.0372 33.9699C81.5556 33.9701 82.0531 34.1761 82.4226 34.5435C82.7921 34.9109 83.0041 35.4103 83.0127 35.9341H83.0138V47.571H83.007C82.9725 48.0754 82.7501 48.5479 82.3845 48.8931C82.0189 49.2383 81.5374 49.4306 81.0371 49.4312C80.5364 49.4311 80.0544 49.2391 79.6884 48.8938C79.3224 48.5486 79.0997 48.0758 79.0652 47.571H79.0604V35.9341H79.0621C79.0708 35.4104 79.2826 34.9111 79.652 34.5437Z" fill="black"/>
<path fill-rule="evenodd" clip-rule="evenodd" d="M-42 42L0 84L42 42L0 0L-42 42ZM11.0193 29.9795C7.83144 26.7916 3.50772 25.0006 -1.00066 25.0006C-4.36271 25.0006 -7.64926 25.9976 -10.4447 27.8654C-13.2402 29.7333 -15.4189 32.3881 -16.7055 35.4943C-17.9921 38.6004 -18.3288 42.0183 -17.6729 45.3158C-17.017 48.6132 -15.398 51.6421 -13.0207 54.0195C-10.6433 56.3968 -7.61442 58.0158 -4.31697 58.6717C-1.01951 59.3276 2.39839 58.991 5.50452 57.7043C8.61066 56.4177 11.2655 54.239 13.1334 51.4435C15.0012 48.6481 15.9982 45.3615 15.9982 41.9995C15.9982 37.4911 14.2073 33.1674 11.0193 29.9795ZM12.0546 52.5037C12.6691 51.7181 13.0838 51.143 13.4934 50.3964C13.8387 49.8464 14.2857 48.8947 14.5991 48.0965C14.9109 47.299 15.2224 46.2462 15.2224 46.2462C15.2224 46.2462 14.7796 45.6494 13.5924 45.0087C12.4051 44.3674 11.768 44.2365 11.768 44.2365C11.768 44.2365 11.713 45.644 10.1888 48.4886C8.48758 51.2307 7.29628 51.9821 7.29628 51.9821C7.29628 51.9821 7.72784 52.4682 8.87674 53.1765C10.0254 53.884 10.7288 53.9634 10.7288 53.9634C10.7288 53.9634 11.44 53.2889 12.0546 52.5037ZM-3.54449 58.5726C-2.55686 58.7123 -1.85165 58.7833 -1 58.765C-0.351192 58.7892 0.696392 58.7004 1.54428 58.5726C2.39175 58.4441 3.45876 58.187 3.45876 58.187C3.45876 58.187 3.75412 57.5056 3.71569 56.1566C3.67725 54.8078 3.47171 54.1907 3.47171 54.1907C3.47171 54.1907 2.22526 54.8468 -1 54.9494C-4.22548 54.8468 -5.47192 54.1907 -5.47192 54.1907C-5.47192 54.1907 -5.67726 54.8078 -5.7157 56.1566C-5.75434 57.5056 -5.47129 58.1544 -5.47129 58.1544C-5.47129 58.1544 -4.53213 58.4328 -3.54449 58.5726ZM-3.54449 25.4861C-2.55686 25.3463 -1.85165 25.2753 -1 25.2937C-0.351192 25.2694 0.696392 25.3582 1.54428 25.4861C2.39175 25.6145 3.45876 25.8717 3.45876 25.8717C3.45876 25.8717 3.75412 26.5531 3.71569 27.9021C3.67725 29.2509 3.47171 29.8679 3.47171 29.8679C3.47171 29.8679 2.22526 29.2118 -1 29.1093C-4.22548 29.2118 -5.47192 29.8679 -5.47192 29.8679C-5.47192 29.8679 -5.67726 29.2509 -5.7157 27.9021C-5.75434 26.5531 -5.47129 25.9043 -5.47129 25.9043C-5.47129 25.9043 -4.53213 25.6258 -3.54449 25.4861ZM-16.5997 48.0978C-16.2266 49.0232 -15.9359 49.6693 -15.4943 50.3977C-15.1905 50.9719 -14.59 51.8346 -14.0554 52.5049C-13.52 53.174 -12.7645 53.9699 -12.7645 53.9699C-12.7645 53.9699 -12.0261 53.8853 -10.8774 53.1769C-9.72868 52.4694 -9.29691 51.9833 -9.29691 51.9833C-9.29691 51.9833 -10.4884 51.232 -12.1896 48.4897C-13.7137 45.6452 -13.7688 44.2377 -13.7688 44.2377C-13.7688 44.2377 -14.4059 44.3685 -15.5931 45.0091C-16.7804 45.6504 -17.2007 46.2201 -17.2007 46.2201C-17.2007 46.2201 -16.9728 47.1728 -16.5997 48.0978ZM12.054 31.5549C12.6687 32.3399 13.0832 32.9156 13.4928 33.6616C13.8381 34.2118 14.2851 35.1633 14.5984 35.9615C14.9109 36.7596 15.222 37.8125 15.222 37.8125C15.222 37.8125 14.7789 38.4088 13.5918 39.0499C12.4045 39.6912 11.7674 39.8216 11.7674 39.8216C11.7674 39.8216 11.7124 38.4141 10.1881 35.5694C8.48695 32.8279 7.29565 32.0765 7.29565 32.0765C7.29565 32.0765 7.72742 31.5898 8.87611 30.8821C10.0248 30.1746 10.7288 30.0952 10.7288 30.0952C10.7288 30.0952 11.4394 30.7691 12.054 31.5549ZM-16.5991 35.9602C-16.226 35.0355 -15.9354 34.3887 -15.4936 33.661C-15.1899 33.0867 -14.5893 32.224 -14.0548 31.5537C-13.52 30.884 -12.7639 30.0881 -12.7639 30.0881C-12.7639 30.0881 -12.0254 30.1733 -10.8767 30.8811C-9.72806 31.5886 -9.29649 32.0753 -9.29649 32.0753C-9.29649 32.0753 -10.4878 32.8267 -12.189 35.569C-13.7131 38.4128 -13.7682 39.8203 -13.7682 39.8203C-13.7682 39.8203 -14.4053 39.6902 -15.5924 39.0489C-16.7798 38.4076 -17.2007 37.8379 -17.2007 37.8379C-17.2007 37.8379 -16.9722 36.8858 -16.5991 35.9602ZM8.31552 41.695C8.57955 41.8071 8.76546 42.0689 8.76546 42.3738C8.76546 42.6638 8.59793 42.9145 8.35416 43.0348L8.34769 43.0381H8.34727L-5.09773 50.281C-5.22035 50.3718 -5.37159 50.4259 -5.53598 50.4259C-5.9427 50.4259 -6.27295 50.0957 -6.27295 49.689L-6.27128 49.6443L-6.27169 49.6436L-5.66779 33.8937L-5.66884 33.8563C-5.66884 33.8236 -5.66654 33.7914 -5.66257 33.7592V33.7573C-5.61369 33.3978 -5.30537 33.1194 -4.93208 33.1194C-4.74575 33.1194 -4.57551 33.1892 -4.44537 33.3036H-4.44474L8.31552 41.695ZM-0.886929 40.3065L-0.922649 41.7929L0.433048 41.056L-0.886929 40.3065ZM-2.31365 39.5219L-2.59941 46.0616L-4.96551 47.3341L-3.91918 48.0594L5.67702 42.6851V41.6858L-2.01682 45.7407L-1.75507 39.8548L-2.31365 39.5219ZM-4.48965 45.9189L-3.45544 45.3006L-3.14587 37.631L2.12151 41.0438L-1.07743 42.7563L-1.10104 44.0168L4.44019 41.0917L-3.7529 35.7167L-4.92979 36.4541L-4.12096 36.9655L-4.48965 45.9189Z" fill="black"/>
<path fill-rule="evenodd" clip-rule="evenodd" d="M126 42L168 84L210 42L168 0L126 42ZM179.019 29.9795C175.831 26.7916 171.508 25.0006 166.999 25.0006C163.637 25.0006 160.351 25.9976 157.555 27.8654C154.76 29.7333 152.581 32.3881 151.294 35.4943C150.008 38.6004 149.671 42.0183 150.327 45.3158C150.983 48.6132 152.602 51.6421 154.979 54.0195C157.357 56.3968 160.386 58.0158 163.683 58.6717C166.98 59.3276 170.398 58.991 173.505 57.7043C176.611 56.4177 179.266 54.239 181.133 51.4435C183.001 48.6481 183.998 45.3615 183.998 41.9995C183.998 37.4911 182.207 33.1674 179.019 29.9795ZM180.055 52.5037C180.669 51.7181 181.084 51.143 181.493 50.3964C181.839 49.8464 182.286 48.8947 182.599 48.0965C182.911 47.299 183.222 46.2462 183.222 46.2462C183.222 46.2462 182.78 45.6494 181.592 45.0087C180.405 44.3674 179.768 44.2365 179.768 44.2365C179.768 44.2365 179.713 45.644 178.189 48.4886C176.488 51.2307 175.296 51.9821 175.296 51.9821C175.296 51.9821 175.728 52.4682 176.877 53.1765C178.025 53.884 178.729 53.9634 178.729 53.9634C178.729 53.9634 179.44 53.2889 180.055 52.5037ZM164.456 58.5726C165.443 58.7123 166.148 58.7833 167 58.765C167.649 58.7892 168.696 58.7004 169.544 58.5726C170.392 58.4441 171.459 58.187 171.459 58.187C171.459 58.187 171.754 57.5056 171.716 56.1566C171.677 54.8078 171.472 54.1907 171.472 54.1907C171.472 54.1907 170.225 54.8468 167 54.9494C163.775 54.8468 162.528 54.1907 162.528 54.1907C162.528 54.1907 162.323 54.8078 162.284 56.1566C162.246 57.5056 162.529 58.1544 162.529 58.1544C162.529 58.1544 163.468 58.4328 164.456 58.5726ZM164.456 25.4861C165.443 25.3463 166.148 25.2753 167 25.2937C167.649 25.2694 168.696 25.3582 169.544 25.4861C170.392 25.6145 171.459 25.8717 171.459 25.8717C171.459 25.8717 171.754 26.5531 171.716 27.9021C171.677 29.2509 171.472 29.8679 171.472 29.8679C171.472 29.8679 170.225 29.2118 167 29.1093C163.775 29.2118 162.528 29.8679 162.528 29.8679C162.528 29.8679 162.323 29.2509 162.284 27.9021C162.246 26.5531 162.529 25.9043 162.529 25.9043C162.529 25.9043 163.468 25.6258 164.456 25.4861ZM151.4 48.0978C151.773 49.0232 152.064 49.6693 152.506 50.3977C152.809 50.9719 153.41 51.8346 153.945 52.5049C154.48 53.174 155.236 53.9699 155.236 53.9699C155.236 53.9699 155.974 53.8853 157.123 53.1769C158.271 52.4694 158.703 51.9833 158.703 51.9833C158.703 51.9833 157.512 51.232 155.81 48.4897C154.286 45.6452 154.231 44.2377 154.231 44.2377C154.231 44.2377 153.594 44.3685 152.407 45.0091C151.22 45.6504 150.799 46.2201 150.799 46.2201C150.799 46.2201 151.027 47.1728 151.4 48.0978ZM180.054 31.5549C180.669 32.3399 181.083 32.9156 181.493 33.6616C181.838 34.2118 182.285 35.1633 182.598 35.9615C182.911 36.7596 183.222 37.8125 183.222 37.8125C183.222 37.8125 182.779 38.4088 181.592 39.0499C180.404 39.6912 179.767 39.8216 179.767 39.8216C179.767 39.8216 179.712 38.4141 178.188 35.5694C176.487 32.8279 175.296 32.0765 175.296 32.0765C175.296 32.0765 175.727 31.5898 176.876 30.8821C178.025 30.1746 178.729 30.0952 178.729 30.0952C178.729 30.0952 179.439 30.7691 180.054 31.5549ZM151.401 35.9602C151.774 35.0355 152.065 34.3887 152.506 33.661C152.81 33.0867 153.411 32.224 153.945 31.5537C154.48 30.884 155.236 30.0881 155.236 30.0881C155.236 30.0881 155.975 30.1733 157.123 30.8811C158.272 31.5886 158.704 32.0753 158.704 32.0753C158.704 32.0753 157.512 32.8267 155.811 35.569C154.287 38.4128 154.232 39.8203 154.232 39.8203C154.232 39.8203 153.595 39.6902 152.408 39.0489C151.22 38.4076 150.799 37.8379 150.799 37.8379C150.799 37.8379 151.028 36.8858 151.401 35.9602ZM176.316 41.695C176.58 41.8071 176.765 42.0689 176.765 42.3738C176.765 42.6638 176.598 42.9145 176.354 43.0348L176.348 43.0381H176.347L162.902 50.281C162.78 50.3718 162.628 50.4259 162.464 50.4259C162.057 50.4259 161.727 50.0957 161.727 49.689L161.729 49.6443L161.728 49.6436L162.332 33.8937L162.331 33.8563C162.331 33.8236 162.333 33.7914 162.337 33.7592V33.7573C162.386 33.3978 162.695 33.1194 163.068 33.1194C163.254 33.1194 163.424 33.1892 163.555 33.3036H163.555L176.316 41.695ZM167.113 40.3065L167.077 41.7929L168.433 41.056L167.113 40.3065ZM165.686 39.5219L165.401 46.0616L163.034 47.3341L164.081 48.0594L173.677 42.6851V41.6858L165.983 45.7407L166.245 39.8548L165.686 39.5219ZM163.51 45.9189L164.545 45.3006L164.854 37.631L170.122 41.0438L166.923 42.7563L166.899 44.0168L172.44 41.0917L164.247 35.7167L163.07 36.4541L163.879 36.9655L163.51 45.9189Z" fill="black"/>
<path d="M28 0L42 16V0H28Z" fill="black"/>
<path d="M28 0L42 -16L42 0H28Z" fill="black"/>
<path d="M56 0L42 16V0H56Z" fill="black"/>
<path d="M56 0L42 -16L42 0H56Z" fill="black"/>
<path d="M84 0L42 42L0 0L-42 42L-84 0L-42 -42L-84 -84L-42 -126L0 -84L42 -126L84 -84" stroke="black"/>
<path d="M126 -5.575V14C122.727 10.7656 115.486 3.6725 113.048 1.175C110 -1.94687 110 -4.30937 110 -5.15312C110 -5.99687 110.593 -13 117.958 -13C123.85 -13 125.802 -8.05 126 -5.575Z" fill="black"/>
<path d="M126 -5.575V14C129.273 10.7656 136.514 3.6725 138.952 1.175C142 -1.94687 142 -4.30937 142 -5.15312C142 -5.99687 141.407 -13 134.042 -13C128.15 -13 126.198 -8.05 126 -5.575Z" fill="black"/>
<path d="M252 0L210 42L168 0L126 42L84 0L126 -42L84 -84L126 -126L168 -84L210 -126L252 -84" stroke="black"/>
<path fill-rule="evenodd" clip-rule="evenodd" d="M-42 126L0 168L42 126L0 84L-42 126ZM13.4472 109.101C13.559 109.035 13.6859 109 13.8151 109C14.0104 109 14.1978 109.078 14.3358 109.218C14.4739 109.357 14.5514 109.547 14.5514 109.744C14.5513 109.875 14.5171 110.003 14.4524 110.116C14.3877 110.229 14.2946 110.323 14.1826 110.388L14.1832 110.389L11.7039 111.763L14.1831 113.137L14.1825 113.138C14.2945 113.203 14.3876 113.297 14.4523 113.41C14.517 113.523 14.5512 113.651 14.5513 113.782C14.5513 113.979 14.4738 114.169 14.3357 114.308C14.1976 114.448 14.0104 114.526 13.8151 114.526C13.6859 114.526 13.5584 114.492 13.4466 114.426C13.4466 114.426 11.4344 113.26 10.5802 112.783C9.8801 112.392 9.82926 111.922 9.83336 111.763C9.82928 111.604 9.8801 111.134 10.5802 110.743C11.4344 110.266 13.4472 109.101 13.4472 109.101ZM-4.01221 109.593C-3.70508 109.464 -3.3759 109.398 -3.04346 109.398C-2.3721 109.398 -1.72823 109.668 -1.2535 110.148C-0.778778 110.627 -0.512074 111.278 -0.512066 111.956C-0.512054 112.292 -0.577522 112.625 -0.704731 112.935C-0.83194 113.246 -1.0184 113.528 -1.25346 113.765C-1.48853 114.003 -1.76759 114.191 -2.07471 114.32C-2.38184 114.449 -2.71103 114.515 -3.04346 114.515C-3.37591 114.515 -3.7051 114.449 -4.01225 114.32C-4.31939 114.191 -4.59846 114.003 -4.83353 113.765C-5.06861 113.528 -5.25508 113.246 -5.38229 112.936C-5.50951 112.625 -5.57499 112.292 -5.57497 111.956C-5.57497 111.621 -5.50949 111.288 -5.38226 110.977C-5.25504 110.667 -5.06857 110.385 -4.8335 110.148C-4.59842 109.91 -4.31935 109.722 -4.01221 109.593ZM22.0598 118.146C22.3423 118.002 22.6541 117.927 22.9704 117.926C23.2369 117.926 23.5009 117.979 23.7471 118.082C23.9933 118.185 24.2171 118.336 24.4056 118.527C24.594 118.717 24.7435 118.943 24.8455 119.192C24.9475 119.441 25 119.708 25 119.977C24.9991 120.4 24.8691 120.812 24.6276 121.157L24.63 121.159L21.4465 125.679L24.63 130.199L24.6276 130.2C24.8691 130.545 24.9991 130.958 25 131.38C25 131.65 24.9475 131.916 24.8455 132.165C24.7435 132.414 24.594 132.64 24.4055 132.831C24.2171 133.021 23.9933 133.172 23.7471 133.275C23.5008 133.378 23.2369 133.431 22.9704 133.431C22.6541 133.431 22.3423 133.356 22.0598 133.212C21.7774 133.068 21.5321 132.859 21.3436 132.603L21.3401 132.605L17.319 126.892L17.3263 126.889C17.0681 126.539 16.9271 126.115 16.9237 125.679C16.927 125.242 17.0681 124.818 17.3263 124.468L17.319 124.466L21.3401 118.752L21.3436 118.755C21.5321 118.498 21.7774 118.29 22.0598 118.146ZM-6.7046 137.62C-6.70456 137.024 -6.24823 136.54 -5.68534 136.54C-5.47039 136.54 -5.26104 136.613 -5.08727 136.747L-4.99833 136.807C-4.99833 136.807 -0.570374 139.953 4.95929 139.857C10.489 139.953 14.9168 136.807 14.9168 136.807L15.0057 136.747C15.1795 136.613 15.3889 136.54 15.6038 136.54C16.1667 136.54 16.623 137.024 16.6231 137.62C16.6228 138.032 16.4017 138.408 16.053 138.589C10.1486 142.332 4.95929 141.992 4.95929 141.992C4.95929 141.992 -0.230156 142.332 -6.13449 138.589C-6.48323 138.408 -6.70437 138.032 -6.7046 137.62ZM7.59972 117.866C7.78704 117.848 7.97504 117.839 8.16318 117.837C8.35132 117.839 8.53942 117.848 8.72675 117.866C8.82864 117.876 8.93027 117.889 9.03159 117.904C9.1488 117.918 9.2656 117.936 9.38186 117.957C9.47573 117.976 9.56918 117.998 9.66213 118.021C9.78391 118.049 9.90489 118.08 10.0249 118.115C10.1103 118.141 10.1952 118.17 10.2795 118.2C10.4034 118.242 10.5262 118.287 10.6474 118.336C10.7253 118.37 10.8024 118.404 10.8789 118.441C11.0028 118.497 11.1249 118.556 11.2451 118.62C11.3144 118.658 11.383 118.698 11.4509 118.739C11.5735 118.81 11.6938 118.885 11.8117 118.963C11.8722 119.005 11.9321 119.049 11.9912 119.093C12.1107 119.178 12.2273 119.268 12.3409 119.362C12.3929 119.407 12.4443 119.452 12.495 119.499C12.6096 119.599 12.7207 119.704 12.8281 119.813C12.8721 119.859 12.9155 119.906 12.9581 119.953C13.0649 120.068 13.1676 120.186 13.2661 120.308C13.3038 120.357 13.3407 120.406 13.377 120.456C13.474 120.583 13.5663 120.713 13.6538 120.847C13.6841 120.896 13.7137 120.945 13.7428 120.994C13.829 121.134 13.91 121.277 13.9857 121.423C14.0094 121.471 14.0326 121.519 14.0551 121.568C14.1286 121.718 14.1964 121.872 14.2583 122.027C14.2765 122.076 14.2942 122.125 14.3113 122.174C14.37 122.332 14.4228 122.493 14.4693 122.656C14.4823 122.705 14.4947 122.754 14.5065 122.803C14.5499 122.968 14.5869 123.136 14.6175 123.304C14.625 123.351 14.6321 123.399 14.6387 123.446C14.6659 123.617 14.6864 123.789 14.7003 123.961C14.7093 124.07 14.7155 124.179 14.7192 124.288H14.7207V124.331C14.7218 124.356 14.7229 124.382 14.7237 124.408L14.7255 124.469L14.725 124.482L14.724 124.498L14.7234 124.508L14.7227 124.523H14.7205L14.7196 131.457C14.7136 131.982 14.5027 132.484 14.1328 132.854C13.763 133.224 13.2638 133.431 12.7437 133.431C12.2236 133.431 11.7246 133.223 11.3548 132.854C10.985 132.484 10.7742 131.982 10.7681 131.457H10.767V124.301C10.7335 123.77 10.542 123.262 10.2177 122.843C9.89345 122.424 9.45145 122.113 8.94968 121.953C8.8742 121.929 8.79768 121.909 8.72038 121.892L8.69546 121.885C8.63375 121.873 8.57163 121.863 8.50921 121.856C8.48405 121.851 8.45884 121.847 8.43357 121.844C8.38612 121.84 8.33856 121.837 8.29096 121.836C8.24844 121.833 8.20563 121.83 8.16301 121.829C8.12569 121.83 8.08841 121.832 8.05117 121.835C7.99788 121.836 7.94464 121.839 7.89154 121.844C7.87008 121.847 7.84866 121.85 7.82728 121.854C7.76133 121.862 7.69571 121.872 7.63055 121.885L7.61105 121.89C7.05631 122.012 6.55597 122.314 6.18575 122.748C5.81553 123.183 5.5956 123.728 5.55923 124.301V131.457H5.55814C5.55206 131.982 5.34127 132.484 4.97146 132.854C4.60165 133.224 4.10262 133.431 3.58253 133.431C3.06239 133.431 2.56328 133.224 2.1934 132.854C1.82352 132.484 1.61181 131.982 1.60572 131.457V124.523H1.60289L1.60093 124.469C1.60206 124.423 1.60368 124.377 1.60577 124.331V124.288H1.6073C1.61091 124.179 1.61718 124.07 1.62612 123.961C1.63993 123.79 1.66027 123.62 1.68711 123.451C1.69399 123.401 1.70143 123.351 1.70943 123.302C1.73981 123.135 1.77652 122.969 1.81947 122.805C1.83148 122.755 1.84407 122.705 1.85723 122.655C1.90379 122.493 1.95647 122.332 2.01518 122.174C2.03231 122.125 2.05001 122.076 2.06828 122.027C2.12984 121.872 2.19715 121.72 2.27008 121.571C2.29321 121.521 2.31696 121.471 2.34132 121.421C2.41679 121.276 2.49757 121.134 2.58348 120.994C2.61258 120.945 2.6423 120.896 2.67266 120.847C2.76019 120.713 2.85251 120.583 2.94943 120.456C2.98573 120.406 3.02271 120.357 3.06036 120.308C3.15883 120.186 3.26156 120.068 3.36836 119.953C3.41101 119.906 3.45435 119.859 3.49834 119.813C3.60576 119.704 3.71687 119.599 3.83148 119.499C3.88214 119.452 3.93353 119.407 3.9856 119.362C4.09888 119.268 4.21521 119.179 4.3344 119.093C4.39398 119.049 4.4543 119.005 4.51535 118.963C4.6325 118.885 4.7521 118.81 4.87396 118.74C4.9426 118.699 5.01198 118.658 5.08208 118.619C5.2018 118.556 5.32343 118.497 5.44678 118.441C5.52355 118.405 5.60102 118.37 5.67913 118.336C5.80038 118.287 5.92306 118.242 6.04699 118.2C6.13126 118.17 6.21613 118.141 6.30156 118.115C6.42158 118.08 6.54255 118.049 6.66434 118.021C6.75729 117.998 6.85074 117.976 6.94461 117.957C7.06086 117.936 7.17766 117.918 7.29488 117.904C7.39619 117.889 7.49783 117.876 7.59972 117.866ZM-24.421 118.555C-24.0503 118.18 -23.5475 117.97 -23.0233 117.97C-22.5537 117.97 -22.0997 118.14 -21.7425 118.448C-21.3853 118.756 -21.1483 119.183 -21.074 119.651L-21.0695 119.65L-19.9083 124.42L-18.1322 119.293L-18.1256 119.295L-18.1218 119.286C-18.1035 119.236 -18.0832 119.186 -18.0609 119.138C-18.0556 119.125 -18.0502 119.113 -18.0446 119.101C-18.0217 119.054 -17.9969 119.007 -17.9703 118.961C-17.9637 118.949 -17.957 118.938 -17.9502 118.926C-17.923 118.882 -17.8942 118.838 -17.8638 118.796L-17.8527 118.78L-17.8381 118.76C-17.8078 118.72 -17.7759 118.681 -17.7427 118.644C-17.7319 118.631 -17.7209 118.619 -17.7098 118.606C-17.6761 118.57 -17.6411 118.535 -17.6048 118.502L-17.5881 118.486L-17.5683 118.467C-17.5324 118.436 -17.4953 118.406 -17.4573 118.377C-17.447 118.369 -17.4367 118.361 -17.4263 118.353L-17.4113 118.342C-17.3745 118.315 -17.3369 118.291 -17.2984 118.267L-17.27 118.249L-17.2439 118.233C-17.2055 118.212 -17.1665 118.191 -17.1268 118.172C-17.107 118.162 -17.0869 118.152 -17.0667 118.143C-17.0285 118.126 -16.9898 118.111 -16.9506 118.096C-16.9273 118.087 -16.9039 118.078 -16.8803 118.07C-16.8428 118.058 -16.8051 118.047 -16.767 118.038C-16.7407 118.03 -16.7143 118.024 -16.6877 118.017C-16.6519 118.01 -16.616 118.003 -16.5798 117.998C-16.5503 117.992 -16.5206 117.988 -16.4909 117.984C-16.4566 117.981 -16.4222 117.978 -16.3877 117.976C-16.3473 117.973 -16.3059 117.971 -16.2653 117.97C-16.2256 117.971 -16.186 117.973 -16.1464 117.976C-16.1105 117.978 -16.0746 117.98 -16.0388 117.984C-16.0112 117.988 -15.9837 117.992 -15.9562 117.997C-15.918 118.003 -15.88 118.01 -15.8422 118.018C-15.8169 118.024 -15.7917 118.03 -15.7667 118.037C-15.7279 118.047 -15.6894 118.058 -15.6512 118.07C-15.6276 118.078 -15.6042 118.087 -15.5809 118.096C-15.5417 118.111 -15.503 118.126 -15.4648 118.143C-15.4446 118.152 -15.4246 118.162 -15.4047 118.172C-15.3649 118.191 -15.3258 118.212 -15.2874 118.234C-15.2696 118.244 -15.252 118.255 -15.2346 118.266C-15.1953 118.29 -15.157 118.315 -15.1195 118.342C-15.1047 118.353 -15.0901 118.364 -15.0756 118.376C-15.0371 118.405 -14.9996 118.435 -14.9632 118.467L-14.9382 118.491L-14.9267 118.502C-14.8903 118.535 -14.8553 118.57 -14.8215 118.606C-14.8107 118.618 -14.8 118.631 -14.7895 118.643C-14.7558 118.681 -14.7237 118.72 -14.693 118.761C-14.6847 118.772 -14.6765 118.784 -14.6685 118.795C-14.6377 118.838 -14.6086 118.881 -14.5813 118.926C-14.5746 118.937 -14.5681 118.949 -14.5616 118.961C-14.5348 119.007 -14.5097 119.054 -14.4866 119.102C-14.4813 119.113 -14.4762 119.125 -14.4711 119.137C-14.4486 119.186 -14.4281 119.236 -14.4096 119.287L-14.406 119.295L-14.3993 119.293L-12.6233 124.42L-11.4621 119.65L-11.4575 119.651C-11.3832 119.183 -11.1462 118.756 -10.789 118.448C-10.4318 118.14 -9.9778 117.97 -9.50821 117.97C-8.98394 117.97 -8.48116 118.18 -8.11045 118.555C-7.73974 118.929 -7.53148 119.438 -7.53148 119.967C-7.53202 120.116 -7.54889 120.263 -7.58175 120.408L-7.57748 120.409L-10.381 131.958L-10.3863 131.956C-10.4999 132.379 -10.7479 132.753 -11.0922 133.019C-11.4365 133.286 -11.858 133.431 -12.2917 133.431C-12.7111 133.431 -13.1195 133.295 -13.4578 133.045C-13.7962 132.794 -14.0468 132.441 -14.1736 132.037L-14.1761 132.05L-16.2658 126.023L-18.3554 132.05L-18.3579 132.037C-18.4846 132.441 -18.7353 132.794 -19.0736 133.045C-19.4119 133.295 -19.8203 133.431 -20.2398 133.431C-20.6735 133.431 -21.095 133.286 -21.4393 133.019C-21.7836 132.753 -22.0316 132.379 -22.1451 131.956L-22.1505 131.958L-24.954 120.409L-24.9497 120.408C-24.9826 120.263 -24.9994 120.116 -25 119.967C-25 119.438 -24.7917 118.929 -24.421 118.555ZM-4.34796 118.544C-3.97855 118.176 -3.48113 117.97 -2.96284 117.97C-2.44445 117.97 -1.94691 118.176 -1.57738 118.544C-1.20785 118.911 -0.995926 119.41 -0.987263 119.934H-0.986172V131.571H-0.993046C-1.02748 132.075 -1.24992 132.548 -1.61549 132.893C-1.98106 133.238 -2.46257 133.431 -2.9629 133.431C-3.46358 133.431 -3.94559 133.239 -4.31159 132.894C-4.67759 132.549 -4.90031 132.076 -4.93478 131.571H-4.93962V119.934H-4.93788C-4.92922 119.41 -4.71737 118.911 -4.34796 118.544Z" fill="black"/>
<path fill-rule="evenodd" clip-rule="evenodd" d="M42 126L84 168L126 126L84 84L42 126ZM95.0193 113.979C91.8314 110.792 87.5077 109.001 82.9993 109.001C79.6373 109.001 76.3507 109.998 73.5553 111.865C70.7598 113.733 68.5811 116.388 67.2945 119.494C66.0079 122.6 65.6712 126.018 66.3271 129.316C66.983 132.613 68.602 135.642 70.9793 138.019C73.3567 140.397 76.3856 142.016 79.683 142.672C82.9805 143.328 86.3984 142.991 89.5045 141.704C92.6107 140.418 95.2655 138.239 97.1334 135.444C99.0012 132.648 99.9982 129.362 99.9982 125.999C99.9982 121.491 98.2073 117.167 95.0193 113.979ZM96.0546 136.504C96.6691 135.718 97.0838 135.143 97.4934 134.396C97.8387 133.846 98.2857 132.895 98.5991 132.097C98.9109 131.299 99.2224 130.246 99.2224 130.246C99.2224 130.246 98.7796 129.649 97.5924 129.009C96.4051 128.367 95.768 128.236 95.768 128.236C95.768 128.236 95.713 129.644 94.1888 132.489C92.4876 135.231 91.2963 135.982 91.2963 135.982C91.2963 135.982 91.7278 136.468 92.8767 137.177C94.0254 137.884 94.7288 137.963 94.7288 137.963C94.7288 137.963 95.44 137.289 96.0546 136.504ZM80.4555 142.573C81.4431 142.712 82.1483 142.783 83 142.765C83.6488 142.789 84.6964 142.7 85.5443 142.573C86.3917 142.444 87.4588 142.187 87.4588 142.187C87.4588 142.187 87.7541 141.506 87.7157 140.157C87.6773 138.808 87.4717 138.191 87.4717 138.191C87.4717 138.191 86.2253 138.847 83 138.949C79.7745 138.847 78.5281 138.191 78.5281 138.191C78.5281 138.191 78.3227 138.808 78.2843 140.157C78.2457 141.506 78.5287 142.154 78.5287 142.154C78.5287 142.154 79.4679 142.433 80.4555 142.573ZM80.4555 109.486C81.4431 109.346 82.1483 109.275 83 109.294C83.6488 109.269 84.6964 109.358 85.5443 109.486C86.3917 109.615 87.4588 109.872 87.4588 109.872C87.4588 109.872 87.7541 110.553 87.7157 111.902C87.6773 113.251 87.4717 113.868 87.4717 113.868C87.4717 113.868 86.2253 113.212 83 113.109C79.7745 113.212 78.5281 113.868 78.5281 113.868C78.5281 113.868 78.3227 113.251 78.2843 111.902C78.2457 110.553 78.5287 109.904 78.5287 109.904C78.5287 109.904 79.4679 109.626 80.4555 109.486ZM67.4003 132.098C67.7734 133.023 68.0641 133.669 68.5057 134.398C68.8095 134.972 69.41 135.835 69.9446 136.505C70.48 137.174 71.2355 137.97 71.2355 137.97C71.2355 137.97 71.9739 137.885 73.1226 137.177C74.2713 136.469 74.7031 135.983 74.7031 135.983C74.7031 135.983 73.5116 135.232 71.8104 132.49C70.2863 129.645 70.2312 128.238 70.2312 128.238C70.2312 128.238 69.5941 128.368 68.4069 129.009C67.2196 129.65 66.7993 130.22 66.7993 130.22C66.7993 130.22 67.0272 131.173 67.4003 132.098ZM96.054 115.555C96.6687 116.34 97.0832 116.916 97.4928 117.662C97.8381 118.212 98.2851 119.163 98.5984 119.961C98.9109 120.76 99.222 121.812 99.222 121.812C99.222 121.812 98.7789 122.409 97.5918 123.05C96.4045 123.691 95.7674 123.822 95.7674 123.822C95.7674 123.822 95.7124 122.414 94.1881 119.569C92.4869 116.828 91.2957 116.077 91.2957 116.077C91.2957 116.077 91.7274 115.59 92.8761 114.882C94.0248 114.175 94.7288 114.095 94.7288 114.095C94.7288 114.095 95.4394 114.769 96.054 115.555ZM67.4009 119.96C67.774 119.035 68.0646 118.389 68.5064 117.661C68.8101 117.087 69.4107 116.224 69.9452 115.554C70.48 114.884 71.2361 114.088 71.2361 114.088C71.2361 114.088 71.9746 114.173 73.1233 114.881C74.2719 115.589 74.7035 116.075 74.7035 116.075C74.7035 116.075 73.5122 116.827 71.811 119.569C70.2869 122.413 70.2318 123.82 70.2318 123.82C70.2318 123.82 69.5947 123.69 68.4076 123.049C67.2202 122.408 66.7993 121.838 66.7993 121.838C66.7993 121.838 67.0278 120.886 67.4009 119.96ZM92.3155 125.695C92.5796 125.807 92.7655 126.069 92.7655 126.374C92.7655 126.664 92.5979 126.914 92.3542 127.035L92.3477 127.038H92.3473L78.9023 134.281C78.7796 134.372 78.6284 134.426 78.464 134.426C78.0573 134.426 77.7271 134.096 77.7271 133.689L77.7287 133.644L77.7283 133.644L78.3322 117.894L78.3312 117.856C78.3312 117.824 78.3335 117.791 78.3374 117.759V117.757C78.3863 117.398 78.6946 117.119 79.0679 117.119C79.2542 117.119 79.4245 117.189 79.5546 117.304H79.5553L92.3155 125.695ZM83.1131 124.306L83.0774 125.793L84.433 125.056L83.1131 124.306ZM81.6864 123.522L81.4006 130.062L79.0345 131.334L80.0808 132.059L89.677 126.685V125.686L81.9832 129.741L82.2449 123.855L81.6864 123.522ZM79.5103 129.919L80.5446 129.301L80.8541 121.631L86.1215 125.044L82.9226 126.756L82.899 128.017L88.4402 125.092L80.2471 119.717L79.0702 120.454L79.879 120.965L79.5103 129.919Z" fill="black"/>
<path d="M41.5 68V100H34.561C36.1231 99.2768 39.4273 96.9085 40.1483 93.2203C40.5593 91.1176 40.7555 90.1491 40.8371 89.772C40.1332 91.4224 37.738 94.5763 33.4797 94.5763C28.0727 94.5763 26 88.8814 26 86.8927C26 84.904 26.0901 83.3672 29.4244 80.113C32.0919 77.5096 38.6163 70.9228 41.5 68Z" fill="black"/>
<path d="M41.5 68V100H48.439C46.8769 99.2768 43.5727 96.9085 42.8517 93.2203C42.4407 91.1176 42.2445 90.1491 42.1629 89.772C42.8668 91.4224 45.262 94.5763 49.5203 94.5763C54.9273 94.5763 57 88.8814 57 86.8927C57 84.904 56.9099 83.3672 53.5756 80.113C50.9081 77.5096 44.3837 70.9228 41.5 68Z" fill="black"/>
<path d="M28 168L42 184V168H28Z" fill="black"/>
<path d="M28 168L42 152L42 168H28Z" fill="black"/>
<path d="M56 168L42 184V168H56Z" fill="black"/>
<path d="M56 168L42 152L42 168H56Z" fill="black"/>
<path d="M84 168L42 210L0 168L-42 210L-84 168L-42 126L-84 84L-42 42L0 84L42 42L84 84" stroke="black"/>
<path fill-rule="evenodd" clip-rule="evenodd" d="M126 126L168 168L210 126L168 84L126 126ZM181.447 109.101C181.559 109.035 181.686 109 181.815 109C182.01 109 182.198 109.078 182.336 109.218C182.474 109.357 182.551 109.547 182.551 109.744C182.551 109.875 182.517 110.003 182.452 110.116C182.388 110.229 182.295 110.323 182.183 110.388L182.183 110.389L179.704 111.763L182.183 113.137L182.183 113.138C182.295 113.203 182.388 113.297 182.452 113.41C182.517 113.523 182.551 113.651 182.551 113.782C182.551 113.979 182.474 114.169 182.336 114.308C182.198 114.448 182.01 114.526 181.815 114.526C181.686 114.526 181.558 114.492 181.447 114.426C181.447 114.426 179.434 113.26 178.58 112.783C177.88 112.392 177.829 111.922 177.833 111.763C177.829 111.604 177.88 111.134 178.58 110.743C179.434 110.266 181.447 109.101 181.447 109.101ZM163.988 109.593C164.295 109.464 164.624 109.398 164.957 109.398C165.628 109.398 166.272 109.668 166.746 110.148C167.221 110.627 167.488 111.278 167.488 111.956C167.488 112.292 167.422 112.625 167.295 112.935C167.168 113.246 166.982 113.528 166.747 113.765C166.511 114.003 166.232 114.191 165.925 114.32C165.618 114.449 165.289 114.515 164.957 114.515C164.624 114.515 164.295 114.449 163.988 114.32C163.681 114.191 163.402 114.003 163.166 113.765C162.931 113.528 162.745 113.246 162.618 112.936C162.49 112.625 162.425 112.292 162.425 111.956C162.425 111.621 162.491 111.288 162.618 110.977C162.745 110.667 162.931 110.385 163.167 110.148C163.402 109.91 163.681 109.722 163.988 109.593ZM190.06 118.146C190.342 118.002 190.654 117.927 190.97 117.926C191.237 117.926 191.501 117.979 191.747 118.082C191.993 118.185 192.217 118.336 192.406 118.527C192.594 118.717 192.744 118.943 192.846 119.192C192.948 119.441 193 119.708 193 119.977C192.999 120.4 192.869 120.812 192.628 121.157L192.63 121.159L189.447 125.679L192.63 130.199L192.628 130.2C192.869 130.545 192.999 130.958 193 131.38C193 131.65 192.947 131.916 192.845 132.165C192.743 132.414 192.594 132.64 192.406 132.831C192.217 133.021 191.993 133.172 191.747 133.275C191.501 133.378 191.237 133.431 190.97 133.431C190.654 133.431 190.342 133.356 190.06 133.212C189.777 133.068 189.532 132.859 189.344 132.603L189.34 132.605L185.319 126.892L185.326 126.889C185.068 126.539 184.927 126.115 184.924 125.679C184.927 125.242 185.068 124.818 185.326 124.468L185.319 124.466L189.34 118.752L189.344 118.755C189.532 118.498 189.777 118.29 190.06 118.146ZM161.295 137.62C161.295 137.024 161.752 136.54 162.315 136.54C162.53 136.54 162.739 136.613 162.913 136.747L163.002 136.807C163.002 136.807 167.43 139.953 172.959 139.857C178.489 139.953 182.917 136.807 182.917 136.807L183.006 136.747C183.18 136.613 183.389 136.54 183.604 136.54C184.167 136.54 184.623 137.024 184.623 137.62C184.623 138.032 184.402 138.408 184.053 138.589C178.149 142.332 172.959 141.992 172.959 141.992C172.959 141.992 167.77 142.332 161.866 138.589C161.517 138.408 161.296 138.032 161.295 137.62ZM175.6 117.866C175.787 117.848 175.975 117.839 176.163 117.837C176.351 117.839 176.539 117.848 176.727 117.866C176.829 117.876 176.93 117.889 177.032 117.904C177.149 117.918 177.266 117.936 177.382 117.957C177.476 117.976 177.569 117.998 177.662 118.021C177.784 118.049 177.905 118.08 178.025 118.115C178.11 118.141 178.195 118.17 178.279 118.2C178.403 118.242 178.526 118.287 178.647 118.336C178.725 118.37 178.802 118.404 178.879 118.441C179.003 118.497 179.125 118.556 179.245 118.62C179.314 118.658 179.383 118.698 179.451 118.739C179.574 118.81 179.694 118.885 179.812 118.963C179.872 119.005 179.932 119.049 179.991 119.093C180.111 119.178 180.227 119.268 180.341 119.362C180.393 119.407 180.444 119.452 180.495 119.499C180.61 119.599 180.721 119.704 180.828 119.813C180.872 119.859 180.915 119.906 180.958 119.953C181.065 120.068 181.168 120.186 181.266 120.308C181.304 120.357 181.341 120.406 181.377 120.456C181.474 120.583 181.566 120.713 181.654 120.847C181.684 120.896 181.714 120.945 181.743 120.994C181.829 121.134 181.91 121.277 181.986 121.423C182.009 121.471 182.033 121.519 182.055 121.568C182.129 121.718 182.196 121.872 182.258 122.027C182.277 122.076 182.294 122.125 182.311 122.174C182.37 122.332 182.423 122.493 182.469 122.656C182.482 122.705 182.495 122.754 182.507 122.803C182.55 122.968 182.587 123.136 182.617 123.304C182.625 123.351 182.632 123.399 182.639 123.446C182.666 123.617 182.686 123.789 182.7 123.961C182.709 124.07 182.716 124.179 182.719 124.288H182.721V124.331C182.722 124.356 182.723 124.382 182.724 124.408L182.726 124.469L182.725 124.482L182.724 124.498L182.723 124.508L182.723 124.523H182.721L182.72 131.457C182.714 131.982 182.503 132.484 182.133 132.854C181.763 133.224 181.264 133.431 180.744 133.431C180.224 133.431 179.725 133.223 179.355 132.854C178.985 132.484 178.774 131.982 178.768 131.457H178.767V124.301C178.733 123.77 178.542 123.262 178.218 122.843C177.893 122.424 177.451 122.113 176.95 121.953C176.874 121.929 176.798 121.909 176.72 121.892L176.695 121.885C176.634 121.873 176.572 121.863 176.509 121.856C176.484 121.851 176.459 121.847 176.434 121.844C176.386 121.84 176.339 121.837 176.291 121.836C176.248 121.833 176.206 121.83 176.163 121.829C176.126 121.83 176.088 121.832 176.051 121.835C175.998 121.836 175.945 121.839 175.892 121.844C175.87 121.847 175.849 121.85 175.827 121.854C175.761 121.862 175.696 121.872 175.631 121.885L175.611 121.89C175.056 122.012 174.556 122.314 174.186 122.748C173.816 123.183 173.596 123.728 173.559 124.301V131.457H173.558C173.552 131.982 173.341 132.484 172.971 132.854C172.602 133.224 172.103 133.431 171.583 133.431C171.062 133.431 170.563 133.224 170.193 132.854C169.824 132.484 169.612 131.982 169.606 131.457V124.523H169.603L169.601 124.469C169.602 124.423 169.604 124.377 169.606 124.331V124.288H169.607C169.611 124.179 169.617 124.07 169.626 123.961C169.64 123.79 169.66 123.62 169.687 123.451C169.694 123.401 169.701 123.351 169.709 123.302C169.74 123.135 169.777 122.969 169.819 122.805C169.831 122.755 169.844 122.705 169.857 122.655C169.904 122.493 169.956 122.332 170.015 122.174C170.032 122.125 170.05 122.076 170.068 122.027C170.13 121.872 170.197 121.72 170.27 121.571C170.293 121.521 170.317 121.471 170.341 121.421C170.417 121.276 170.498 121.134 170.583 120.994C170.613 120.945 170.642 120.896 170.673 120.847C170.76 120.713 170.853 120.583 170.949 120.456C170.986 120.406 171.023 120.357 171.06 120.308C171.159 120.186 171.262 120.068 171.368 119.953C171.411 119.906 171.454 119.859 171.498 119.813C171.606 119.704 171.717 119.599 171.831 119.499C171.882 119.452 171.934 119.407 171.986 119.362C172.099 119.268 172.215 119.179 172.334 119.093C172.394 119.049 172.454 119.005 172.515 118.963C172.632 118.885 172.752 118.81 172.874 118.74C172.943 118.699 173.012 118.658 173.082 118.619C173.202 118.556 173.323 118.497 173.447 118.441C173.524 118.405 173.601 118.37 173.679 118.336C173.8 118.287 173.923 118.242 174.047 118.2C174.131 118.17 174.216 118.141 174.302 118.115C174.422 118.08 174.543 118.049 174.664 118.021C174.757 117.998 174.851 117.976 174.945 117.957C175.061 117.936 175.178 117.918 175.295 117.904C175.396 117.889 175.498 117.876 175.6 117.866ZM143.579 118.555C143.95 118.18 144.452 117.97 144.977 117.97C145.446 117.97 145.9 118.14 146.257 118.448C146.615 118.756 146.852 119.183 146.926 119.651L146.931 119.65L148.092 124.42L149.868 119.293L149.874 119.295L149.878 119.286C149.896 119.236 149.917 119.186 149.939 119.138C149.944 119.125 149.95 119.113 149.955 119.101C149.978 119.054 150.003 119.007 150.03 118.961C150.036 118.949 150.043 118.938 150.05 118.926C150.077 118.882 150.106 118.838 150.136 118.796L150.147 118.78L150.162 118.76C150.192 118.72 150.224 118.681 150.257 118.644C150.268 118.631 150.279 118.619 150.29 118.606C150.324 118.57 150.359 118.535 150.395 118.502L150.412 118.486L150.432 118.467C150.468 118.436 150.505 118.406 150.543 118.377C150.553 118.369 150.563 118.361 150.574 118.353L150.589 118.342C150.626 118.315 150.663 118.291 150.702 118.267L150.73 118.249L150.756 118.233C150.794 118.212 150.833 118.191 150.873 118.172C150.893 118.162 150.913 118.152 150.933 118.143C150.971 118.126 151.01 118.111 151.049 118.096C151.073 118.087 151.096 118.078 151.12 118.07C151.157 118.058 151.195 118.047 151.233 118.038C151.259 118.03 151.286 118.024 151.312 118.017C151.348 118.01 151.384 118.003 151.42 117.998C151.45 117.992 151.479 117.988 151.509 117.984C151.543 117.981 151.578 117.978 151.612 117.976C151.653 117.973 151.694 117.971 151.735 117.97C151.774 117.971 151.814 117.973 151.854 117.976C151.89 117.978 151.925 117.98 151.961 117.984C151.989 117.988 152.016 117.992 152.044 117.997C152.082 118.003 152.12 118.01 152.158 118.018C152.183 118.024 152.208 118.03 152.233 118.037C152.272 118.047 152.311 118.058 152.349 118.07C152.372 118.078 152.396 118.087 152.419 118.096C152.458 118.111 152.497 118.126 152.535 118.143C152.555 118.152 152.575 118.162 152.595 118.172C152.635 118.191 152.674 118.212 152.713 118.234C152.73 118.244 152.748 118.255 152.765 118.266C152.805 118.29 152.843 118.315 152.881 118.342C152.895 118.353 152.91 118.364 152.924 118.376C152.963 118.405 153 118.435 153.037 118.467L153.062 118.491L153.073 118.502C153.11 118.535 153.145 118.57 153.179 118.606C153.189 118.618 153.2 118.631 153.211 118.643C153.244 118.681 153.276 118.72 153.307 118.761C153.315 118.772 153.323 118.784 153.331 118.795C153.362 118.838 153.391 118.881 153.419 118.926C153.425 118.937 153.432 118.949 153.438 118.961C153.465 119.007 153.49 119.054 153.513 119.102C153.519 119.113 153.524 119.125 153.529 119.137C153.551 119.186 153.572 119.236 153.59 119.287L153.594 119.295L153.601 119.293L155.377 124.42L156.538 119.65L156.542 119.651C156.617 119.183 156.854 118.756 157.211 118.448C157.568 118.14 158.022 117.97 158.492 117.97C159.016 117.97 159.519 118.18 159.89 118.555C160.26 118.929 160.469 119.438 160.469 119.967C160.468 120.116 160.451 120.263 160.418 120.408L160.423 120.409L157.619 131.958L157.614 131.956C157.5 132.379 157.252 132.753 156.908 133.019C156.563 133.286 156.142 133.431 155.708 133.431C155.289 133.431 154.88 133.295 154.542 133.045C154.204 132.794 153.953 132.441 153.826 132.037L153.824 132.05L151.734 126.023L149.645 132.05L149.642 132.037C149.515 132.441 149.265 132.794 148.926 133.045C148.588 133.295 148.18 133.431 147.76 133.431C147.327 133.431 146.905 133.286 146.561 133.019C146.216 132.753 145.968 132.379 145.855 131.956L145.85 131.958L143.046 120.409L143.05 120.408C143.017 120.263 143.001 120.116 143 119.967C143 119.438 143.208 118.929 143.579 118.555ZM163.652 118.544C164.021 118.176 164.519 117.97 165.037 117.97C165.556 117.97 166.053 118.176 166.423 118.544C166.792 118.911 167.004 119.41 167.013 119.934H167.014V131.571H167.007C166.973 132.075 166.75 132.548 166.385 132.893C166.019 133.238 165.537 133.431 165.037 133.431C164.536 133.431 164.054 133.239 163.688 132.894C163.322 132.549 163.1 132.076 163.065 131.571H163.06V119.934H163.062C163.071 119.41 163.283 118.911 163.652 118.544Z" fill="black"/>
<path d="M126 162.425V182C122.727 178.766 115.486 171.673 113.048 169.175C110 166.053 110 163.691 110 162.847C110 162.003 110.593 155 117.958 155C123.85 155 125.802 159.95 126 162.425Z" fill="black"/>
<path d="M126 162.425V182C129.273 178.766 136.514 171.673 138.952 169.175C142 166.053 142 163.691 142 162.847C142 162.003 141.407 155 134.042 155C128.15 155 126.198 159.95 126 162.425Z" fill="black"/>
<path d="M126 100V68C118.019 68.2994 117.671 75.0487 118.495 78.386C116.939 78.1365 113.296 78.4608 111.172 81.7544C109.049 85.048 110.288 88.616 111.172 89.9883C111.752 91.3918 113.992 94.1988 118.312 94.1988C122.632 94.1988 124.871 90.8928 125.451 89.2398C125.42 89.5517 125.14 90.9801 124.261 94.1988C123.382 97.4175 120.417 99.4074 119.044 100H126Z" fill="black"/>
<path d="M126 100V68C133.981 68.2994 134.329 75.0487 133.505 78.386C135.061 78.1365 138.704 78.4608 140.828 81.7544C142.951 85.048 141.712 88.616 140.828 89.9883C140.248 91.3918 138.008 94.1988 133.688 94.1988C129.368 94.1988 127.129 90.8928 126.549 89.2398C126.58 89.5517 126.86 90.9801 127.739 94.1988C128.618 97.4175 131.583 99.4074 132.956 100H126Z" fill="black"/>
<path d="M252 168L210 210L168 168L126 210L84 168L126 126L84 84L126 42L168 84L210 42L252 84" stroke="black"/>
</svg>
