<svg width="36" height="36" viewBox="0 0 36 36" fill="none" xmlns="http://www.w3.org/2000/svg">
<path d="M18 24.4918L13.8689 22.1312L18 29.5082V24.4918Z" fill="#FBC509"/>
<path d="M18 24.4918L22.1312 22.1312L18 29.5082V24.4918Z" fill="#FBC509"/>
<mask id="mask0" mask-type="alpha" maskUnits="userSpaceOnUse" x="0" y="0" width="36" height="36">
<path fill-rule="evenodd" clip-rule="evenodd" d="M31.5353 29.8661C34.3149 26.698 36 22.5458 36 18C36 13.4542 34.3149 9.30202 31.5353 6.13395L27.9777 9.69162C29.8545 11.9431 30.9836 14.8397 30.9836 18C30.9836 21.1603 29.8545 24.057 27.9776 26.3084L31.5353 29.8661ZM29.8661 31.5353L26.3084 27.9777C24.0569 29.8545 21.1603 30.9836 18 30.9836C14.8397 30.9836 11.9431 29.8545 9.69165 27.9776L6.13395 31.5353C9.30202 34.3149 13.4542 36 18 36C22.5458 36 26.698 34.3149 29.8661 31.5353ZM29.8661 4.46471L26.3084 8.02238C24.057 6.14552 21.1604 5.01639 18 5.01639C14.8397 5.01639 11.9431 6.14553 9.6916 8.0224L6.1339 4.4647C9.30198 1.68509 13.4542 0 18 0C22.5458 0 26.698 1.6851 29.8661 4.46471ZM4.46467 6.13394C1.68508 9.30201 0 13.4542 0 18C0 22.5458 1.6851 26.698 4.46471 29.8661L8.02241 26.3084C6.14556 24.0569 5.01642 21.1603 5.01642 18C5.01642 14.8397 6.14554 11.9431 8.02237 9.69164L4.46467 6.13394Z" fill="#C4C4C4"/>
</mask>
<g mask="url(#mask0)">
<rect width="36" height="36" fill="white"/>
<path d="M26.4098 27.1475L31.1312 32.0164L21.9836 36.7377H13.4262L5.16394 32.0164L9.29509 27.1475L18 30.3934L26.4098 27.1475Z" fill="#FBC509"/>
<path d="M8.48352 26.3361L3.61467 31.0574L-1.10664 21.9098L-1.10664 13.3524L3.61467 5.09015L8.48352 9.2213L5.23762 17.9262L8.48352 26.3361Z" fill="#BEBEBE"/>
<path d="M27.5165 9.81147L32.3853 5.09016L37.1066 14.2377L37.1066 22.7951L32.3853 31.0574L27.5165 26.9262L30.7624 18.2213L27.5165 9.81147Z" fill="#D80027"/>
<path d="M9.59016 9L4.86885 4.13115L14.0164 -0.590163L22.5738 -0.590163L30.8361 4.13115L26.7049 9L18 5.7541L9.59016 9Z" fill="#2942C2"/>
</g>
</svg>
