<svg width="44" height="44" viewBox="0 0 44 44" fill="none" xmlns="http://www.w3.org/2000/svg">
<g filter="url(#filter0_d)">
<rect x="4" width="36" height="36" rx="18" fill="#344E72"/>
<g clip-path="url(#clip0)">
<path d="M33.1474 9.31073C32.6318 9.26372 32.1757 9.64364 32.1287 10.1593L32.0045 11.5219C29.897 8.21222 26.2387 6 21.9999 6C17.4398 6 13.4212 8.60259 11.4263 12.5088C11.1908 12.9699 11.3737 13.5346 11.8348 13.7701C12.296 14.0056 12.8606 13.8227 13.0961 13.3616C14.7844 10.0558 18.1747 7.875 21.9999 7.875C25.4863 7.875 28.6326 9.69052 30.4352 12.5347L29.0984 11.58C28.6771 11.2792 28.0915 11.3767 27.7907 11.7981C27.4898 12.2194 27.5874 12.8049 28.0087 13.1058L32.0622 16.0009C32.6563 16.4244 33.4757 16.0367 33.5407 15.3231L33.9959 10.3295C34.0429 9.81384 33.6631 9.35775 33.1474 9.31073Z" fill="white"/>
<path d="M32.1653 22.2299C31.7041 21.9944 31.1395 22.1773 30.904 22.6384C29.2157 25.9442 25.8253 28.125 22.0002 28.125C18.5138 28.125 15.3674 26.3094 13.5649 23.4652L14.9016 24.4199C15.323 24.7208 15.9085 24.6232 16.2094 24.2019C16.5103 23.7805 16.4127 23.1951 15.9914 22.8941L11.9379 19.9991C11.351 19.5798 10.525 19.9559 10.4594 20.6768L10.0042 25.6704C9.95716 26.1861 10.3371 26.6422 10.8527 26.6892C11.3689 26.7361 11.8244 26.3558 11.8714 25.8406L11.9956 24.478C14.103 27.7877 17.7613 30 22.0002 30C26.5602 30 30.5789 27.3974 32.5738 23.4912C32.8093 23.0301 32.6264 22.4654 32.1653 22.2299Z" fill="white"/>
</g>
<path d="M21.6143 21H16.7412V20.0332L19.041 17.582C19.3568 17.237 19.5895 16.9359 19.7393 16.6787C19.8923 16.4215 19.9688 16.1774 19.9688 15.9463C19.9688 15.6305 19.889 15.3831 19.7295 15.2041C19.57 15.0218 19.3421 14.9307 19.0459 14.9307C18.7269 14.9307 18.4746 15.0413 18.2891 15.2627C18.1068 15.4808 18.0156 15.7689 18.0156 16.127H16.5996C16.5996 15.694 16.7021 15.2985 16.9072 14.9404C17.1156 14.5824 17.4085 14.3024 17.7861 14.1006C18.1637 13.8955 18.5918 13.793 19.0703 13.793C19.8027 13.793 20.3708 13.9688 20.7744 14.3203C21.1813 14.6719 21.3848 15.1683 21.3848 15.8096C21.3848 16.1611 21.2936 16.5192 21.1113 16.8838C20.929 17.2484 20.6165 17.6732 20.1738 18.1582L18.5576 19.8623H21.6143V21ZM27.2686 18.0605C27.2686 19.0436 27.0651 19.7956 26.6582 20.3164C26.2513 20.8372 25.6556 21.0977 24.8711 21.0977C24.0964 21.0977 23.5039 20.8421 23.0938 20.3311C22.6836 19.82 22.4736 19.0876 22.4639 18.1338V16.8252C22.4639 15.8324 22.6689 15.0788 23.0791 14.5645C23.4925 14.0501 24.0866 13.793 24.8613 13.793C25.6361 13.793 26.2285 14.0485 26.6387 14.5596C27.0488 15.0674 27.2588 15.7982 27.2686 16.752V18.0605ZM25.8574 16.625C25.8574 16.0358 25.776 15.6077 25.6133 15.3408C25.4538 15.0706 25.2031 14.9355 24.8613 14.9355C24.5293 14.9355 24.2835 15.0641 24.124 15.3213C23.9678 15.5752 23.8848 15.974 23.875 16.5176V18.2461C23.875 18.8255 23.9531 19.2568 24.1094 19.54C24.2689 19.82 24.5228 19.96 24.8711 19.96C25.2161 19.96 25.4652 19.8249 25.6182 19.5547C25.7712 19.2845 25.8509 18.8711 25.8574 18.3145V16.625Z" fill="white"/>
</g>
<defs>
<filter id="filter0_d" x="0" y="0" width="44" height="44" filterUnits="userSpaceOnUse" color-interpolation-filters="sRGB">
<feFlood flood-opacity="0" result="BackgroundImageFix"/>
<feColorMatrix in="SourceAlpha" type="matrix" values="0 0 0 0 0 0 0 0 0 0 0 0 0 0 0 0 0 0 127 0"/>
<feOffset dy="4"/>
<feGaussianBlur stdDeviation="2"/>
<feColorMatrix type="matrix" values="0 0 0 0 0 0 0 0 0 0 0 0 0 0 0 0 0 0 0.25 0"/>
<feBlend mode="normal" in2="BackgroundImageFix" result="effect1_dropShadow"/>
<feBlend mode="normal" in="SourceGraphic" in2="effect1_dropShadow" result="shape"/>
</filter>
<clipPath id="clip0">
<rect width="24" height="24" fill="white" transform="translate(10 6)"/>
</clipPath>
</defs>
</svg>
